<svg width="16" height="13" viewBox="0 0 16 13" fill="none" xmlns="http://www.w3.org/2000/svg">
<path d="M15.0571 0.72506C14.4518 1.08406 13.7899 1.33762 13.0996 1.47504C12.5118 0.862668 11.6985 0.518359 10.8496 0.522549C9.17535 0.50998 7.8034 1.84841 7.77465 3.52252C7.77536 3.75494 7.80301 3.98652 7.85715 4.21249C5.3913 4.09609 3.08833 2.94734 1.51213 1.04752C1.24252 1.50179 1.09763 2.01928 1.09215 2.54754C1.09221 3.56609 1.60906 4.51497 2.46468 5.06753C1.97606 5.05161 1.49808 4.92057 1.06966 4.685V4.72251C1.06476 6.1854 2.10078 7.44507 3.53718 7.72248C3.27299 7.79293 3.00061 7.82818 2.7272 7.82747C2.53345 7.82818 2.34009 7.81065 2.1497 7.77494C2.56381 9.01412 3.71578 9.85626 5.02218 9.87496C3.93363 10.718 2.59655 11.1769 1.2197 11.1799C0.969045 11.1796 0.71858 11.1646 0.469727 11.1349C1.88112 12.0278 3.51713 12.5012 5.18724 12.4999C9.94988 12.5869 13.8813 8.79653 13.9683 4.03389C13.9692 3.98342 13.9698 3.93296 13.9698 3.88243C13.9698 3.75494 13.9698 3.61991 13.9698 3.49242C14.5581 3.0622 15.0658 2.53162 15.4698 1.92492C14.9066 2.17113 14.3102 2.33284 13.6998 2.4049C14.3422 2.02972 14.8251 1.43211 15.0571 0.72506Z" fill="#193D4D"/>
</svg>
