<svg width="13" height="13" viewBox="0 0 13 13" fill="none" xmlns="http://www.w3.org/2000/svg">
<path d="M3.2197 4.25H0.219727V12.5H3.2197V4.25Z" fill="#193D4D"/>
<path d="M1.71974 3.50004C2.54818 3.50004 3.21976 2.82845 3.21976 2.00002C3.21976 1.17158 2.54818 0.5 1.71974 0.5C0.891308 0.5 0.219727 1.17158 0.219727 2.00002C0.219727 2.82845 0.891308 3.50004 1.71974 3.50004Z" fill="#193D4D"/>
<path d="M10.2397 4.25C7.98969 4.25 7.7197 5.58502 7.7197 5.58502V4.25H4.71973V12.5H7.7197V8.00001C7.7197 8.00001 7.7197 6.49999 8.99471 6.49999C9.74469 6.49999 9.96969 7.17501 9.96969 8.00001V12.5H12.9697V8.00001C12.9697 5.6525 11.9497 4.25 10.2397 4.25Z" fill="#193D4D"/>
</svg>
