<svg width="14" height="13" viewBox="0 0 14 13" fill="none" xmlns="http://www.w3.org/2000/svg">
<path d="M7.21987 4.02539C5.8553 4.02539 4.74512 5.13552 4.74512 6.50006C4.74512 7.86461 5.8553 8.97473 7.21987 8.97473C8.58443 8.97473 9.69461 7.86461 9.69461 6.50006C9.69461 5.13552 8.58443 4.02539 7.21987 4.02539Z" fill="#193D4D"/>
<path d="M10.2793 0H4.16016C2.2631 0 0.719727 1.54337 0.719727 3.44043V9.55957C0.719727 11.4566 2.2631 13 4.16016 13H10.2793C12.1764 13 13.7197 11.4566 13.7197 9.55957V3.44043C13.7197 1.54337 12.1764 0 10.2793 0ZM7.21983 9.73639C5.43525 9.73639 3.98336 8.28455 3.98336 6.5C3.98336 4.71545 5.43525 3.26361 7.21983 3.26361C9.00441 3.26361 10.4563 4.71545 10.4563 6.5C10.4563 8.28455 9.00441 9.73639 7.21983 9.73639ZM11.1098 3.14877C11.039 3.21961 10.9407 3.26026 10.8404 3.26026C10.7404 3.26026 10.6421 3.21961 10.571 3.14877C10.5002 3.07767 10.4598 2.97941 10.4598 2.8794C10.4598 2.77911 10.5002 2.68107 10.571 2.61C10.6422 2.53916 10.7401 2.49854 10.8404 2.49854C10.9407 2.49854 11.039 2.53916 11.1098 2.61C11.1807 2.6811 11.2213 2.77911 11.2213 2.8794C11.2213 2.97967 11.1807 3.07767 11.1098 3.14877Z" fill="#193D4D"/>
</svg>
