<svg width="20" height="20" viewBox="0 0 20 20" fill="none" xmlns="http://www.w3.org/2000/svg">
<path d="M19.7875 7.92951L15.4049 12.2016L16.4399 18.2355C16.4849 18.4994 16.3765 18.766 16.1598 18.9236C16.0374 19.013 15.8918 19.058 15.7461 19.058C15.6343 19.058 15.5217 19.0313 15.419 18.9771L10 16.1283L4.58174 18.9764C4.34534 19.1016 4.05757 19.0812 3.84087 18.9229C3.62417 18.7653 3.51582 18.4987 3.56085 18.2348L4.59581 12.2009L0.212514 7.92951C0.0211408 7.74236 -0.0485135 7.46233 0.0345088 7.20834C0.117531 6.95435 0.337751 6.7679 0.603001 6.7292L6.66011 5.84973L9.36889 0.360408C9.606 -0.120136 10.394 -0.120136 10.6311 0.360408L13.3399 5.84973L19.397 6.7292C19.6622 6.7679 19.8825 6.95365 19.9655 7.20834C20.0485 7.46304 19.9789 7.74165 19.7875 7.92951Z" fill="#FFC107"/>
</svg>
