<svg width="67" height="67" viewBox="0 0 67 67" fill="none" xmlns="http://www.w3.org/2000/svg">
<path d="M0.263147 64.1188C0.190509 64.477 0.209353 64.8478 0.317939 65.1968C0.426525 65.5458 0.621347 65.8618 0.884397 66.1157C1.08236 66.329 1.32286 66.4985 1.59038 66.6131C1.8579 66.7278 2.14649 66.7851 2.43752 66.7813C2.58682 66.7885 2.73637 66.7736 2.88127 66.7369L19.1225 63.4975C23.6054 65.6643 28.521 66.787 33.5 66.7813C40.0824 66.7813 46.517 64.8294 51.9901 61.1724C57.4632 57.5154 61.7289 52.3176 64.2479 46.2362C66.7669 40.1549 67.4259 33.4631 66.1418 27.0072C64.8576 20.5512 61.6879 14.6211 57.0334 9.96662C52.379 5.31215 46.4488 2.14242 39.9929 0.858255C33.5369 -0.42591 26.8452 0.233171 20.7638 2.75215C14.6825 5.27113 9.48466 9.53687 5.82767 15.0099C2.17068 20.483 0.218772 26.9176 0.218772 33.5C0.213032 38.4791 1.33573 43.3947 3.50252 47.8775L0.263147 64.1188ZM18.6189 31.9314C19.0349 31.5154 19.5992 31.2817 20.1875 31.2817C20.7759 31.2817 21.3401 31.5154 21.7562 31.9314L29.0625 39.2377L45.2439 23.0564C45.6623 22.6522 46.2228 22.4286 46.8045 22.4336C47.3863 22.4387 47.9428 22.672 48.3541 23.0834C48.7655 23.4948 48.9989 24.0513 49.0039 24.633C49.009 25.2148 48.7853 25.7752 48.3812 26.1937L30.6312 43.9437C30.2151 44.3596 29.6509 44.5933 29.0625 44.5933C28.4742 44.5933 27.9099 44.3596 27.4939 43.9437L18.6189 35.0687C18.2029 34.6526 17.9692 34.0884 17.9692 33.5C17.9692 32.9117 18.2029 32.3474 18.6189 31.9314Z" fill="white"/>
</svg>
