<?xml version="1.0" standalone="no"?>
<!DOCTYPE svg PUBLIC "-//W3C//DTD SVG 1.1//EN" "http://www.w3.org/Graphics/SVG/1.1/DTD/svg11.dtd" >
<svg xmlns="http://www.w3.org/2000/svg" xmlns:xlink="http://www.w3.org/1999/xlink" version="1.1">
<metadata>
Created by FontForge 20170812 at Fri Dec 10 14:17:08 2010
 By www-data
(c) Copyright 2006, 2008 Berthold LLC. All Rights Reserved. This font software computer program is the property of Berthold. You may not reproduce, modify, adapt, translate, alter nor create derivative works of the font software. You may not reverse engineer, decompile, decrypt, disassemble, nor seek to discover the source code of the font software.
</metadata>
<defs>
<font id="AGBookPro-Light" horiz-adv-x="542" >
  <font-face 
    font-family="AG Book Pro Light"
    font-weight="300"
    font-stretch="normal"
    units-per-em="1000"
    panose-1="2 0 5 3 4 0 0 2 0 4"
    ascent="750"
    descent="-250"
    x-height="517"
    cap-height="706"
    bbox="-159 -267 1162 998"
    underline-thickness="50"
    underline-position="-100"
    stemh="48"
    stemv="66"
    unicode-range="U+0020-FB04"
  />
<missing-glyph horiz-adv-x="500" 
d="M0 0v706h500v-706h-500zM250 401l170 255h-340zM280 353l170 -258v516zM80 50h340l-170 258zM50 611v-516l170 258z" />
    <glyph glyph-name="fi" unicode="fi" horiz-adv-x="479" 
d="M342 517h66v-517h-66v517zM342 616v90h66v-90h-66zM12 517h68v33c0 67 3 106 35 136c28 25 65 29 91 29c8 0 21 -1 39 -4v-53h-20c-76 0 -79 -38 -79 -106v-35h99v-56h-99v-461h-66v461h-68v56z" />
    <glyph glyph-name="fl" unicode="fl" horiz-adv-x="479" 
d="M408 706v-706h-66v706h66zM12 517h68v33c0 67 3 106 35 136c28 25 65 29 91 29c8 0 21 -1 39 -4v-53h-20c-76 0 -79 -38 -79 -106v-35h99v-56h-99v-461h-66v461h-68v56z" />
    <glyph glyph-name="longs_i" unicode="&#x17f;i" horiz-adv-x="430" 
d="M73 0v550c0 67 3 106 35 136c28 25 65 29 91 29c8 0 21 -1 39 -4v-53h-20c-76 0 -79 -38 -79 -106v-552h-66zM293 517h66v-517h-66v517zM293 616v90h66v-90h-66z" />
    <glyph glyph-name="longs_longs_i" unicode="&#x17f;&#x17f;i" horiz-adv-x="652" 
d="M73 0v550c0 67 3 106 35 136c28 25 65 29 91 29c8 0 21 -1 39 -4v-53h-20c-76 0 -79 -38 -79 -106v-552h-66zM295 0v550c0 67 3 106 35 136c28 25 65 29 91 29c8 0 21 -1 39 -4v-53h-20c-76 0 -79 -38 -79 -106v-552h-66zM515 517h66v-517h-66v517zM515 616v90h66v-90
h-66z" />
    <glyph glyph-name="longs_l" unicode="&#x17f;l" horiz-adv-x="430" 
d="M73 0v550c0 67 3 106 35 136c28 25 65 29 91 29c8 0 21 -1 39 -4v-53h-20c-76 0 -79 -38 -79 -106v-552h-66zM359 706v-706h-66v706h66z" />
    <glyph glyph-name="longs_longs_l" unicode="&#x17f;&#x17f;l" horiz-adv-x="652" 
d="M73 0v550c0 67 3 106 35 136c28 25 65 29 91 29c8 0 21 -1 39 -4v-53h-20c-76 0 -79 -38 -79 -106v-552h-66zM295 0v550c0 67 3 106 35 136c28 25 65 29 91 29c8 0 21 -1 39 -4v-53h-20c-76 0 -79 -38 -79 -106v-552h-66zM581 706v-706h-66v706h66z" />
    <glyph glyph-name="longs_b" unicode="&#x17f;b" horiz-adv-x="784" 
d="M73 0v550c0 67 3 106 35 136c28 25 65 29 91 29c8 0 21 -1 39 -4v-53h-20c-76 0 -79 -38 -79 -106v-552h-66zM296 706h63v-264c45 56 93 81 166 81c152 0 214 -133 214 -267c0 -141 -61 -265 -219 -265c-74 0 -114 24 -161 78v-69h-63v706zM356 262v-12
c0 -108 41 -207 163 -207c115 0 156 108 156 206c0 103 -34 220 -157 220c-119 0 -162 -103 -162 -207z" />
    <glyph glyph-name="longs_longs_b" unicode="&#x17f;&#x17f;b" horiz-adv-x="1006" 
d="M73 0v550c0 67 3 106 35 136c28 25 65 29 91 29c8 0 21 -1 39 -4v-53h-20c-76 0 -79 -38 -79 -106v-552h-66zM295 0v550c0 67 3 106 35 136c28 25 65 29 91 29c8 0 21 -1 39 -4v-53h-20c-76 0 -79 -38 -79 -106v-552h-66zM518 706h63v-264c45 56 93 81 166 81
c152 0 214 -133 214 -267c0 -141 -61 -265 -219 -265c-74 0 -114 24 -161 78v-69h-63v706zM578 262v-12c0 -108 41 -207 163 -207c115 0 156 108 156 206c0 103 -34 220 -157 220c-119 0 -162 -103 -162 -207z" />
    <glyph glyph-name="longs_h" unicode="&#x17f;h" horiz-adv-x="764" 
d="M73 0v550c0 67 3 106 35 136c28 25 65 29 91 29c8 0 21 -1 39 -4v-53h-20c-76 0 -79 -38 -79 -106v-552h-66zM691 0h-65v311c0 91 -11 159 -122 159c-119 0 -145 -97 -145 -178v-292h-64v706h64v-254c41 53 97 76 163 76c139 0 169 -88 169 -178v-350z" />
    <glyph glyph-name="longs_longs_h" unicode="&#x17f;&#x17f;h" horiz-adv-x="986" 
d="M73 0v550c0 67 3 106 35 136c28 25 65 29 91 29c8 0 21 -1 39 -4v-53h-20c-76 0 -79 -38 -79 -106v-552h-66zM295 0v550c0 67 3 106 35 136c28 25 65 29 91 29c8 0 21 -1 39 -4v-53h-20c-76 0 -79 -38 -79 -106v-552h-66zM913 0h-65v311c0 91 -11 159 -122 159
c-119 0 -145 -97 -145 -178v-292h-64v706h64v-254c41 53 97 76 163 76c139 0 169 -88 169 -178v-350z" />
    <glyph glyph-name="longs_k" unicode="&#x17f;k" horiz-adv-x="701" 
d="M73 0v550c0 67 3 106 35 136c28 25 65 29 91 29c8 0 21 -1 39 -4v-53h-20c-76 0 -79 -38 -79 -106v-552h-66zM295 0v706h65v-448l242 259h83l-198 -210l208 -307h-79l-173 258l-83 -83v-175h-65z" />
    <glyph glyph-name="longs_longs_k" unicode="&#x17f;&#x17f;k" horiz-adv-x="923" 
d="M73 0v550c0 67 3 106 35 136c28 25 65 29 91 29c8 0 21 -1 39 -4v-53h-20c-76 0 -79 -38 -79 -106v-552h-66zM295 0v550c0 67 3 106 35 136c28 25 65 29 91 29c8 0 21 -1 39 -4v-53h-20c-76 0 -79 -38 -79 -106v-552h-66zM517 0v706h65v-448l242 259h83l-198 -210
l208 -307h-79l-173 258l-83 -83v-175h-65z" />
    <glyph glyph-name="longs_longs" unicode="&#x17f;&#x17f;" horiz-adv-x="444" 
d="M73 0v550c0 67 3 106 35 136c28 25 65 29 91 29c8 0 21 -1 39 -4v-53h-20c-76 0 -79 -38 -79 -106v-552h-66zM295 0v550c0 67 3 106 35 136c28 25 65 29 91 29c8 0 21 -1 39 -4v-53h-20c-76 0 -79 -38 -79 -106v-552h-66z" />
    <glyph glyph-name="f_f_i" unicode="ffi" horiz-adv-x="750" 
d="M12 517h68v33c0 67 3 106 35 136c28 25 65 29 91 29c8 0 21 -1 39 -4v-53h-20c-76 0 -79 -38 -79 -106v-35h97v-56h-97v-461h-66v461h-68v56zM613 517h66v-517h-66v517zM613 616v90h66v-90h-66zM285 517h66v33c0 67 3 106 35 136c28 25 65 29 91 29c8 0 21 -1 39 -4v-53
h-20c-76 0 -79 -38 -79 -106v-35h99v-56h-99v-461h-66v461h-66v56z" />
    <glyph glyph-name="f_f_l" unicode="ffl" horiz-adv-x="750" 
d="M12 517h68v33c0 67 3 106 35 136c28 25 65 29 91 29c8 0 21 -1 39 -4v-53h-20c-76 0 -79 -38 -79 -106v-35h97v-56h-97v-461h-66v461h-68v56zM679 706v-706h-66v706h66zM285 517h66v33c0 67 3 106 35 136c28 25 65 29 91 29c8 0 21 -1 39 -4v-53h-20
c-76 0 -79 -38 -79 -106v-35h99v-56h-99v-461h-66v461h-66v56z" />
    <glyph glyph-name="f_f" unicode="ff" 
d="M12 517h68v33c0 67 3 106 35 136c28 25 65 29 91 29c8 0 21 -1 39 -4v-53h-20c-76 0 -79 -38 -79 -106v-35h97v-56h-97v-461h-66v461h-68v56zM285 517h66v33c0 67 3 106 35 136c28 25 65 29 91 29c8 0 21 -1 39 -4v-53h-20c-76 0 -79 -38 -79 -106v-35h99v-56h-99v-461
h-66v461h-66v56z" />
    <glyph glyph-name=".notdef" horiz-adv-x="500" 
d="M0 0v706h500v-706h-500zM250 401l170 255h-340zM280 353l170 -258v516zM80 50h340l-170 258zM50 611v-516l170 258z" />
    <glyph glyph-name="space" unicode=" " horiz-adv-x="292" 
 />
    <glyph glyph-name="exclam" unicode="!" horiz-adv-x="250" 
d="M107 0v95h77v-95h-77zM112 706h68v-262l-16 -247h-32l-20 247v262z" />
    <glyph glyph-name="quotedbl" unicode="&#x22;" horiz-adv-x="349" 
d="M105 417h-29l-26 289h81zM274 417h-30l-26 289h81z" />
    <glyph glyph-name="numbersign" unicode="#" horiz-adv-x="662" 
d="M398 0h-53l36 250h-121l-37 -250h-51l36 250h-145v54h152l15 115h-142v54h149l34 233h51l-33 -233h122l33 233h52l-33 -233h136v-54h-142l-17 -115h136v-54h-142zM388 304l17 115h-123l-16 -115h122z" />
    <glyph glyph-name="dollar" unicode="$" horiz-adv-x="538" 
d="M258 779h46v-86c112 -11 167 -69 185 -179l-65 -7c-10 66 -47 125 -120 127v-246l25 -10c91 -34 165 -79 165 -189c0 -115 -84 -176 -190 -186v-87h-46v87c-115 2 -200 95 -205 211l63 9c9 -86 56 -154 142 -159v271c-95 39 -169 80 -169 184c0 105 68 166 169 174v86z
M258 406v229c-15 -2 -31 -5 -46 -12c-39 -19 -58 -54 -58 -100c0 -64 49 -97 104 -117zM304 317v-251c71 4 125 48 125 124c0 77 -60 104 -125 127z" />
    <glyph glyph-name="percent" unicode="%" horiz-adv-x="833" 
d="M578 694l-270 -694h-55c90 231 182 462 271 694h54zM330 466c0 -101 -33 -223 -153 -223c-124 0 -151 133 -151 233c0 102 31 225 154 225c126 0 150 -134 150 -235zM276 466c0 68 -8 186 -100 186c-91 0 -96 -117 -96 -183c0 -69 11 -178 100 -178c86 0 96 110 96 175z
M807 216c0 -101 -33 -223 -153 -223c-124 0 -151 133 -151 233c0 102 31 225 154 225c126 0 150 -134 150 -235zM753 216c0 68 -8 186 -100 186c-91 0 -96 -117 -96 -183c0 -69 11 -178 100 -178c86 0 96 110 96 175z" />
    <glyph glyph-name="ampersand" unicode="&#x26;" horiz-adv-x="625" 
d="M505 320l66 -3c-8 -71 -38 -155 -86 -209c21 -33 51 -49 90 -49c12 0 23 2 33 3l-3 -58c-16 -3 -30 -5 -46 -5c-58 0 -83 21 -119 62c-60 -42 -97 -67 -174 -67c-98 0 -174 46 -205 142c-6 19 -9 40 -9 60c0 112 64 156 144 215c-31 51 -59 97 -59 159
c0 85 61 133 142 133c85 0 135 -54 135 -137c0 -90 -64 -124 -129 -171l160 -232c37 44 49 102 60 157zM248 445c48 29 100 59 100 123c0 42 -27 74 -70 74c-45 0 -75 -34 -75 -78c0 -35 24 -91 45 -119zM401 110l-173 248c-60 -45 -110 -80 -110 -163
c0 -87 60 -141 146 -141c57 0 94 22 137 56z" />
    <glyph glyph-name="quotesingle" unicode="'" horiz-adv-x="181" 
d="M105 417h-29l-26 289h81z" />
    <glyph glyph-name="parenleft" unicode="(" horiz-adv-x="331" 
d="M232 766h52c-35 -60 -45 -78 -63 -115c-57 -120 -84 -237 -84 -367c0 -171 46 -320 145 -471h-55c-38 56 -50 77 -74 125c-58 115 -88 235 -88 350c0 108 27 222 77 327c25 51 41 79 90 151z" />
    <glyph glyph-name="parenright" unicode=")" horiz-adv-x="331" 
d="M100 -187h-53c36 61 46 79 63 115c58 119 85 236 85 366c0 172 -46 319 -146 471h56c38 -56 50 -77 74 -124c58 -115 88 -235 88 -350c0 -108 -27 -222 -78 -327c-24 -51 -41 -79 -89 -151z" />
    <glyph glyph-name="asterisk" unicode="*" horiz-adv-x="375" 
d="M27 573l17 52l118 -40l-7 121h58v-121l116 40l19 -52l-119 -40l75 -109l-45 -30l-74 107l-70 -107l-44 30l74 109z" />
    <glyph glyph-name="plus" unicode="+" horiz-adv-x="731" 
d="M397 36h-62v241h-241v60h240v241h63v-241h240v-60h-240v-241z" />
    <glyph glyph-name="comma" unicode="," horiz-adv-x="208" 
d="M65 98h79v-78c0 -48 -2 -127 -77 -145v46c24 17 27 46 27 64v15h-29v98z" />
    <glyph glyph-name="hyphen" unicode="-" horiz-adv-x="321" 
d="M34 318h253v-55h-253v55z" />
    <glyph glyph-name="period" unicode="." horiz-adv-x="208" 
d="M64 0v100h81v-100h-81z" />
    <glyph glyph-name="slash" unicode="/" horiz-adv-x="333" 
d="M35 0l204 706h59l-200 -706h-63z" />
    <glyph glyph-name="zero" unicode="0" horiz-adv-x="562" 
d="M512 343c0 -154 -44 -349 -234 -349c-198 0 -234 202 -234 359c0 153 47 346 237 346c194 0 231 -203 231 -356zM444 358c0 108 -21 282 -163 282c-153 0 -169 -183 -169 -294c0 -113 15 -295 167 -295c151 0 165 193 165 307z" />
    <glyph glyph-name="one" unicode="1" horiz-adv-x="562" 
d="M343 0h-67v509h-151v53c74 6 149 22 173 132h45v-694z" />
    <glyph glyph-name="two" unicode="2" horiz-adv-x="562" 
d="M488 58v-58h-437v65l147 130c37 33 74 65 109 100c58 57 118 123 118 210c0 80 -55 135 -135 135c-107 0 -145 -96 -145 -188l-69 6c0 134 64 243 211 243c123 0 204 -73 204 -198c0 -128 -105 -221 -197 -302l-163 -143h357z" />
    <glyph glyph-name="three" unicode="3" horiz-adv-x="562" 
d="M237 338v57c71 0 173 20 173 123c0 78 -62 123 -135 123c-87 0 -137 -67 -142 -148l-68 8c4 31 10 66 25 94c37 70 112 106 189 106c105 0 198 -63 198 -176c0 -69 -31 -130 -101 -151c80 -26 129 -93 129 -176c0 -121 -94 -204 -228 -204c-135 0 -224 82 -235 217l70 4
c8 -100 60 -163 165 -163c92 0 159 54 159 148s-76 138 -162 138h-37z" />
    <glyph glyph-name="four" unicode="4" horiz-adv-x="562" 
d="M45 166v58l321 469h47v-469h99v-58h-99v-166h-67v166h-301zM111 224h235c1 86 5 356 5 356z" />
    <glyph glyph-name="five" unicode="5" horiz-adv-x="562" 
d="M468 632h-281l-37 -222c41 32 93 50 145 50c129 0 207 -103 207 -226c0 -135 -88 -240 -227 -240c-121 0 -201 69 -215 191l64 9c9 -85 57 -142 145 -142c102 0 167 80 167 178c0 93 -61 171 -159 171c-56 0 -113 -30 -142 -79h-57l57 371h333v-61z" />
    <glyph glyph-name="six" unicode="6" horiz-adv-x="562" 
d="M493 522l-66 -5c-12 73 -58 129 -136 129c-142 0 -161 -174 -167 -280c43 53 101 80 169 80c128 0 207 -102 207 -224c0 -115 -67 -228 -211 -228c-189 0 -232 173 -232 327c0 159 44 382 242 382c106 0 183 -76 194 -181zM433 220c0 91 -53 167 -150 167
c-94 0 -152 -73 -152 -164c0 -95 56 -172 157 -172c97 0 145 80 145 169z" />
    <glyph glyph-name="seven" unicode="7" horiz-adv-x="562" 
d="M510 692v-53c-29 -38 -58 -75 -84 -115c-101 -153 -169 -341 -183 -524h-81c31 228 129 431 270 633h-348v59h426z" />
    <glyph glyph-name="eight" unicode="8" horiz-adv-x="562" 
d="M389 382c81 -29 125 -97 125 -182c0 -137 -106 -206 -233 -206c-128 0 -231 75 -231 210c0 80 39 155 120 178c-60 23 -91 85 -91 147c0 123 87 176 203 176c114 0 203 -55 203 -177c0 -66 -33 -122 -96 -146zM420 528c0 79 -61 119 -135 119c-76 0 -142 -32 -142 -116
c0 -82 62 -122 139 -122c84 0 138 46 138 119zM449 200c0 105 -73 150 -169 150c-99 0 -164 -47 -164 -149c0 -96 71 -148 163 -148c94 0 170 45 170 147z" />
    <glyph glyph-name="nine" unicode="9" horiz-adv-x="562" 
d="M70 175l66 5c11 -74 57 -130 136 -130c142 0 161 174 166 281c-43 -54 -99 -81 -168 -81c-129 0 -207 101 -207 224c0 131 81 229 215 229c182 0 228 -174 228 -324c0 -160 -39 -385 -242 -385c-107 0 -183 76 -194 181zM431 474c0 96 -56 171 -157 171
c-97 0 -145 -79 -145 -168c0 -91 54 -168 151 -168c102 0 151 84 151 165z" />
    <glyph glyph-name="colon" unicode=":" horiz-adv-x="250" 
d="M107 371v100h81v-100h-81zM107 0v100h81v-100h-81z" />
    <glyph glyph-name="semicolon" unicode=";" horiz-adv-x="250" 
d="M108 369v100h78v-100h-78zM107 98h79v-78c0 -48 -2 -127 -77 -145v46c24 17 27 46 27 64v15h-29v98z" />
    <glyph glyph-name="less" unicode="&#x3c;" horiz-adv-x="731" 
d="M585 35l-469 229v65l469 234v-68l-400 -197l400 -194v-69z" />
    <glyph glyph-name="equal" unicode="=" horiz-adv-x="731" 
d="M636 365h-541v61h541v-61zM636 179h-541v62h541v-62z" />
    <glyph glyph-name="greater" unicode="&#x3e;" horiz-adv-x="731" 
d="M145 563l469 -230v-65l-469 -233v67l400 197l-400 194v70z" />
    <glyph glyph-name="question" unicode="?" horiz-adv-x="479" 
d="M265 193h-64v52c0 79 15 99 70 143c50 40 103 81 103 154c0 69 -47 114 -116 114c-75 0 -108 -55 -113 -124l-67 5c8 105 69 176 180 176c105 0 181 -63 181 -172c0 -99 -49 -132 -112 -193c-36 -35 -62 -60 -62 -114v-41zM272 0h-76v93h76v-93z" />
    <glyph glyph-name="at" unicode="@" horiz-adv-x="892" 
d="M576 520h53l-33 -189c-4 -25 -11 -71 -11 -98c0 -41 12 -75 56 -75c76 0 146 118 146 248c0 177 -106 282 -285 282c-223 0 -389 -172 -389 -405c0 -200 136 -333 340 -333c116 0 209 31 296 101l28 -40c-92 -74 -204 -111 -328 -111c-231 0 -391 157 -391 382
c0 262 186 451 443 451c209 0 339 -125 339 -324c0 -161 -98 -299 -212 -299c-59 0 -92 34 -94 97c-41 -69 -83 -97 -148 -97c-84 0 -134 58 -134 157c0 143 96 260 214 260c50 0 79 -17 100 -61zM547 381c0 63 -29 100 -79 100c-88 0 -159 -102 -159 -213
c0 -69 33 -110 88 -110c81 0 150 102 150 223z" />
    <glyph glyph-name="A" unicode="A" horiz-adv-x="604" 
d="M13 0l259 706h57l263 -706h-70l-83 224h-279l-78 -224h-69zM182 282h236c-87 245 -117 338 -117 338z" />
    <glyph glyph-name="B" unicode="B" horiz-adv-x="604" 
d="M82 706h212c73 0 153 -3 203 -63c27 -32 38 -70 38 -112c0 -78 -37 -139 -113 -161c89 -20 141 -84 141 -175c0 -152 -111 -195 -263 -195h-218v706zM151 648v-249h143c79 0 173 13 173 125c0 48 -21 90 -66 110c-30 13 -90 14 -135 14h-115zM151 340v-281h141
c107 0 200 16 200 139c0 121 -108 142 -206 142h-135z" />
    <glyph glyph-name="C" unicode="C" horiz-adv-x="667" 
d="M562 219l70 -11c-30 -142 -134 -220 -278 -220c-212 0 -302 173 -302 364c0 300 189 367 307 367c137 0 242 -83 263 -219l-71 -12c-15 102 -91 169 -195 169c-169 0 -231 -156 -231 -302c0 -148 62 -306 232 -306c106 0 190 63 205 170z" />
    <glyph glyph-name="D" unicode="D" horiz-adv-x="667" 
d="M82 706h150c93 0 203 -7 278 -67c82 -66 105 -185 105 -285c0 -138 -46 -288 -190 -335c-54 -18 -126 -19 -183 -19h-160v706zM151 648v-588h136c194 0 261 124 261 300c0 200 -94 288 -287 288h-110z" />
    <glyph glyph-name="E" unicode="E" horiz-adv-x="583" 
d="M548 59v-59h-466v706h455v-60h-386v-255h362v-59h-362v-273h397z" />
    <glyph glyph-name="F" unicode="F" horiz-adv-x="521" 
d="M477 390v-59h-327v-331h-69v706h432v-59h-363v-257h327z" />
    <glyph glyph-name="G" unicode="G" horiz-adv-x="729" 
d="M649 0h-48l-12 99c-67 -77 -126 -110 -231 -110c-211 0 -304 174 -304 363c0 200 104 366 314 366c133 0 254 -73 274 -223l-71 -9c-16 108 -94 172 -201 172c-175 0 -247 -148 -247 -305s72 -305 247 -305c83 0 171 49 202 128c15 37 17 76 17 116h-218v60h278v-352z
" />
    <glyph glyph-name="H" unicode="H" horiz-adv-x="688" 
d="M606 706v-706h-69v329h-386v-329h-69v706h69v-317h386v317h69z" />
    <glyph glyph-name="I" unicode="I" horiz-adv-x="229" 
d="M81 0v706h68v-706h-68z" />
    <glyph glyph-name="J" unicode="J" horiz-adv-x="437" 
d="M293 706h68v-522c0 -112 -47 -187 -170 -187c-129 0 -177 76 -177 194v11l66 4v-19c0 -72 30 -134 111 -134c100 0 102 94 102 169v484z" />
    <glyph glyph-name="K" unicode="K" horiz-adv-x="625" 
d="M318 417l313 -417h-86l-275 373l-120 -118v-255h-69v706h69v-372l367 372h86z" />
    <glyph glyph-name="L" unicode="L" 
d="M503 59v-59h-421v706h68v-647h353z" />
    <glyph glyph-name="M" unicode="M" horiz-adv-x="812" 
d="M732 0h-66s0 475 3 627l-234 -627h-54l-237 624c2 -127 2 -624 2 -624h-66v706h98l230 -618l231 618h93v-706z" />
    <glyph glyph-name="N" unicode="N" horiz-adv-x="688" 
d="M83 0v706h72l389 -605c-3 117 -3 605 -3 605h64v-706h-64l-401 618c7 -143 7 -618 7 -618h-64z" />
    <glyph glyph-name="O" unicode="O" horiz-adv-x="750" 
d="M53 356c0 197 108 361 318 361c213 0 325 -162 325 -362c0 -198 -108 -366 -322 -366c-219 0 -321 165 -321 367zM119 353c0 -169 82 -305 254 -305s255 145 255 303s-80 307 -254 307c-180 0 -255 -143 -255 -305z" />
    <glyph glyph-name="P" unicode="P" horiz-adv-x="562" 
d="M82 706h205c79 0 169 -4 219 -72c29 -39 39 -86 39 -135c0 -178 -121 -208 -268 -208h-127v-291h-68v706zM150 648v-297h139c86 0 188 17 188 149c0 144 -116 148 -203 148h-124z" />
    <glyph glyph-name="Q" unicode="Q" horiz-adv-x="750" 
d="M697 6l-40 -40l-86 86c-53 -46 -132 -63 -201 -63c-216 0 -316 169 -316 367c0 174 85 361 322 361c206 0 322 -161 322 -356c0 -102 -19 -186 -85 -269zM454 171l40 39l72 -72c47 70 63 130 63 216c0 160 -77 304 -256 304c-180 0 -252 -148 -252 -306
c0 -137 67 -304 251 -304c55 0 109 15 153 50z" />
    <glyph glyph-name="R" unicode="R" horiz-adv-x="625" 
d="M82 706h204c96 0 191 -2 241 -97c16 -31 24 -67 24 -102c0 -84 -42 -164 -131 -178c82 -24 97 -55 109 -139c8 -57 16 -141 48 -190h-83c-15 50 -24 98 -32 150c-14 93 -28 153 -181 153h-131v-303h-68v706zM150 648v-286h136c104 0 195 17 195 142
c0 141 -121 144 -201 144h-130z" />
    <glyph glyph-name="S" unicode="S" horiz-adv-x="604" 
d="M63 188l74 9c10 -69 31 -150 174 -150c117 0 161 72 161 136c0 99 -86 125 -158 145l-65 18c-51 14 -162 58 -162 182c0 130 99 189 217 189c121 0 210 -51 229 -187l-72 -7c-1 8 -2 37 -16 64c-31 60 -95 71 -138 71c-65 0 -151 -29 -151 -123c0 -91 88 -115 112 -122
l90 -26c111 -32 183 -80 183 -202c0 -150 -120 -196 -239 -196c-116 0 -223 50 -239 199z" />
    <glyph glyph-name="T" unicode="T" horiz-adv-x="500" 
d="M487 648h-205v-648h-69v648h-203v58h477v-58z" />
    <glyph glyph-name="U" unicode="U" horiz-adv-x="646" 
d="M504 706h67v-420c0 -67 -5 -143 -43 -200c-46 -69 -123 -91 -202 -91c-97 0 -186 37 -225 131c-24 59 -25 127 -25 190v390h68v-394c0 -79 6 -172 66 -218c37 -28 76 -36 121 -36c167 0 173 145 173 274v374z" />
    <glyph glyph-name="V" unicode="V" horiz-adv-x="583" 
d="M10 706h74l207 -612l210 612h72l-251 -706h-62z" />
    <glyph glyph-name="W" unicode="W" horiz-adv-x="917" 
d="M11 706h76l172 -616l158 616h81l160 -620l170 620h78l-213 -706h-71l-164 637l-161 -637h-70z" />
    <glyph glyph-name="X" unicode="X" horiz-adv-x="604" 
d="M569 706l-231 -337l252 -369h-81l-210 316l-206 -316h-81l247 369l-234 337h82l192 -285l188 285h82z" />
    <glyph glyph-name="Y" unicode="Y" horiz-adv-x="562" 
d="M9 706h77l196 -339l196 339h73l-237 -411v-295h-67v295z" />
    <glyph glyph-name="Z" unicode="Z" horiz-adv-x="604" 
d="M33 0v60l446 585h-401v61h487v-61l-449 -585h439v-60h-522z" />
    <glyph glyph-name="bracketleft" unicode="[" horiz-adv-x="314" 
d="M267 -174h-178v929h178v-48h-115v-834h115v-47z" />
    <glyph glyph-name="backslash" unicode="\" horiz-adv-x="333" 
d="M298 0h-62l-201 706h60z" />
    <glyph glyph-name="bracketright" unicode="]" horiz-adv-x="312" 
d="M46 755h178v-929h-178v47h114v835h-114v47z" />
    <glyph glyph-name="asciicircum" unicode="^" horiz-adv-x="731" 
d="M601 295h-67l-167 345l-168 -345h-69l207 411h64z" />
    <glyph glyph-name="underscore" unicode="_" horiz-adv-x="500" 
d="M510 -201h-520v49h520v-49z" />
    <glyph glyph-name="grave" unicode="`" horiz-adv-x="292" 
d="M71 736h94l56 -145h-48z" />
    <glyph glyph-name="a" unicode="a" horiz-adv-x="521" 
d="M487 -2h-12c-48 0 -99 3 -99 75v9c-20 -75 -121 -92 -167 -92c-90 0 -165 47 -165 151c0 114 85 140 165 153l59 10c68 12 107 18 107 69c0 78 -55 100 -118 100c-40 0 -128 -5 -128 -113h-69c12 164 152 165 193 165c142 0 181 -69 181 -146v-264c0 -32 5 -63 53 -63
v-54zM376 222v59c-26 -8 -50 -15 -80 -21l-46 -9c-101 -20 -143 -47 -143 -111c0 -35 20 -98 108 -98c43 0 76 16 93 26c66 40 68 101 68 154z" />
    <glyph glyph-name="b" unicode="b" horiz-adv-x="562" 
d="M74 706h63v-264c45 56 93 81 166 81c152 0 214 -133 214 -267c0 -141 -61 -265 -219 -265c-74 0 -114 24 -161 78v-69h-63v706zM134 262v-12c0 -108 41 -207 163 -207c115 0 156 108 156 206c0 103 -34 220 -157 220c-119 0 -162 -103 -162 -207z" />
    <glyph glyph-name="c" unicode="c" horiz-adv-x="500" 
d="M406 167l64 -12c-25 -99 -96 -164 -200 -164c-158 0 -226 123 -226 267c0 139 74 269 227 269c95 0 179 -60 191 -159l-63 -9c-12 67 -60 115 -129 115c-121 0 -160 -117 -160 -219c0 -98 39 -211 155 -211c80 0 126 47 141 123z" />
    <glyph glyph-name="d" unicode="d" horiz-adv-x="562" 
d="M492 0h-64v69c-46 -52 -89 -78 -161 -78c-153 0 -220 120 -220 259c0 138 57 274 215 274c67 0 125 -25 166 -82v264h64v-706zM430 261c0 107 -41 208 -162 208c-123 0 -158 -117 -158 -220c0 -102 43 -205 161 -205c125 0 159 111 159 217z" />
    <glyph glyph-name="e" unicode="e" 
d="M495 247h-385c0 -108 48 -203 168 -203c64 0 128 37 142 103l66 -11c-27 -98 -108 -147 -207 -147c-169 0 -232 123 -232 273c0 147 74 265 233 265c157 0 215 -128 215 -266v-14zM113 301h314c0 93 -48 172 -149 172s-159 -77 -165 -172z" />
    <glyph glyph-name="f" unicode="f" horiz-adv-x="271" 
d="M12 517h68v33c0 67 3 106 35 136c28 25 65 29 91 29c8 0 21 -1 39 -4v-53h-20c-76 0 -79 -38 -79 -106v-35h99v-56h-99v-461h-66v461h-68v56z" />
    <glyph glyph-name="g" unicode="g" horiz-adv-x="562" 
d="M429 517h59v-431c0 -59 -3 -144 -39 -193c-38 -52 -106 -68 -171 -68c-104 0 -204 41 -204 159v10h69v-5c0 -82 60 -108 133 -108c133 0 153 73 153 187v40c-41 -58 -94 -87 -166 -87c-145 0 -215 117 -215 250c0 125 63 255 223 255c68 0 129 -24 158 -81v72zM430 266
c0 103 -30 205 -153 205c-119 0 -161 -96 -161 -200c0 -103 48 -190 162 -190c107 0 152 90 152 185z" />
    <glyph glyph-name="h" unicode="h" 
d="M469 0h-65v311c0 91 -11 159 -122 159c-119 0 -145 -97 -145 -178v-292h-64v706h64v-254c41 53 97 76 163 76c139 0 169 -88 169 -178v-350z" />
    <glyph glyph-name="i" unicode="i" horiz-adv-x="208" 
d="M71 517h66v-517h-66v517zM71 616v90h66v-90h-66z" />
    <glyph glyph-name="j" unicode="j" horiz-adv-x="208" 
d="M73 615v91h65v-91h-65zM138 517v-523c0 -95 -1 -171 -131 -171c-9 0 -15 0 -24 1v52h10c70 0 80 39 80 115v526h65z" />
    <glyph glyph-name="k" unicode="k" horiz-adv-x="479" 
d="M73 0v706h65v-448l242 259h83l-198 -210l208 -307h-79l-173 258l-83 -83v-175h-65z" />
    <glyph glyph-name="l" unicode="l" horiz-adv-x="208" 
d="M137 706v-706h-66v706h66z" />
    <glyph glyph-name="m" unicode="m" horiz-adv-x="833" 
d="M762 0h-65v330c0 85 -15 141 -114 141c-69 0 -135 -41 -135 -164v-307h-64v328c0 76 -17 143 -108 143c-99 0 -139 -84 -139 -162v-309h-64v517h64v-70c37 54 88 80 153 80c63 0 120 -26 143 -88c37 58 103 87 170 87c114 0 159 -61 159 -167v-359z" />
    <glyph glyph-name="n" unicode="n" 
d="M469 0h-64v316c0 68 -4 154 -122 154c-88 0 -147 -58 -147 -171v-299h-63v517h63v-64c43 52 89 74 158 74c123 0 175 -61 175 -178v-349z" />
    <glyph glyph-name="o" unicode="o" 
d="M498 265c0 -145 -67 -275 -229 -275c-159 0 -223 134 -223 274c0 146 77 266 232 266c153 0 220 -128 220 -265zM436 266c0 104 -44 209 -164 209c-122 0 -163 -107 -163 -213c0 -105 39 -218 164 -218s163 117 163 222z" />
    <glyph glyph-name="p" unicode="p" horiz-adv-x="562" 
d="M72 517h63v-73c37 54 97 81 162 81c160 0 220 -126 220 -268c0 -137 -63 -267 -217 -267c-65 0 -131 26 -165 84v-252h-63v695zM453 265c0 99 -41 207 -157 207c-121 0 -162 -96 -162 -209c0 -127 44 -218 162 -218s157 115 157 220z" />
    <glyph glyph-name="q" unicode="q" horiz-adv-x="562" 
d="M426 517h63v-695h-63v253c-34 -61 -98 -82 -169 -82c-159 0 -211 147 -211 266c0 147 63 266 225 266c64 0 118 -27 155 -80v72zM429 260c0 106 -35 213 -159 213c-122 0 -160 -109 -160 -213c0 -107 36 -213 160 -213c121 0 159 109 159 213z" />
    <glyph glyph-name="r" unicode="r" horiz-adv-x="292" 
d="M74 517h65v-65c34 51 81 75 142 75h5v-61c-4 1 -7 1 -11 1c-30 0 -60 -10 -83 -29c-51 -41 -53 -102 -53 -161v-277h-65v517z" />
    <glyph glyph-name="s" unicode="s" horiz-adv-x="479" 
d="M44 158l65 8c9 -84 53 -122 133 -122c52 0 116 22 116 90c0 70 -60 91 -113 104l-43 11c-38 10 -129 33 -129 140c0 108 90 141 170 141c34 0 158 -3 170 -146l-64 -8c-4 37 -16 102 -109 102c-77 0 -103 -48 -103 -84c0 -60 54 -76 96 -88l40 -11
c62 -17 148 -46 148 -154c0 -74 -45 -151 -178 -151c-157 0 -185 93 -199 168z" />
    <glyph glyph-name="t" unicode="t" horiz-adv-x="271" 
d="M6 517h72v166h64v-166h95v-56h-95v-305c0 -52 2 -102 69 -102c10 0 23 2 30 2v-58c-17 -3 -33 -5 -51 -5c-88 0 -112 54 -112 131v337h-72v56z" />
    <glyph glyph-name="u" unicode="u" 
d="M467 0h-65v68c-34 -51 -90 -75 -150 -75c-143 0 -181 80 -181 207v317h64v-299c0 -85 12 -171 117 -171c72 0 126 38 144 108c6 25 6 50 6 75v287h65v-517z" />
    <glyph glyph-name="v" unicode="v" horiz-adv-x="458" 
d="M11 517h71l148 -433l147 433h70l-189 -517h-58z" />
    <glyph glyph-name="w" unicode="w" horiz-adv-x="708" 
d="M12 517h72l120 -429l113 429h65l122 -433l119 433h69l-154 -517h-65l-123 427l-110 -427h-68z" />
    <glyph glyph-name="x" unicode="x" horiz-adv-x="437" 
d="M255 262l172 -262h-78l-130 210l-127 -210h-75l168 262l-173 255h80l127 -204l130 204h78z" />
    <glyph glyph-name="y" unicode="y" horiz-adv-x="458" 
d="M9 517h71l161 -439l138 439h68l-179 -548c-30 -91 -60 -158 -165 -158c-21 0 -32 3 -42 4v62c16 -2 25 -4 41 -4c46 0 83 28 106 111l2 7z" />
    <glyph glyph-name="z" unicode="z" horiz-adv-x="458" 
d="M31 0v68l305 393h-284v56h359v-56l-312 -407h329v-54h-397z" />
    <glyph glyph-name="braceleft" unicode="{" horiz-adv-x="347" 
d="M56 273v35c63 28 67 49 67 167v87c0 142 36 186 157 203v-38c-73 -19 -93 -57 -93 -175v-74c0 -141 -16 -159 -73 -187c63 -31 73 -55 73 -187v-75c0 -118 21 -157 93 -174v-38c-115 12 -157 60 -157 202v89c0 128 -9 142 -67 165z" />
    <glyph glyph-name="bar" unicode="|" horiz-adv-x="246" 
d="M156 -176h-68v932h68v-932z" />
    <glyph glyph-name="braceright" unicode="}" horiz-adv-x="347" 
d="M300 308v-35c-56 -28 -67 -31 -67 -167v-87c0 -140 -34 -188 -157 -202v38c73 18 94 56 94 174v117c0 73 13 123 72 144c-66 32 -72 59 -72 187v75c0 125 -22 155 -94 174v38c114 -10 157 -61 157 -201v-89c0 -130 10 -143 67 -166z" />
    <glyph glyph-name="asciitilde" unicode="~" horiz-adv-x="705" 
d="M115 224l-40 46l8 11c50 68 93 92 151 92c46 0 58 -6 144 -54c44 -24 65 -33 91 -33c41 0 73 18 121 86l40 -46c-50 -70 -101 -104 -161 -104c-35 0 -65 10 -115 38c-76 43 -86 51 -121 51c-46 0 -81 -26 -118 -87z" />
    <glyph glyph-name="Adieresis" unicode="&#xc4;" horiz-adv-x="604" 
d="M13 0l259 706h57l263 -706h-70l-83 224h-279l-78 -224h-69zM182 282h236c-87 245 -117 338 -117 338zM156 808v86h67v-86h-67zM384 808v86h65v-86h-65z" />
    <glyph glyph-name="Aring" unicode="&#xc5;" horiz-adv-x="604" 
d="M13 0l259 706h57l263 -706h-70l-83 224h-279l-78 -224h-69zM182 282h236c-87 245 -117 338 -117 338zM394 843c0 -50 -42 -92 -92 -92s-92 42 -92 92s42 92 92 92s92 -42 92 -92zM353 843c0 28 -23 50 -51 50c-27 0 -50 -23 -50 -50c0 -28 22 -50 50 -50s51 21 51 50z
" />
    <glyph glyph-name="Ccedilla" unicode="&#xc7;" horiz-adv-x="667" 
d="M562 219l70 -11c-30 -140 -130 -217 -270 -220l-23 -47c9 2 18 3 26 3c48 0 80 -30 80 -76c0 -53 -43 -90 -101 -90c-31 0 -56 9 -76 25l24 38c17 -15 33 -21 51 -21c30 0 51 17 51 44c0 26 -19 43 -48 43c-14 0 -27 -3 -43 -13l-17 19l38 77c-191 15 -272 180 -272 362
c0 300 189 367 307 367c137 0 242 -83 263 -219l-71 -12c-15 102 -91 169 -195 169c-169 0 -231 -156 -231 -302c0 -148 62 -306 232 -306c106 0 190 63 205 170z" />
    <glyph glyph-name="Eacute" unicode="&#xc9;" horiz-adv-x="583" 
d="M548 59v-59h-466v706h455v-60h-386v-255h362v-59h-362v-273h397zM237 778l61 116h96l-96 -116h-61z" />
    <glyph glyph-name="Ntilde" unicode="&#xd1;" horiz-adv-x="688" 
d="M83 0v706h72l389 -605c-3 117 -3 605 -3 605h64v-706h-64l-401 618c7 -143 7 -618 7 -618h-64zM246 786h-41c5 64 23 109 65 109c52 0 90 -45 137 -45c23 0 26 20 29 43h41c-2 -60 -11 -110 -62 -110c-43 0 -97 46 -137 46c-27 0 -30 -23 -32 -43z" />
    <glyph glyph-name="Odieresis" unicode="&#xd6;" horiz-adv-x="750" 
d="M53 356c0 197 108 361 318 361c213 0 325 -162 325 -362c0 -198 -108 -366 -322 -366c-219 0 -321 165 -321 367zM119 353c0 -169 82 -305 254 -305s255 145 255 303s-80 307 -254 307c-180 0 -255 -143 -255 -305zM231 808v86h67v-86h-67zM459 808v86h65v-86h-65z" />
    <glyph glyph-name="Udieresis" unicode="&#xdc;" horiz-adv-x="646" 
d="M504 706h67v-420c0 -67 -5 -143 -43 -200c-46 -69 -123 -91 -202 -91c-97 0 -186 37 -225 131c-24 59 -25 127 -25 190v390h68v-394c0 -79 6 -172 66 -218c37 -28 76 -36 121 -36c167 0 173 145 173 274v374zM180 808v86h67v-86h-67zM408 808v86h65v-86h-65z" />
    <glyph glyph-name="aacute" unicode="&#xe1;" horiz-adv-x="521" 
d="M487 -2h-12c-48 0 -99 3 -99 75v9c-20 -75 -121 -92 -167 -92c-90 0 -165 47 -165 151c0 114 85 140 165 153l59 10c68 12 107 18 107 69c0 78 -55 100 -118 100c-40 0 -128 -5 -128 -113h-69c12 164 152 165 193 165c142 0 181 -69 181 -146v-264c0 -32 5 -63 53 -63
v-54zM376 222v59c-26 -8 -50 -15 -80 -21l-46 -9c-101 -20 -143 -47 -143 -111c0 -35 20 -98 108 -98c43 0 76 16 93 26c66 40 68 101 68 154zM228 591l56 146h94l-102 -146h-48z" />
    <glyph glyph-name="agrave" unicode="&#xe0;" horiz-adv-x="521" 
d="M487 -2h-12c-48 0 -99 3 -99 75v9c-20 -75 -121 -92 -167 -92c-90 0 -165 47 -165 151c0 114 85 140 165 153l59 10c68 12 107 18 107 69c0 78 -55 100 -118 100c-40 0 -128 -5 -128 -113h-69c12 164 152 165 193 165c142 0 181 -69 181 -146v-264c0 -32 5 -63 53 -63
v-54zM376 222v59c-26 -8 -50 -15 -80 -21l-46 -9c-101 -20 -143 -47 -143 -111c0 -35 20 -98 108 -98c43 0 76 16 93 26c66 40 68 101 68 154zM150 736h94l56 -145h-48z" />
    <glyph glyph-name="acircumflex" unicode="&#xe2;" horiz-adv-x="521" 
d="M487 -2h-12c-48 0 -99 3 -99 75v9c-20 -75 -121 -92 -167 -92c-90 0 -165 47 -165 151c0 114 85 140 165 153l59 10c68 12 107 18 107 69c0 78 -55 100 -118 100c-40 0 -128 -5 -128 -113h-69c12 164 152 165 193 165c142 0 181 -69 181 -146v-264c0 -32 5 -63 53 -63
v-54zM376 222v59c-26 -8 -50 -15 -80 -21l-46 -9c-101 -20 -143 -47 -143 -111c0 -35 20 -98 108 -98c43 0 76 16 93 26c66 40 68 101 68 154zM119 590l97 148h88l98 -148h-60l-82 95l-81 -95h-60z" />
    <glyph glyph-name="adieresis" unicode="&#xe4;" horiz-adv-x="521" 
d="M487 -2h-12c-48 0 -99 3 -99 75v9c-20 -75 -121 -92 -167 -92c-90 0 -165 47 -165 151c0 114 85 140 165 153l59 10c68 12 107 18 107 69c0 78 -55 100 -118 100c-40 0 -128 -5 -128 -113h-69c12 164 152 165 193 165c142 0 181 -69 181 -146v-264c0 -32 5 -63 53 -63
v-54zM376 222v59c-26 -8 -50 -15 -80 -21l-46 -9c-101 -20 -143 -47 -143 -111c0 -35 20 -98 108 -98c43 0 76 16 93 26c66 40 68 101 68 154zM116 618v88h65v-88h-65zM329 618v88h64v-88h-64z" />
    <glyph glyph-name="atilde" unicode="&#xe3;" horiz-adv-x="521" 
d="M487 -2h-12c-48 0 -99 3 -99 75v9c-20 -75 -121 -92 -167 -92c-90 0 -165 47 -165 151c0 114 85 140 165 153l59 10c68 12 107 18 107 69c0 78 -55 100 -118 100c-40 0 -128 -5 -128 -113h-69c12 164 152 165 193 165c142 0 181 -69 181 -146v-264c0 -32 5 -63 53 -63
v-54zM376 222v59c-26 -8 -50 -15 -80 -21l-46 -9c-101 -20 -143 -47 -143 -111c0 -35 20 -98 108 -98c43 0 76 16 93 26c66 40 68 101 68 154zM355 721h42c0 -66 -13 -118 -63 -118c-52 0 -107 58 -137 58c-20 0 -28 -22 -29 -52h-42c2 59 11 116 62 116
c47 0 104 -58 139 -58c19 0 26 22 28 54z" />
    <glyph glyph-name="aring" unicode="&#xe5;" horiz-adv-x="521" 
d="M487 -2h-12c-48 0 -99 3 -99 75v9c-20 -75 -121 -92 -167 -92c-90 0 -165 47 -165 151c0 114 85 140 165 153l59 10c68 12 107 18 107 69c0 78 -55 100 -118 100c-40 0 -128 -5 -128 -113h-69c12 164 152 165 193 165c142 0 181 -69 181 -146v-264c0 -32 5 -63 53 -63
v-54zM376 222v59c-26 -8 -50 -15 -80 -21l-46 -9c-101 -20 -143 -47 -143 -111c0 -35 20 -98 108 -98c43 0 76 16 93 26c66 40 68 101 68 154zM346 663c0 -51 -41 -92 -92 -92c-50 0 -92 42 -92 92c0 51 41 93 92 93s92 -42 92 -93zM305 663c0 28 -22 51 -50 51
c-29 0 -51 -22 -51 -51c0 -28 23 -50 51 -50c27 0 50 23 50 50z" />
    <glyph glyph-name="ccedilla" unicode="&#xe7;" horiz-adv-x="500" 
d="M406 167l64 -12c-25 -99 -95 -163 -198 -164l-24 -49c9 2 18 3 26 3c47 0 78 -30 78 -75c0 -52 -42 -88 -99 -88c-30 0 -55 8 -75 24l24 38c17 -15 32 -21 50 -21c30 0 50 17 50 43s-18 43 -47 43c-14 0 -27 -3 -42 -13l-17 18l39 79c-133 17 -191 132 -191 265
c0 139 74 269 227 269c95 0 179 -60 191 -159l-63 -9c-12 67 -60 115 -129 115c-121 0 -160 -117 -160 -219c0 -98 39 -211 155 -211c80 0 126 47 141 123z" />
    <glyph glyph-name="eacute" unicode="&#xe9;" 
d="M495 247h-385c0 -108 48 -203 168 -203c64 0 128 37 142 103l66 -11c-27 -98 -108 -147 -207 -147c-169 0 -232 123 -232 273c0 147 74 265 233 265c157 0 215 -128 215 -266v-14zM113 301h314c0 93 -48 172 -149 172s-159 -77 -165 -172zM238 591l56 146h94l-102 -146
h-48z" />
    <glyph glyph-name="egrave" unicode="&#xe8;" 
d="M495 247h-385c0 -108 48 -203 168 -203c64 0 128 37 142 103l66 -11c-27 -98 -108 -147 -207 -147c-169 0 -232 123 -232 273c0 147 74 265 233 265c157 0 215 -128 215 -266v-14zM113 301h314c0 93 -48 172 -149 172s-159 -77 -165 -172zM161 736h94l56 -145h-48z" />
    <glyph glyph-name="ecircumflex" unicode="&#xea;" 
d="M495 247h-385c0 -108 48 -203 168 -203c64 0 128 37 142 103l66 -11c-27 -98 -108 -147 -207 -147c-169 0 -232 123 -232 273c0 147 74 265 233 265c157 0 215 -128 215 -266v-14zM113 301h314c0 93 -48 172 -149 172s-159 -77 -165 -172zM129 590l97 148h88l98 -148h-60
l-82 95l-81 -95h-60z" />
    <glyph glyph-name="edieresis" unicode="&#xeb;" 
d="M495 247h-385c0 -108 48 -203 168 -203c64 0 128 37 142 103l66 -11c-27 -98 -108 -147 -207 -147c-169 0 -232 123 -232 273c0 147 74 265 233 265c157 0 215 -128 215 -266v-14zM113 301h314c0 93 -48 172 -149 172s-159 -77 -165 -172zM131 618v88h65v-88h-65z
M344 618v88h64v-88h-64z" />
    <glyph glyph-name="iacute" unicode="&#xed;" horiz-adv-x="208" 
d="M71 517h66v-517h-66v517zM64 591l56 146h94l-102 -146h-48z" />
    <glyph glyph-name="igrave" unicode="&#xec;" horiz-adv-x="208" 
d="M71 517h66v-517h-66v517zM-6 736h94l56 -145h-48z" />
    <glyph glyph-name="icircumflex" unicode="&#xee;" horiz-adv-x="208" 
d="M71 517h66v-517h-66v517zM-37 590l97 148h88l98 -148h-60l-82 95l-81 -95h-60z" />
    <glyph glyph-name="idieresis" unicode="&#xef;" horiz-adv-x="208" 
d="M71 517h66v-517h-66v517zM-36 618v88h65v-88h-65zM177 618v88h64v-88h-64z" />
    <glyph glyph-name="ntilde" unicode="&#xf1;" 
d="M469 0h-64v316c0 68 -4 154 -122 154c-88 0 -147 -58 -147 -171v-299h-63v517h63v-64c43 52 89 74 158 74c123 0 175 -61 175 -178v-349zM366 721h42c0 -66 -13 -118 -63 -118c-52 0 -107 58 -137 58c-20 0 -28 -22 -29 -52h-42c2 59 11 116 62 116c47 0 104 -58 139 -58
c19 0 26 22 28 54z" />
    <glyph glyph-name="oacute" unicode="&#xf3;" 
d="M498 265c0 -145 -67 -275 -229 -275c-159 0 -223 134 -223 274c0 146 77 266 232 266c153 0 220 -128 220 -265zM436 266c0 104 -44 209 -164 209c-122 0 -163 -107 -163 -213c0 -105 39 -218 164 -218s163 117 163 222zM238 591l56 146h94l-102 -146h-48z" />
    <glyph glyph-name="ograve" unicode="&#xf2;" 
d="M498 265c0 -145 -67 -275 -229 -275c-159 0 -223 134 -223 274c0 146 77 266 232 266c153 0 220 -128 220 -265zM436 266c0 104 -44 209 -164 209c-122 0 -163 -107 -163 -213c0 -105 39 -218 164 -218s163 117 163 222zM161 736h94l56 -145h-48z" />
    <glyph glyph-name="ocircumflex" unicode="&#xf4;" 
d="M498 265c0 -145 -67 -275 -229 -275c-159 0 -223 134 -223 274c0 146 77 266 232 266c153 0 220 -128 220 -265zM436 266c0 104 -44 209 -164 209c-122 0 -163 -107 -163 -213c0 -105 39 -218 164 -218s163 117 163 222zM130 590l97 148h88l98 -148h-60l-82 95l-81 -95
h-60z" />
    <glyph glyph-name="odieresis" unicode="&#xf6;" 
d="M498 265c0 -145 -67 -275 -229 -275c-159 0 -223 134 -223 274c0 146 77 266 232 266c153 0 220 -128 220 -265zM436 266c0 104 -44 209 -164 209c-122 0 -163 -107 -163 -213c0 -105 39 -218 164 -218s163 117 163 222zM135 618v88h65v-88h-65zM348 618v88h64v-88h-64z
" />
    <glyph glyph-name="otilde" unicode="&#xf5;" 
d="M498 265c0 -145 -67 -275 -229 -275c-159 0 -223 134 -223 274c0 146 77 266 232 266c153 0 220 -128 220 -265zM436 266c0 104 -44 209 -164 209c-122 0 -163 -107 -163 -213c0 -105 39 -218 164 -218s163 117 163 222zM366 721h42c0 -66 -13 -118 -63 -118
c-52 0 -107 58 -137 58c-20 0 -28 -22 -29 -52h-42c2 59 11 116 62 116c47 0 104 -58 139 -58c19 0 26 22 28 54z" />
    <glyph glyph-name="uacute" unicode="&#xfa;" 
d="M467 0h-65v68c-34 -51 -90 -75 -150 -75c-143 0 -181 80 -181 207v317h64v-299c0 -85 12 -171 117 -171c72 0 126 38 144 108c6 25 6 50 6 75v287h65v-517zM238 591l56 146h94l-102 -146h-48z" />
    <glyph glyph-name="ugrave" unicode="&#xf9;" 
d="M467 0h-65v68c-34 -51 -90 -75 -150 -75c-143 0 -181 80 -181 207v317h64v-299c0 -85 12 -171 117 -171c72 0 126 38 144 108c6 25 6 50 6 75v287h65v-517zM161 736h94l56 -145h-48z" />
    <glyph glyph-name="ucircumflex" unicode="&#xfb;" 
d="M467 0h-65v68c-34 -51 -90 -75 -150 -75c-143 0 -181 80 -181 207v317h64v-299c0 -85 12 -171 117 -171c72 0 126 38 144 108c6 25 6 50 6 75v287h65v-517zM129 590l97 148h88l98 -148h-60l-82 95l-81 -95h-60z" />
    <glyph glyph-name="udieresis" unicode="&#xfc;" 
d="M467 0h-65v68c-34 -51 -90 -75 -150 -75c-143 0 -181 80 -181 207v317h64v-299c0 -85 12 -171 117 -171c72 0 126 38 144 108c6 25 6 50 6 75v287h65v-517zM135 618v88h65v-88h-65zM348 618v88h64v-88h-64z" />
    <glyph glyph-name="dagger" unicode="&#x2020;" horiz-adv-x="437" 
d="M29 435v59h153v212h70v-212h157v-59h-157v-527h-70v527h-153z" />
    <glyph glyph-name="degree" unicode="&#xb0;" horiz-adv-x="354" 
d="M319 602c0 -79 -63 -142 -142 -142s-142 63 -142 142c0 78 64 142 142 142c79 0 142 -64 142 -142zM275 602c0 54 -44 97 -98 97c-53 0 -97 -44 -97 -97s43 -98 97 -98s98 44 98 98z" />
    <glyph glyph-name="cent" unicode="&#xa2;" horiz-adv-x="521" 
d="M476 374l-67 -9c-9 62 -47 98 -112 104v-406c52 7 85 24 108 72c5 10 13 30 14 42l63 -10c-21 -97 -86 -157 -185 -164v-91h-51v91c-144 12 -196 137 -196 264c0 101 36 208 136 248c20 8 40 14 60 17v90h51v-90c101 -6 162 -61 179 -158zM246 64v404
c-93 -19 -126 -108 -126 -199c0 -83 26 -196 126 -205z" />
    <glyph glyph-name="sterling" unicode="&#xa3;" horiz-adv-x="583" 
d="M553 185v-10c0 -79 -27 -181 -124 -181c-63 0 -124 45 -176 76c-25 -46 -57 -76 -113 -76c-63 0 -108 39 -108 103c0 55 35 93 91 93c34 0 62 -15 92 -28c2 10 3 21 3 31c0 37 -10 79 -24 113h-123v58h105c-12 43 -21 88 -21 133c0 118 67 191 185 191c34 0 69 -8 99 -25
c67 -37 79 -101 79 -172l-62 -6l1 13c0 78 -33 132 -118 132c-79 0 -118 -58 -118 -132c0 -45 13 -89 27 -134h169v-58h-154c11 -37 19 -75 19 -114c0 -22 -4 -43 -8 -64c35 -21 104 -69 146 -69c61 0 69 77 69 122zM196 106c-20 10 -43 25 -66 25c-24 0 -41 -14 -41 -38
c0 -26 21 -41 46 -41c32 0 52 26 61 54z" />
    <glyph glyph-name="section" unicode="&#xa7;" 
d="M448 571l-67 -7c-9 58 -33 91 -97 91c-52 0 -101 -25 -101 -83c0 -138 312 -159 312 -347c0 -72 -40 -122 -104 -152c30 -35 47 -72 47 -118c0 -99 -77 -149 -169 -149c-94 0 -163 58 -171 153l67 9c9 -61 43 -104 108 -104c55 0 99 31 99 89c0 158 -325 150 -325 352
c0 73 47 132 113 159c-27 26 -45 65 -45 103c0 97 81 146 170 146c92 0 155 -47 163 -142zM205 423c-49 -25 -91 -46 -91 -110c0 -69 74 -109 126 -138c35 -19 69 -38 103 -60c47 17 86 53 86 106c0 82 -99 127 -159 163z" />
    <glyph glyph-name="bullet" unicode="&#x2022;" horiz-adv-x="200" 
d="M169 359v-139h-138v139h138z" />
    <glyph glyph-name="paragraph" unicode="&#xb6;" horiz-adv-x="571" 
d="M524 706v-43h-65v-805h-46v805h-161v-805h-45v474c-109 14 -168 79 -168 185c0 123 87 189 228 189h257z" />
    <glyph glyph-name="germandbls" unicode="&#xdf;" horiz-adv-x="500" 
d="M205 367v57h8c67 0 148 20 148 125c0 67 -39 110 -108 110c-98 0 -114 -70 -114 -150v-509h-65v495c0 80 1 150 79 194c30 17 66 23 100 23c101 0 171 -58 171 -161c0 -65 -33 -123 -99 -150c93 -23 130 -105 130 -194c0 -125 -68 -213 -200 -213c-17 0 -34 1 -50 6v59
c18 -4 36 -6 55 -6c95 0 132 69 132 155c0 114 -70 159 -174 159h-13z" />
    <glyph glyph-name="registered" unicode="&#xae;" horiz-adv-x="825" 
d="M784 360c0 -212 -157 -375 -362 -375c-213 0 -379 163 -379 370c0 205 164 366 373 366c204 0 368 -160 368 -361zM748 350c0 192 -143 338 -331 338c-190 0 -338 -147 -338 -334c0 -185 152 -335 340 -335c182 0 329 147 329 331zM272 579h143c108 0 165 -27 165 -112
c0 -60 -31 -97 -96 -112c52 -9 72 -24 82 -97l8 -57c3 -23 10 -41 19 -62h-58c-9 22 -12 37 -17 77c-11 89 -19 115 -118 115h-72v-192h-56v440zM328 530v-150h77c84 0 119 24 119 79c0 50 -31 71 -104 71h-92z" />
    <glyph glyph-name="copyright" unicode="&#xa9;" horiz-adv-x="825" 
d="M554 275l55 -6c-23 -95 -89 -146 -191 -146c-126 0 -207 88 -207 225c0 139 86 232 215 232c92 0 158 -48 181 -144l-57 -6c-16 66 -54 103 -128 103c-93 0 -153 -72 -153 -185c0 -110 57 -178 150 -178c66 0 115 30 135 105zM784 360c0 -212 -157 -375 -362 -375
c-213 0 -379 163 -379 370c0 205 164 366 373 366c204 0 368 -160 368 -361zM748 350c0 192 -143 338 -331 338c-190 0 -338 -147 -338 -334c0 -185 152 -335 340 -335c182 0 329 147 329 331z" />
    <glyph glyph-name="trademark" unicode="&#x2122;" horiz-adv-x="778" 
d="M192 319h-52v343h-112v44h278v-44h-114v-343zM704 319h-49v313l-113 -313h-39l-113 309v-309h-50v387h70l113 -309l111 309h70v-387z" />
    <glyph glyph-name="acute" unicode="&#xb4;" horiz-adv-x="292" 
d="M71 591l56 146h94l-102 -146h-48z" />
    <glyph glyph-name="dieresis" unicode="&#xa8;" horiz-adv-x="292" 
d="M7 618v88h65v-88h-65zM220 618v88h64v-88h-64z" />
    <glyph glyph-name="notequal" unicode="&#x2260;" horiz-adv-x="731" 
d="M455 426h181v-61h-213l-60 -124h273v-62h-303l-85 -173h-53l85 173h-185v62h216l59 124h-275v61h306l83 167h53z" />
    <glyph glyph-name="AE" unicode="&#xc6;" horiz-adv-x="958" 
d="M3 0l400 706h505v-61h-396v-252h372v-60h-372v-273h407v-60h-474v198h-259l-108 -198h-75zM220 256h225v404z" />
    <glyph glyph-name="Oslash" unicode="&#xd8;" horiz-adv-x="750" 
d="M668 697l35 -31l-73 -78c48 -76 66 -141 66 -230c0 -201 -104 -371 -322 -371c-85 0 -171 26 -229 91l-76 -80l-35 34l81 85c-47 70 -63 158 -63 241c0 172 90 357 317 357c81 0 174 -28 231 -89zM162 166l393 412c-42 57 -113 78 -181 78c-179 0 -255 -142 -255 -304
c0 -63 12 -131 43 -186zM583 539l-393 -413c53 -54 106 -80 183 -80c188 0 255 164 255 303c0 65 -11 134 -45 190z" />
    <glyph glyph-name="infinity" unicode="&#x221e;" horiz-adv-x="762" 
d="M382 348c62 85 107 118 170 118c86 0 146 -68 146 -164c0 -100 -64 -171 -153 -171c-57 0 -97 18 -165 118c-66 -88 -105 -117 -170 -117c-85 0 -145 67 -145 163c0 100 65 172 154 172c63 0 101 -28 163 -119zM349 298c-50 67 -73 112 -132 112c-54 0 -94 -47 -94 -110
c0 -65 38 -110 90 -110c48 0 84 28 136 108zM414 300l19 -28c43 -64 71 -84 113 -84c54 0 94 46 94 109c0 65 -37 111 -90 111c-47 0 -83 -29 -136 -108z" />
    <glyph glyph-name="plusminus" unicode="&#xb1;" horiz-adv-x="731" 
d="M396 155h-62v232h-240v60h240v231h62v-231h240v-60h-240v-232zM636 0h-542v60h542v-60z" />
    <glyph glyph-name="lessequal" unicode="&#x2264;" horiz-adv-x="731" 
d="M596 138l-468 220v66l469 225v-67l-397 -190l396 -186v-68zM597 0h-469v60h469v-60z" />
    <glyph glyph-name="greaterequal" unicode="&#x2265;" horiz-adv-x="731" 
d="M611 0h-470v60h470v-60zM141 649l468 -221v-66l-468 -224v66l396 190l-396 186v69z" />
    <glyph glyph-name="yen" unicode="&#xa5;" horiz-adv-x="562" 
d="M380 402h114v-52h-146l-34 -60v-21h180v-51h-180v-218h-67v218h-180v51h180v21l-34 60h-146v52h114l-172 291h77l196 -333l196 333h73z" />
    <glyph glyph-name="partialdiff" unicode="&#x2202;" horiz-adv-x="551" 
d="M156 633l-19 53c44 21 76 29 124 29c143 0 212 -135 212 -414c0 -210 -70 -311 -207 -311c-115 0 -187 84 -187 219c0 138 78 228 198 228c56 0 93 -16 130 -58c-6 160 -49 284 -158 284c-31 0 -58 -9 -93 -30zM406 305c-32 61 -73 81 -122 81c-86 0 -140 -69 -140 -180
c0 -101 49 -165 128 -165c89 0 135 75 135 222c0 11 0 24 -1 42z" />
    <glyph glyph-name="summation" unicode="&#x2211;" horiz-adv-x="551" 
d="M527 -122h-490v57l259 376l-256 338v57h485v-57h-408l255 -334l-262 -377h417v-60z" />
    <glyph glyph-name="product" unicode="&#x220f;" horiz-adv-x="659" 
d="M583 -122h-67v770h-373v-770h-67v828h507v-828z" />
    <glyph glyph-name="integral" unicode="&#x222b;" horiz-adv-x="339" 
d="M309 705v-62c-22 19 -38 26 -59 26c-47 0 -49 -36 -49 -106v-623c0 -78 -37 -116 -106 -116c-22 0 -39 4 -66 16v61c27 -19 41 -25 60 -25c45 0 50 32 50 103v591c0 88 6 150 108 150c25 0 39 -3 62 -15z" />
    <glyph glyph-name="ordfeminine" unicode="&#xaa;" horiz-adv-x="333" 
d="M89 598h-52c4 47 20 112 126 112c113 0 117 -68 117 -116v-141c0 -27 2 -38 28 -38h5v-43h-13c-22 0 -58 1 -65 37c-32 -41 -87 -42 -100 -42c-60 0 -108 33 -108 99c0 80 74 95 101 99l48 8c35 6 57 9 57 36c0 30 -10 59 -70 59c-67 0 -72 -43 -74 -70zM234 522v25
c-8 -4 -35 -10 -45 -12l-37 -7c-34 -6 -76 -16 -76 -62c0 -24 13 -57 62 -57c23 0 45 9 52 13c37 21 44 44 44 100z" />
    <glyph glyph-name="ordmasculine" unicode="&#xba;" horiz-adv-x="333" 
d="M313 539c0 -94 -48 -172 -150 -172c-100 0 -141 88 -141 175c0 93 49 171 149 171c99 0 142 -84 142 -174zM265 543c0 62 -26 126 -97 126c-73 0 -97 -63 -97 -126c0 -64 21 -133 97 -133c74 0 97 71 97 133z" />
    <glyph glyph-name="Omega" unicode="&#x2126;" horiz-adv-x="704" 
d="M447 92v-39h197v-53h-247v126c121 50 174 140 174 275c0 160 -88 268 -217 268c-135 0 -223 -106 -223 -271c0 -78 22 -148 61 -197c32 -40 55 -55 115 -75v-126h-247v53h198v39c-135 55 -197 159 -197 306c0 197 117 326 295 326c169 0 284 -128 284 -315
c0 -96 -30 -182 -84 -241c-32 -35 -52 -49 -109 -76z" />
    <glyph glyph-name="ae" unicode="&#xe6;" horiz-adv-x="875" 
d="M826 247h-379c6 -117 54 -201 166 -201c69 0 119 33 138 101l65 -8c-28 -101 -103 -147 -205 -147c-86 0 -157 39 -195 117c-30 -77 -111 -115 -190 -115c-94 0 -179 49 -179 151c0 65 35 116 97 138c48 17 138 18 204 18h36v28c0 94 -19 145 -124 145
c-79 0 -117 -31 -123 -109h-68c3 106 79 162 179 162c74 0 155 -11 185 -98c41 66 109 97 185 97c155 0 208 -131 208 -267v-12zM757 301v10c0 90 -52 159 -148 159c-101 0 -151 -77 -160 -169h308zM383 233c0 5 0 9 -1 14h-92c-76 0 -179 -5 -179 -100
c0 -72 54 -98 118 -98c113 0 154 80 154 184z" />
    <glyph glyph-name="oslash" unicode="&#xf8;" 
d="M478 524l30 -29l-56 -62c29 -56 42 -108 42 -171c0 -146 -68 -272 -230 -272c-63 0 -113 19 -155 67l-52 -58l-30 29l58 66c-27 46 -39 112 -39 166c0 145 73 266 231 266c57 0 112 -18 148 -59zM128 143l257 281c-30 33 -69 48 -113 48c-122 0 -164 -107 -164 -213
c0 -37 3 -82 20 -116zM409 385l-257 -283c27 -41 73 -58 120 -58c118 0 162 112 162 214c0 41 -4 90 -25 127z" />
    <glyph glyph-name="questiondown" unicode="&#xbf;" horiz-adv-x="479" 
d="M214 514h64v-52c0 -79 -15 -99 -70 -143c-50 -40 -103 -81 -103 -154c0 -69 47 -114 116 -114c75 0 108 55 113 124l67 -5c-8 -105 -69 -176 -180 -176c-105 0 -181 63 -181 172c0 99 49 132 112 193c36 35 62 60 62 114v41zM208 706h76v-93h-76v93z" />
    <glyph glyph-name="exclamdown" unicode="&#xa1;" horiz-adv-x="250" 
d="M142 706v-95h-76v95h76zM87 509h31l20 -246v-263h-68v263z" />
    <glyph glyph-name="logicalnot" unicode="&#xac;" horiz-adv-x="731" 
d="M571 278h-479v62h542v-301h-63v239z" />
    <glyph glyph-name="radical" unicode="&#x221a;" horiz-adv-x="738" 
d="M203 204l141 -312l243 814h65l-280 -893h-60l-143 313l-76 -37l-26 52z" />
    <glyph glyph-name="florin" unicode="&#x192;" horiz-adv-x="322" 
d="M333 691l-6 -55c-13 2 -27 3 -36 3c-74 0 -79 -50 -86 -113l-3 -29h100v-58h-106l-53 -458c-5 -48 -9 -97 -49 -130c-27 -23 -60 -29 -95 -29c-13 0 -32 2 -45 4l6 55c9 -2 27 -4 36 -4c71 0 76 53 83 114l51 448h-79v58h85l2 19c10 98 21 179 147 179c13 0 37 -2 48 -4z
" />
    <glyph glyph-name="approxequal" unicode="&#x2248;" horiz-adv-x="704" 
d="M115 314l-40 46l8 11c51 71 95 92 150 92c43 0 58 -6 144 -55c43 -24 66 -32 92 -32c41 0 74 20 121 86l39 -46c-49 -71 -100 -104 -161 -104c-35 0 -65 10 -115 38c-76 43 -85 51 -121 51c-45 0 -80 -26 -117 -87zM115 133l-40 46l8 11c51 71 95 92 150 92
c43 0 58 -6 144 -55c43 -24 66 -32 92 -32c41 0 74 20 121 86l39 -46c-49 -71 -100 -104 -161 -104c-35 0 -65 10 -115 38c-76 43 -85 51 -121 51c-45 0 -80 -26 -117 -87z" />
    <glyph glyph-name="guillemotleft" unicode="&#xab;" horiz-adv-x="458" 
d="M405 448v-77l-102 -79l102 -76v-75l-158 122v61zM213 447v-77l-100 -77l100 -76v-76l-155 122v61z" />
    <glyph glyph-name="guillemotright" unicode="&#xbb;" horiz-adv-x="458" 
d="M53 141v77l102 79l-102 77v74l158 -122v-61zM246 142v78l99 76l-99 76v76l155 -122v-61z" />
    <glyph glyph-name="ellipsis" unicode="&#x2026;" horiz-adv-x="1059" 
d="M211 77v-77h-69v77h69zM564 77v-77h-69v77h69zM917 77v-77h-69v77h69z" />
    <glyph glyph-name="uni00A0" unicode="&#xa0;" horiz-adv-x="292" 
 />
    <glyph glyph-name="Agrave" unicode="&#xc0;" horiz-adv-x="604" 
d="M13 0l259 706h57l263 -706h-70l-83 224h-279l-78 -224h-69zM182 282h236c-87 245 -117 338 -117 338zM193 894h96l60 -118h-60z" />
    <glyph glyph-name="Atilde" unicode="&#xc3;" horiz-adv-x="604" 
d="M13 0l259 706h57l263 -706h-70l-83 224h-279l-78 -224h-69zM182 282h236c-87 245 -117 338 -117 338zM205 786h-41c5 64 23 109 65 109c52 0 90 -45 137 -45c23 0 26 20 29 43h41c-2 -60 -11 -110 -62 -110c-43 0 -97 46 -137 46c-27 0 -30 -23 -32 -43z" />
    <glyph glyph-name="Otilde" unicode="&#xd5;" horiz-adv-x="750" 
d="M53 356c0 197 108 361 318 361c213 0 325 -162 325 -362c0 -198 -108 -366 -322 -366c-219 0 -321 165 -321 367zM119 353c0 -169 82 -305 254 -305s255 145 255 303s-80 307 -254 307c-180 0 -255 -143 -255 -305zM277 786h-41c5 64 23 109 65 109c52 0 90 -45 137 -45
c23 0 26 20 29 43h41c-2 -60 -11 -110 -62 -110c-43 0 -97 46 -137 46c-27 0 -30 -23 -32 -43z" />
    <glyph glyph-name="OE" unicode="&#x152;" horiz-adv-x="1104" 
d="M1069 0h-447v121c-59 -91 -144 -133 -251 -133c-212 0 -318 171 -318 366c0 192 112 363 318 363c97 0 202 -45 251 -139v128h433v-59h-371v-257h349v-59h-349v-271h385v-60zM621 351c0 176 -85 307 -247 307c-188 0 -249 -167 -249 -308c0 -152 74 -303 246 -303
c109 0 250 60 250 304z" />
    <glyph glyph-name="oe" unicode="&#x153;" horiz-adv-x="917" 
d="M868 247h-376c5 -56 13 -111 52 -153c33 -36 68 -48 117 -48c67 0 113 36 133 101l65 -10c-29 -108 -112 -147 -205 -147c-81 0 -167 46 -191 120c-37 -79 -108 -119 -193 -119c-159 0 -228 125 -228 270c0 141 79 265 231 265c86 0 154 -42 190 -120
c37 77 110 121 195 121c156 0 210 -130 210 -268v-12zM495 301h305c1 3 1 6 1 9c0 87 -49 160 -142 160c-95 0 -158 -76 -164 -169zM431 254v15c0 154 -88 200 -162 200c-122 0 -164 -103 -164 -210s43 -212 166 -212c111 0 160 92 160 207z" />
    <glyph glyph-name="endash" unicode="&#x2013;" horiz-adv-x="538" 
d="M29 318h477v-55h-477v55z" />
    <glyph glyph-name="emdash" unicode="&#x2014;" horiz-adv-x="705" 
d="M29 318h647v-55h-647v55z" />
    <glyph glyph-name="quotedblleft" unicode="&#x201c;" horiz-adv-x="333" 
d="M138 484h-79v70c0 54 0 134 78 152v-46c-18 -12 -27 -32 -27 -63v-15h28v-98zM272 484h-78v70c0 54 2 136 76 152v-46c-18 -12 -26 -32 -26 -63v-15h28v-98z" />
    <glyph glyph-name="quotedblright" unicode="&#x201d;" horiz-adv-x="333" 
d="M195 706h78v-70c0 -54 -1 -135 -77 -152v46c18 12 27 32 27 63v15h-28v98zM60 706h79v-74c0 -54 -3 -132 -77 -148v46c18 18 27 32 27 63v15h-29v98z" />
    <glyph glyph-name="quoteleft" unicode="&#x2018;" horiz-adv-x="208" 
d="M144 484h-79v70c0 54 0 134 78 152v-46c-18 -12 -27 -32 -27 -63v-15h28v-98z" />
    <glyph glyph-name="quoteright" unicode="&#x2019;" horiz-adv-x="208" 
d="M65 706h79v-74c0 -54 -3 -132 -77 -148v46c18 18 27 32 27 63v15h-29v98z" />
    <glyph glyph-name="divide" unicode="&#xf7;" horiz-adv-x="731" 
d="M636 273h-541v61h541v-61zM399 516v-91h-67v91h67zM399 182v-90h-67v90h67z" />
    <glyph glyph-name="lozenge" unicode="&#x25ca;" horiz-adv-x="731" 
d="M326 706h65l176 -353l-181 -353h-65l-175 353zM215 355l140 -293l142 290l-139 291z" />
    <glyph glyph-name="ydieresis" unicode="&#xff;" horiz-adv-x="458" 
d="M9 517h71l161 -439l138 439h68l-179 -548c-30 -91 -60 -158 -165 -158c-21 0 -32 3 -42 4v62c16 -2 25 -4 41 -4c46 0 83 28 106 111l2 7zM89 618v88h65v-88h-65zM302 618v88h64v-88h-64z" />
    <glyph glyph-name="Ydieresis" unicode="&#x178;" horiz-adv-x="562" 
d="M9 706h77l196 -339l196 339h73l-237 -411v-295h-67v295zM135 808v86h67v-86h-67zM363 808v86h65v-86h-65z" />
    <glyph glyph-name="fraction" unicode="&#x2044;" horiz-adv-x="125" 
d="M224 701l-272 -701h-53l273 701h52z" />
    <glyph glyph-name="Euro" unicode="&#x20ac;" horiz-adv-x="641" 
d="M611 620l-30 -53c-41 54 -95 78 -170 78c-120 0 -195 -63 -223 -202h324v-52h-329c-2 -17 -2 -32 -2 -44c0 -8 0 -23 1 -37h330v-51h-323c19 -133 102 -212 222 -212c75 0 128 31 170 100l40 -43c-53 -75 -122 -110 -215 -110c-155 0 -257 90 -286 265h-72v51h68
c-1 17 -1 27 -1 37c0 12 1 30 2 44h-69v52h73c35 172 136 256 289 256c85 0 151 -26 201 -79z" />
    <glyph glyph-name="guilsinglleft" unicode="&#x2039;" horiz-adv-x="271" 
d="M217 448v-77l-103 -79l103 -76v-75l-158 122v61z" />
    <glyph glyph-name="guilsinglright" unicode="&#x203a;" horiz-adv-x="271" 
d="M54 141v77l102 79l-102 77v74l158 -122v-61z" />
    <glyph glyph-name="daggerdbl" unicode="&#x2021;" horiz-adv-x="417" 
d="M33 134v58h141v237h-141v59h141v218h70v-218h140v-59h-140v-237h140v-58h-140v-228h-70v228h-141z" />
    <glyph glyph-name="periodcentered" unicode="&#xb7;" horiz-adv-x="188" 
d="M133 337v-92h-78v92h78z" />
    <glyph glyph-name="quotesinglbase" unicode="&#x201a;" horiz-adv-x="208" 
d="M65 98h79v-74c0 -54 -3 -132 -77 -148v46c18 18 27 32 27 63v15h-29v98z" />
    <glyph glyph-name="quotedblbase" unicode="&#x201e;" horiz-adv-x="333" 
d="M194 98h78v-70c0 -54 -1 -135 -77 -152v46c18 12 27 32 27 63v15h-28v98zM59 98h79v-74c0 -54 -3 -132 -77 -148v46c18 18 27 32 27 63v15h-29v98z" />
    <glyph glyph-name="perthousand" unicode="&#x2030;" horiz-adv-x="1188" 
d="M1162 216c0 -101 -33 -223 -153 -223c-124 0 -151 133 -151 233c0 102 31 225 154 225c126 0 150 -134 150 -235zM1108 216c0 68 -8 186 -100 186c-91 0 -96 -117 -96 -183c0 -69 11 -178 100 -178c86 0 96 110 96 175zM578 694l-270 -694h-55c90 231 182 462 271 694h54
zM330 466c0 -101 -33 -223 -153 -223c-124 0 -151 133 -151 233c0 102 31 225 154 225c126 0 150 -134 150 -235zM276 466c0 68 -8 186 -100 186c-91 0 -96 -117 -96 -183c0 -69 11 -178 100 -178c86 0 96 110 96 175zM807 216c0 -101 -33 -223 -153 -223
c-124 0 -151 133 -151 233c0 102 31 225 154 225c126 0 150 -134 150 -235zM753 216c0 68 -8 186 -100 186c-91 0 -96 -117 -96 -183c0 -69 11 -178 100 -178c86 0 96 110 96 175z" />
    <glyph glyph-name="Acircumflex" unicode="&#xc2;" horiz-adv-x="604" 
d="M13 0l259 706h57l263 -706h-70l-83 224h-279l-78 -224h-69zM182 282h236c-87 245 -117 338 -117 338zM158 779l97 116h92l94 -116h-73l-68 72l-73 -72h-69z" />
    <glyph glyph-name="Ecircumflex" unicode="&#xca;" horiz-adv-x="583" 
d="M548 59v-59h-466v706h455v-60h-386v-255h362v-59h-362v-273h397zM148 779l97 116h92l94 -116h-73l-68 72l-73 -72h-69z" />
    <glyph glyph-name="Aacute" unicode="&#xc1;" horiz-adv-x="604" 
d="M13 0l259 706h57l263 -706h-70l-83 224h-279l-78 -224h-69zM182 282h236c-87 245 -117 338 -117 338zM246 778l61 116h96l-96 -116h-61z" />
    <glyph glyph-name="Edieresis" unicode="&#xcb;" horiz-adv-x="583" 
d="M548 59v-59h-466v706h455v-60h-386v-255h362v-59h-362v-273h397zM145 808v86h67v-86h-67zM373 808v86h65v-86h-65z" />
    <glyph glyph-name="Egrave" unicode="&#xc8;" horiz-adv-x="583" 
d="M548 59v-59h-466v706h455v-60h-386v-255h362v-59h-362v-273h397zM182 894h96l60 -118h-60z" />
    <glyph glyph-name="Iacute" unicode="&#xcd;" horiz-adv-x="229" 
d="M81 0v706h68v-706h-68zM58 778l61 116h96l-96 -116h-61z" />
    <glyph glyph-name="Icircumflex" unicode="&#xce;" horiz-adv-x="229" 
d="M81 0v706h68v-706h-68zM-29 779l97 116h92l94 -116h-73l-68 72l-73 -72h-69z" />
    <glyph glyph-name="Idieresis" unicode="&#xcf;" horiz-adv-x="229" 
d="M81 0v706h68v-706h-68zM-32 808v86h67v-86h-67zM196 808v86h65v-86h-65z" />
    <glyph glyph-name="Igrave" unicode="&#xcc;" horiz-adv-x="229" 
d="M81 0v706h68v-706h-68zM5 894h96l60 -118h-60z" />
    <glyph glyph-name="Oacute" unicode="&#xd3;" horiz-adv-x="750" 
d="M53 356c0 197 108 361 318 361c213 0 325 -162 325 -362c0 -198 -108 -366 -322 -366c-219 0 -321 165 -321 367zM119 353c0 -169 82 -305 254 -305s255 145 255 303s-80 307 -254 307c-180 0 -255 -143 -255 -305zM319 778l61 116h96l-96 -116h-61z" />
    <glyph glyph-name="Ocircumflex" unicode="&#xd4;" horiz-adv-x="750" 
d="M53 356c0 197 108 361 318 361c213 0 325 -162 325 -362c0 -198 -108 -366 -322 -366c-219 0 -321 165 -321 367zM119 353c0 -169 82 -305 254 -305s255 145 255 303s-80 307 -254 307c-180 0 -255 -143 -255 -305zM231 779l97 116h92l94 -116h-73l-68 72l-73 -72h-69z
" />
    <glyph glyph-name="Ograve" unicode="&#xd2;" horiz-adv-x="750" 
d="M53 356c0 197 108 361 318 361c213 0 325 -162 325 -362c0 -198 -108 -366 -322 -366c-219 0 -321 165 -321 367zM119 353c0 -169 82 -305 254 -305s255 145 255 303s-80 307 -254 307c-180 0 -255 -143 -255 -305zM266 894h96l60 -118h-60z" />
    <glyph glyph-name="Uacute" unicode="&#xda;" horiz-adv-x="646" 
d="M504 706h67v-420c0 -67 -5 -143 -43 -200c-46 -69 -123 -91 -202 -91c-97 0 -186 37 -225 131c-24 59 -25 127 -25 190v390h68v-394c0 -79 6 -172 66 -218c37 -28 76 -36 121 -36c167 0 173 145 173 274v374zM268 778l61 116h96l-96 -116h-61z" />
    <glyph glyph-name="Ucircumflex" unicode="&#xdb;" horiz-adv-x="646" 
d="M504 706h67v-420c0 -67 -5 -143 -43 -200c-46 -69 -123 -91 -202 -91c-97 0 -186 37 -225 131c-24 59 -25 127 -25 190v390h68v-394c0 -79 6 -172 66 -218c37 -28 76 -36 121 -36c167 0 173 145 173 274v374zM179 779l97 116h92l94 -116h-73l-68 72l-73 -72h-69z" />
    <glyph glyph-name="Ugrave" unicode="&#xd9;" horiz-adv-x="646" 
d="M504 706h67v-420c0 -67 -5 -143 -43 -200c-46 -69 -123 -91 -202 -91c-97 0 -186 37 -225 131c-24 59 -25 127 -25 190v390h68v-394c0 -79 6 -172 66 -218c37 -28 76 -36 121 -36c167 0 173 145 173 274v374zM213 894h96l60 -118h-60z" />
    <glyph glyph-name="dotlessi" unicode="&#x131;" horiz-adv-x="208" 
d="M71 517h66v-517h-66v517z" />
    <glyph glyph-name="circumflex" unicode="&#x2c6;" horiz-adv-x="292" 
d="M4 590l97 148h88l98 -148h-60l-82 95l-81 -95h-60z" />
    <glyph glyph-name="tilde" unicode="&#x2dc;" horiz-adv-x="292" 
d="M240 721h42c0 -66 -13 -118 -63 -118c-52 0 -107 58 -137 58c-20 0 -28 -22 -29 -52h-42c2 59 11 116 62 116c47 0 104 -58 139 -58c19 0 26 22 28 54z" />
    <glyph glyph-name="macron" unicode="&#xaf;" horiz-adv-x="292" 
d="M15 618v63h262v-63h-262z" />
    <glyph glyph-name="breve" unicode="&#x2d8;" horiz-adv-x="292" 
d="M219 725h50c0 -72 -55 -123 -126 -123c-74 0 -120 52 -120 123h52c4 -40 26 -64 66 -64c42 0 75 20 78 64z" />
    <glyph glyph-name="dotaccent" unicode="&#x2d9;" horiz-adv-x="292" 
d="M113 619v87h65v-87h-65z" />
    <glyph glyph-name="ring" unicode="&#x2da;" horiz-adv-x="292" 
d="M238 663c0 -51 -41 -92 -92 -92c-50 0 -92 42 -92 92c0 51 41 93 92 93s92 -42 92 -93zM197 663c0 28 -22 51 -50 51c-29 0 -51 -22 -51 -51c0 -28 23 -50 51 -50c27 0 50 23 50 50z" />
    <glyph glyph-name="cedilla" unicode="&#xb8;" horiz-adv-x="292" 
d="M122 5h38l-31 -63c9 2 18 3 26 3c47 0 78 -30 78 -75c0 -52 -42 -88 -99 -88c-30 0 -55 8 -75 24l24 38c17 -15 32 -21 50 -21c30 0 50 17 50 43s-18 43 -47 43c-14 0 -27 -3 -42 -13l-17 18z" />
    <glyph glyph-name="hungarumlaut" unicode="&#x2dd;" horiz-adv-x="292" 
d="M5 591l57 146h94l-103 -146h-48zM137 591l58 146h92l-102 -146h-48z" />
    <glyph glyph-name="ogonek" unicode="&#x2db;" horiz-adv-x="292" 
d="M152 14l42 -8c-40 -49 -57 -83 -57 -103c0 -35 30 -36 60 -36h24v-59h-49c-36 0 -101 4 -101 66c0 38 26 74 54 108z" />
    <glyph glyph-name="caron" unicode="&#x2c7;" horiz-adv-x="292" 
d="M287 737l-98 -147h-87l-98 147h61l79 -96l84 96h59z" />
    <glyph glyph-name="currency" unicode="&#xa4;" horiz-adv-x="671" 
d="M569 615l42 -42l-73 -74c41 -49 58 -97 58 -159s-17 -110 -57 -158l73 -74l-42 -42l-73 73c-46 -38 -101 -58 -161 -58c-59 0 -114 20 -160 57l-73 -72l-42 42l73 73c-40 49 -58 97 -58 159s18 110 58 159l-73 73l42 43l73 -73c45 37 101 57 160 57c60 0 115 -20 160 -57
zM135 343c0 -119 86 -206 202 -206c114 0 201 88 201 203s-87 203 -202 203c-113 0 -201 -88 -201 -200z" />
    <glyph glyph-name="afii61289" unicode="&#x2113;" horiz-adv-x="443" 
d="M395 134l39 -36c-53 -78 -104 -111 -174 -111c-97 0 -151 64 -161 188c-32 -27 -39 -29 -56 -43l-21 49c19 13 25 18 72 54c-1 30 -2 103 -2 129c0 99 6 157 21 211c23 82 78 129 150 129c74 0 121 -53 121 -137c0 -61 -22 -119 -67 -184c-37 -53 -70 -89 -156 -168
c0 -112 34 -174 108 -174c50 0 83 26 126 93zM158 277c119 117 168 203 168 284c0 57 -25 90 -67 90c-70 0 -102 -86 -102 -277c0 -21 1 -54 1 -97z" />
    <glyph glyph-name="estimated" unicode="&#x212e;" horiz-adv-x="835" 
d="M795 329h-681c8 -178 130 -284 314 -284c128 0 234 60 298 176l60 -35c-86 -135 -201 -198 -364 -198c-226 0 -379 146 -379 362c0 209 156 355 378 355c137 0 251 -58 316 -161c37 -59 53 -114 58 -215zM115 384h608c-24 168 -136 266 -304 266
c-100 0 -185 -37 -241 -103c-38 -45 -54 -86 -63 -163z" />
    <glyph glyph-name="acute.cap" horiz-adv-x="292" 
d="M67 778l61 116h96l-96 -116h-61z" />
    <glyph glyph-name="breve.cap" horiz-adv-x="292" 
d="M219 894h50c0 -72 -55 -103 -126 -103c-74 0 -120 32 -120 103h52c3 -30 37 -45 72 -45c34 0 69 15 72 45z" />
    <glyph glyph-name="caron.cap" horiz-adv-x="292" 
d="M288 894l-97 -115h-91l-97 115h74l68 -69l73 69h70z" />
    <glyph glyph-name="cedilla.cap" horiz-adv-x="292" 
d="M121 5h38l-31 -64c9 2 18 3 26 3c48 0 80 -30 80 -76c0 -53 -43 -90 -101 -90c-31 0 -56 9 -76 25l24 38c17 -15 33 -21 51 -21c30 0 51 17 51 44c0 26 -19 43 -48 43c-14 0 -27 -3 -43 -13l-17 19z" />
    <glyph glyph-name="circumflex.cap" horiz-adv-x="292" 
d="M4 779l97 116h92l94 -116h-73l-68 72l-73 -72h-69z" />
    <glyph glyph-name="commaaccent" horiz-adv-x="292" 
d="M113 -39h66v-61c0 -37 -1 -98 -62 -113v38c17 13 22 34 22 57h-26v79z" />
    <glyph glyph-name="dieresis.cap" horiz-adv-x="292" 
d="M0 808v86h67v-86h-67zM228 808v86h65v-86h-65z" />
    <glyph glyph-name="dotaccent.cap" horiz-adv-x="292" 
d="M112 808v86h67v-86h-67z" />
    <glyph glyph-name="grave.cap" horiz-adv-x="292" 
d="M68 894h96l60 -118h-60z" />
    <glyph glyph-name="hungarumlaut.cap" horiz-adv-x="292" 
d="M60 894h96l-96 -118h-60zM197 894h96l-96 -118h-60z" />
    <glyph glyph-name="macron.cap" horiz-adv-x="292" 
d="M15 804v63h262v-63h-262z" />
    <glyph glyph-name="ring.cap" horiz-adv-x="292" 
d="M238 843c0 -50 -42 -92 -92 -92s-92 42 -92 92s42 92 92 92s92 -42 92 -92zM197 843c0 28 -23 50 -51 50c-27 0 -50 -23 -50 -50c0 -28 22 -50 50 -50s51 21 51 50z" />
    <glyph glyph-name="tilde.cap" horiz-adv-x="292" 
d="M51 786h-41c5 64 23 109 65 109c52 0 90 -45 137 -45c23 0 26 20 29 43h41c-2 -60 -11 -110 -62 -110c-43 0 -97 46 -137 46c-27 0 -30 -23 -32 -43z" />
    <glyph glyph-name="caron.alt" horiz-adv-x="292" 
d="M110 706h71v-70c0 -43 0 -114 -67 -130v41c21 16 26 42 26 71h-30v88z" />
    <glyph glyph-name="Eth" unicode="&#xd0;" horiz-adv-x="667" 
d="M82 706h141c101 0 215 -3 296 -73c76 -65 97 -185 97 -279c0 -145 -50 -297 -204 -340c-42 -12 -84 -14 -127 -14h-203v338h-71v54h71v314zM151 646v-254h194v-54h-194v-278h121c40 0 81 1 119 14c124 42 158 166 158 285c0 201 -97 287 -289 287h-109z" />
    <glyph glyph-name="eth" unicode="&#xf0;" 
d="M455 693l19 -35l-96 -33c83 -97 119 -231 119 -357c0 -143 -68 -278 -227 -278c-158 0 -224 138 -224 278c0 105 40 201 141 243c28 12 59 19 91 19c40 0 88 -15 117 -43c-18 46 -41 81 -74 118l-160 -55l-19 36l148 51c-25 21 -51 40 -78 59l61 19c27 -16 53 -37 75 -59
zM436 266c0 104 -44 209 -164 209c-119 0 -163 -106 -163 -210c0 -113 44 -221 161 -221c124 0 166 117 166 222z" />
    <glyph glyph-name="Lslash" unicode="&#x141;" 
d="M82 339v367h68v-302l189 180v-72l-189 -181v-272h353v-59h-421v266l-81 -77v73z" />
    <glyph glyph-name="lslash" unicode="&#x142;" horiz-adv-x="208" 
d="M71 391v315h66v-254l69 65v-68l-69 -65v-384h-66v323l-70 -66v68z" />
    <glyph glyph-name="Scaron" unicode="&#x160;" horiz-adv-x="604" 
d="M63 188l74 9c10 -69 31 -150 174 -150c117 0 161 72 161 136c0 99 -86 125 -158 145l-65 18c-51 14 -162 58 -162 182c0 130 99 189 217 189c121 0 210 -51 229 -187l-72 -7c-1 8 -2 37 -16 64c-31 60 -95 71 -138 71c-65 0 -151 -29 -151 -123c0 -91 88 -115 112 -122
l90 -26c111 -32 183 -80 183 -202c0 -150 -120 -196 -239 -196c-116 0 -223 50 -239 199zM444 894l-97 -115h-91l-97 115h74l68 -69l73 69h70z" />
    <glyph glyph-name="scaron" unicode="&#x161;" horiz-adv-x="479" 
d="M44 158l65 8c9 -84 53 -122 133 -122c52 0 116 22 116 90c0 70 -60 91 -113 104l-43 11c-38 10 -129 33 -129 140c0 108 90 141 170 141c34 0 158 -3 170 -146l-64 -8c-4 37 -16 102 -109 102c-77 0 -103 -48 -103 -84c0 -60 54 -76 96 -88l40 -11
c62 -17 148 -46 148 -154c0 -74 -45 -151 -178 -151c-157 0 -185 93 -199 168zM380 737l-98 -147h-87l-98 147h61l79 -96l84 96h59z" />
    <glyph glyph-name="Yacute" unicode="&#xdd;" horiz-adv-x="562" 
d="M9 706h77l196 -339l196 339h73l-237 -411v-295h-67v295zM240 778l61 116h96l-96 -116h-61z" />
    <glyph glyph-name="yacute" unicode="&#xfd;" horiz-adv-x="458" 
d="M9 517h71l161 -439l138 439h68l-179 -548c-30 -91 -60 -158 -165 -158c-21 0 -32 3 -42 4v62c16 -2 25 -4 41 -4c46 0 83 28 106 111l2 7zM196 591l56 146h94l-102 -146h-48z" />
    <glyph glyph-name="Thorn" unicode="&#xde;" horiz-adv-x="562" 
d="M82 706h68v-120h125c89 0 188 -3 240 -86c23 -37 30 -80 30 -122c0 -177 -122 -207 -268 -207h-127v-171h-68v706zM150 528v-298h134c59 0 118 2 160 49c25 28 33 64 33 100c0 35 -8 70 -29 98c-39 51 -111 51 -170 51h-128z" />
    <glyph glyph-name="thorn" unicode="&#xfe;" horiz-adv-x="562" 
d="M72 706h63v-262c37 54 97 81 162 81c160 0 220 -126 220 -268c0 -137 -63 -267 -217 -267c-65 0 -131 26 -165 84v-252h-63v884zM134 270v-23c0 -104 44 -202 162 -202s157 115 157 215c0 104 -41 212 -157 212c-121 0 -162 -97 -162 -202z" />
    <glyph glyph-name="Zcaron" unicode="&#x17d;" horiz-adv-x="604" 
d="M33 0v60l446 585h-401v61h487v-61l-449 -585h439v-60h-522zM444 894l-97 -115h-91l-97 115h74l68 -69l73 69h70z" />
    <glyph glyph-name="zcaron" unicode="&#x17e;" horiz-adv-x="458" 
d="M31 0v68l305 393h-284v56h359v-56l-312 -407h329v-54h-397zM370 737l-98 -147h-87l-98 147h61l79 -96l84 96h59z" />
    <glyph glyph-name="onehalf" unicode="&#xbd;" horiz-adv-x="833" 
d="M563 701l-272 -701h-53l273 701h52zM221 250h-53v318h-94v44c54 0 99 22 108 80h39v-442zM791 47v-47h-280v47l117 107c48 43 115 102 115 167c0 48 -30 78 -79 78c-66 0 -79 -52 -84 -107l-1 -11l-53 4c0 88 42 164 139 164c76 0 130 -48 130 -127
c0 -85 -66 -143 -124 -194l-92 -81h212z" />
    <glyph glyph-name="onequarter" unicode="&#xbc;" horiz-adv-x="833" 
d="M580 701l-272 -701h-53l273 701h52zM221 250h-53v318h-94v44c54 0 99 22 108 80h39v-442zM509 105v44l200 293h40v-293h62v-44h-62v-105h-50v105h-190zM565 149h134v203z" />
    <glyph glyph-name="onesuperior" unicode="&#xb9;" horiz-adv-x="360" 
d="M224 415h-53v318h-94v44c54 0 99 22 108 80h39v-442z" />
    <glyph glyph-name="threequarters" unicode="&#xbe;" horiz-adv-x="833" 
d="M297 0l273 701h52l-272 -701h-53zM510 105v44l200 293h40v-293h62v-44h-62v-105h-50v105h-190zM566 149h134v203zM148 458v48c52 0 111 7 111 74c0 45 -35 72 -78 72c-57 0 -83 -43 -86 -94l-57 5c8 82 56 137 141 137c73 0 134 -42 134 -119c0 -49 -23 -83 -69 -97
c53 -4 85 -51 85 -104c0 -85 -69 -137 -150 -137c-90 0 -156 59 -156 152h56c0 -63 30 -104 98 -104c54 0 97 30 97 87c0 58 -45 80 -99 80h-27z" />
    <glyph glyph-name="threesuperior" unicode="&#xb3;" horiz-adv-x="360" 
d="M148 623v48c52 0 111 7 111 74c0 45 -35 72 -78 72c-57 0 -83 -43 -86 -94l-57 5c8 82 56 137 141 137c73 0 134 -42 134 -119c0 -49 -23 -83 -69 -97c53 -4 85 -51 85 -104c0 -85 -69 -137 -150 -137c-90 0 -156 59 -156 152h56c0 -63 30 -104 98 -104c54 0 97 30 97 87
c0 58 -45 80 -99 80h-27z" />
    <glyph glyph-name="twosuperior" unicode="&#xb2;" horiz-adv-x="360" 
d="M311 462v-47h-280v47l117 107c48 43 115 102 115 167c0 48 -30 78 -79 78c-66 0 -79 -52 -84 -107l-1 -11l-53 4c0 88 42 164 139 164c76 0 130 -48 130 -127c0 -85 -66 -143 -124 -194l-92 -81h212z" />
    <glyph glyph-name="brokenbar" unicode="&#xa6;" horiz-adv-x="243" 
d="M153 363h-64v393h64v-393zM153 -176h-64v393h64v-393z" />
    <glyph glyph-name="minus" unicode="&#x2212;" horiz-adv-x="730" 
d="M635 277h-541v63h541v-63z" />
    <glyph glyph-name="multiply" unicode="&#xd7;" horiz-adv-x="731" 
d="M580 138l-44 -45l-171 170l-170 -170l-43 43l169 170l-170 170l44 45l171 -170l170 170l43 -43l-170 -170z" />
    <glyph glyph-name="uni00AD" unicode="&#xad;" horiz-adv-x="321" 
d="M34 318h253v-55h-253v55z" />
    <glyph glyph-name="uni03A9" unicode="&#x3a9;" horiz-adv-x="704" 
d="M447 92v-39h197v-53h-247v126c121 50 174 140 174 275c0 160 -88 268 -217 268c-135 0 -223 -106 -223 -271c0 -78 22 -148 61 -197c32 -40 55 -55 115 -75v-126h-247v53h198v39c-135 55 -197 159 -197 306c0 197 117 326 295 326c169 0 284 -128 284 -315
c0 -96 -30 -182 -84 -241c-32 -35 -52 -49 -109 -76z" />
    <glyph glyph-name="uni0394" unicode="&#x394;" horiz-adv-x="634" 
d="M631 0h-628l278 706h81zM540 58l-220 591l-225 -591h445z" />
    <glyph glyph-name="uni2215" unicode="&#x2215;" horiz-adv-x="125" 
d="M224 701l-272 -701h-53l273 701h52z" />
    <glyph glyph-name="uni2219" unicode="&#x2219;" horiz-adv-x="188" 
d="M133 337v-92h-78v92h78z" />
    <glyph glyph-name="uni02C9" unicode="&#x2c9;" horiz-adv-x="292" 
d="M15 618v63h262v-63h-262z" />
    <glyph glyph-name="uni037E" unicode="&#x37e;" horiz-adv-x="250" 
d="M108 369v100h78v-100h-78zM107 98h79v-78c0 -48 -2 -127 -77 -145v46c24 17 27 46 27 64v15h-29v98z" />
    <glyph glyph-name="eth.sc" horiz-adv-x="550" 
d="M72 256h-53v41h53v232h175c29 0 80 -2 122 -20c107 -44 135 -161 135 -240s-24 -190 -119 -241c-46 -25 -102 -28 -153 -28h-160v256zM137 297h157v-41h-157v-203h74c41 0 96 0 137 20c61 31 90 103 90 197c0 108 -44 171 -111 195c-24 8 -53 12 -101 12h-89v-180z" />
    <glyph glyph-name="lslash.sc" horiz-adv-x="414" 
d="M137 315l135 126v-62l-135 -126v-201h257v-52h-322v193l-48 -45v61l48 45v275h65v-214z" />
    <glyph glyph-name="scaron.sc" horiz-adv-x="448" 
d="M401 400l-60 -6c-11 67 -58 95 -119 95c-82 0 -107 -48 -107 -90c0 -49 41 -71 87 -84l65 -19c72 -22 144 -54 144 -150c0 -79 -61 -155 -188 -155c-100 0 -181 42 -195 153l63 7c10 -72 56 -108 130 -108c95 0 126 50 126 97c0 60 -37 81 -98 100l-73 22
c-65 19 -125 54 -125 134c0 102 91 143 171 143c113 0 172 -65 179 -139zM355 737l-98 -147h-87l-98 147h61l79 -96l84 96h59z" />
    <glyph glyph-name="yacute.sc" horiz-adv-x="453" 
d="M87 529l138 -261l141 261h73l-184 -323v-206h-64v206l-177 323h73zM172 591l56 146h94l-102 -146h-48z" />
    <glyph glyph-name="thorn.sc" horiz-adv-x="456" 
d="M72 529h65v-86h97c110 0 196 -40 196 -160c0 -152 -127 -160 -197 -160h-96v-123h-65v529zM137 390v-216h93c81 0 136 24 136 108c0 81 -48 108 -124 108h-105z" />
    <glyph glyph-name="zcaron.sc" horiz-adv-x="465" 
d="M66 529h372v-50l-329 -428h327v-51h-405v51l327 425h-292v53zM385 737l-98 -147h-87l-98 147h61l79 -96l84 96h59z" />
    <glyph glyph-name="numbersign.oldstyle" horiz-adv-x="585" 
d="M372 -23h-56l25 181h-115l-25 -181h-56l25 181h-121v54h128l12 91h-119v54h127l24 177h56l-24 -177h115l24 177h56l-24 -177h112v-54h-119l-12 -91h111v-54h-119zM348 212l12 91h-115l-11 -91h114z" />
    <glyph glyph-name="dollar.oldstyle" horiz-adv-x="454" 
d="M254 597v-72c114 -8 153 -85 161 -142l-67 -5c-11 69 -54 88 -94 92v-173c108 -31 168 -61 168 -155c0 -60 -40 -136 -168 -145v-75h-43v75c-100 5 -163 56 -177 149l70 6c7 -39 27 -94 107 -102v190c-112 28 -156 72 -156 148c0 85 74 133 156 137v72h43zM211 310v160
c-74 -5 -86 -51 -86 -79c0 -44 31 -66 86 -81zM254 227v-178c74 2 98 50 98 88c0 52 -30 70 -98 90z" />
    <glyph glyph-name="percent.oldstyle" horiz-adv-x="802" 
d="M29 364c0 110 70 167 152 167c86 0 151 -52 151 -162c0 -84 -48 -165 -151 -165s-152 80 -152 160zM85 364c0 -68 41 -109 97 -109c49 0 94 35 94 113c0 64 -34 111 -96 111c-58 0 -95 -46 -95 -115zM487 516h53c-77 -172 -152 -344 -228 -516h-53zM469 149
c0 110 69 167 152 167c85 0 151 -51 151 -162c0 -83 -48 -163 -151 -163s-152 79 -152 158zM525 150c0 -68 41 -109 96 -109c50 0 94 35 94 113c0 63 -34 110 -95 110c-58 0 -95 -46 -95 -114z" />
    <glyph glyph-name="ampersand.sc" horiz-adv-x="475" 
d="M382 219l54 -2c-12 -64 -37 -108 -62 -137c21 -21 39 -37 85 -37l-2 -46c-5 0 -16 -2 -26 -2c-38 0 -64 12 -95 45c-38 -31 -89 -49 -134 -49c-87 0 -161 56 -161 147c0 86 69 132 112 156c-25 42 -45 69 -45 112c0 62 51 107 111 107c56 0 112 -38 112 -102
c0 -63 -48 -99 -106 -134c34 -51 72 -107 114 -160c33 41 41 88 43 102zM200 315c58 39 79 64 79 95c0 34 -22 58 -57 58c-34 0 -60 -24 -60 -59c0 -30 19 -63 38 -94zM177 253c-24 -19 -80 -53 -80 -115c0 -39 27 -98 108 -98c45 0 77 23 97 38c-46 58 -86 116 -125 175z
" />
    <glyph glyph-name="zero.oldstyle" horiz-adv-x="545" 
d="M506 274c0 -174 -72 -282 -233 -282c-153 0 -234 107 -234 275c0 158 92 266 237 266c144 0 230 -106 230 -259zM438 266c0 125 -54 208 -162 208c-101 0 -169 -69 -169 -207s57 -218 167 -218s164 79 164 217z" />
    <glyph glyph-name="one.oldstyle" horiz-adv-x="407" 
d="M276 0h-67v348h-147v53c82 6 145 23 169 132h45v-533z" />
    <glyph glyph-name="two.oldstyle" horiz-adv-x="529" 
d="M468 58v-58h-422v49c124 81 214 142 249 170c56 44 99 87 99 153c0 62 -42 102 -122 102c-95 0 -135 -79 -135 -160l-66 4c0 105 60 215 204 215c126 0 192 -66 192 -158c0 -84 -45 -148 -166 -225l-144 -92h311z" />
    <glyph glyph-name="three.oldstyle" horiz-adv-x="537" 
d="M232 170v57c75 0 166 23 166 123c0 78 -55 123 -131 123c-88 0 -131 -57 -138 -145l-68 5c8 121 95 200 210 200c105 0 194 -63 194 -176c0 -69 -34 -127 -101 -151c80 -26 124 -88 124 -171c0 -121 -85 -204 -219 -204c-131 0 -220 82 -231 217l70 4
c8 -100 66 -163 161 -163c92 0 150 54 150 148s-67 133 -153 133h-34z" />
    <glyph glyph-name="four.oldstyle" horiz-adv-x="552" 
d="M45 0v58l332 475h47v-475h109v-58h-109v-167h-67v167h-312zM111 58h246c1 86 5 362 5 362z" />
    <glyph glyph-name="five.oldstyle" horiz-adv-x="538" 
d="M458 456h-272l-36 -217c37 33 88 54 140 54c129 0 202 -103 202 -226c0 -135 -80 -236 -219 -236c-121 0 -198 69 -212 191l64 9c9 -86 53 -143 143 -143c105 0 156 73 156 175c0 93 -52 171 -152 171c-56 0 -107 -28 -136 -79h-57l56 362h323v-61z" />
    <glyph glyph-name="six.oldstyle" horiz-adv-x="545" 
d="M485 508l-66 -5c-12 73 -48 128 -126 128c-114 0 -153 -120 -159 -277c35 54 91 84 159 84c128 0 199 -99 199 -221c0 -115 -59 -225 -203 -225c-189 0 -222 167 -222 321c0 219 67 376 234 376c106 0 173 -76 184 -181zM425 215c0 91 -45 164 -142 164
c-94 0 -142 -70 -142 -161c0 -95 46 -169 147 -169c97 0 137 77 137 166z" />
    <glyph glyph-name="seven.oldstyle" horiz-adv-x="458" 
d="M425 517v-53c-129 -153 -223 -368 -252 -631h-81c37 237 114 436 255 625h-318v59h396z" />
    <glyph glyph-name="eight.oldstyle" horiz-adv-x="545" 
d="M374 362c81 -28 125 -86 125 -169c0 -134 -103 -202 -226 -202c-127 0 -227 69 -227 205c0 78 40 137 120 166c-56 23 -91 86 -91 149c0 121 87 178 197 178c109 0 198 -59 198 -179c0 -60 -34 -122 -96 -148zM405 510c0 78 -56 123 -130 123s-136 -37 -136 -120
c0 -78 58 -124 133 -124c83 0 133 50 133 121zM434 191c0 98 -74 140 -164 140c-89 0 -158 -42 -158 -137c0 -93 71 -145 159 -145c91 0 163 45 163 142z" />
    <glyph glyph-name="nine.oldstyle" horiz-adv-x="545" 
d="M57 9l66 5c6 -75 52 -125 129 -125c121 0 153 120 159 282c-35 -54 -91 -83 -159 -83c-128 0 -199 98 -199 220c0 115 64 225 205 225c192 0 220 -162 220 -321c0 -229 -54 -381 -231 -381c-110 0 -183 72 -190 178zM120 310c0 -91 45 -164 142 -164c94 0 142 70 142 161
c0 95 -46 169 -147 169c-96 0 -137 -77 -137 -166z" />
    <glyph glyph-name="a.sc" horiz-adv-x="482" 
d="M204 529h75l193 -529h-68l-52 148h-222l-52 -148h-68zM241 470l-95 -271h189z" />
    <glyph glyph-name="b.sc" horiz-adv-x="503" 
d="M72 529h174c74 0 127 -8 165 -48c26 -29 34 -63 34 -85c0 -59 -33 -103 -109 -117c68 -6 128 -43 128 -133c0 -111 -84 -146 -177 -146h-215v529zM137 477v-177h105c64 0 139 6 139 89c0 85 -74 88 -125 88h-119zM137 250v-199h146c32 0 116 7 116 100
c0 92 -86 99 -141 99h-121z" />
    <glyph glyph-name="c.sc" horiz-adv-x="548" 
d="M503 378l-67 -8c-23 105 -107 117 -144 117c-149 0 -179 -136 -179 -226c0 -148 84 -219 177 -219c100 0 139 66 152 121l67 -6c-15 -75 -79 -167 -216 -167c-175 0 -247 126 -247 272c0 142 73 276 240 276c102 0 196 -43 217 -160z" />
    <glyph glyph-name="d.sc" horiz-adv-x="550" 
d="M72 529h175c29 0 80 -3 122 -20c107 -44 135 -161 135 -240c0 -83 -28 -200 -130 -247c-44 -21 -97 -22 -142 -22h-160v529zM137 477v-424h74c40 0 94 1 134 20c64 31 93 99 93 197c0 106 -44 167 -106 192c-26 10 -55 15 -106 15h-89z" />
    <glyph glyph-name="e.sc" horiz-adv-x="443" 
d="M72 529h332v-52h-268v-180h250v-51h-250v-194h280v-52h-344v529z" />
    <glyph glyph-name="f.sc" horiz-adv-x="403" 
d="M384 529v-52h-246v-187h228v-51h-228v-239h-66v529h312z" />
    <glyph glyph-name="g.sc" horiz-adv-x="552" 
d="M502 0h-49s-2 57 -2 84c-26 -51 -79 -93 -168 -93c-165 0 -237 130 -237 268c0 145 78 279 249 279c127 0 191 -78 208 -155l-67 -7c-12 66 -66 108 -142 108c-125 0 -183 -102 -183 -216c0 -153 78 -224 180 -224c108 0 151 79 151 157v22h-165v51h225v-274z" />
    <glyph glyph-name="h.sc" horiz-adv-x="545" 
d="M72 529h65v-232h271v232h65v-529h-65v245h-271v-245h-65v529z" />
    <glyph glyph-name="i.sc" horiz-adv-x="209" 
d="M137 529v-529h-65v529h65z" />
    <glyph glyph-name="j.sc" horiz-adv-x="380" 
d="M308 529v-395c0 -88 -46 -142 -147 -142c-88 0 -144 47 -144 150v13h64v-15c0 -59 23 -96 83 -96c46 0 81 23 81 88v397h63z" />
    <glyph glyph-name="k.sc" horiz-adv-x="501" 
d="M137 529v-266l259 266h80l-214 -218l236 -311h-80l-200 269l-81 -81v-188h-65v529h65z" />
    <glyph glyph-name="l.sc" horiz-adv-x="414" 
d="M137 529v-477h257v-52h-322v529h65z" />
    <glyph glyph-name="m.sc" horiz-adv-x="659" 
d="M483 529h103v-529h-61c0 189 0 326 1 477l-163 -477h-68l-162 477c1 -151 1 -290 1 -477h-62v529h107l152 -458z" />
    <glyph glyph-name="n.sc" horiz-adv-x="546" 
d="M412 529h62v-529h-64l-277 431c0 -133 2 -295 2 -431h-63v530h67l274 -425c-1 138 -1 284 -1 424z" />
    <glyph glyph-name="o.sc" horiz-adv-x="585" 
d="M46 263c0 173 107 276 248 276c179 0 245 -147 245 -274c0 -141 -77 -274 -245 -274c-169 0 -248 133 -248 272zM473 268c0 104 -48 217 -180 217c-149 0 -181 -142 -181 -221c0 -101 41 -220 181 -220c136 0 180 119 180 224z" />
    <glyph glyph-name="p.sc" horiz-adv-x="454" 
d="M72 529h169c87 0 188 -25 188 -158c0 -123 -87 -162 -185 -162h-108v-209h-64v529zM136 477v-217h106c83 0 124 46 124 109c0 87 -54 108 -131 108h-99z" />
    <glyph glyph-name="q.sc" horiz-adv-x="584" 
d="M534 12l-34 -34l-62 60c-31 -24 -77 -47 -143 -47c-172 0 -249 131 -249 273c0 169 104 275 249 275c160 0 243 -127 243 -272c0 -64 -15 -142 -64 -198zM344 128l35 34l51 -49c12 18 44 65 44 155c0 104 -50 217 -182 217c-136 0 -180 -121 -180 -222
c0 -99 42 -219 180 -219c47 0 84 18 102 35z" />
    <glyph glyph-name="r.sc" horiz-adv-x="486" 
d="M72 529h170c68 0 197 -3 197 -135c0 -92 -53 -126 -111 -136c74 -8 90 -45 99 -115c9 -72 9 -98 33 -143h-72c-13 32 -18 75 -24 114c-10 72 -13 114 -128 114h-99v-228h-65v529zM137 477v-197h88c67 0 149 8 149 106c0 73 -58 91 -128 91h-109z" />
    <glyph glyph-name="s.sc" horiz-adv-x="448" 
d="M401 400l-60 -6c-11 67 -58 95 -119 95c-82 0 -107 -48 -107 -90c0 -49 41 -71 87 -84l65 -19c72 -22 144 -54 144 -150c0 -79 -61 -155 -188 -155c-100 0 -181 42 -195 153l63 7c10 -72 56 -108 130 -108c95 0 126 50 126 97c0 60 -37 81 -98 100l-73 22
c-65 19 -125 54 -125 134c0 102 91 143 171 143c113 0 172 -65 179 -139z" />
    <glyph glyph-name="t.sc" horiz-adv-x="423" 
d="M21 529h382v-52h-159v-477h-65v477h-158v52z" />
    <glyph glyph-name="u.sc" horiz-adv-x="523" 
d="M132 529v-350c0 -103 58 -135 128 -135c84 0 132 36 132 138v347h64v-352c0 -110 -60 -186 -190 -186c-140 0 -199 74 -199 196v342h65z" />
    <glyph glyph-name="v.sc" horiz-adv-x="464" 
d="M12 529h72l147 -450l152 450h69l-188 -529h-67z" />
    <glyph glyph-name="w.sc" horiz-adv-x="701" 
d="M318 529h68l114 -434l122 434h67l-152 -529h-69l-116 433l-120 -433h-69l-151 529h66l123 -434z" />
    <glyph glyph-name="x.sc" horiz-adv-x="463" 
d="M105 529l127 -197l127 197h76l-167 -249l183 -280h-75l-143 225l-146 -225h-75l181 280l-165 249h77z" />
    <glyph glyph-name="y.sc" horiz-adv-x="453" 
d="M87 529l138 -261l141 261h73l-184 -323v-206h-64v206l-177 323h73z" />
    <glyph glyph-name="z.sc" horiz-adv-x="465" 
d="M66 529h372v-50l-329 -428h327v-51h-405v51l327 425h-292v53z" />
    <glyph glyph-name="aacute.sc" horiz-adv-x="482" 
d="M204 529h75l193 -529h-68l-52 148h-222l-52 -148h-68zM241 470l-95 -271h189zM191 591l56 146h94l-102 -146h-48z" />
    <glyph glyph-name="agrave.sc" horiz-adv-x="482" 
d="M204 529h75l193 -529h-68l-52 148h-222l-52 -148h-68zM241 470l-95 -271h189zM131 736h94l56 -145h-48z" />
    <glyph glyph-name="acircumflex.sc" horiz-adv-x="482" 
d="M204 529h75l193 -529h-68l-52 148h-222l-52 -148h-68zM241 470l-95 -271h189zM101 590l97 148h88l98 -148h-60l-82 95l-81 -95h-60z" />
    <glyph glyph-name="adieresis.sc" horiz-adv-x="482" 
d="M204 529h75l193 -529h-68l-52 148h-222l-52 -148h-68zM241 470l-95 -271h189zM101 618v88h65v-88h-65zM314 618v88h64v-88h-64z" />
    <glyph glyph-name="atilde.sc" horiz-adv-x="482" 
d="M204 529h75l193 -529h-68l-52 148h-222l-52 -148h-68zM241 470l-95 -271h189zM332 721h42c0 -66 -13 -118 -63 -118c-52 0 -107 58 -137 58c-20 0 -28 -22 -29 -52h-42c2 59 11 116 62 116c47 0 104 -58 139 -58c19 0 26 22 28 54z" />
    <glyph glyph-name="aring.sc" horiz-adv-x="482" 
d="M204 529h75l193 -529h-68l-52 148h-222l-52 -148h-68zM241 470l-95 -271h189zM333 663c0 -51 -41 -92 -92 -92c-50 0 -92 42 -92 92c0 51 41 93 92 93s92 -42 92 -93zM292 663c0 28 -22 51 -50 51c-29 0 -51 -22 -51 -51c0 -28 23 -50 51 -50c27 0 50 23 50 50z" />
    <glyph glyph-name="ccedilla.sc" horiz-adv-x="548" 
d="M503 378l-67 -8c-23 105 -107 117 -144 117c-149 0 -179 -136 -179 -226c0 -148 84 -219 177 -219c100 0 139 66 152 121l67 -6c-15 -73 -76 -162 -206 -167l-23 -48c9 2 18 3 26 3c47 0 78 -30 78 -75c0 -52 -42 -88 -99 -88c-30 0 -55 8 -75 24l24 38
c17 -15 32 -21 50 -21c30 0 50 17 50 43s-18 43 -47 43c-14 0 -27 -3 -42 -13l-17 18l38 77c-156 12 -220 133 -220 271c0 142 73 276 240 276c102 0 196 -43 217 -160z" />
    <glyph glyph-name="eacute.sc" horiz-adv-x="443" 
d="M72 529h332v-52h-268v-180h250v-51h-250v-194h280v-52h-344v529zM191 591l56 146h94l-102 -146h-48z" />
    <glyph glyph-name="egrave.sc" horiz-adv-x="443" 
d="M72 529h332v-52h-268v-180h250v-51h-250v-194h280v-52h-344v529zM122 736h94l56 -145h-48z" />
    <glyph glyph-name="ecircumflex.sc" horiz-adv-x="443" 
d="M72 529h332v-52h-268v-180h250v-51h-250v-194h280v-52h-344v529zM94 590l97 148h88l98 -148h-60l-82 95l-81 -95h-60z" />
    <glyph glyph-name="edieresis.sc" horiz-adv-x="443" 
d="M72 529h332v-52h-268v-180h250v-51h-250v-194h280v-52h-344v529zM97 618v88h65v-88h-65zM310 618v88h64v-88h-64z" />
    <glyph glyph-name="iacute.sc" horiz-adv-x="209" 
d="M137 529v-529h-65v529h65zM57 591l56 146h94l-102 -146h-48z" />
    <glyph glyph-name="igrave.sc" horiz-adv-x="209" 
d="M137 529v-529h-65v529h65zM3 736h94l56 -145h-48z" />
    <glyph glyph-name="icircumflex.sc" horiz-adv-x="209" 
d="M137 529v-529h-65v529h65zM-40 590l97 148h88l98 -148h-60l-82 95l-81 -95h-60z" />
    <glyph glyph-name="idieresis.sc" horiz-adv-x="209" 
d="M137 529v-529h-65v529h65zM-34 618v88h65v-88h-65zM179 618v88h64v-88h-64z" />
    <glyph glyph-name="ntilde.sc" horiz-adv-x="546" 
d="M412 529h62v-529h-64l-277 431c0 -133 2 -295 2 -431h-63v530h67l274 -425c-1 138 -1 284 -1 424zM366 721h42c0 -66 -13 -118 -63 -118c-52 0 -107 58 -137 58c-20 0 -28 -22 -29 -52h-42c2 59 11 116 62 116c47 0 104 -58 139 -58c19 0 26 22 28 54z" />
    <glyph glyph-name="oacute.sc" horiz-adv-x="585" 
d="M46 263c0 173 107 276 248 276c179 0 245 -147 245 -274c0 -141 -77 -274 -245 -274c-169 0 -248 133 -248 272zM473 268c0 104 -48 217 -180 217c-149 0 -181 -142 -181 -221c0 -101 41 -220 181 -220c136 0 180 119 180 224zM242 591l56 146h94l-102 -146h-48z" />
    <glyph glyph-name="ograve.sc" horiz-adv-x="585" 
d="M46 263c0 173 107 276 248 276c179 0 245 -147 245 -274c0 -141 -77 -274 -245 -274c-169 0 -248 133 -248 272zM473 268c0 104 -48 217 -180 217c-149 0 -181 -142 -181 -221c0 -101 41 -220 181 -220c136 0 180 119 180 224zM174 736h94l56 -145h-48z" />
    <glyph glyph-name="ocircumflex.sc" horiz-adv-x="585" 
d="M46 263c0 173 107 276 248 276c179 0 245 -147 245 -274c0 -141 -77 -274 -245 -274c-169 0 -248 133 -248 272zM473 268c0 104 -48 217 -180 217c-149 0 -181 -142 -181 -221c0 -101 41 -220 181 -220c136 0 180 119 180 224zM151 590l97 148h88l98 -148h-60l-82 95
l-81 -95h-60z" />
    <glyph glyph-name="odieresis.sc" horiz-adv-x="585" 
d="M46 263c0 173 107 276 248 276c179 0 245 -147 245 -274c0 -141 -77 -274 -245 -274c-169 0 -248 133 -248 272zM473 268c0 104 -48 217 -180 217c-149 0 -181 -142 -181 -221c0 -101 41 -220 181 -220c136 0 180 119 180 224zM151 618v88h65v-88h-65zM364 618v88h64v-88
h-64z" />
    <glyph glyph-name="otilde.sc" horiz-adv-x="585" 
d="M46 263c0 173 107 276 248 276c179 0 245 -147 245 -274c0 -141 -77 -274 -245 -274c-169 0 -248 133 -248 272zM473 268c0 104 -48 217 -180 217c-149 0 -181 -142 -181 -221c0 -101 41 -220 181 -220c136 0 180 119 180 224zM384 721h42c0 -66 -13 -118 -63 -118
c-52 0 -107 58 -137 58c-20 0 -28 -22 -29 -52h-42c2 59 11 116 62 116c47 0 104 -58 139 -58c19 0 26 22 28 54z" />
    <glyph glyph-name="uacute.sc" horiz-adv-x="523" 
d="M132 529v-350c0 -103 58 -135 128 -135c84 0 132 36 132 138v347h64v-352c0 -110 -60 -186 -190 -186c-140 0 -199 74 -199 196v342h65zM211 591l56 146h94l-102 -146h-48z" />
    <glyph glyph-name="ugrave.sc" horiz-adv-x="523" 
d="M132 529v-350c0 -103 58 -135 128 -135c84 0 132 36 132 138v347h64v-352c0 -110 -60 -186 -190 -186c-140 0 -199 74 -199 196v342h65zM154 736h94l56 -145h-48z" />
    <glyph glyph-name="ucircumflex.sc" horiz-adv-x="523" 
d="M132 529v-350c0 -103 58 -135 128 -135c84 0 132 36 132 138v347h64v-352c0 -110 -60 -186 -190 -186c-140 0 -199 74 -199 196v342h65zM122 590l97 148h88l98 -148h-60l-82 95l-81 -95h-60z" />
    <glyph glyph-name="udieresis.sc" horiz-adv-x="523" 
d="M132 529v-350c0 -103 58 -135 128 -135c84 0 132 36 132 138v347h64v-352c0 -110 -60 -186 -190 -186c-140 0 -199 74 -199 196v342h65zM122 618v88h65v-88h-65zM335 618v88h64v-88h-64z" />
    <glyph glyph-name="cent.oldstyle" horiz-adv-x="424" 
d="M248 460v-73c41 -2 132 -28 143 -128l-61 -6c-5 23 -21 72 -82 79v-280c61 8 79 56 85 83l62 -4c-10 -59 -49 -122 -147 -133v-76h-43v76c-100 7 -163 80 -163 187c0 92 45 192 163 202v73h43zM205 53v279c-77 -9 -95 -93 -95 -141c0 -60 19 -127 95 -138z" />
    <glyph glyph-name="sterling.oldstyle" horiz-adv-x="526" 
d="M376 286v-48h-138c12 -29 23 -63 23 -95c0 -15 -3 -28 -7 -40c50 -31 83 -51 108 -51c45 0 57 40 57 99h70c-1 -97 -32 -159 -121 -159c-43 0 -75 16 -138 58c-28 -50 -74 -59 -105 -59c-54 0 -98 32 -98 82c0 53 40 84 97 84c33 0 58 -13 75 -25c0 23 -11 53 -32 106
h-101v48h80c-17 38 -26 70 -26 112c5 82 77 132 169 132c143 0 169 -110 170 -161l-71 -3c-1 81 -53 105 -100 105c-61 0 -96 -38 -96 -86c0 -35 20 -85 27 -99h157zM191 83c-27 21 -48 28 -66 28c-25 0 -43 -13 -43 -37s20 -38 44 -38c32 0 52 22 65 47z" />
    <glyph glyph-name="germandbls.sc" horiz-adv-x="896" 
d="M401 400l-60 -6c-11 67 -58 95 -119 95c-82 0 -107 -48 -107 -90c0 -49 41 -71 87 -84l65 -19c72 -22 144 -54 144 -150c0 -79 -61 -155 -188 -155c-100 0 -181 42 -195 153l63 7c10 -72 56 -108 130 -108c95 0 126 50 126 97c0 60 -37 81 -98 100l-73 22
c-65 19 -125 54 -125 134c0 102 91 143 171 143c113 0 172 -65 179 -139zM849 400l-60 -6c-11 67 -58 95 -119 95c-82 0 -107 -48 -107 -90c0 -49 41 -71 87 -84l65 -19c72 -22 144 -54 144 -150c0 -79 -61 -155 -188 -155c-100 0 -181 42 -195 153l63 7
c10 -72 56 -108 130 -108c95 0 126 50 126 97c0 60 -37 81 -98 100l-73 22c-65 19 -125 54 -125 134c0 102 91 143 171 143c113 0 172 -65 179 -139z" />
    <glyph glyph-name="yen.oldstyle" horiz-adv-x="497" 
d="M334 289h94v-44h-121l-24 -41v-21h145v-43h-145v-140h-74v140h-145v44h145v20l-25 41h-120v44h95l-134 228h83l139 -248l142 248h83z" />
    <glyph glyph-name="ae.sc" horiz-adv-x="699" 
d="M296 529h366v-52h-261v-180h243v-50h-243v-195h272v-52h-335v145h-178l-80 -145h-69zM337 482l-153 -286h153v286z" />
    <glyph glyph-name="oslash.sc" horiz-adv-x="585" 
d="M540 507l-55 -60c37 -53 54 -120 54 -182c0 -141 -77 -274 -245 -274c-72 0 -128 24 -168 62l-50 -54l-30 29l52 57c-35 50 -52 113 -52 178c0 173 107 276 248 276c71 0 125 -24 163 -60l53 57zM473 268c0 45 -10 93 -31 132l-277 -304c28 -31 69 -52 128 -52
c136 0 180 119 180 224zM112 264c0 -45 7 -93 28 -133l277 303c-29 31 -69 51 -124 51c-149 0 -181 -142 -181 -221z" />
    <glyph glyph-name="florin.oldstyle" horiz-adv-x="342" 
d="M319 519l-8 -54c-16 4 -34 5 -45 5c-42 0 -50 -25 -55 -56l-7 -47h82v-49h-87l-41 -330c-7 -59 -21 -119 -116 -119c-19 0 -38 2 -54 4l5 54c13 -2 30 -4 38 -4c47 0 51 27 56 62l42 333h-69v49h74l7 45c10 64 28 113 115 113c20 0 42 -2 63 -6z" />
    <glyph glyph-name="oe.sc" horiz-adv-x="833" 
d="M526 478v-182h251v-50h-251v-194h280v-52h-340v94c-33 -69 -109 -102 -180 -102c-166 0 -240 131 -240 267c0 130 70 280 237 280c119 0 165 -61 182 -88v78h330v-51h-269zM112 266c0 -136 66 -224 178 -224c137 0 176 126 176 224c0 117 -50 220 -172 220
c-132 0 -182 -116 -182 -220z" />
    <glyph glyph-name="ydieresis.sc" horiz-adv-x="453" 
d="M87 529l138 -261l141 261h73l-184 -323v-206h-64v206l-177 323h73zM84 618v88h65v-88h-65zM297 618v88h64v-88h-64z" />
    <glyph glyph-name="Euro.oldstyle" horiz-adv-x="548" 
d="M512 466c-12 -19 -24 -38 -35 -58c-33 44 -75 63 -129 63c-83 0 -134 -46 -156 -133h233v-44h-239c-1 -16 -1 -27 -1 -33c0 -7 0 -16 1 -28h239v-44h-233c20 -90 75 -141 156 -141c54 0 97 24 127 76l45 -47c-45 -60 -100 -87 -175 -87c-124 0 -206 70 -228 199h-59v44
h54v33c0 6 0 21 1 28h-55v44h60c27 126 110 192 231 192c67 0 120 -20 163 -64z" />
    <glyph glyph-name="f_i.sc" horiz-adv-x="612" 
d="M384 529v-52h-246v-187h228v-51h-228v-239h-66v529h312zM540 529v-529h-65v529h65z" />
    <glyph glyph-name="f_l.sc" horiz-adv-x="817" 
d="M384 529v-52h-246v-187h228v-51h-228v-239h-66v529h312zM540 529v-477h257v-52h-322v529h65z" />
    <glyph glyph-name="periodcentered.sc" horiz-adv-x="188" 
d="M133 332v-92h-78v92h78z" />
    <glyph glyph-name="perthousand.oldstyle" horiz-adv-x="1154" 
d="M29 364c0 110 70 167 152 167c86 0 151 -52 151 -162c0 -84 -48 -165 -151 -165s-152 80 -152 160zM85 364c0 -68 41 -109 97 -109c49 0 94 35 94 113c0 64 -34 111 -96 111c-58 0 -95 -46 -95 -115zM487 516h53c-77 -172 -152 -344 -228 -516h-53zM469 149
c0 110 69 167 152 167c85 0 151 -51 151 -162c0 -83 -48 -163 -151 -163s-152 79 -152 158zM525 150c0 -68 41 -109 96 -109c50 0 94 35 94 113c0 63 -34 110 -95 110c-58 0 -95 -46 -95 -114zM821 149c0 110 70 167 152 167c86 0 151 -51 151 -162
c0 -83 -48 -163 -151 -163s-152 79 -152 158zM877 150c0 -68 41 -109 97 -109c49 0 94 35 94 113c0 63 -34 110 -96 110c-58 0 -95 -46 -95 -114z" />
    <glyph glyph-name="acute.sc" horiz-adv-x="292" 
d="M71 591l56 146h94l-102 -146h-48z" />
    <glyph glyph-name="breve.sc" horiz-adv-x="292" 
d="M219 725h50c0 -72 -55 -123 -126 -123c-74 0 -120 52 -120 123h52c4 -40 26 -64 66 -64c42 0 75 20 78 64z" />
    <glyph glyph-name="caron.sc" horiz-adv-x="292" 
d="M287 737l-98 -147h-87l-98 147h61l79 -96l84 96h59z" />
    <glyph glyph-name="cedilla.sc" horiz-adv-x="292" 
d="M121 5h38l-31 -63c9 2 18 3 26 3c47 0 78 -30 78 -75c0 -52 -42 -88 -99 -88c-30 0 -55 8 -75 24l24 38c17 -15 32 -21 50 -21c30 0 50 17 50 43s-18 43 -47 43c-14 0 -27 -3 -42 -13l-17 18z" />
    <glyph glyph-name="circumflex.sc" horiz-adv-x="292" 
d="M4 590l97 148h88l98 -148h-60l-82 95l-81 -95h-60z" />
    <glyph glyph-name="commaaccent.sc" horiz-adv-x="292" 
d="M113 -39h66v-61c0 -37 -1 -98 -62 -113v38c17 13 22 34 22 57h-26v79z" />
    <glyph glyph-name="dieresis.sc" horiz-adv-x="292" 
d="M7 618v88h65v-88h-65zM220 618v88h64v-88h-64z" />
    <glyph glyph-name="dotaccent.sc" horiz-adv-x="292" 
d="M113 619v87h65v-87h-65z" />
    <glyph glyph-name="grave.sc" horiz-adv-x="292" 
d="M71 736h94l56 -145h-48z" />
    <glyph glyph-name="hungarumlaut.sc" horiz-adv-x="292" 
d="M5 591l57 146h94l-103 -146h-48zM137 591l58 146h92l-102 -146h-48z" />
    <glyph glyph-name="macron.sc" horiz-adv-x="292" 
d="M15 618v63h262v-63h-262z" />
    <glyph glyph-name="ogonek.sc" horiz-adv-x="292" 
d="M152 14l42 -8c-40 -49 -57 -83 -57 -103c0 -35 30 -36 60 -36h24v-59h-49c-36 0 -101 4 -101 66c0 38 26 74 54 108z" />
    <glyph glyph-name="ring.sc" horiz-adv-x="292" 
d="M238 663c0 -51 -41 -92 -92 -92c-50 0 -92 42 -92 92c0 51 41 93 92 93s92 -42 92 -93zM197 663c0 28 -22 51 -50 51c-29 0 -51 -22 -51 -51c0 -28 23 -50 51 -50c27 0 50 23 50 50z" />
    <glyph glyph-name="tilde.sc" horiz-adv-x="292" 
d="M240 721h42c0 -66 -13 -118 -63 -118c-52 0 -107 58 -137 58c-20 0 -28 -22 -29 -52h-42c2 59 11 116 62 116c47 0 104 -58 139 -58c19 0 26 22 28 54z" />
    <glyph glyph-name="exclam.sc" horiz-adv-x="230" 
d="M162 542v-214s-7 -93 -13 -185h-41c-6 92 -13 185 -13 185v214h67zM88 0v100h81v-100h-81z" />
    <glyph glyph-name="question.sc" horiz-adv-x="409" 
d="M215 143h-57v48c0 46 17 79 69 118l24 18c36 27 56 60 56 95c0 45 -38 77 -104 77c-76 0 -103 -47 -106 -104l-66 5c7 135 116 153 174 153c104 0 171 -45 171 -131c0 -48 -20 -85 -60 -116l-23 -18c-53 -41 -78 -51 -78 -110v-35zM147 0v100h81v-100h-81z" />
    <glyph glyph-name="exclamdown.sc" horiz-adv-x="230" 
d="M68 -13v214s7 93 13 185h41c6 -92 13 -185 13 -185v-214h-67zM142 529v-100h-81v100h81z" />
    <glyph glyph-name="questiondown.sc" horiz-adv-x="409" 
d="M194 386h57v-48c0 -46 -17 -79 -69 -118l-24 -18c-36 -27 -56 -60 -56 -95c0 -45 38 -77 104 -77c76 0 103 47 106 104l66 -5c-7 -135 -116 -153 -174 -153c-104 0 -171 45 -171 131c0 48 20 85 60 116l23 18c53 41 78 51 78 110v35zM262 529v-100h-81v100h81z" />
    <glyph glyph-name="onethird" unicode="&#x2153;" horiz-adv-x="833" 
d="M563 701l-272 -701h-53l273 701h52zM222 250h-53v318h-94v44c54 0 99 22 108 80h39v-442zM614 208v48c52 0 111 7 111 74c0 45 -35 72 -78 72c-57 0 -83 -43 -86 -94l-57 5c8 82 56 137 141 137c73 0 134 -42 134 -119c0 -49 -23 -83 -69 -97c53 -4 85 -51 85 -104
c0 -85 -69 -137 -150 -137c-90 0 -156 59 -156 152h56c0 -63 30 -104 98 -104c54 0 97 30 97 87c0 58 -45 80 -99 80h-27z" />
    <glyph glyph-name="twothirds" unicode="&#x2154;" horiz-adv-x="833" 
d="M596 701l-272 -701h-53l273 701h52zM614 208v48c52 0 111 7 111 74c0 45 -35 72 -78 72c-57 0 -83 -43 -86 -94l-57 5c8 82 56 137 141 137c73 0 134 -42 134 -119c0 -49 -23 -83 -69 -97c53 -4 85 -51 85 -104c0 -85 -69 -137 -150 -137c-90 0 -156 59 -156 152h56
c0 -63 30 -104 98 -104c54 0 97 30 97 87c0 58 -45 80 -99 80h-27zM311 297v-47h-280v47l117 107c48 43 115 102 115 167c0 48 -30 78 -79 78c-66 0 -79 -52 -84 -107l-1 -11l-53 4c0 88 42 164 139 164c76 0 130 -48 130 -127c0 -85 -66 -143 -124 -194l-92 -81h212z" />
    <glyph glyph-name="oneeighth" unicode="&#x215b;" horiz-adv-x="833" 
d="M563 701l-272 -701h-53l273 701h52zM222 250h-53v318h-94v44c54 0 99 22 108 80h39v-442zM714 241c79 -22 81 -95 81 -115c0 -70 -48 -133 -148 -133c-79 0 -150 48 -150 134c0 50 25 98 78 114c-59 23 -60 75 -60 93c0 88 80 115 130 115c54 0 132 -23 132 -117
c0 -61 -40 -81 -63 -91zM549 129c0 -31 14 -89 94 -89c58 0 102 24 102 86c0 67 -48 90 -99 90c-56 0 -97 -26 -97 -87zM563 332c0 -59 56 -69 78 -69c51 0 87 23 87 69c0 37 -24 70 -81 70c-66 0 -84 -39 -84 -70z" />
    <glyph glyph-name="threeeighths" unicode="&#x215c;" horiz-adv-x="833" 
d="M578 701l-272 -701h-53l273 701h52zM714 241c79 -22 81 -95 81 -115c0 -70 -48 -133 -148 -133c-79 0 -150 48 -150 134c0 50 25 98 78 114c-59 23 -60 75 -60 93c0 88 80 115 130 115c54 0 132 -23 132 -117c0 -61 -40 -81 -63 -91zM549 129c0 -31 14 -89 94 -89
c58 0 102 24 102 86c0 67 -48 90 -99 90c-56 0 -97 -26 -97 -87zM563 332c0 -59 56 -69 78 -69c51 0 87 23 87 69c0 37 -24 70 -81 70c-66 0 -84 -39 -84 -70zM148 458v48c52 0 111 7 111 74c0 45 -35 72 -78 72c-57 0 -83 -43 -86 -94l-57 5c8 82 56 137 141 137
c73 0 134 -42 134 -119c0 -49 -23 -83 -69 -97c53 -4 85 -51 85 -104c0 -85 -69 -137 -150 -137c-90 0 -156 59 -156 152h56c0 -63 30 -104 98 -104c54 0 97 30 97 87c0 58 -45 80 -99 80h-27z" />
    <glyph glyph-name="fiveeighths" unicode="&#x215d;" horiz-adv-x="833" 
d="M571 701l-272 -701h-53l273 701h52zM714 241c79 -22 81 -95 81 -115c0 -70 -48 -133 -148 -133c-79 0 -150 48 -150 134c0 50 25 98 78 114c-59 23 -60 75 -60 93c0 88 80 115 130 115c54 0 132 -23 132 -117c0 -61 -40 -81 -63 -91zM549 129c0 -31 14 -89 94 -89
c58 0 102 24 102 86c0 67 -48 90 -99 90c-56 0 -97 -26 -97 -87zM563 332c0 -59 56 -69 78 -69c51 0 87 23 87 69c0 37 -24 70 -81 70c-66 0 -84 -39 -84 -70zM44 451l35 242h220v-49h-178c-17 -107 -18 -116 -22 -128c15 13 38 30 84 30c78 0 139 -56 139 -148
c0 -82 -54 -155 -150 -155c-103 0 -135 75 -139 131l51 5c6 -76 55 -88 87 -88c72 0 98 55 98 107c0 32 -20 101 -95 101c-21 0 -56 -6 -84 -48h-46z" />
    <glyph glyph-name="seveneighths" unicode="&#x215e;" horiz-adv-x="833" 
d="M553 701l-272 -701h-53l273 701h52zM714 241c79 -22 81 -95 81 -115c0 -70 -48 -133 -148 -133c-79 0 -150 48 -150 134c0 50 25 98 78 114c-59 23 -60 75 -60 93c0 88 80 115 130 115c54 0 132 -23 132 -117c0 -61 -40 -81 -63 -91zM549 129c0 -31 14 -89 94 -89
c58 0 102 24 102 86c0 67 -48 90 -99 90c-56 0 -97 -26 -97 -87zM563 332c0 -59 56 -69 78 -69c51 0 87 23 87 69c0 37 -24 70 -81 70c-66 0 -84 -39 -84 -70zM82 646v46h278v-41c-122 -153 -157 -278 -169 -401h-59c16 137 68 260 164 396h-214z" />
    <glyph glyph-name="onefifth" horiz-adv-x="833" 
d="M563 701l-272 -701h-53l273 701h52zM222 250h-53v318h-94v44c54 0 99 22 108 80h39v-442zM517 201l35 242h220v-49h-178c-17 -107 -18 -116 -22 -128c15 13 38 30 84 30c78 0 139 -56 139 -148c0 -82 -54 -155 -150 -155c-103 0 -135 75 -139 131l51 5
c6 -76 55 -88 87 -88c72 0 98 55 98 107c0 32 -20 101 -95 101c-21 0 -56 -6 -84 -48h-46z" />
    <glyph glyph-name="twofifths" horiz-adv-x="833" 
d="M593 701l-272 -701h-53l273 701h52zM517 201l35 242h220v-49h-178c-17 -107 -18 -116 -22 -128c15 13 38 30 84 30c78 0 139 -56 139 -148c0 -82 -54 -155 -150 -155c-103 0 -135 75 -139 131l51 5c6 -76 55 -88 87 -88c72 0 98 55 98 107c0 32 -20 101 -95 101
c-21 0 -56 -6 -84 -48h-46zM311 297v-47h-280v47l117 107c48 43 115 102 115 167c0 48 -30 78 -79 78c-66 0 -79 -52 -84 -107l-1 -11l-53 4c0 88 42 164 139 164c76 0 130 -48 130 -127c0 -85 -66 -143 -124 -194l-92 -81h212z" />
    <glyph glyph-name="threefifths" horiz-adv-x="833" 
d="M583 701l-272 -701h-53l273 701h52zM148 458v48c52 0 111 7 111 74c0 45 -35 72 -78 72c-57 0 -83 -43 -86 -94l-57 5c8 82 56 137 141 137c73 0 134 -42 134 -119c0 -49 -23 -83 -69 -97c53 -4 85 -51 85 -104c0 -85 -69 -137 -150 -137c-90 0 -156 59 -156 152h56
c0 -63 30 -104 98 -104c54 0 97 30 97 87c0 58 -45 80 -99 80h-27zM517 201l35 242h220v-49h-178c-17 -107 -18 -116 -22 -128c15 13 38 30 84 30c78 0 139 -56 139 -148c0 -82 -54 -155 -150 -155c-103 0 -135 75 -139 131l51 5c6 -76 55 -88 87 -88c72 0 98 55 98 107
c0 32 -20 101 -95 101c-21 0 -56 -6 -84 -48h-46z" />
    <glyph glyph-name="fourfifths" horiz-adv-x="833" 
d="M583 701l-272 -701h-53l273 701h52zM517 201l35 242h220v-49h-178c-17 -107 -18 -116 -22 -128c15 13 38 30 84 30c78 0 139 -56 139 -148c0 -82 -54 -155 -150 -155c-103 0 -135 75 -139 131l51 5c6 -76 55 -88 87 -88c72 0 98 55 98 107c0 32 -20 101 -95 101
c-21 0 -56 -6 -84 -48h-46zM27 355v44l200 293h40v-293h62v-44h-62v-105h-50v105h-190zM83 399h134v203z" />
    <glyph glyph-name="zero.numerator" horiz-adv-x="360" 
d="M333 466c0 -101 -33 -223 -153 -223c-124 0 -151 133 -151 233c0 102 31 225 154 225c126 0 150 -134 150 -235zM279 466c0 68 -8 186 -100 186c-91 0 -96 -117 -96 -183c0 -69 11 -178 100 -178c86 0 96 110 96 175z" />
    <glyph glyph-name="one.numerator" horiz-adv-x="360" 
d="M224 250h-53v318h-94v44c54 0 99 22 108 80h39v-442z" />
    <glyph glyph-name="two.numerator" horiz-adv-x="360" 
d="M311 297v-47h-280v47l117 107c48 43 115 102 115 167c0 48 -30 78 -79 78c-66 0 -79 -52 -84 -107l-1 -11l-53 4c0 88 42 164 139 164c76 0 130 -48 130 -127c0 -85 -66 -143 -124 -194l-92 -81h212z" />
    <glyph glyph-name="three.numerator" horiz-adv-x="360" 
d="M148 458v48c52 0 111 7 111 74c0 45 -35 72 -78 72c-57 0 -83 -43 -86 -94l-57 5c8 82 56 137 141 137c73 0 134 -42 134 -119c0 -49 -23 -83 -69 -97c53 -4 85 -51 85 -104c0 -85 -69 -137 -150 -137c-90 0 -156 59 -156 152h56c0 -63 30 -104 98 -104c54 0 97 30 97 87
c0 58 -45 80 -99 80h-27z" />
    <glyph glyph-name="four.numerator" horiz-adv-x="360" 
d="M27 355v44l200 293h40v-293h62v-44h-62v-105h-50v105h-190zM83 399h134v203z" />
    <glyph glyph-name="five.numerator" horiz-adv-x="360" 
d="M49 451l35 242h220v-49h-178c-17 -107 -18 -116 -22 -128c15 13 38 30 84 30c78 0 139 -56 139 -148c0 -82 -54 -155 -150 -155c-103 0 -135 75 -139 131l51 5c6 -76 55 -88 87 -88c72 0 98 55 98 107c0 32 -20 101 -95 101c-21 0 -56 -6 -84 -48h-46z" />
    <glyph glyph-name="six.numerator" horiz-adv-x="360" 
d="M323 578l-52 -5c-6 43 -33 79 -81 79c-79 0 -93 -104 -95 -158c13 12 48 43 102 43c73 0 134 -54 134 -146c0 -86 -59 -148 -140 -148s-149 56 -149 226c0 118 42 229 155 229c42 0 112 -19 126 -120zM279 392c0 52 -35 97 -89 97c-47 0 -89 -38 -89 -93
c0 -96 72 -105 92 -105c57 0 86 50 86 101z" />
    <glyph glyph-name="seven.numerator" horiz-adv-x="360" 
d="M52 646v46h278v-41c-122 -153 -157 -278 -169 -401h-59c16 137 68 260 164 396h-214z" />
    <glyph glyph-name="eight.numerator" horiz-adv-x="360" 
d="M247 491c79 -22 81 -95 81 -115c0 -70 -48 -133 -148 -133c-79 0 -150 48 -150 134c0 50 25 98 78 114c-59 23 -60 75 -60 93c0 88 80 115 130 115c54 0 132 -23 132 -117c0 -61 -40 -81 -63 -91zM82 379c0 -31 14 -89 94 -89c58 0 102 24 102 86c0 67 -48 90 -99 90
c-56 0 -97 -26 -97 -87zM96 582c0 -59 56 -69 78 -69c51 0 87 23 87 69c0 37 -24 70 -81 70c-66 0 -84 -39 -84 -70z" />
    <glyph glyph-name="nine.numerator" horiz-adv-x="360" 
d="M38 361l52 6c11 -65 53 -79 81 -79c60 0 93 49 98 161c-21 -21 -47 -45 -99 -45c-87 0 -141 64 -141 147c0 128 109 148 142 148c145 0 151 -159 151 -220c0 -149 -50 -236 -155 -236c-21 0 -77 6 -109 61c-13 24 -19 49 -20 57zM262 545c0 57 -30 106 -93 106
c-59 0 -88 -46 -88 -99c0 -52 32 -100 90 -100c50 0 91 31 91 93z" />
    <glyph glyph-name="period.numerator" horiz-adv-x="132" 
d="M33 250v76h66v-76h-66z" />
    <glyph glyph-name="comma.numerator" horiz-adv-x="132" 
d="M33 326h66v-58c0 -33 -1 -84 -61 -98v38c14 10 16 27 16 37v5h-21v76z" />
    <glyph glyph-name="hyphen.numerator" horiz-adv-x="203" 
d="M18 461h168v-49h-168v49z" />
    <glyph glyph-name="parenleft.numerator" horiz-adv-x="210" 
d="M144 738h44c-63 -96 -94 -195 -94 -306c0 -106 28 -201 92 -299h-45c-62 85 -103 203 -103 301c0 105 40 216 106 304z" />
    <glyph glyph-name="parenright.numerator" horiz-adv-x="210" 
d="M66 133h-44c62 103 95 188 95 305c0 107 -29 200 -94 300h46c62 -84 104 -202 104 -302c0 -109 -39 -210 -107 -303z" />
    <glyph glyph-name="dollar.numerator" horiz-adv-x="355" 
d="M157 749h40v-60c77 -6 113 -47 124 -120l-53 -4c-4 35 -24 73 -71 78v-145c4 -2 10 -3 13 -4c59 -22 113 -56 113 -124c0 -74 -53 -112 -126 -119v-59h-40v59c-81 2 -127 60 -136 139l49 8c7 -49 31 -94 87 -100v160c-68 26 -111 50 -111 118c0 65 42 107 111 113v60z
M197 445v-146c43 3 75 28 75 72c0 42 -39 60 -75 74zM157 513v129c-42 -1 -61 -27 -61 -61c0 -36 23 -53 61 -68z" />
    <glyph glyph-name="cent.numerator" horiz-adv-x="330" 
d="M309 483l-50 -8c-6 38 -30 67 -65 73v-254c35 7 58 23 70 75l49 -8c-15 -65 -55 -104 -119 -111v-61h-42v62c-94 8 -125 91 -125 167c0 75 35 162 125 172v61h42v-61c58 -4 104 -44 115 -107zM152 295v251c-52 -9 -75 -72 -75 -126c0 -48 16 -117 75 -125z" />
    <glyph glyph-name="sterling.numerator" horiz-adv-x="378" 
d="M362 375v-11c0 -52 -17 -118 -84 -118c-36 0 -71 20 -113 47c-15 -29 -36 -47 -73 -47c-43 0 -75 27 -75 69c0 38 26 64 65 64c20 0 38 -7 55 -16c1 4 1 10 1 13c0 21 -5 44 -14 65h-77v47h61c-7 22 -12 52 -12 77c0 77 46 125 125 125c72 0 120 -48 120 -116v-17l-50 -4
v13c0 46 -21 77 -71 77c-49 0 -71 -34 -71 -77c0 -25 7 -55 15 -78h111v-47h-99c6 -21 11 -42 11 -66c0 -14 -1 -26 -5 -38c26 -14 64 -40 90 -40c35 0 40 48 40 76zM128 321c-18 11 -33 16 -43 16c-15 0 -27 -9 -27 -24c0 -16 14 -26 30 -26c19 0 32 15 40 34z" />
    <glyph glyph-name="yen.numerator" horiz-adv-x="375" 
d="M261 511h70v-41h-94l-22 -35v-19h116v-40h-116v-126h-53v126h-116v40h116v19l-21 35h-95v41h70l-112 183h61l125 -206l123 206h58z" />
    <glyph glyph-name="Euro.numerator" horiz-adv-x="412" 
d="M394 643l-26 -43c-27 36 -62 51 -104 51c-63 0 -109 -25 -130 -109h190v-41h-196c-1 -13 -1 -19 -1 -27c0 -7 0 -15 1 -27h196v-40h-191c15 -71 55 -116 131 -116c42 0 77 18 103 63l33 -34c-34 -49 -82 -74 -139 -74c-98 0 -160 56 -181 161h-44v40h41
c-1 12 -1 22 -1 27s0 15 1 27h-41v41h46c21 108 95 154 181 154c54 0 97 -16 131 -53z" />
    <glyph glyph-name="florin.numerator" horiz-adv-x="234" 
d="M238 692l-4 -44c-10 2 -18 3 -28 3c-44 0 -48 -27 -53 -67l-2 -15h66v-45h-70l-35 -286c-4 -34 -10 -64 -34 -85c-19 -16 -41 -20 -65 -20c-8 0 -22 1 -33 4l5 44c11 -4 18 -5 26 -5c44 0 47 32 51 68l34 280h-57v45h61l1 8c7 64 14 118 101 118c12 0 29 -2 36 -3z" />
    <glyph glyph-name="zero.denominator" horiz-adv-x="360" 
d="M333 216c0 -101 -33 -223 -153 -223c-124 0 -151 133 -151 233c0 102 31 225 154 225c126 0 150 -134 150 -235zM279 216c0 68 -8 186 -100 186c-91 0 -96 -117 -96 -183c0 -69 11 -178 100 -178c86 0 96 110 96 175z" />
    <glyph glyph-name="one.denominator" horiz-adv-x="360" 
d="M224 0h-53v318h-94v44c54 0 99 22 108 80h39v-442z" />
    <glyph glyph-name="two.denominator" horiz-adv-x="360" 
d="M311 47v-47h-280v47l117 107c48 43 115 102 115 167c0 48 -30 78 -79 78c-66 0 -79 -52 -84 -107l-1 -11l-53 4c0 88 42 164 139 164c76 0 130 -48 130 -127c0 -85 -66 -143 -124 -194l-92 -81h212z" />
    <glyph glyph-name="three.denominator" horiz-adv-x="360" 
d="M148 208v48c52 0 111 7 111 74c0 45 -35 72 -78 72c-57 0 -83 -43 -86 -94l-57 5c8 82 56 137 141 137c73 0 134 -42 134 -119c0 -49 -23 -83 -69 -97c53 -4 85 -51 85 -104c0 -85 -69 -137 -150 -137c-90 0 -156 59 -156 152h56c0 -63 30 -104 98 -104c54 0 97 30 97 87
c0 58 -45 80 -99 80h-27z" />
    <glyph glyph-name="four.denominator" horiz-adv-x="360" 
d="M27 105v44l200 293h40v-293h62v-44h-62v-105h-50v105h-190zM83 149h134v203z" />
    <glyph glyph-name="five.denominator" horiz-adv-x="360" 
d="M49 201l35 242h220v-49h-178c-17 -107 -18 -116 -22 -128c15 13 38 30 84 30c78 0 139 -56 139 -148c0 -82 -54 -155 -150 -155c-103 0 -135 75 -139 131l51 5c6 -76 55 -88 87 -88c72 0 98 55 98 107c0 32 -20 101 -95 101c-21 0 -56 -6 -84 -48h-46z" />
    <glyph glyph-name="six.denominator" horiz-adv-x="360" 
d="M323 328l-52 -5c-6 43 -33 79 -81 79c-79 0 -93 -104 -95 -158c13 12 48 43 102 43c73 0 134 -54 134 -146c0 -86 -59 -148 -140 -148s-149 56 -149 226c0 118 42 229 155 229c42 0 112 -19 126 -120zM279 142c0 52 -35 97 -89 97c-47 0 -89 -38 -89 -93
c0 -96 72 -105 92 -105c57 0 86 50 86 101z" />
    <glyph glyph-name="seven.denominator" horiz-adv-x="360" 
d="M52 396v46h278v-41c-122 -153 -157 -278 -169 -401h-59c16 137 68 260 164 396h-214z" />
    <glyph glyph-name="eight.denominator" horiz-adv-x="360" 
d="M247 241c79 -22 81 -95 81 -115c0 -70 -48 -133 -148 -133c-79 0 -150 48 -150 134c0 50 25 98 78 114c-59 23 -60 75 -60 93c0 88 80 115 130 115c54 0 132 -23 132 -117c0 -61 -40 -81 -63 -91zM82 129c0 -31 14 -89 94 -89c58 0 102 24 102 86c0 67 -48 90 -99 90
c-56 0 -97 -26 -97 -87zM96 332c0 -59 56 -69 78 -69c51 0 87 23 87 69c0 37 -24 70 -81 70c-66 0 -84 -39 -84 -70z" />
    <glyph glyph-name="nine.denominator" horiz-adv-x="360" 
d="M38 111l52 6c11 -65 53 -79 81 -79c60 0 93 49 98 161c-21 -21 -47 -45 -99 -45c-87 0 -141 64 -141 147c0 128 109 148 142 148c145 0 151 -159 151 -220c0 -149 -50 -236 -155 -236c-21 0 -77 6 -109 61c-13 24 -19 49 -20 57zM262 295c0 57 -30 106 -93 106
c-59 0 -88 -46 -88 -99c0 -52 32 -100 90 -100c50 0 91 31 91 93z" />
    <glyph glyph-name="period.denominator" horiz-adv-x="132" 
d="M33 0v76h66v-76h-66z" />
    <glyph glyph-name="comma.denominator" horiz-adv-x="132" 
d="M33 76h66v-58c0 -33 -1 -84 -61 -98v38c14 10 16 27 16 37v5h-21v76z" />
    <glyph glyph-name="hyphen.denominator" horiz-adv-x="203" 
d="M18 211h168v-49h-168v49z" />
    <glyph glyph-name="parenleft.denominator" horiz-adv-x="210" 
d="M144 488h44c-63 -96 -94 -195 -94 -306c0 -106 28 -201 92 -299h-45c-62 85 -103 203 -103 301c0 105 40 216 106 304z" />
    <glyph glyph-name="parenright.denominator" horiz-adv-x="210" 
d="M66 -117h-44c62 103 95 188 95 305c0 107 -29 200 -94 300h46c62 -84 104 -202 104 -302c0 -109 -39 -210 -107 -303z" />
    <glyph glyph-name="dollar.denominator" horiz-adv-x="355" 
d="M157 499h40v-60c77 -6 113 -47 124 -120l-53 -4c-4 35 -24 73 -71 78v-145c4 -2 10 -3 13 -4c59 -22 113 -56 113 -124c0 -74 -53 -112 -126 -119v-59h-40v59c-81 2 -127 60 -136 139l49 8c7 -49 31 -94 87 -100v160c-68 26 -111 50 -111 118c0 65 42 107 111 113v60z
M197 195v-146c43 3 75 28 75 72c0 42 -39 60 -75 74zM157 263v129c-42 -1 -61 -27 -61 -61c0 -36 23 -53 61 -68z" />
    <glyph glyph-name="cent.denominator" horiz-adv-x="330" 
d="M309 233l-50 -8c-6 38 -30 67 -65 73v-254c35 7 58 23 70 75l49 -8c-15 -65 -55 -104 -119 -111v-61h-42v62c-94 8 -125 91 -125 167c0 75 35 162 125 172v61h42v-61c58 -4 104 -44 115 -107zM152 45v251c-52 -9 -75 -72 -75 -126c0 -48 16 -117 75 -125z" />
    <glyph glyph-name="sterling.denominator" horiz-adv-x="378" 
d="M362 125v-11c0 -52 -17 -118 -84 -118c-36 0 -71 20 -113 47c-15 -29 -36 -47 -73 -47c-43 0 -75 27 -75 69c0 38 26 64 65 64c20 0 38 -7 55 -16c1 4 1 10 1 13c0 21 -5 44 -14 65h-77v47h61c-7 22 -12 52 -12 77c0 77 46 125 125 125c72 0 120 -48 120 -116v-17l-50 -4
v13c0 46 -21 77 -71 77c-49 0 -71 -34 -71 -77c0 -25 7 -55 15 -78h111v-47h-99c6 -21 11 -42 11 -66c0 -14 -1 -26 -5 -38c26 -14 64 -40 90 -40c35 0 40 48 40 76zM128 71c-18 11 -33 16 -43 16c-15 0 -27 -9 -27 -24c0 -16 14 -26 30 -26c19 0 32 15 40 34z" />
    <glyph glyph-name="yen.denominator" horiz-adv-x="375" 
d="M261 261h70v-41h-94l-22 -35v-19h116v-40h-116v-126h-53v126h-116v40h116v19l-21 35h-95v41h70l-112 183h61l125 -206l123 206h58z" />
    <glyph glyph-name="Euro.denominator" horiz-adv-x="412" 
d="M394 393l-26 -43c-27 36 -62 51 -104 51c-63 0 -109 -25 -130 -109h190v-41h-196c-1 -13 -1 -19 -1 -27c0 -7 0 -15 1 -27h196v-40h-191c15 -71 55 -116 131 -116c42 0 77 18 103 63l33 -34c-34 -49 -82 -74 -139 -74c-98 0 -160 56 -181 161h-44v40h41
c-1 12 -1 22 -1 27s0 15 1 27h-41v41h46c21 108 95 154 181 154c54 0 97 -16 131 -53z" />
    <glyph glyph-name="florin.denominator" horiz-adv-x="234" 
d="M238 442l-4 -44c-10 2 -18 3 -28 3c-44 0 -48 -27 -53 -67l-2 -15h66v-45h-70l-35 -286c-4 -34 -10 -64 -34 -85c-19 -16 -41 -20 -65 -20c-8 0 -22 1 -33 4l5 44c11 -4 18 -5 26 -5c44 0 47 32 51 68l34 280h-57v45h61l1 8c7 64 14 118 101 118c12 0 29 -2 36 -3z" />
    <glyph glyph-name="zero.superior" unicode="&#x2070;" horiz-adv-x="360" 
d="M333 631c0 -101 -33 -223 -153 -223c-124 0 -151 133 -151 233c0 102 31 225 154 225c126 0 150 -134 150 -235zM279 631c0 68 -8 186 -100 186c-91 0 -96 -117 -96 -183c0 -69 11 -178 100 -178c86 0 96 110 96 175z" />
    <glyph glyph-name="one.superior" horiz-adv-x="360" 
d="M224 415h-53v318h-94v44c54 0 99 22 108 80h39v-442z" />
    <glyph glyph-name="two.superior" horiz-adv-x="360" 
d="M311 462v-47h-280v47l117 107c48 43 115 102 115 167c0 48 -30 78 -79 78c-66 0 -79 -52 -84 -107l-1 -11l-53 4c0 88 42 164 139 164c76 0 130 -48 130 -127c0 -85 -66 -143 -124 -194l-92 -81h212z" />
    <glyph glyph-name="three.superior" horiz-adv-x="360" 
d="M148 623v48c52 0 111 7 111 74c0 45 -35 72 -78 72c-57 0 -83 -43 -86 -94l-57 5c8 82 56 137 141 137c73 0 134 -42 134 -119c0 -49 -23 -83 -69 -97c53 -4 85 -51 85 -104c0 -85 -69 -137 -150 -137c-90 0 -156 59 -156 152h56c0 -63 30 -104 98 -104c54 0 97 30 97 87
c0 58 -45 80 -99 80h-27z" />
    <glyph glyph-name="four.superior" unicode="&#x2074;" horiz-adv-x="360" 
d="M27 520v44l200 293h40v-293h62v-44h-62v-105h-50v105h-190zM83 564h134v203z" />
    <glyph glyph-name="five.superior" unicode="&#x2075;" horiz-adv-x="360" 
d="M49 616l35 242h220v-49h-178c-17 -107 -18 -116 -22 -128c15 13 38 30 84 30c78 0 139 -56 139 -148c0 -82 -54 -155 -150 -155c-103 0 -135 75 -139 131l51 5c6 -76 55 -88 87 -88c72 0 98 55 98 107c0 32 -20 101 -95 101c-21 0 -56 -6 -84 -48h-46z" />
    <glyph glyph-name="six.superior" unicode="&#x2076;" horiz-adv-x="360" 
d="M323 743l-52 -5c-6 43 -33 79 -81 79c-79 0 -93 -104 -95 -158c13 12 48 43 102 43c73 0 134 -54 134 -146c0 -86 -59 -148 -140 -148s-149 56 -149 226c0 118 42 229 155 229c42 0 112 -19 126 -120zM279 557c0 52 -35 97 -89 97c-47 0 -89 -38 -89 -93
c0 -96 72 -105 92 -105c57 0 86 50 86 101z" />
    <glyph glyph-name="seven.superior" unicode="&#x2077;" horiz-adv-x="360" 
d="M52 811v46h278v-41c-122 -153 -157 -278 -169 -401h-59c16 137 68 260 164 396h-214z" />
    <glyph glyph-name="eight.superior" unicode="&#x2078;" horiz-adv-x="360" 
d="M247 656c79 -22 81 -95 81 -115c0 -70 -48 -133 -148 -133c-79 0 -150 48 -150 134c0 50 25 98 78 114c-59 23 -60 75 -60 93c0 88 80 115 130 115c54 0 132 -23 132 -117c0 -61 -40 -81 -63 -91zM82 544c0 -31 14 -89 94 -89c58 0 102 24 102 86c0 67 -48 90 -99 90
c-56 0 -97 -26 -97 -87zM96 747c0 -59 56 -69 78 -69c51 0 87 23 87 69c0 37 -24 70 -81 70c-66 0 -84 -39 -84 -70z" />
    <glyph glyph-name="nine.superior" unicode="&#x2079;" horiz-adv-x="360" 
d="M38 526l52 6c11 -65 53 -79 81 -79c60 0 93 49 98 161c-21 -21 -47 -45 -99 -45c-87 0 -141 64 -141 147c0 128 109 148 142 148c145 0 151 -159 151 -220c0 -149 -50 -236 -155 -236c-21 0 -77 6 -109 61c-13 24 -19 49 -20 57zM262 710c0 57 -30 106 -93 106
c-59 0 -88 -46 -88 -99c0 -52 32 -100 90 -100c50 0 91 31 91 93z" />
    <glyph glyph-name="period.superior" horiz-adv-x="132" 
d="M33 415v76h66v-76h-66z" />
    <glyph glyph-name="comma.superior" horiz-adv-x="132" 
d="M33 491h66v-58c0 -33 -1 -84 -61 -98v38c14 10 16 27 16 37v5h-21v76z" />
    <glyph glyph-name="hyphen.superior" horiz-adv-x="203" 
d="M18 626h168v-49h-168v49z" />
    <glyph glyph-name="parenleft.superior" unicode="&#x207d;" horiz-adv-x="210" 
d="M144 903h44c-63 -96 -94 -195 -94 -306c0 -106 28 -201 92 -299h-45c-62 85 -103 203 -103 301c0 105 40 216 106 304z" />
    <glyph glyph-name="parenright.superior" unicode="&#x207e;" horiz-adv-x="210" 
d="M66 298h-44c62 103 95 188 95 305c0 107 -29 200 -94 300h46c62 -84 104 -202 104 -302c0 -109 -39 -210 -107 -303z" />
    <glyph glyph-name="dollar.superior" horiz-adv-x="355" 
d="M157 914h40v-60c77 -6 113 -47 124 -120l-53 -4c-4 35 -24 73 -71 78v-145c4 -2 10 -3 13 -4c59 -22 113 -56 113 -124c0 -74 -53 -112 -126 -119v-59h-40v59c-81 2 -127 60 -136 139l49 8c7 -49 31 -94 87 -100v160c-68 26 -111 50 -111 118c0 65 42 107 111 113v60z
M197 610v-146c43 3 75 28 75 72c0 42 -39 60 -75 74zM157 678v129c-42 -1 -61 -27 -61 -61c0 -36 23 -53 61 -68z" />
    <glyph glyph-name="cent.superior" horiz-adv-x="330" 
d="M309 648l-50 -8c-6 38 -30 67 -65 73v-254c35 7 58 23 70 75l49 -8c-15 -65 -55 -104 -119 -111v-61h-42v62c-94 8 -125 91 -125 167c0 75 35 162 125 172v61h42v-61c58 -4 104 -44 115 -107zM152 460v251c-52 -9 -75 -72 -75 -126c0 -48 16 -117 75 -125z" />
    <glyph glyph-name="sterling.superior" horiz-adv-x="378" 
d="M362 540v-11c0 -52 -17 -118 -84 -118c-36 0 -71 20 -113 47c-15 -29 -36 -47 -73 -47c-43 0 -75 27 -75 69c0 38 26 64 65 64c20 0 38 -7 55 -16c1 4 1 10 1 13c0 21 -5 44 -14 65h-77v47h61c-7 22 -12 52 -12 77c0 77 46 125 125 125c72 0 120 -48 120 -116v-17l-50 -4
v13c0 46 -21 77 -71 77c-49 0 -71 -34 -71 -77c0 -25 7 -55 15 -78h111v-47h-99c6 -21 11 -42 11 -66c0 -14 -1 -26 -5 -38c26 -14 64 -40 90 -40c35 0 40 48 40 76zM128 486c-18 11 -33 16 -43 16c-15 0 -27 -9 -27 -24c0 -16 14 -26 30 -26c19 0 32 15 40 34z" />
    <glyph glyph-name="yen.superior" horiz-adv-x="375" 
d="M261 676h70v-41h-94l-22 -35v-19h116v-40h-116v-126h-53v126h-116v40h116v19l-21 35h-95v41h70l-112 183h61l125 -206l123 206h58z" />
    <glyph glyph-name="Euro.superior" horiz-adv-x="412" 
d="M394 808l-26 -43c-27 36 -62 51 -104 51c-63 0 -109 -25 -130 -109h190v-41h-196c-1 -13 -1 -19 -1 -27c0 -7 0 -15 1 -27h196v-40h-191c15 -71 55 -116 131 -116c42 0 77 18 103 63l33 -34c-34 -49 -82 -74 -139 -74c-98 0 -160 56 -181 161h-44v40h41
c-1 12 -1 22 -1 27s0 15 1 27h-41v41h46c21 108 95 154 181 154c54 0 97 -16 131 -53z" />
    <glyph glyph-name="florin.superior" horiz-adv-x="234" 
d="M238 857l-4 -44c-10 2 -18 3 -28 3c-44 0 -48 -27 -53 -67l-2 -15h66v-45h-70l-35 -286c-4 -34 -10 -64 -34 -85c-19 -16 -41 -20 -65 -20c-8 0 -22 1 -33 4l5 44c11 -4 18 -5 26 -5c44 0 47 32 51 68l34 280h-57v45h61l1 8c7 64 14 118 101 118c12 0 29 -2 36 -3z" />
    <glyph glyph-name="zero.inferior" unicode="&#x2080;" horiz-adv-x="360" 
d="M333 66c0 -101 -33 -223 -153 -223c-124 0 -151 133 -151 233c0 102 31 225 154 225c126 0 150 -134 150 -235zM279 66c0 68 -8 186 -100 186c-91 0 -96 -117 -96 -183c0 -69 11 -178 100 -178c86 0 96 110 96 175z" />
    <glyph glyph-name="one.inferior" unicode="&#x2081;" horiz-adv-x="360" 
d="M224 -150h-53v318h-94v44c54 0 99 22 108 80h39v-442z" />
    <glyph glyph-name="two.inferior" unicode="&#x2082;" horiz-adv-x="360" 
d="M311 -103v-47h-280v47l117 107c48 43 115 102 115 167c0 48 -30 78 -79 78c-66 0 -79 -52 -84 -107l-1 -11l-53 4c0 88 42 164 139 164c76 0 130 -48 130 -127c0 -85 -66 -143 -124 -194l-92 -81h212z" />
    <glyph glyph-name="three.inferior" unicode="&#x2083;" horiz-adv-x="360" 
d="M148 58v48c52 0 111 7 111 74c0 45 -35 72 -78 72c-57 0 -83 -43 -86 -94l-57 5c8 82 56 137 141 137c73 0 134 -42 134 -119c0 -49 -23 -83 -69 -97c53 -4 85 -51 85 -104c0 -85 -69 -137 -150 -137c-90 0 -156 59 -156 152h56c0 -63 30 -104 98 -104c54 0 97 30 97 87
c0 58 -45 80 -99 80h-27z" />
    <glyph glyph-name="four.inferior" unicode="&#x2084;" horiz-adv-x="360" 
d="M27 -45v44l200 293h40v-293h62v-44h-62v-105h-50v105h-190zM83 -1h134v203z" />
    <glyph glyph-name="five.inferior" unicode="&#x2085;" horiz-adv-x="360" 
d="M49 51l35 242h220v-49h-178c-17 -107 -18 -116 -22 -128c15 13 38 30 84 30c78 0 139 -56 139 -148c0 -82 -54 -155 -150 -155c-103 0 -135 75 -139 131l51 5c6 -76 55 -88 87 -88c72 0 98 55 98 107c0 32 -20 101 -95 101c-21 0 -56 -6 -84 -48h-46z" />
    <glyph glyph-name="six.inferior" unicode="&#x2086;" horiz-adv-x="360" 
d="M323 178l-52 -5c-6 43 -33 79 -81 79c-79 0 -93 -104 -95 -158c13 12 48 43 102 43c73 0 134 -54 134 -146c0 -86 -59 -148 -140 -148s-149 56 -149 226c0 118 42 229 155 229c42 0 112 -19 126 -120zM279 -8c0 52 -35 97 -89 97c-47 0 -89 -38 -89 -93
c0 -96 72 -105 92 -105c57 0 86 50 86 101z" />
    <glyph glyph-name="seven.inferior" unicode="&#x2087;" horiz-adv-x="360" 
d="M52 246v46h278v-41c-122 -153 -157 -278 -169 -401h-59c16 137 68 260 164 396h-214z" />
    <glyph glyph-name="eight.inferior" unicode="&#x2088;" horiz-adv-x="360" 
d="M247 91c79 -22 81 -95 81 -115c0 -70 -48 -133 -148 -133c-79 0 -150 48 -150 134c0 50 25 98 78 114c-59 23 -60 75 -60 93c0 88 80 115 130 115c54 0 132 -23 132 -117c0 -61 -40 -81 -63 -91zM82 -21c0 -31 14 -89 94 -89c58 0 102 24 102 86c0 67 -48 90 -99 90
c-56 0 -97 -26 -97 -87zM96 182c0 -59 56 -69 78 -69c51 0 87 23 87 69c0 37 -24 70 -81 70c-66 0 -84 -39 -84 -70z" />
    <glyph glyph-name="nine.inferior" unicode="&#x2089;" horiz-adv-x="360" 
d="M38 -39l52 6c11 -65 53 -79 81 -79c60 0 93 49 98 161c-21 -21 -47 -45 -99 -45c-87 0 -141 64 -141 147c0 128 109 148 142 148c145 0 151 -159 151 -220c0 -149 -50 -236 -155 -236c-21 0 -77 6 -109 61c-13 24 -19 49 -20 57zM262 145c0 57 -30 106 -93 106
c-59 0 -88 -46 -88 -99c0 -52 32 -100 90 -100c50 0 91 31 91 93z" />
    <glyph glyph-name="period.inferior" horiz-adv-x="132" 
d="M33 -150v76h66v-76h-66z" />
    <glyph glyph-name="comma.inferior" horiz-adv-x="132" 
d="M33 -74h66v-58c0 -33 -1 -84 -61 -98v38c14 10 16 27 16 37v5h-21v76z" />
    <glyph glyph-name="hyphen.inferior" horiz-adv-x="203" 
d="M18 61h168v-49h-168v49z" />
    <glyph glyph-name="parenleft.inferior" unicode="&#x208d;" horiz-adv-x="210" 
d="M144 338h44c-63 -96 -94 -195 -94 -306c0 -106 28 -201 92 -299h-45c-62 85 -103 203 -103 301c0 105 40 216 106 304z" />
    <glyph glyph-name="parenright.inferior" unicode="&#x208e;" horiz-adv-x="210" 
d="M66 -267h-44c62 103 95 188 95 305c0 107 -29 200 -94 300h46c62 -84 104 -202 104 -302c0 -109 -39 -210 -107 -303z" />
    <glyph glyph-name="dollar.inferior" horiz-adv-x="355" 
d="M157 349h40v-60c77 -6 113 -47 124 -120l-53 -4c-4 35 -24 73 -71 78v-145c4 -2 10 -3 13 -4c59 -22 113 -56 113 -124c0 -74 -53 -112 -126 -119v-59h-40v59c-81 2 -127 60 -136 139l49 8c7 -49 31 -94 87 -100v160c-68 26 -111 50 -111 118c0 65 42 107 111 113v60z
M197 45v-146c43 3 75 28 75 72c0 42 -39 60 -75 74zM157 113v129c-42 -1 -61 -27 -61 -61c0 -36 23 -53 61 -68z" />
    <glyph glyph-name="cent.inferior" horiz-adv-x="330" 
d="M309 83l-50 -8c-6 38 -30 67 -65 73v-254c35 7 58 23 70 75l49 -8c-15 -65 -55 -104 -119 -111v-61h-42v62c-94 8 -125 91 -125 167c0 75 35 162 125 172v61h42v-61c58 -4 104 -44 115 -107zM152 -105v251c-52 -9 -75 -72 -75 -126c0 -48 16 -117 75 -125z" />
    <glyph glyph-name="sterling.inferior" horiz-adv-x="378" 
d="M362 -25v-11c0 -52 -17 -118 -84 -118c-36 0 -71 20 -113 47c-15 -29 -36 -47 -73 -47c-43 0 -75 27 -75 69c0 38 26 64 65 64c20 0 38 -7 55 -16c1 4 1 10 1 13c0 21 -5 44 -14 65h-77v47h61c-7 22 -12 52 -12 77c0 77 46 125 125 125c72 0 120 -48 120 -116v-17l-50 -4
v13c0 46 -21 77 -71 77c-49 0 -71 -34 -71 -77c0 -25 7 -55 15 -78h111v-47h-99c6 -21 11 -42 11 -66c0 -14 -1 -26 -5 -38c26 -14 64 -40 90 -40c35 0 40 48 40 76zM128 -79c-18 11 -33 16 -43 16c-15 0 -27 -9 -27 -24c0 -16 14 -26 30 -26c19 0 32 15 40 34z" />
    <glyph glyph-name="yen.inferior" horiz-adv-x="375" 
d="M261 111h70v-41h-94l-22 -35v-19h116v-40h-116v-126h-53v126h-116v40h116v19l-21 35h-95v41h70l-112 183h61l125 -206l123 206h58z" />
    <glyph glyph-name="Euro.inferior" horiz-adv-x="412" 
d="M394 243l-26 -43c-27 36 -62 51 -104 51c-63 0 -109 -25 -130 -109h190v-41h-196c-1 -13 -1 -19 -1 -27c0 -7 0 -15 1 -27h196v-40h-191c15 -71 55 -116 131 -116c42 0 77 18 103 63l33 -34c-34 -49 -82 -74 -139 -74c-98 0 -160 56 -181 161h-44v40h41
c-1 12 -1 22 -1 27s0 15 1 27h-41v41h46c21 108 95 154 181 154c54 0 97 -16 131 -53z" />
    <glyph glyph-name="florin.inferior" horiz-adv-x="234" 
d="M238 292l-4 -44c-10 2 -18 3 -28 3c-44 0 -48 -27 -53 -67l-2 -15h66v-45h-70l-35 -286c-4 -34 -10 -64 -34 -85c-19 -16 -41 -20 -65 -20c-8 0 -22 1 -33 4l5 44c11 -4 18 -5 26 -5c44 0 47 32 51 68l34 280h-57v45h61l1 8c7 64 14 118 101 118c12 0 29 -2 36 -3z" />
    <glyph glyph-name="Eth.sc" horiz-adv-x="550" 
d="M72 256h-53v41h53v232h175c29 0 80 -2 122 -20c107 -44 135 -161 135 -240s-24 -190 -119 -241c-46 -25 -102 -28 -153 -28h-160v256zM137 297h157v-41h-157v-203h74c41 0 96 0 137 20c61 31 90 103 90 197c0 108 -44 171 -111 195c-24 8 -53 12 -101 12h-89v-180z" />
    <glyph glyph-name="Lslash.sc" horiz-adv-x="414" 
d="M137 315l135 126v-62l-135 -126v-201h257v-52h-322v193l-48 -45v61l48 45v275h65v-214z" />
    <glyph glyph-name="Scaron.sc" horiz-adv-x="448" 
d="M401 400l-60 -6c-11 67 -58 95 -119 95c-82 0 -107 -48 -107 -90c0 -49 41 -71 87 -84l65 -19c72 -22 144 -54 144 -150c0 -79 -61 -155 -188 -155c-100 0 -181 42 -195 153l63 7c10 -72 56 -108 130 -108c95 0 126 50 126 97c0 60 -37 81 -98 100l-73 22
c-65 19 -125 54 -125 134c0 102 91 143 171 143c113 0 172 -65 179 -139zM355 737l-98 -147h-87l-98 147h61l79 -96l84 96h59z" />
    <glyph glyph-name="Yacute.sc" horiz-adv-x="453" 
d="M87 529l138 -261l141 261h73l-184 -323v-206h-64v206l-177 323h73zM172 591l56 146h94l-102 -146h-48z" />
    <glyph glyph-name="Thorn.sc" horiz-adv-x="456" 
d="M72 529h65v-86h97c110 0 196 -40 196 -160c0 -152 -127 -160 -197 -160h-96v-123h-65v529zM137 390v-216h93c81 0 136 24 136 108c0 81 -48 108 -124 108h-105z" />
    <glyph glyph-name="Zcaron.sc" horiz-adv-x="465" 
d="M66 529h372v-50l-329 -428h327v-51h-405v51l327 425h-292v53zM385 737l-98 -147h-87l-98 147h61l79 -96l84 96h59z" />
    <glyph glyph-name="A.sc" horiz-adv-x="482" 
d="M204 529h75l193 -529h-68l-52 148h-222l-52 -148h-68zM241 470l-95 -271h189z" />
    <glyph glyph-name="B.sc" horiz-adv-x="503" 
d="M72 529h174c74 0 127 -8 165 -48c26 -29 34 -63 34 -85c0 -59 -33 -103 -109 -117c68 -6 128 -43 128 -133c0 -111 -84 -146 -177 -146h-215v529zM137 477v-177h105c64 0 139 6 139 89c0 85 -74 88 -125 88h-119zM137 250v-199h146c32 0 116 7 116 100
c0 92 -86 99 -141 99h-121z" />
    <glyph glyph-name="C.sc" horiz-adv-x="548" 
d="M503 378l-67 -8c-23 105 -107 117 -144 117c-149 0 -179 -136 -179 -226c0 -148 84 -219 177 -219c100 0 139 66 152 121l67 -6c-15 -75 -79 -167 -216 -167c-175 0 -247 126 -247 272c0 142 73 276 240 276c102 0 196 -43 217 -160z" />
    <glyph glyph-name="D.sc" horiz-adv-x="550" 
d="M72 529h175c29 0 80 -3 122 -20c107 -44 135 -161 135 -240c0 -83 -28 -200 -130 -247c-44 -21 -97 -22 -142 -22h-160v529zM137 477v-424h74c40 0 94 1 134 20c64 31 93 99 93 197c0 106 -44 167 -106 192c-26 10 -55 15 -106 15h-89z" />
    <glyph glyph-name="E.sc" horiz-adv-x="443" 
d="M72 529h332v-52h-268v-180h250v-51h-250v-194h280v-52h-344v529z" />
    <glyph glyph-name="F.sc" horiz-adv-x="403" 
d="M384 529v-52h-246v-187h228v-51h-228v-239h-66v529h312z" />
    <glyph glyph-name="G.sc" horiz-adv-x="552" 
d="M502 0h-49s-2 57 -2 84c-26 -51 -79 -93 -168 -93c-165 0 -237 130 -237 268c0 145 78 279 249 279c127 0 191 -78 208 -155l-67 -7c-12 66 -66 108 -142 108c-125 0 -183 -102 -183 -216c0 -153 78 -224 180 -224c108 0 151 79 151 157v22h-165v51h225v-274z" />
    <glyph glyph-name="H.sc" horiz-adv-x="545" 
d="M72 529h65v-232h271v232h65v-529h-65v245h-271v-245h-65v529z" />
    <glyph glyph-name="I.sc" horiz-adv-x="209" 
d="M137 529v-529h-65v529h65z" />
    <glyph glyph-name="J.sc" horiz-adv-x="380" 
d="M308 529v-395c0 -88 -46 -142 -147 -142c-88 0 -144 47 -144 150v13h64v-15c0 -59 23 -96 83 -96c46 0 81 23 81 88v397h63z" />
    <glyph glyph-name="K.sc" horiz-adv-x="501" 
d="M137 529v-266l259 266h80l-214 -218l236 -311h-80l-200 269l-81 -81v-188h-65v529h65z" />
    <glyph glyph-name="L.sc" horiz-adv-x="414" 
d="M137 529v-477h257v-52h-322v529h65z" />
    <glyph glyph-name="M.sc" horiz-adv-x="659" 
d="M483 529h103v-529h-61c0 189 0 326 1 477l-163 -477h-68l-162 477c1 -151 1 -290 1 -477h-62v529h107l152 -458z" />
    <glyph glyph-name="N.sc" horiz-adv-x="546" 
d="M412 529h62v-529h-64l-277 431c0 -133 2 -295 2 -431h-63v530h67l274 -425c-1 138 -1 284 -1 424z" />
    <glyph glyph-name="O.sc" horiz-adv-x="585" 
d="M46 263c0 173 107 276 248 276c179 0 245 -147 245 -274c0 -141 -77 -274 -245 -274c-169 0 -248 133 -248 272zM473 268c0 104 -48 217 -180 217c-149 0 -181 -142 -181 -221c0 -101 41 -220 181 -220c136 0 180 119 180 224z" />
    <glyph glyph-name="P.sc" horiz-adv-x="454" 
d="M72 529h169c87 0 188 -25 188 -158c0 -123 -87 -162 -185 -162h-108v-209h-64v529zM136 477v-217h106c83 0 124 46 124 109c0 87 -54 108 -131 108h-99z" />
    <glyph glyph-name="Q.sc" horiz-adv-x="584" 
d="M534 12l-34 -34l-62 60c-31 -24 -77 -47 -143 -47c-172 0 -249 131 -249 273c0 169 104 275 249 275c160 0 243 -127 243 -272c0 -64 -15 -142 -64 -198zM344 128l35 34l51 -49c12 18 44 65 44 155c0 104 -50 217 -182 217c-136 0 -180 -121 -180 -222
c0 -99 42 -219 180 -219c47 0 84 18 102 35z" />
    <glyph glyph-name="R.sc" horiz-adv-x="486" 
d="M72 529h170c68 0 197 -3 197 -135c0 -92 -53 -126 -111 -136c74 -8 90 -45 99 -115c9 -72 9 -98 33 -143h-72c-13 32 -18 75 -24 114c-10 72 -13 114 -128 114h-99v-228h-65v529zM137 477v-197h88c67 0 149 8 149 106c0 73 -58 91 -128 91h-109z" />
    <glyph glyph-name="S.sc" horiz-adv-x="448" 
d="M401 400l-60 -6c-11 67 -58 95 -119 95c-82 0 -107 -48 -107 -90c0 -49 41 -71 87 -84l65 -19c72 -22 144 -54 144 -150c0 -79 -61 -155 -188 -155c-100 0 -181 42 -195 153l63 7c10 -72 56 -108 130 -108c95 0 126 50 126 97c0 60 -37 81 -98 100l-73 22
c-65 19 -125 54 -125 134c0 102 91 143 171 143c113 0 172 -65 179 -139z" />
    <glyph glyph-name="T.sc" horiz-adv-x="423" 
d="M21 529h382v-52h-159v-477h-65v477h-158v52z" />
    <glyph glyph-name="U.sc" horiz-adv-x="523" 
d="M132 529v-350c0 -103 58 -135 128 -135c84 0 132 36 132 138v347h64v-352c0 -110 -60 -186 -190 -186c-140 0 -199 74 -199 196v342h65z" />
    <glyph glyph-name="V.sc" horiz-adv-x="464" 
d="M12 529h72l147 -450l152 450h69l-188 -529h-67z" />
    <glyph glyph-name="W.sc" horiz-adv-x="701" 
d="M318 529h68l114 -434l122 434h67l-152 -529h-69l-116 433l-120 -433h-69l-151 529h66l123 -434z" />
    <glyph glyph-name="X.sc" horiz-adv-x="463" 
d="M105 529l127 -197l127 197h76l-167 -249l183 -280h-75l-143 225l-146 -225h-75l181 280l-165 249h77z" />
    <glyph glyph-name="Y.sc" horiz-adv-x="453" 
d="M87 529l138 -261l141 261h73l-184 -323v-206h-64v206l-177 323h73z" />
    <glyph glyph-name="Z.sc" horiz-adv-x="465" 
d="M66 529h372v-50l-329 -428h327v-51h-405v51l327 425h-292v53z" />
    <glyph glyph-name="Aacute.sc" horiz-adv-x="482" 
d="M204 529h75l193 -529h-68l-52 148h-222l-52 -148h-68zM241 470l-95 -271h189zM191 591l56 146h94l-102 -146h-48z" />
    <glyph glyph-name="Agrave.sc" horiz-adv-x="482" 
d="M204 529h75l193 -529h-68l-52 148h-222l-52 -148h-68zM241 470l-95 -271h189zM131 736h94l56 -145h-48z" />
    <glyph glyph-name="Acircumflex.sc" horiz-adv-x="482" 
d="M204 529h75l193 -529h-68l-52 148h-222l-52 -148h-68zM241 470l-95 -271h189zM101 590l97 148h88l98 -148h-60l-82 95l-81 -95h-60z" />
    <glyph glyph-name="Adieresis.sc" horiz-adv-x="482" 
d="M204 529h75l193 -529h-68l-52 148h-222l-52 -148h-68zM241 470l-95 -271h189zM101 618v88h65v-88h-65zM314 618v88h64v-88h-64z" />
    <glyph glyph-name="Atilde.sc" horiz-adv-x="482" 
d="M204 529h75l193 -529h-68l-52 148h-222l-52 -148h-68zM241 470l-95 -271h189zM332 721h42c0 -66 -13 -118 -63 -118c-52 0 -107 58 -137 58c-20 0 -28 -22 -29 -52h-42c2 59 11 116 62 116c47 0 104 -58 139 -58c19 0 26 22 28 54z" />
    <glyph glyph-name="Aring.sc" horiz-adv-x="482" 
d="M204 529h75l193 -529h-68l-52 148h-222l-52 -148h-68zM241 470l-95 -271h189zM333 663c0 -51 -41 -92 -92 -92c-50 0 -92 42 -92 92c0 51 41 93 92 93s92 -42 92 -93zM292 663c0 28 -22 51 -50 51c-29 0 -51 -22 -51 -51c0 -28 23 -50 51 -50c27 0 50 23 50 50z" />
    <glyph glyph-name="Ccedilla.sc" horiz-adv-x="548" 
d="M503 378l-67 -8c-23 105 -107 117 -144 117c-149 0 -179 -136 -179 -226c0 -148 84 -219 177 -219c100 0 139 66 152 121l67 -6c-15 -73 -76 -162 -206 -167l-23 -48c9 2 18 3 26 3c47 0 78 -30 78 -75c0 -52 -42 -88 -99 -88c-30 0 -55 8 -75 24l24 38
c17 -15 32 -21 50 -21c30 0 50 17 50 43s-18 43 -47 43c-14 0 -27 -3 -42 -13l-17 18l38 77c-156 12 -220 133 -220 271c0 142 73 276 240 276c102 0 196 -43 217 -160z" />
    <glyph glyph-name="Eacute.sc" horiz-adv-x="443" 
d="M72 529h332v-52h-268v-180h250v-51h-250v-194h280v-52h-344v529zM191 591l56 146h94l-102 -146h-48z" />
    <glyph glyph-name="Egrave.sc" horiz-adv-x="443" 
d="M72 529h332v-52h-268v-180h250v-51h-250v-194h280v-52h-344v529zM122 736h94l56 -145h-48z" />
    <glyph glyph-name="Ecircumflex.sc" horiz-adv-x="443" 
d="M72 529h332v-52h-268v-180h250v-51h-250v-194h280v-52h-344v529zM94 590l97 148h88l98 -148h-60l-82 95l-81 -95h-60z" />
    <glyph glyph-name="Edieresis.sc" horiz-adv-x="443" 
d="M72 529h332v-52h-268v-180h250v-51h-250v-194h280v-52h-344v529zM97 618v88h65v-88h-65zM310 618v88h64v-88h-64z" />
    <glyph glyph-name="Iacute.sc" horiz-adv-x="209" 
d="M137 529v-529h-65v529h65zM57 591l56 146h94l-102 -146h-48z" />
    <glyph glyph-name="Igrave.sc" horiz-adv-x="209" 
d="M137 529v-529h-65v529h65zM3 736h94l56 -145h-48z" />
    <glyph glyph-name="Icircumflex.sc" horiz-adv-x="209" 
d="M137 529v-529h-65v529h65zM-40 590l97 148h88l98 -148h-60l-82 95l-81 -95h-60z" />
    <glyph glyph-name="Idieresis.sc" horiz-adv-x="209" 
d="M137 529v-529h-65v529h65zM-34 618v88h65v-88h-65zM179 618v88h64v-88h-64z" />
    <glyph glyph-name="Ntilde.sc" horiz-adv-x="546" 
d="M412 529h62v-529h-64l-277 431c0 -133 2 -295 2 -431h-63v530h67l274 -425c-1 138 -1 284 -1 424zM366 721h42c0 -66 -13 -118 -63 -118c-52 0 -107 58 -137 58c-20 0 -28 -22 -29 -52h-42c2 59 11 116 62 116c47 0 104 -58 139 -58c19 0 26 22 28 54z" />
    <glyph glyph-name="Oacute.sc" horiz-adv-x="585" 
d="M46 263c0 173 107 276 248 276c179 0 245 -147 245 -274c0 -141 -77 -274 -245 -274c-169 0 -248 133 -248 272zM473 268c0 104 -48 217 -180 217c-149 0 -181 -142 -181 -221c0 -101 41 -220 181 -220c136 0 180 119 180 224zM242 591l56 146h94l-102 -146h-48z" />
    <glyph glyph-name="Ograve.sc" horiz-adv-x="585" 
d="M46 263c0 173 107 276 248 276c179 0 245 -147 245 -274c0 -141 -77 -274 -245 -274c-169 0 -248 133 -248 272zM473 268c0 104 -48 217 -180 217c-149 0 -181 -142 -181 -221c0 -101 41 -220 181 -220c136 0 180 119 180 224zM174 736h94l56 -145h-48z" />
    <glyph glyph-name="Ocircumflex.sc" horiz-adv-x="585" 
d="M46 263c0 173 107 276 248 276c179 0 245 -147 245 -274c0 -141 -77 -274 -245 -274c-169 0 -248 133 -248 272zM473 268c0 104 -48 217 -180 217c-149 0 -181 -142 -181 -221c0 -101 41 -220 181 -220c136 0 180 119 180 224zM151 590l97 148h88l98 -148h-60l-82 95
l-81 -95h-60z" />
    <glyph glyph-name="Odieresis.sc" horiz-adv-x="585" 
d="M46 263c0 173 107 276 248 276c179 0 245 -147 245 -274c0 -141 -77 -274 -245 -274c-169 0 -248 133 -248 272zM473 268c0 104 -48 217 -180 217c-149 0 -181 -142 -181 -221c0 -101 41 -220 181 -220c136 0 180 119 180 224zM151 618v88h65v-88h-65zM364 618v88h64v-88
h-64z" />
    <glyph glyph-name="Otilde.sc" horiz-adv-x="585" 
d="M46 263c0 173 107 276 248 276c179 0 245 -147 245 -274c0 -141 -77 -274 -245 -274c-169 0 -248 133 -248 272zM473 268c0 104 -48 217 -180 217c-149 0 -181 -142 -181 -221c0 -101 41 -220 181 -220c136 0 180 119 180 224zM384 721h42c0 -66 -13 -118 -63 -118
c-52 0 -107 58 -137 58c-20 0 -28 -22 -29 -52h-42c2 59 11 116 62 116c47 0 104 -58 139 -58c19 0 26 22 28 54z" />
    <glyph glyph-name="Uacute.sc" horiz-adv-x="523" 
d="M132 529v-350c0 -103 58 -135 128 -135c84 0 132 36 132 138v347h64v-352c0 -110 -60 -186 -190 -186c-140 0 -199 74 -199 196v342h65zM211 591l56 146h94l-102 -146h-48z" />
    <glyph glyph-name="Ugrave.sc" horiz-adv-x="523" 
d="M132 529v-350c0 -103 58 -135 128 -135c84 0 132 36 132 138v347h64v-352c0 -110 -60 -186 -190 -186c-140 0 -199 74 -199 196v342h65zM154 736h94l56 -145h-48z" />
    <glyph glyph-name="Ucircumflex.sc" horiz-adv-x="523" 
d="M132 529v-350c0 -103 58 -135 128 -135c84 0 132 36 132 138v347h64v-352c0 -110 -60 -186 -190 -186c-140 0 -199 74 -199 196v342h65zM122 590l97 148h88l98 -148h-60l-82 95l-81 -95h-60z" />
    <glyph glyph-name="Udieresis.sc" horiz-adv-x="523" 
d="M132 529v-350c0 -103 58 -135 128 -135c84 0 132 36 132 138v347h64v-352c0 -110 -60 -186 -190 -186c-140 0 -199 74 -199 196v342h65zM122 618v88h65v-88h-65zM335 618v88h64v-88h-64z" />
    <glyph glyph-name="AE.sc" horiz-adv-x="699" 
d="M296 529h366v-52h-261v-180h243v-50h-243v-195h272v-52h-335v145h-178l-80 -145h-69zM337 482l-153 -286h153v286z" />
    <glyph glyph-name="Oslash.sc" horiz-adv-x="585" 
d="M540 507l-55 -60c37 -53 54 -120 54 -182c0 -141 -77 -274 -245 -274c-72 0 -128 24 -168 62l-50 -54l-30 29l52 57c-35 50 -52 113 -52 178c0 173 107 276 248 276c71 0 125 -24 163 -60l53 57zM473 268c0 45 -10 93 -31 132l-277 -304c28 -31 69 -52 128 -52
c136 0 180 119 180 224zM112 264c0 -45 7 -93 28 -133l277 303c-29 31 -69 51 -124 51c-149 0 -181 -142 -181 -221z" />
    <glyph glyph-name="OE.sc" horiz-adv-x="833" 
d="M526 478v-182h251v-50h-251v-194h280v-52h-340v94c-33 -69 -109 -102 -180 -102c-166 0 -240 131 -240 267c0 130 70 280 237 280c119 0 165 -61 182 -88v78h330v-51h-269zM112 266c0 -136 66 -224 178 -224c137 0 176 126 176 224c0 117 -50 220 -172 220
c-132 0 -182 -116 -182 -220z" />
    <glyph glyph-name="Ydieresis.sc" horiz-adv-x="453" 
d="M87 529l138 -261l141 261h73l-184 -323v-206h-64v206l-177 323h73zM84 618v88h65v-88h-65zM297 618v88h64v-88h-64z" />
    <glyph glyph-name="zero.fitted" horiz-adv-x="562" 
d="M512 343c0 -154 -44 -349 -234 -349c-198 0 -234 202 -234 359c0 153 47 346 237 346c194 0 231 -203 231 -356zM444 358c0 108 -21 282 -163 282c-153 0 -169 -183 -169 -294c0 -113 15 -295 167 -295c151 0 165 193 165 307z" />
    <glyph glyph-name="one.fitted" horiz-adv-x="417" 
d="M270 0h-67v509h-151v53c74 6 149 22 173 132h45v-694z" />
    <glyph glyph-name="two.fitted" horiz-adv-x="562" 
d="M488 58v-58h-437v65l147 130c37 33 74 65 109 100c58 57 118 123 118 210c0 80 -55 135 -135 135c-107 0 -145 -96 -145 -188l-69 6c0 134 64 243 211 243c123 0 204 -73 204 -198c0 -128 -105 -221 -197 -302l-163 -143h357z" />
    <glyph glyph-name="three.fitted" horiz-adv-x="562" 
d="M237 338v57c71 0 173 20 173 123c0 78 -62 123 -135 123c-87 0 -137 -67 -142 -148l-68 8c4 31 10 66 25 94c37 70 112 106 189 106c105 0 198 -63 198 -176c0 -69 -31 -130 -101 -151c80 -26 129 -93 129 -176c0 -121 -94 -204 -228 -204c-135 0 -224 82 -235 217l70 4
c8 -100 60 -163 165 -163c92 0 159 54 159 148s-76 138 -162 138h-37z" />
    <glyph glyph-name="four.fitted" horiz-adv-x="522" 
d="M25 166v58l321 469h47v-469h99v-58h-99v-166h-67v166h-301zM91 224h235c1 86 5 356 5 356z" />
    <glyph glyph-name="five.fitted" horiz-adv-x="562" 
d="M468 632h-281l-37 -222c41 32 93 50 145 50c129 0 207 -103 207 -226c0 -135 -88 -240 -227 -240c-121 0 -201 69 -215 191l64 9c9 -85 57 -142 145 -142c102 0 167 80 167 178c0 93 -61 171 -159 171c-56 0 -113 -30 -142 -79h-57l57 371h333v-61z" />
    <glyph glyph-name="six.fitted" horiz-adv-x="562" 
d="M493 522l-66 -5c-12 73 -58 129 -136 129c-142 0 -161 -174 -167 -280c43 53 101 80 169 80c128 0 207 -102 207 -224c0 -115 -67 -228 -211 -228c-189 0 -232 173 -232 327c0 159 44 382 242 382c106 0 183 -76 194 -181zM433 220c0 91 -53 167 -150 167
c-94 0 -152 -73 -152 -164c0 -95 56 -172 157 -172c97 0 145 80 145 169z" />
    <glyph glyph-name="seven.fitted" horiz-adv-x="502" 
d="M470 692v-53c-29 -38 -58 -75 -84 -115c-101 -153 -169 -341 -183 -524h-81c31 228 129 431 270 633h-348v59h426z" />
    <glyph glyph-name="eight.fitted" horiz-adv-x="562" 
d="M389 382c81 -29 125 -97 125 -182c0 -137 -106 -206 -233 -206c-128 0 -231 75 -231 210c0 80 39 155 120 178c-60 23 -91 85 -91 147c0 123 87 176 203 176c114 0 203 -55 203 -177c0 -66 -33 -122 -96 -146zM420 528c0 79 -61 119 -135 119c-76 0 -142 -32 -142 -116
c0 -82 62 -122 139 -122c84 0 138 46 138 119zM449 200c0 105 -73 150 -169 150c-99 0 -164 -47 -164 -149c0 -96 71 -148 163 -148c94 0 170 45 170 147z" />
    <glyph glyph-name="nine.fitted" horiz-adv-x="562" 
d="M70 175l66 5c11 -74 57 -130 136 -130c142 0 161 174 166 281c-43 -54 -99 -81 -168 -81c-129 0 -207 101 -207 224c0 131 81 229 215 229c182 0 228 -174 228 -324c0 -160 -39 -385 -242 -385c-107 0 -183 76 -194 181zM431 474c0 96 -56 171 -157 171
c-97 0 -145 -79 -145 -168c0 -91 54 -168 151 -168c102 0 151 84 151 165z" />
    <glyph glyph-name="zero.tab" horiz-adv-x="562" 
d="M512 343c0 -154 -44 -349 -234 -349c-198 0 -234 202 -234 359c0 153 47 346 237 346c194 0 231 -203 231 -356zM444 358c0 108 -21 282 -163 282c-153 0 -169 -183 -169 -294c0 -113 15 -295 167 -295c151 0 165 193 165 307z" />
    <glyph glyph-name="one.tab" horiz-adv-x="562" 
d="M343 0h-67v509h-151v53c74 6 149 22 173 132h45v-694z" />
    <glyph glyph-name="two.tab" horiz-adv-x="562" 
d="M488 58v-58h-437v65l147 130c37 33 74 65 109 100c58 57 118 123 118 210c0 80 -55 135 -135 135c-107 0 -145 -96 -145 -188l-69 6c0 134 64 243 211 243c123 0 204 -73 204 -198c0 -128 -105 -221 -197 -302l-163 -143h357z" />
    <glyph glyph-name="three.tab" horiz-adv-x="562" 
d="M237 338v57c71 0 173 20 173 123c0 78 -62 123 -135 123c-87 0 -137 -67 -142 -148l-68 8c4 31 10 66 25 94c37 70 112 106 189 106c105 0 198 -63 198 -176c0 -69 -31 -130 -101 -151c80 -26 129 -93 129 -176c0 -121 -94 -204 -228 -204c-135 0 -224 82 -235 217l70 4
c8 -100 60 -163 165 -163c92 0 159 54 159 148s-76 138 -162 138h-37z" />
    <glyph glyph-name="four.tab" horiz-adv-x="562" 
d="M45 166v58l321 469h47v-469h99v-58h-99v-166h-67v166h-301zM111 224h235c1 86 5 356 5 356z" />
    <glyph glyph-name="five.tab" horiz-adv-x="562" 
d="M468 632h-281l-37 -222c41 32 93 50 145 50c129 0 207 -103 207 -226c0 -135 -88 -240 -227 -240c-121 0 -201 69 -215 191l64 9c9 -85 57 -142 145 -142c102 0 167 80 167 178c0 93 -61 171 -159 171c-56 0 -113 -30 -142 -79h-57l57 371h333v-61z" />
    <glyph glyph-name="six.tab" horiz-adv-x="562" 
d="M493 522l-66 -5c-12 73 -58 129 -136 129c-142 0 -161 -174 -167 -280c43 53 101 80 169 80c128 0 207 -102 207 -224c0 -115 -67 -228 -211 -228c-189 0 -232 173 -232 327c0 159 44 382 242 382c106 0 183 -76 194 -181zM433 220c0 91 -53 167 -150 167
c-94 0 -152 -73 -152 -164c0 -95 56 -172 157 -172c97 0 145 80 145 169z" />
    <glyph glyph-name="seven.tab" horiz-adv-x="562" 
d="M510 692v-53c-29 -38 -58 -75 -84 -115c-101 -153 -169 -341 -183 -524h-81c31 228 129 431 270 633h-348v59h426z" />
    <glyph glyph-name="eight.tab" horiz-adv-x="562" 
d="M389 382c81 -29 125 -97 125 -182c0 -137 -106 -206 -233 -206c-128 0 -231 75 -231 210c0 80 39 155 120 178c-60 23 -91 85 -91 147c0 123 87 176 203 176c114 0 203 -55 203 -177c0 -66 -33 -122 -96 -146zM420 528c0 79 -61 119 -135 119c-76 0 -142 -32 -142 -116
c0 -82 62 -122 139 -122c84 0 138 46 138 119zM449 200c0 105 -73 150 -169 150c-99 0 -164 -47 -164 -149c0 -96 71 -148 163 -148c94 0 170 45 170 147z" />
    <glyph glyph-name="nine.tab" horiz-adv-x="562" 
d="M70 175l66 5c11 -74 57 -130 136 -130c142 0 161 174 166 281c-43 -54 -99 -81 -168 -81c-129 0 -207 101 -207 224c0 131 81 229 215 229c182 0 228 -174 228 -324c0 -160 -39 -385 -242 -385c-107 0 -183 76 -194 181zM431 474c0 96 -56 171 -157 171
c-97 0 -145 -79 -145 -168c0 -91 54 -168 151 -168c102 0 151 84 151 165z" />
    <glyph glyph-name="zero.taboldstyle" horiz-adv-x="545" 
d="M506 274c0 -174 -72 -282 -233 -282c-153 0 -234 107 -234 275c0 158 92 266 237 266c144 0 230 -106 230 -259zM438 266c0 125 -54 208 -162 208c-101 0 -169 -69 -169 -207s57 -218 167 -218s164 79 164 217z" />
    <glyph glyph-name="one.taboldstyle" horiz-adv-x="545" 
d="M333 0h-67v348h-161v53c85 6 159 22 183 132h45v-533z" />
    <glyph glyph-name="two.taboldstyle" horiz-adv-x="545" 
d="M476 58v-58h-422v49c124 81 214 142 249 170c56 44 99 87 99 153c0 62 -42 102 -122 102c-95 0 -135 -79 -135 -160l-66 4c0 105 60 215 204 215c126 0 192 -66 192 -158c0 -84 -45 -148 -166 -225l-144 -92h311z" />
    <glyph glyph-name="three.taboldstyle" horiz-adv-x="545" 
d="M238 170v57c75 0 166 23 166 123c0 78 -55 123 -131 123c-88 0 -131 -57 -138 -145l-68 5c8 121 95 200 210 200c105 0 194 -63 194 -176c0 -69 -34 -127 -101 -151c80 -26 124 -88 124 -171c0 -121 -85 -204 -219 -204c-131 0 -220 82 -231 217l70 4
c8 -100 66 -163 161 -163c92 0 150 54 150 148s-67 133 -153 133h-34z" />
    <glyph glyph-name="four.taboldstyle" horiz-adv-x="545" 
d="M45 0v58l321 475h47v-475h109v-58h-109v-167h-67v167h-301zM111 58h235c1 86 5 362 5 362z" />
    <glyph glyph-name="five.taboldstyle" horiz-adv-x="545" 
d="M463 456h-272l-36 -217c37 33 88 54 140 54c129 0 202 -103 202 -226c0 -135 -80 -236 -219 -236c-121 0 -198 69 -212 191l64 9c9 -86 53 -143 143 -143c105 0 156 73 156 175c0 93 -52 171 -152 171c-56 0 -107 -28 -136 -79h-57l56 362h323v-61z" />
    <glyph glyph-name="six.taboldstyle" horiz-adv-x="545" 
d="M485 508l-66 -5c-12 73 -48 128 -126 128c-114 0 -153 -120 -159 -277c35 54 91 84 159 84c128 0 199 -99 199 -221c0 -115 -59 -225 -203 -225c-189 0 -222 167 -222 321c0 219 67 376 234 376c106 0 173 -76 184 -181zM425 215c0 91 -45 164 -142 164
c-94 0 -142 -70 -142 -161c0 -95 46 -169 147 -169c97 0 137 77 137 166z" />
    <glyph glyph-name="seven.taboldstyle" horiz-adv-x="545" 
d="M505 517v-53c-129 -153 -233 -368 -262 -631h-81c37 237 124 436 265 625h-338v59h416z" />
    <glyph glyph-name="eight.taboldstyle" horiz-adv-x="545" 
d="M374 362c81 -28 125 -86 125 -169c0 -134 -103 -202 -226 -202c-127 0 -227 69 -227 205c0 78 40 137 120 166c-56 23 -91 86 -91 149c0 121 87 178 197 178c109 0 198 -59 198 -179c0 -60 -34 -122 -96 -148zM405 510c0 78 -56 123 -130 123s-136 -37 -136 -120
c0 -78 58 -124 133 -124c83 0 133 50 133 121zM434 191c0 98 -74 140 -164 140c-89 0 -158 -42 -158 -137c0 -93 71 -145 159 -145c91 0 163 45 163 142z" />
    <glyph glyph-name="nine.taboldstyle" horiz-adv-x="545" 
d="M57 9l66 5c6 -75 52 -125 129 -125c121 0 153 120 159 282c-35 -54 -91 -83 -159 -83c-128 0 -199 98 -199 220c0 115 64 225 205 225c192 0 220 -162 220 -321c0 -229 -54 -381 -231 -381c-110 0 -183 72 -190 178zM120 310c0 -91 45 -164 142 -164c94 0 142 70 142 161
c0 95 -46 169 -147 169c-96 0 -137 -77 -137 -166z" />
    <glyph glyph-name="braceleft.cap" horiz-adv-x="347" 
d="M56 325v35c63 28 67 49 67 167v87c0 142 36 186 157 203v-38c-73 -19 -93 -57 -93 -175v-74c0 -141 -16 -159 -73 -187c63 -31 73 -55 73 -187v-75c0 -118 21 -157 93 -174v-38c-115 12 -157 60 -157 202v89c0 128 -9 142 -67 165z" />
    <glyph glyph-name="braceright.cap" horiz-adv-x="347" 
d="M300 360v-35c-56 -28 -67 -31 -67 -167v-87c0 -140 -34 -188 -157 -202v38c73 18 94 56 94 174v117c0 73 13 123 72 144c-66 32 -72 59 -72 187v75c0 125 -22 155 -94 174v38c114 -10 157 -61 157 -201v-89c0 -130 10 -143 67 -166z" />
    <glyph glyph-name="bracketleft.cap" horiz-adv-x="314" 
d="M267 -122h-178v929h178v-48h-115v-834h115v-47z" />
    <glyph glyph-name="bracketright.cap" horiz-adv-x="312" 
d="M46 807h178v-929h-178v47h114v835h-114v47z" />
    <glyph glyph-name="emdash.cap" horiz-adv-x="705" 
d="M29 370h647v-55h-647v55z" />
    <glyph glyph-name="endash.cap" horiz-adv-x="538" 
d="M29 370h477v-55h-477v55z" />
    <glyph glyph-name="guillemotleft.cap" horiz-adv-x="458" 
d="M405 498v-77l-102 -79l102 -76v-75l-158 122v61zM213 497v-77l-100 -77l100 -76v-76l-155 122v61z" />
    <glyph glyph-name="guillemotright.cap" horiz-adv-x="458" 
d="M53 191v77l102 79l-102 77v74l158 -122v-61zM246 192v78l99 76l-99 76v76l155 -122v-61z" />
    <glyph glyph-name="guilsinglleft.cap" horiz-adv-x="271" 
d="M217 498v-77l-103 -79l103 -76v-75l-158 122v61z" />
    <glyph glyph-name="guilsinglright.cap" horiz-adv-x="271" 
d="M54 191v77l102 79l-102 77v74l158 -122v-61z" />
    <glyph glyph-name="hyphen.cap" horiz-adv-x="321" 
d="M34 370h253v-55h-253v55z" />
    <glyph glyph-name="parenleft.cap" horiz-adv-x="331" 
d="M232 818h52c-35 -60 -45 -78 -63 -115c-57 -120 -84 -237 -84 -367c0 -171 46 -320 145 -471h-55c-38 56 -50 77 -74 125c-58 115 -88 235 -88 350c0 108 27 222 77 327c25 51 41 79 90 151z" />
    <glyph glyph-name="parenright.cap" horiz-adv-x="331" 
d="M100 -135h-53c36 61 46 79 63 115c58 119 85 236 85 366c0 172 -46 319 -146 471h56c38 -56 50 -77 74 -124c58 -115 88 -235 88 -350c0 -108 -27 -222 -78 -327c-24 -51 -41 -79 -89 -151z" />
    <glyph glyph-name="periodcentered.cap" horiz-adv-x="188" 
d="M133 389v-92h-78v92h78z" />
    <glyph glyph-name="Amacron" unicode="&#x100;" horiz-adv-x="604" 
d="M13 0l259 706h57l263 -706h-70l-83 224h-279l-78 -224h-69zM182 282h236c-87 245 -117 338 -117 338zM171 804v63h262v-63h-262z" />
    <glyph glyph-name="amacron" unicode="&#x101;" horiz-adv-x="521" 
d="M487 -2h-12c-48 0 -99 3 -99 75v9c-20 -75 -121 -92 -167 -92c-90 0 -165 47 -165 151c0 114 85 140 165 153l59 10c68 12 107 18 107 69c0 78 -55 100 -118 100c-40 0 -128 -5 -128 -113h-69c12 164 152 165 193 165c142 0 181 -69 181 -146v-264c0 -32 5 -63 53 -63
v-54zM376 222v59c-26 -8 -50 -15 -80 -21l-46 -9c-101 -20 -143 -47 -143 -111c0 -35 20 -98 108 -98c43 0 76 16 93 26c66 40 68 101 68 154zM129 618v63h262v-63h-262z" />
    <glyph glyph-name="Abreve" unicode="&#x102;" horiz-adv-x="604" 
d="M13 0l259 706h57l263 -706h-70l-83 224h-279l-78 -224h-69zM182 282h236c-87 245 -117 338 -117 338zM375 894h50c0 -72 -55 -103 -126 -103c-74 0 -120 32 -120 103h52c3 -30 37 -45 72 -45c34 0 69 15 72 45z" />
    <glyph glyph-name="abreve" unicode="&#x103;" horiz-adv-x="521" 
d="M487 -2h-12c-48 0 -99 3 -99 75v9c-20 -75 -121 -92 -167 -92c-90 0 -165 47 -165 151c0 114 85 140 165 153l59 10c68 12 107 18 107 69c0 78 -55 100 -118 100c-40 0 -128 -5 -128 -113h-69c12 164 152 165 193 165c142 0 181 -69 181 -146v-264c0 -32 5 -63 53 -63
v-54zM376 222v59c-26 -8 -50 -15 -80 -21l-46 -9c-101 -20 -143 -47 -143 -111c0 -35 20 -98 108 -98c43 0 76 16 93 26c66 40 68 101 68 154zM333 725h50c0 -72 -55 -123 -126 -123c-74 0 -120 52 -120 123h52c4 -40 26 -64 66 -64c42 0 75 20 78 64z" />
    <glyph glyph-name="Aogonek" unicode="&#x104;" horiz-adv-x="604" 
d="M13 0l259 706h57l263 -706h-15c-37 -45 -52 -78 -52 -97c0 -35 30 -36 60 -36h24v-59h-49c-36 0 -101 4 -101 66c0 38 26 74 54 108l15 18h-6l-83 224h-279l-78 -224h-69zM182 282h236c-87 245 -117 338 -117 338z" />
    <glyph glyph-name="aogonek" unicode="&#x105;" horiz-adv-x="521" 
d="M487 -2h-29c-35 -44 -50 -76 -50 -95c0 -35 30 -36 60 -36h24v-59h-49c-36 0 -101 4 -101 66c0 38 26 74 54 108l19 23c-23 8 -39 27 -39 68v9c-20 -75 -121 -92 -167 -92c-90 0 -165 47 -165 151c0 114 85 140 165 153l59 10c68 12 107 18 107 69c0 78 -55 100 -118 100
c-40 0 -128 -5 -128 -113h-69c12 164 152 165 193 165c142 0 181 -69 181 -146v-264c0 -32 5 -63 53 -63v-54zM376 222v59c-26 -8 -50 -15 -80 -21l-46 -9c-101 -20 -143 -47 -143 -111c0 -35 20 -98 108 -98c43 0 76 16 93 26c66 40 68 101 68 154z" />
    <glyph glyph-name="Cacute" unicode="&#x106;" horiz-adv-x="667" 
d="M562 219l70 -11c-30 -142 -134 -220 -278 -220c-212 0 -302 173 -302 364c0 300 189 367 307 367c137 0 242 -83 263 -219l-71 -12c-15 102 -91 169 -195 169c-169 0 -231 -156 -231 -302c0 -148 62 -306 232 -306c106 0 190 63 205 170zM305 778l61 116h96l-96 -116h-61
z" />
    <glyph glyph-name="cacute" unicode="&#x107;" horiz-adv-x="500" 
d="M406 167l64 -12c-25 -99 -96 -164 -200 -164c-158 0 -226 123 -226 267c0 139 74 269 227 269c95 0 179 -60 191 -159l-63 -9c-12 67 -60 115 -129 115c-121 0 -160 -117 -160 -219c0 -98 39 -211 155 -211c80 0 126 47 141 123zM215 591l56 146h94l-102 -146h-48z" />
    <glyph glyph-name="Ccircumflex" unicode="&#x108;" horiz-adv-x="667" 
d="M562 219l70 -11c-30 -142 -134 -220 -278 -220c-212 0 -302 173 -302 364c0 300 189 367 307 367c137 0 242 -83 263 -219l-71 -12c-15 102 -91 169 -195 169c-169 0 -231 -156 -231 -302c0 -148 62 -306 232 -306c106 0 190 63 205 170zM224 779l97 116h92l94 -116h-73
l-68 72l-73 -72h-69z" />
    <glyph glyph-name="ccircumflex" unicode="&#x109;" horiz-adv-x="500" 
d="M406 167l64 -12c-25 -99 -96 -164 -200 -164c-158 0 -226 123 -226 267c0 139 74 269 227 269c95 0 179 -60 191 -159l-63 -9c-12 67 -60 115 -129 115c-121 0 -160 -117 -160 -219c0 -98 39 -211 155 -211c80 0 126 47 141 123zM127 590l97 148h88l98 -148h-60l-82 95
l-81 -95h-60z" />
    <glyph glyph-name="Cdotaccent" unicode="&#x10a;" horiz-adv-x="667" 
d="M562 219l70 -11c-30 -142 -134 -220 -278 -220c-212 0 -302 173 -302 364c0 300 189 367 307 367c137 0 242 -83 263 -219l-71 -12c-15 102 -91 169 -195 169c-169 0 -231 -156 -231 -302c0 -148 62 -306 232 -306c106 0 190 63 205 170zM315 808v86h67v-86h-67z" />
    <glyph glyph-name="cdotaccent" unicode="&#x10b;" horiz-adv-x="500" 
d="M406 167l64 -12c-25 -99 -96 -164 -200 -164c-158 0 -226 123 -226 267c0 139 74 269 227 269c95 0 179 -60 191 -159l-63 -9c-12 67 -60 115 -129 115c-121 0 -160 -117 -160 -219c0 -98 39 -211 155 -211c80 0 126 47 141 123zM232 619v87h65v-87h-65z" />
    <glyph glyph-name="Ccaron" unicode="&#x10c;" horiz-adv-x="667" 
d="M562 219l70 -11c-30 -142 -134 -220 -278 -220c-212 0 -302 173 -302 364c0 300 189 367 307 367c137 0 242 -83 263 -219l-71 -12c-15 102 -91 169 -195 169c-169 0 -231 -156 -231 -302c0 -148 62 -306 232 -306c106 0 190 63 205 170zM492 894l-97 -115h-91l-97 115
h74l68 -69l73 69h70z" />
    <glyph glyph-name="ccaron" unicode="&#x10d;" horiz-adv-x="500" 
d="M406 167l64 -12c-25 -99 -96 -164 -200 -164c-158 0 -226 123 -226 267c0 139 74 269 227 269c95 0 179 -60 191 -159l-63 -9c-12 67 -60 115 -129 115c-121 0 -160 -117 -160 -219c0 -98 39 -211 155 -211c80 0 126 47 141 123zM413 737l-98 -147h-87l-98 147h61l79 -96
l84 96h59z" />
    <glyph glyph-name="Dcaron" unicode="&#x10e;" horiz-adv-x="667" 
d="M82 706h150c93 0 203 -7 278 -67c82 -66 105 -185 105 -285c0 -138 -46 -288 -190 -335c-54 -18 -126 -19 -183 -19h-160v706zM151 648v-588h136c194 0 261 124 261 300c0 200 -94 288 -287 288h-110zM431 894l-97 -115h-91l-97 115h74l68 -69l73 69h70z" />
    <glyph glyph-name="dcaron" unicode="&#x10f;" horiz-adv-x="598" 
d="M492 0h-64v69c-46 -52 -89 -78 -161 -78c-153 0 -220 120 -220 259c0 138 57 274 215 274c67 0 125 -25 166 -82v264h64v-706zM430 261c0 107 -41 208 -162 208c-123 0 -158 -117 -158 -220c0 -102 43 -205 161 -205c125 0 159 111 159 217zM535 706h71v-70
c0 -43 0 -114 -67 -130v41c21 16 26 42 26 71h-30v88z" />
    <glyph glyph-name="Dcroat" unicode="&#x110;" horiz-adv-x="667" 
d="M82 706h141c101 0 215 -3 296 -73c76 -65 97 -185 97 -279c0 -145 -50 -297 -204 -340c-42 -12 -84 -14 -127 -14h-203v339h-71v53h71v314zM151 646v-254h194v-53h-194v-279h121c40 0 81 1 119 14c124 42 158 166 158 285c0 201 -97 287 -289 287h-109z" />
    <glyph glyph-name="dcroat" unicode="&#x111;" horiz-adv-x="562" 
d="M492 0h-64v69c-46 -52 -89 -78 -161 -78c-153 0 -220 120 -220 259c0 138 57 274 215 274c67 0 125 -25 166 -82v140h-153v52h153v72h64v-72h64v-52h-64v-582zM430 261c0 107 -41 208 -162 208c-123 0 -158 -117 -158 -220c0 -102 43 -205 161 -205
c125 0 159 111 159 217z" />
    <glyph glyph-name="Emacron" unicode="&#x112;" horiz-adv-x="583" 
d="M548 59v-59h-466v706h455v-60h-386v-255h362v-59h-362v-273h397zM190 804v63h262v-63h-262z" />
    <glyph glyph-name="emacron" unicode="&#x113;" 
d="M495 247h-385c0 -108 48 -203 168 -203c64 0 128 37 142 103l66 -11c-27 -98 -108 -147 -207 -147c-169 0 -232 123 -232 273c0 147 74 265 233 265c157 0 215 -128 215 -266v-14zM113 301h314c0 93 -48 172 -149 172s-159 -77 -165 -172zM140 618v63h262v-63h-262z" />
    <glyph glyph-name="Ebreve" unicode="&#x114;" horiz-adv-x="583" 
d="M548 59v-59h-466v706h455v-60h-386v-255h362v-59h-362v-273h397zM388 894h50c0 -72 -55 -103 -126 -103c-74 0 -120 32 -120 103h52c3 -30 37 -45 72 -45c34 0 69 15 72 45z" />
    <glyph glyph-name="ebreve" unicode="&#x115;" 
d="M495 247h-385c0 -108 48 -203 168 -203c64 0 128 37 142 103l66 -11c-27 -98 -108 -147 -207 -147c-169 0 -232 123 -232 273c0 147 74 265 233 265c157 0 215 -128 215 -266v-14zM113 301h314c0 93 -48 172 -149 172s-159 -77 -165 -172zM344 725h50
c0 -72 -55 -123 -126 -123c-74 0 -120 52 -120 123h52c4 -40 26 -64 66 -64c42 0 75 20 78 64z" />
    <glyph glyph-name="Edotaccent" unicode="&#x116;" horiz-adv-x="583" 
d="M548 59v-59h-466v706h455v-60h-386v-255h362v-59h-362v-273h397zM281 808v86h67v-86h-67z" />
    <glyph glyph-name="edotaccent" unicode="&#x117;" 
d="M495 247h-385c0 -108 48 -203 168 -203c64 0 128 37 142 103l66 -11c-27 -98 -108 -147 -207 -147c-169 0 -232 123 -232 273c0 147 74 265 233 265c157 0 215 -128 215 -266v-14zM113 301h314c0 93 -48 172 -149 172s-159 -77 -165 -172zM238 619v87h65v-87h-65z" />
    <glyph glyph-name="Eogonek" unicode="&#x118;" horiz-adv-x="583" 
d="M548 59v-59h-32c-37 -45 -52 -78 -52 -97c0 -35 30 -36 60 -36h24v-59h-49c-36 0 -101 4 -101 66c0 38 26 74 54 108l15 18h-385v706h455v-60h-386v-255h362v-59h-362v-273h397z" />
    <glyph glyph-name="eogonek" unicode="&#x119;" 
d="M495 247h-385c0 -108 48 -203 168 -203c64 0 128 37 142 103l66 -11c-21 -76 -74 -123 -143 -139c-35 -44 -49 -75 -49 -94c0 -35 30 -36 60 -36h24v-59h-49c-36 0 -101 4 -101 66c0 38 26 74 54 108l6 7h-9c-169 0 -232 123 -232 273c0 147 74 265 233 265
c157 0 215 -128 215 -266v-14zM113 301h314c0 93 -48 172 -149 172s-159 -77 -165 -172z" />
    <glyph glyph-name="Ecaron" unicode="&#x11a;" horiz-adv-x="583" 
d="M548 59v-59h-466v706h455v-60h-386v-255h362v-59h-362v-273h397zM455 894l-97 -115h-91l-97 115h74l68 -69l73 69h70z" />
    <glyph glyph-name="ecaron" unicode="&#x11b;" 
d="M495 247h-385c0 -108 48 -203 168 -203c64 0 128 37 142 103l66 -11c-27 -98 -108 -147 -207 -147c-169 0 -232 123 -232 273c0 147 74 265 233 265c157 0 215 -128 215 -266v-14zM113 301h314c0 93 -48 172 -149 172s-159 -77 -165 -172zM412 737l-98 -147h-87l-98 147
h61l79 -96l84 96h59z" />
    <glyph glyph-name="Gcircumflex" unicode="&#x11c;" horiz-adv-x="729" 
d="M649 0h-48l-12 99c-67 -77 -126 -110 -231 -110c-211 0 -304 174 -304 363c0 200 104 366 314 366c133 0 254 -73 274 -223l-71 -9c-16 108 -94 172 -201 172c-175 0 -247 -148 -247 -305s72 -305 247 -305c83 0 171 49 202 128c15 37 17 76 17 116h-218v60h278v-352z
M223 779l97 116h92l94 -116h-73l-68 72l-73 -72h-69z" />
    <glyph glyph-name="gcircumflex" unicode="&#x11d;" horiz-adv-x="562" 
d="M429 517h59v-431c0 -59 -3 -144 -39 -193c-38 -52 -106 -68 -171 -68c-104 0 -204 41 -204 159v10h69v-5c0 -82 60 -108 133 -108c133 0 153 73 153 187v40c-41 -58 -94 -87 -166 -87c-145 0 -215 117 -215 250c0 125 63 255 223 255c68 0 129 -24 158 -81v72zM430 266
c0 103 -30 205 -153 205c-119 0 -161 -96 -161 -200c0 -103 48 -190 162 -190c107 0 152 90 152 185zM139 590l97 148h88l98 -148h-60l-82 95l-81 -95h-60z" />
    <glyph glyph-name="Gbreve" unicode="&#x11e;" horiz-adv-x="729" 
d="M649 0h-48l-12 99c-67 -77 -126 -110 -231 -110c-211 0 -304 174 -304 363c0 200 104 366 314 366c133 0 254 -73 274 -223l-71 -9c-16 108 -94 172 -201 172c-175 0 -247 -148 -247 -305s72 -305 247 -305c83 0 171 49 202 128c15 37 17 76 17 116h-218v60h278v-352z
M437 894h50c0 -72 -55 -103 -126 -103c-74 0 -120 32 -120 103h52c3 -30 37 -45 72 -45c34 0 69 15 72 45z" />
    <glyph glyph-name="gbreve" unicode="&#x11f;" horiz-adv-x="562" 
d="M429 517h59v-431c0 -59 -3 -144 -39 -193c-38 -52 -106 -68 -171 -68c-104 0 -204 41 -204 159v10h69v-5c0 -82 60 -108 133 -108c133 0 153 73 153 187v40c-41 -58 -94 -87 -166 -87c-145 0 -215 117 -215 250c0 125 63 255 223 255c68 0 129 -24 158 -81v72zM430 266
c0 103 -30 205 -153 205c-119 0 -161 -96 -161 -200c0 -103 48 -190 162 -190c107 0 152 90 152 185zM360 725h50c0 -72 -55 -123 -126 -123c-74 0 -120 52 -120 123h52c4 -40 26 -64 66 -64c42 0 75 20 78 64z" />
    <glyph glyph-name="Gdotaccent" unicode="&#x120;" horiz-adv-x="729" 
d="M649 0h-48l-12 99c-67 -77 -126 -110 -231 -110c-211 0 -304 174 -304 363c0 200 104 366 314 366c133 0 254 -73 274 -223l-71 -9c-16 108 -94 172 -201 172c-175 0 -247 -148 -247 -305s72 -305 247 -305c83 0 171 49 202 128c15 37 17 76 17 116h-218v60h278v-352z
M331 808v86h67v-86h-67z" />
    <glyph glyph-name="gdotaccent" unicode="&#x121;" horiz-adv-x="562" 
d="M429 517h59v-431c0 -59 -3 -144 -39 -193c-38 -52 -106 -68 -171 -68c-104 0 -204 41 -204 159v10h69v-5c0 -82 60 -108 133 -108c133 0 153 73 153 187v40c-41 -58 -94 -87 -166 -87c-145 0 -215 117 -215 250c0 125 63 255 223 255c68 0 129 -24 158 -81v72zM430 266
c0 103 -30 205 -153 205c-119 0 -161 -96 -161 -200c0 -103 48 -190 162 -190c107 0 152 90 152 185zM246 619v87h65v-87h-65z" />
    <glyph glyph-name="Hcircumflex" unicode="&#x124;" horiz-adv-x="688" 
d="M606 706v-706h-69v329h-386v-329h-69v706h69v-317h386v317h69zM202 779l97 116h92l94 -116h-73l-68 72l-73 -72h-69z" />
    <glyph glyph-name="hcircumflex" unicode="&#x125;" 
d="M469 0h-65v311c0 91 -11 159 -122 159c-119 0 -145 -97 -145 -178v-292h-64v706h64v-254c41 53 97 76 163 76c139 0 169 -88 169 -178v-350zM-36 779l97 116h92l94 -116h-73l-68 72l-73 -72h-69z" />
    <glyph glyph-name="Hbar" unicode="&#x126;" horiz-adv-x="688" 
d="M661 518h-55v-518h-69v329h-386v-329h-69v518h-55v56h55v132h69v-132h386v132h69v-132h55v-56zM151 389h386v129h-386v-129z" />
    <glyph glyph-name="hbar" unicode="&#x127;" 
d="M286 589h-149v-137c41 53 97 76 163 76c139 0 169 -88 169 -178v-350h-65v311c0 91 -11 159 -122 159c-119 0 -145 -97 -145 -178v-292h-64v589h-66v52h66v65h64v-65h149v-52z" />
    <glyph glyph-name="Itilde" unicode="&#x128;" horiz-adv-x="229" 
d="M81 0v706h68v-706h-68zM19 786h-41c5 64 23 109 65 109c52 0 90 -45 137 -45c23 0 26 20 29 43h41c-2 -60 -11 -110 -62 -110c-43 0 -97 46 -137 46c-27 0 -30 -23 -32 -43z" />
    <glyph glyph-name="itilde" unicode="&#x129;" horiz-adv-x="208" 
d="M71 517h66v-517h-66v517zM199 721h42c0 -66 -13 -118 -63 -118c-52 0 -107 58 -137 58c-20 0 -28 -22 -29 -52h-42c2 59 11 116 62 116c47 0 104 -58 139 -58c19 0 26 22 28 54z" />
    <glyph glyph-name="uni012A" unicode="&#x12a;" horiz-adv-x="229" 
d="M81 0v706h68v-706h-68zM-6 804v63h242v-63h-242z" />
    <glyph glyph-name="imacron" unicode="&#x12b;" horiz-adv-x="208" 
d="M70 517h66v-517h-66v517zM-17 618v63h242v-63h-242z" />
    <glyph glyph-name="Ibreve" unicode="&#x12c;" horiz-adv-x="229" 
d="M81 0v706h68v-706h-68zM188 894h50c0 -72 -55 -103 -126 -103c-74 0 -120 32 -120 103h52c3 -30 37 -45 72 -45c34 0 69 15 72 45z" />
    <glyph glyph-name="uni012D" unicode="&#x12d;" horiz-adv-x="208" 
d="M71 517h66v-517h-66v517zM177 725h50c0 -72 -55 -123 -126 -123c-74 0 -120 52 -120 123h52c4 -40 26 -64 66 -64c42 0 75 20 78 64z" />
    <glyph glyph-name="Iogonek" unicode="&#x12e;" horiz-adv-x="229" 
d="M81 0v706h68v-706h-10c-37 -45 -52 -78 -52 -97c0 -35 30 -36 60 -36h24v-59h-49c-36 0 -101 4 -101 66c0 38 26 74 54 108l15 18h-9z" />
    <glyph glyph-name="iogonek" unicode="&#x12f;" horiz-adv-x="208" 
d="M71 517h66v-517h-9c-37 -45 -52 -78 -52 -97c0 -35 30 -36 60 -36h24v-59h-49c-36 0 -101 4 -101 66c0 38 26 74 54 108l15 18h-8v517zM71 616v90h66v-90h-66z" />
    <glyph glyph-name="Idotaccent" unicode="&#x130;" horiz-adv-x="229" 
d="M81 0v706h68v-706h-68zM81 808v86h67v-86h-67z" />
    <glyph glyph-name="IJ" unicode="&#x132;" horiz-adv-x="666" 
d="M81 0v706h68v-706h-68zM522 706h68v-522c0 -112 -47 -187 -170 -187c-129 0 -177 76 -177 194v11l66 4v-19c0 -72 30 -134 111 -134c100 0 102 94 102 169v484z" />
    <glyph glyph-name="ij" unicode="&#x133;" horiz-adv-x="416" 
d="M71 517h66v-517h-66v517zM71 616v90h66v-90h-66zM281 615v91h65v-91h-65zM346 517v-523c0 -95 -1 -171 -131 -171c-9 0 -15 0 -24 1v52h10c70 0 80 39 80 115v526h65z" />
    <glyph glyph-name="Jcircumflex" unicode="&#x134;" horiz-adv-x="437" 
d="M293 706h68v-522c0 -112 -47 -187 -170 -187c-129 0 -177 76 -177 194v11l66 4v-19c0 -72 30 -134 111 -134c100 0 102 94 102 169v484zM183 779l97 116h92l94 -116h-73l-68 72l-73 -72h-69z" />
    <glyph glyph-name="jcircumflex" unicode="&#x135;" horiz-adv-x="208" 
d="M138 517v-523c0 -95 -1 -171 -131 -171c-9 0 -15 0 -24 1v52h10c70 0 80 39 80 115v526h65zM-37 590l97 148h88l98 -148h-60l-82 95l-81 -95h-60z" />
    <glyph glyph-name="kgreenlandic" unicode="&#x138;" horiz-adv-x="479" 
d="M73 0v517h65v-259l242 259h83l-198 -210l208 -307h-79l-173 258l-83 -83v-175h-65z" />
    <glyph glyph-name="Lacute" unicode="&#x139;" 
d="M503 59v-59h-421v706h68v-647h353zM92 778l61 116h96l-96 -116h-61z" />
    <glyph glyph-name="lacute" unicode="&#x13a;" horiz-adv-x="208" 
d="M137 706v-706h-66v706h66zM56 778l61 116h96l-96 -116h-61z" />
    <glyph glyph-name="Lcaron" unicode="&#x13d;" 
d="M503 59v-59h-421v706h68v-647h353zM235 706h71v-70c0 -43 0 -114 -67 -130v41c21 16 26 42 26 71h-30v88z" />
    <glyph glyph-name="lcaron" unicode="&#x13e;" horiz-adv-x="246" 
d="M137 706v-706h-66v706h66zM172 706h71v-70c0 -43 0 -114 -67 -130v41c21 16 26 42 26 71h-30v88z" />
    <glyph glyph-name="Ldot" unicode="&#x13f;" 
d="M503 59v-59h-421v706h68v-647h353zM264 347v91h67v-91h-67z" />
    <glyph glyph-name="ldot" unicode="&#x140;" horiz-adv-x="245" 
d="M137 706v-706h-66v706h66zM196 339v90h66v-90h-66z" />
    <glyph glyph-name="Nacute" unicode="&#x143;" horiz-adv-x="688" 
d="M83 0v706h72l389 -605c-3 117 -3 605 -3 605h64v-706h-64l-401 618c7 -143 7 -618 7 -618h-64zM295 778l61 116h96l-96 -116h-61z" />
    <glyph glyph-name="nacute" unicode="&#x144;" 
d="M469 0h-64v316c0 68 -4 154 -122 154c-88 0 -147 -58 -147 -171v-299h-63v517h63v-64c43 52 89 74 158 74c123 0 175 -61 175 -178v-349zM236 591l56 146h94l-102 -146h-48z" />
    <glyph glyph-name="Ncaron" unicode="&#x147;" horiz-adv-x="688" 
d="M83 0v706h72l389 -605c-3 117 -3 605 -3 605h64v-706h-64l-401 618c7 -143 7 -618 7 -618h-64zM486 894l-97 -115h-91l-97 115h74l68 -69l73 69h70z" />
    <glyph glyph-name="ncaron" unicode="&#x148;" 
d="M469 0h-64v316c0 68 -4 154 -122 154c-88 0 -147 -58 -147 -171v-299h-63v517h63v-64c43 52 89 74 158 74c123 0 175 -61 175 -178v-349zM412 737l-98 -147h-87l-98 147h61l79 -96l84 96h59z" />
    <glyph glyph-name="napostrophe" unicode="&#x149;" 
d="M469 0h-64v316c0 68 -4 154 -122 154c-88 0 -147 -58 -147 -171v-299h-63v517h63v-64c43 52 89 74 158 74c123 0 175 -61 175 -178v-349zM44 738h71v-70c0 -43 0 -114 -67 -130v41c21 16 26 42 26 71h-30v88z" />
    <glyph glyph-name="Eng" unicode="&#x14a;" horiz-adv-x="688" 
d="M605 706v-744c0 -99 -37 -131 -121 -131h-21v60h20c44 0 58 9 58 68v41l-401 618c7 -143 7 -618 7 -618h-64v706h72l389 -605c-3 117 -3 605 -3 605h64z" />
    <glyph glyph-name="eng" unicode="&#x14b;" 
d="M329 -101h15c38 0 61 12 61 101v316c0 68 -4 154 -122 154c-88 0 -147 -58 -147 -171v-299h-63v517h63v-64c43 52 89 74 158 74c123 0 175 -61 175 -178v-365c0 -119 -46 -139 -124 -139h-16v54z" />
    <glyph glyph-name="Omacron" unicode="&#x14c;" horiz-adv-x="750" 
d="M53 356c0 197 108 361 318 361c213 0 325 -162 325 -362c0 -198 -108 -366 -322 -366c-219 0 -321 165 -321 367zM119 353c0 -169 82 -305 254 -305s255 145 255 303s-80 307 -254 307c-180 0 -255 -143 -255 -305zM244 804v63h262v-63h-262z" />
    <glyph glyph-name="omacron" unicode="&#x14d;" 
d="M498 265c0 -145 -67 -275 -229 -275c-159 0 -223 134 -223 274c0 146 77 266 232 266c153 0 220 -128 220 -265zM436 266c0 104 -44 209 -164 209c-122 0 -163 -107 -163 -213c0 -105 39 -218 164 -218s163 117 163 222zM140 618v63h262v-63h-262z" />
    <glyph glyph-name="Obreve" unicode="&#x14e;" horiz-adv-x="750" 
d="M53 356c0 197 108 361 318 361c213 0 325 -162 325 -362c0 -198 -108 -366 -322 -366c-219 0 -321 165 -321 367zM119 353c0 -169 82 -305 254 -305s255 145 255 303s-80 307 -254 307c-180 0 -255 -143 -255 -305zM448 894h50c0 -72 -55 -103 -126 -103
c-74 0 -120 32 -120 103h52c3 -30 37 -45 72 -45c34 0 69 15 72 45z" />
    <glyph glyph-name="obreve" unicode="&#x14f;" 
d="M498 265c0 -145 -67 -275 -229 -275c-159 0 -223 134 -223 274c0 146 77 266 232 266c153 0 220 -128 220 -265zM436 266c0 104 -44 209 -164 209c-122 0 -163 -107 -163 -213c0 -105 39 -218 164 -218s163 117 163 222zM344 725h50c0 -72 -55 -123 -126 -123
c-74 0 -120 52 -120 123h52c4 -40 26 -64 66 -64c42 0 75 20 78 64z" />
    <glyph glyph-name="Ohungarumlaut" unicode="&#x150;" horiz-adv-x="750" 
d="M53 356c0 197 108 361 318 361c213 0 325 -162 325 -362c0 -198 -108 -366 -322 -366c-219 0 -321 165 -321 367zM119 353c0 -169 82 -305 254 -305s255 145 255 303s-80 307 -254 307c-180 0 -255 -143 -255 -305zM320 894h96l-96 -118h-60zM457 894h96l-96 -118h-60z
" />
    <glyph glyph-name="ohungarumlaut" unicode="&#x151;" 
d="M498 265c0 -145 -67 -275 -229 -275c-159 0 -223 134 -223 274c0 146 77 266 232 266c153 0 220 -128 220 -265zM436 266c0 104 -44 209 -164 209c-122 0 -163 -107 -163 -213c0 -105 39 -218 164 -218s163 117 163 222zM172 591l57 146h94l-103 -146h-48zM304 591
l58 146h92l-102 -146h-48z" />
    <glyph glyph-name="Racute" unicode="&#x154;" horiz-adv-x="625" 
d="M82 706h204c96 0 191 -2 241 -97c16 -31 24 -67 24 -102c0 -84 -42 -164 -131 -178c82 -24 97 -55 109 -139c8 -57 16 -141 48 -190h-83c-15 50 -24 98 -32 150c-14 93 -28 153 -181 153h-131v-303h-68v706zM150 648v-286h136c104 0 195 17 195 142
c0 141 -121 144 -201 144h-130zM242 778l61 116h96l-96 -116h-61z" />
    <glyph glyph-name="racute" unicode="&#x155;" horiz-adv-x="292" 
d="M74 517h65v-65c34 51 81 75 142 75h5v-61c-4 1 -7 1 -11 1c-30 0 -60 -10 -83 -29c-51 -41 -53 -102 -53 -161v-277h-65v517zM90 591l56 146h94l-102 -146h-48z" />
    <glyph glyph-name="Rcaron" unicode="&#x158;" horiz-adv-x="625" 
d="M82 706h204c96 0 191 -2 241 -97c16 -31 24 -67 24 -102c0 -84 -42 -164 -131 -178c82 -24 97 -55 109 -139c8 -57 16 -141 48 -190h-83c-15 50 -24 98 -32 150c-14 93 -28 153 -181 153h-131v-303h-68v706zM150 648v-286h136c104 0 195 17 195 142
c0 141 -121 144 -201 144h-130zM413 894l-97 -115h-91l-97 115h74l68 -69l73 69h70z" />
    <glyph glyph-name="rcaron" unicode="&#x159;" horiz-adv-x="292" 
d="M74 517h65v-65c34 51 81 75 142 75h5v-61c-4 1 -7 1 -11 1c-30 0 -60 -10 -83 -29c-51 -41 -53 -102 -53 -161v-277h-65v517zM301 737l-98 -147h-87l-98 147h61l79 -96l84 96h59z" />
    <glyph glyph-name="Sacute" unicode="&#x15a;" horiz-adv-x="604" 
d="M63 188l74 9c10 -69 31 -150 174 -150c117 0 161 72 161 136c0 99 -86 125 -158 145l-65 18c-51 14 -162 58 -162 182c0 130 99 189 217 189c121 0 210 -51 229 -187l-72 -7c-1 8 -2 37 -16 64c-31 60 -95 71 -138 71c-65 0 -151 -29 -151 -123c0 -91 88 -115 112 -122
l90 -26c111 -32 183 -80 183 -202c0 -150 -120 -196 -239 -196c-116 0 -223 50 -239 199zM257 778l61 116h96l-96 -116h-61z" />
    <glyph glyph-name="sacute" unicode="&#x15b;" horiz-adv-x="479" 
d="M44 158l65 8c9 -84 53 -122 133 -122c52 0 116 22 116 90c0 70 -60 91 -113 104l-43 11c-38 10 -129 33 -129 140c0 108 90 141 170 141c34 0 158 -3 170 -146l-64 -8c-4 37 -16 102 -109 102c-77 0 -103 -48 -103 -84c0 -60 54 -76 96 -88l40 -11
c62 -17 148 -46 148 -154c0 -74 -45 -151 -178 -151c-157 0 -185 93 -199 168zM194 591l56 146h94l-102 -146h-48z" />
    <glyph glyph-name="Scircumflex" unicode="&#x15c;" horiz-adv-x="604" 
d="M63 188l74 9c10 -69 31 -150 174 -150c117 0 161 72 161 136c0 99 -86 125 -158 145l-65 18c-51 14 -162 58 -162 182c0 130 99 189 217 189c121 0 210 -51 229 -187l-72 -7c-1 8 -2 37 -16 64c-31 60 -95 71 -138 71c-65 0 -151 -29 -151 -123c0 -91 88 -115 112 -122
l90 -26c111 -32 183 -80 183 -202c0 -150 -120 -196 -239 -196c-116 0 -223 50 -239 199zM176 779l97 116h92l94 -116h-73l-68 72l-73 -72h-69z" />
    <glyph glyph-name="scircumflex" unicode="&#x15d;" horiz-adv-x="479" 
d="M44 158l65 8c9 -84 53 -122 133 -122c52 0 116 22 116 90c0 70 -60 91 -113 104l-43 11c-38 10 -129 33 -129 140c0 108 90 141 170 141c34 0 158 -3 170 -146l-64 -8c-4 37 -16 102 -109 102c-77 0 -103 -48 -103 -84c0 -60 54 -76 96 -88l40 -11
c62 -17 148 -46 148 -154c0 -74 -45 -151 -178 -151c-157 0 -185 93 -199 168zM98 590l97 148h88l98 -148h-60l-82 95l-81 -95h-60z" />
    <glyph glyph-name="Scedilla" unicode="&#x15e;" horiz-adv-x="604" 
d="M63 188l74 9c10 -69 31 -150 174 -150c117 0 161 72 161 136c0 99 -86 125 -158 145l-65 18c-51 14 -162 58 -162 182c0 130 99 189 217 189c121 0 210 -51 229 -187l-72 -7c-1 8 -2 37 -16 64c-31 60 -95 71 -138 71c-65 0 -151 -29 -151 -123c0 -91 88 -115 112 -122
l90 -26c111 -32 183 -80 183 -202c0 -144 -110 -191 -224 -195l-23 -49c9 2 18 3 26 3c48 0 80 -30 80 -76c0 -53 -43 -90 -101 -90c-31 0 -56 9 -76 25l24 38c17 -15 33 -21 51 -21c30 0 51 17 51 44c0 26 -19 43 -48 43c-14 0 -27 -3 -43 -13l-17 19l38 77
c-107 6 -201 58 -216 198z" />
    <glyph glyph-name="scedilla" unicode="&#x15f;" horiz-adv-x="479" 
d="M44 158l65 8c9 -84 53 -122 133 -122c52 0 116 22 116 90c0 70 -60 91 -113 104l-43 11c-38 10 -129 33 -129 140c0 108 90 141 170 141c34 0 158 -3 170 -146l-64 -8c-4 37 -16 102 -109 102c-77 0 -103 -48 -103 -84c0 -60 54 -76 96 -88l40 -11
c62 -17 148 -46 148 -154c0 -73 -44 -149 -173 -151l-23 -48c9 2 18 3 26 3c47 0 78 -30 78 -75c0 -52 -42 -88 -99 -88c-30 0 -55 8 -75 24l24 38c17 -15 32 -21 50 -21c30 0 50 17 50 43s-18 43 -47 43c-14 0 -27 -3 -42 -13l-17 18l38 78c-129 11 -154 96 -167 166z" />
    <glyph glyph-name="Tcaron" unicode="&#x164;" horiz-adv-x="500" 
d="M487 648h-205v-648h-69v648h-203v58h477v-58zM392 894l-97 -115h-91l-97 115h74l68 -69l73 69h70z" />
    <glyph glyph-name="tcaron" unicode="&#x165;" horiz-adv-x="271" 
d="M6 517h72v166h64v-166h95v-56h-95v-305c0 -52 2 -102 69 -102c10 0 23 2 30 2v-58c-17 -3 -33 -5 -51 -5c-88 0 -112 54 -112 131v337h-72v56zM185 770h71v-70c0 -43 0 -114 -67 -130v41c21 16 26 42 26 71h-30v88z" />
    <glyph glyph-name="Tbar" unicode="&#x166;" horiz-adv-x="500" 
d="M408 463h-126v-463h-69v463h-127v56h127v129h-203v58h477v-58h-205v-129h126v-56z" />
    <glyph glyph-name="tbar" unicode="&#x167;" horiz-adv-x="271" 
d="M221 289h-79v-133c0 -52 2 -102 69 -102c10 0 23 2 30 2v-58c-17 -3 -33 -5 -51 -5c-88 0 -112 54 -112 131v165h-59v52h59v120h-72v56h72v166h64v-166h95v-56h-95v-120h79v-52z" />
    <glyph glyph-name="Utilde" unicode="&#x168;" horiz-adv-x="646" 
d="M504 706h67v-420c0 -67 -5 -143 -43 -200c-46 -69 -123 -91 -202 -91c-97 0 -186 37 -225 131c-24 59 -25 127 -25 190v390h68v-394c0 -79 6 -172 66 -218c37 -28 76 -36 121 -36c167 0 173 145 173 274v374zM227 786h-41c5 64 23 109 65 109c52 0 90 -45 137 -45
c23 0 26 20 29 43h41c-2 -60 -11 -110 -62 -110c-43 0 -97 46 -137 46c-27 0 -30 -23 -32 -43z" />
    <glyph glyph-name="utilde" unicode="&#x169;" 
d="M467 0h-65v68c-34 -51 -90 -75 -150 -75c-143 0 -181 80 -181 207v317h64v-299c0 -85 12 -171 117 -171c72 0 126 38 144 108c6 25 6 50 6 75v287h65v-517zM365 721h42c0 -66 -13 -118 -63 -118c-52 0 -107 58 -137 58c-20 0 -28 -22 -29 -52h-42c2 59 11 116 62 116
c47 0 104 -58 139 -58c19 0 26 22 28 54z" />
    <glyph glyph-name="Umacron" unicode="&#x16a;" horiz-adv-x="646" 
d="M504 706h67v-420c0 -67 -5 -143 -43 -200c-46 -69 -123 -91 -202 -91c-97 0 -186 37 -225 131c-24 59 -25 127 -25 190v390h68v-394c0 -79 6 -172 66 -218c37 -28 76 -36 121 -36c167 0 173 145 173 274v374zM192 804v63h262v-63h-262z" />
    <glyph glyph-name="umacron" unicode="&#x16b;" 
d="M467 0h-65v68c-34 -51 -90 -75 -150 -75c-143 0 -181 80 -181 207v317h64v-299c0 -85 12 -171 117 -171c72 0 126 38 144 108c6 25 6 50 6 75v287h65v-517zM140 618v63h262v-63h-262z" />
    <glyph glyph-name="Ubreve" unicode="&#x16c;" horiz-adv-x="646" 
d="M504 706h67v-420c0 -67 -5 -143 -43 -200c-46 -69 -123 -91 -202 -91c-97 0 -186 37 -225 131c-24 59 -25 127 -25 190v390h68v-394c0 -79 6 -172 66 -218c37 -28 76 -36 121 -36c167 0 173 145 173 274v374zM396 894h50c0 -72 -55 -103 -126 -103
c-74 0 -120 32 -120 103h52c3 -30 37 -45 72 -45c34 0 69 15 72 45z" />
    <glyph glyph-name="ubreve" unicode="&#x16d;" 
d="M467 0h-65v68c-34 -51 -90 -75 -150 -75c-143 0 -181 80 -181 207v317h64v-299c0 -85 12 -171 117 -171c72 0 126 38 144 108c6 25 6 50 6 75v287h65v-517zM344 725h50c0 -72 -55 -123 -126 -123c-74 0 -120 52 -120 123h52c4 -40 26 -64 66 -64c42 0 75 20 78 64z" />
    <glyph glyph-name="Uring" unicode="&#x16e;" horiz-adv-x="646" 
d="M504 706h67v-420c0 -67 -5 -143 -43 -200c-46 -69 -123 -91 -202 -91c-97 0 -186 37 -225 131c-24 59 -25 127 -25 190v390h68v-394c0 -79 6 -172 66 -218c37 -28 76 -36 121 -36c167 0 173 145 173 274v374zM415 843c0 -50 -42 -92 -92 -92s-92 42 -92 92s42 92 92 92
s92 -42 92 -92zM374 843c0 28 -23 50 -51 50c-27 0 -50 -23 -50 -50c0 -28 22 -50 50 -50s51 21 51 50z" />
    <glyph glyph-name="uring" unicode="&#x16f;" 
d="M467 0h-65v68c-34 -51 -90 -75 -150 -75c-143 0 -181 80 -181 207v317h64v-299c0 -85 12 -171 117 -171c72 0 126 38 144 108c6 25 6 50 6 75v287h65v-517zM363 663c0 -51 -41 -92 -92 -92c-50 0 -92 42 -92 92c0 51 41 93 92 93s92 -42 92 -93zM322 663
c0 28 -22 51 -50 51c-29 0 -51 -22 -51 -51c0 -28 23 -50 51 -50c27 0 50 23 50 50z" />
    <glyph glyph-name="Uhungarumlaut" unicode="&#x170;" horiz-adv-x="646" 
d="M504 706h67v-420c0 -67 -5 -143 -43 -200c-46 -69 -123 -91 -202 -91c-97 0 -186 37 -225 131c-24 59 -25 127 -25 190v390h68v-394c0 -79 6 -172 66 -218c37 -28 76 -36 121 -36c167 0 173 145 173 274v374zM258 894h96l-96 -118h-60zM395 894h96l-96 -118h-60z" />
    <glyph glyph-name="uhungarumlaut" unicode="&#x171;" 
d="M467 0h-65v68c-34 -51 -90 -75 -150 -75c-143 0 -181 80 -181 207v317h64v-299c0 -85 12 -171 117 -171c72 0 126 38 144 108c6 25 6 50 6 75v287h65v-517zM154 591l57 146h94l-103 -146h-48zM286 591l58 146h92l-102 -146h-48z" />
    <glyph glyph-name="Uogonek" unicode="&#x172;" horiz-adv-x="646" 
d="M504 706h67v-420c0 -67 -5 -143 -43 -200c-39 -58 -99 -83 -165 -89c-34 -44 -49 -75 -49 -94c0 -35 30 -36 60 -36h24v-59h-49c-36 0 -101 4 -101 66c0 38 26 74 54 108l11 13c-92 3 -175 41 -212 131c-24 59 -25 127 -25 190v390h68v-394c0 -79 6 -172 66 -218
c37 -28 76 -36 121 -36c167 0 173 145 173 274v374z" />
    <glyph glyph-name="uogonek" unicode="&#x173;" 
d="M467 0h-13c-37 -45 -52 -78 -52 -97c0 -35 30 -36 60 -36h24v-59h-49c-36 0 -101 4 -101 66c0 38 25 71 55 108l15 18h-4v68c-34 -51 -90 -75 -150 -75c-143 0 -181 80 -181 207v317h64v-299c0 -85 12 -171 117 -171c72 0 126 38 144 108c6 25 6 50 6 75v287h65v-517z
" />
    <glyph glyph-name="Wcircumflex" unicode="&#x174;" horiz-adv-x="917" 
d="M11 706h76l172 -616l158 616h81l160 -620l170 620h78l-213 -706h-71l-164 637l-161 -637h-70zM317 779l97 116h92l94 -116h-73l-68 72l-73 -72h-69z" />
    <glyph glyph-name="wcircumflex" unicode="&#x175;" horiz-adv-x="708" 
d="M12 517h72l120 -429l113 429h65l122 -433l119 433h69l-154 -517h-65l-123 427l-110 -427h-68zM212 590l97 148h88l98 -148h-60l-82 95l-81 -95h-60z" />
    <glyph glyph-name="Ycircumflex" unicode="&#x176;" horiz-adv-x="562" 
d="M9 706h77l196 -339l196 339h73l-237 -411v-295h-67v295zM139 779l97 116h92l94 -116h-73l-68 72l-73 -72h-69z" />
    <glyph glyph-name="ycircumflex" unicode="&#x177;" horiz-adv-x="458" 
d="M9 517h71l161 -439l138 439h68l-179 -548c-30 -91 -60 -158 -165 -158c-21 0 -32 3 -42 4v62c16 -2 25 -4 41 -4c46 0 83 28 106 111l2 7zM87 590l97 148h88l98 -148h-60l-82 95l-81 -95h-60z" />
    <glyph glyph-name="Zacute" unicode="&#x179;" horiz-adv-x="604" 
d="M33 0v60l446 585h-401v61h487v-61l-449 -585h439v-60h-522zM271 778l61 116h96l-96 -116h-61z" />
    <glyph glyph-name="zacute" unicode="&#x17a;" horiz-adv-x="458" 
d="M31 0v68l305 393h-284v56h359v-56l-312 -407h329v-54h-397zM194 591l56 146h94l-102 -146h-48z" />
    <glyph glyph-name="Zdotaccent" unicode="&#x17b;" horiz-adv-x="604" 
d="M33 0v60l446 585h-401v61h487v-61l-449 -585h439v-60h-522zM290 808v86h67v-86h-67z" />
    <glyph glyph-name="zdotaccent" unicode="&#x17c;" horiz-adv-x="458" 
d="M31 0v68l305 393h-284v56h359v-56l-312 -407h329v-54h-397zM200 619v87h65v-87h-65z" />
    <glyph glyph-name="longs" unicode="&#x17f;" horiz-adv-x="222" 
d="M73 0v550c0 67 3 106 35 136c28 25 65 29 91 29c8 0 21 -1 39 -4v-53h-20c-76 0 -79 -38 -79 -106v-552h-66z" />
    <glyph glyph-name="Aringacute" unicode="&#x1fa;" horiz-adv-x="604" 
d="M243 917l76 81h96l-111 -81h-61zM13 0l259 706h57l263 -706h-70l-83 224h-279l-78 -224h-69zM182 282h236c-87 245 -117 338 -117 338zM378 819c0 -41 -35 -75 -76 -75s-76 34 -76 75s35 76 76 76s76 -35 76 -76zM341 819c0 21 -18 39 -39 39s-38 -18 -38 -39
c0 -22 17 -39 38 -39s39 17 39 39z" />
    <glyph glyph-name="aringacute" unicode="&#x1fb;" horiz-adv-x="521" 
d="M204 780l56 146h94l-102 -146h-48zM487 -2h-12c-48 0 -99 3 -99 75v9c-20 -75 -121 -92 -167 -92c-90 0 -165 47 -165 151c0 114 85 140 165 153l59 10c68 12 107 18 107 69c0 78 -55 100 -118 100c-40 0 -128 -5 -128 -113h-69c12 164 152 165 193 165
c142 0 181 -69 181 -146v-264c0 -32 5 -63 53 -63v-54zM376 222v59c-26 -8 -50 -15 -80 -21l-46 -9c-101 -20 -143 -47 -143 -111c0 -35 20 -98 108 -98c43 0 76 16 93 26c66 40 68 101 68 154zM346 663c0 -51 -41 -92 -92 -92c-50 0 -92 42 -92 92c0 51 41 93 92 93
s92 -42 92 -93zM305 663c0 28 -22 51 -50 51c-29 0 -51 -22 -51 -51c0 -28 23 -50 51 -50c27 0 50 23 50 50z" />
    <glyph glyph-name="AEacute" unicode="&#x1fc;" horiz-adv-x="958" 
d="M3 0l400 706h505v-61h-396v-252h372v-60h-372v-273h407v-60h-474v198h-259l-108 -198h-75zM220 256h225v404zM545 778l61 116h96l-96 -116h-61z" />
    <glyph glyph-name="aeacute" unicode="&#x1fd;" horiz-adv-x="875" 
d="M826 247h-379c6 -117 54 -201 166 -201c69 0 119 33 138 101l65 -8c-28 -101 -103 -147 -205 -147c-86 0 -157 39 -195 117c-30 -77 -111 -115 -190 -115c-94 0 -179 49 -179 151c0 65 35 116 97 138c48 17 138 18 204 18h36v28c0 94 -19 145 -124 145
c-79 0 -117 -31 -123 -109h-68c3 106 79 162 179 162c74 0 155 -11 185 -98c41 66 109 97 185 97c155 0 208 -131 208 -267v-12zM757 301v10c0 90 -52 159 -148 159c-101 0 -151 -77 -160 -169h308zM383 233c0 5 0 9 -1 14h-92c-76 0 -179 -5 -179 -100
c0 -72 54 -98 118 -98c113 0 154 80 154 184zM398 591l56 146h94l-102 -146h-48z" />
    <glyph glyph-name="Oslashacute" unicode="&#x1fe;" horiz-adv-x="750" 
d="M668 697l35 -31l-73 -78c48 -76 66 -141 66 -230c0 -201 -104 -371 -322 -371c-85 0 -171 26 -229 91l-76 -80l-35 34l81 85c-47 70 -63 158 -63 241c0 172 90 357 317 357c81 0 174 -28 231 -89zM162 166l393 412c-42 57 -113 78 -181 78c-179 0 -255 -142 -255 -304
c0 -63 12 -131 43 -186zM583 539l-393 -413c53 -54 106 -80 183 -80c188 0 255 164 255 303c0 65 -11 134 -45 190zM316 778l61 116h96l-96 -116h-61z" />
    <glyph glyph-name="oslashacute" unicode="&#x1ff;" 
d="M478 524l30 -29l-56 -62c29 -56 42 -108 42 -171c0 -146 -68 -272 -230 -272c-63 0 -113 19 -155 67l-52 -58l-30 29l58 66c-27 46 -39 112 -39 166c0 145 73 266 231 266c57 0 112 -18 148 -59zM128 143l257 281c-30 33 -69 48 -113 48c-122 0 -164 -107 -164 -213
c0 -37 3 -82 20 -116zM409 385l-257 -283c27 -41 73 -58 120 -58c118 0 162 112 162 214c0 41 -4 90 -25 127zM226 591l56 146h94l-102 -146h-48z" />
    <glyph glyph-name="uni021A" unicode="&#x21a;" horiz-adv-x="500" 
d="M487 648h-205v-648h-69v648h-203v58h477v-58zM214 -39h66v-61c0 -37 -1 -98 -62 -113v38c17 13 22 34 22 57h-26v79z" />
    <glyph glyph-name="uni021B" unicode="&#x21b;" horiz-adv-x="271" 
d="M6 517h72v166h64v-166h95v-56h-95v-305c0 -52 2 -102 69 -102c10 0 23 2 30 2v-58c-17 -3 -33 -5 -51 -5c-88 0 -112 54 -112 131v337h-72v56zM122 -39h66v-61c0 -37 -1 -98 -62 -113v38c17 13 22 34 22 57h-26v79z" />
    <glyph glyph-name="Wgrave" unicode="&#x1e80;" horiz-adv-x="917" 
d="M11 706h76l172 -616l158 616h81l160 -620l170 620h78l-213 -706h-71l-164 637l-161 -637h-70zM356 894h96l60 -118h-60z" />
    <glyph glyph-name="wgrave" unicode="&#x1e81;" horiz-adv-x="708" 
d="M12 517h72l120 -429l113 429h65l122 -433l119 433h69l-154 -517h-65l-123 427l-110 -427h-68zM253 736h94l56 -145h-48z" />
    <glyph glyph-name="Wacute" unicode="&#x1e82;" horiz-adv-x="917" 
d="M11 706h76l172 -616l158 616h81l160 -620l170 620h78l-213 -706h-71l-164 637l-161 -637h-70zM398 778l61 116h96l-96 -116h-61z" />
    <glyph glyph-name="wacute" unicode="&#x1e83;" horiz-adv-x="708" 
d="M12 517h72l120 -429l113 429h65l122 -433l119 433h69l-154 -517h-65l-123 427l-110 -427h-68zM307 591l56 146h94l-102 -146h-48z" />
    <glyph glyph-name="Wdieresis" unicode="&#x1e84;" horiz-adv-x="917" 
d="M11 706h76l172 -616l158 616h81l160 -620l170 620h78l-213 -706h-71l-164 637l-161 -637h-70zM312 808v86h67v-86h-67zM540 808v86h65v-86h-65z" />
    <glyph glyph-name="wdieresis" unicode="&#x1e85;" horiz-adv-x="708" 
d="M12 517h72l120 -429l113 429h65l122 -433l119 433h69l-154 -517h-65l-123 427l-110 -427h-68zM215 618v88h65v-88h-65zM428 618v88h64v-88h-64z" />
    <glyph glyph-name="Ygrave" unicode="&#x1ef2;" horiz-adv-x="562" 
d="M9 706h77l196 -339l196 339h73l-237 -411v-295h-67v295zM181 894h96l60 -118h-60z" />
    <glyph glyph-name="ygrave" unicode="&#x1ef3;" horiz-adv-x="458" 
d="M9 517h71l161 -439l138 439h68l-179 -548c-30 -91 -60 -158 -165 -158c-21 0 -32 3 -42 4v62c16 -2 25 -4 41 -4c46 0 83 28 106 111l2 7zM124 736h94l56 -145h-48z" />
    <glyph glyph-name="uniF6C1" unicode="&#xf6c1;" horiz-adv-x="604" 
d="M63 188l74 9c10 -69 31 -150 174 -150c117 0 161 72 161 136c0 99 -86 125 -158 145l-65 18c-51 14 -162 58 -162 182c0 130 99 189 217 189c121 0 210 -51 229 -187l-72 -7c-1 8 -2 37 -16 64c-31 60 -95 71 -138 71c-65 0 -151 -29 -151 -123c0 -91 88 -115 112 -122
l90 -26c111 -32 183 -80 183 -202c0 -144 -110 -191 -224 -195l-23 -49c9 2 18 3 26 3c48 0 80 -30 80 -76c0 -53 -43 -90 -101 -90c-31 0 -56 9 -76 25l24 38c17 -15 33 -21 51 -21c30 0 51 17 51 44c0 26 -19 43 -48 43c-14 0 -27 -3 -43 -13l-17 19l38 77
c-107 6 -201 58 -216 198z" />
    <glyph glyph-name="uniF6C2" unicode="&#xf6c2;" horiz-adv-x="479" 
d="M44 158l65 8c9 -84 53 -122 133 -122c52 0 116 22 116 90c0 70 -60 91 -113 104l-43 11c-38 10 -129 33 -129 140c0 108 90 141 170 141c34 0 158 -3 170 -146l-64 -8c-4 37 -16 102 -109 102c-77 0 -103 -48 -103 -84c0 -60 54 -76 96 -88l40 -11
c62 -17 148 -46 148 -154c0 -73 -44 -149 -173 -151l-23 -48c9 2 18 3 26 3c47 0 78 -30 78 -75c0 -52 -42 -88 -99 -88c-30 0 -55 8 -75 24l24 38c17 -15 32 -21 50 -21c30 0 50 17 50 43s-18 43 -47 43c-14 0 -27 -3 -42 -13l-17 18l38 78c-129 11 -154 96 -167 166z" />
    <glyph glyph-name="amacron.sc" horiz-adv-x="482" 
d="M204 529h75l193 -529h-68l-52 148h-222l-52 -148h-68zM241 470l-95 -271h189zM103 618v63h262v-63h-262z" />
    <glyph glyph-name="abreve.sc" horiz-adv-x="482" 
d="M204 529h75l193 -529h-68l-52 148h-222l-52 -148h-68zM241 470l-95 -271h189zM313 725h50c0 -72 -55 -123 -126 -123c-74 0 -120 52 -120 123h52c4 -40 26 -64 66 -64c42 0 75 20 78 64z" />
    <glyph glyph-name="aogonek.sc" horiz-adv-x="482" 
d="M204 529h75l193 -529h-12c-37 -45 -52 -78 -52 -97c0 -35 30 -36 60 -36h24v-59h-49c-36 0 -101 4 -101 66c0 38 26 74 54 108l15 18h-7l-52 148h-222l-52 -148h-68zM241 470l-95 -271h189z" />
    <glyph glyph-name="cacute.sc" horiz-adv-x="548" 
d="M503 378l-67 -8c-23 105 -107 117 -144 117c-149 0 -179 -136 -179 -226c0 -148 84 -219 177 -219c100 0 139 66 152 121l67 -6c-15 -75 -79 -167 -216 -167c-175 0 -247 126 -247 272c0 142 73 276 240 276c102 0 196 -43 217 -160zM222 591l56 146h94l-102 -146h-48z
" />
    <glyph glyph-name="ccircumflex.sc" horiz-adv-x="548" 
d="M503 378l-67 -8c-23 105 -107 117 -144 117c-149 0 -179 -136 -179 -226c0 -148 84 -219 177 -219c100 0 139 66 152 121l67 -6c-15 -75 -79 -167 -216 -167c-175 0 -247 126 -247 272c0 142 73 276 240 276c102 0 196 -43 217 -160zM144 590l97 148h88l98 -148h-60
l-82 95l-81 -95h-60z" />
    <glyph glyph-name="cdotaccent.sc" horiz-adv-x="548" 
d="M503 378l-67 -8c-23 105 -107 117 -144 117c-149 0 -179 -136 -179 -226c0 -148 84 -219 177 -219c100 0 139 66 152 121l67 -6c-15 -75 -79 -167 -216 -167c-175 0 -247 126 -247 272c0 142 73 276 240 276c102 0 196 -43 217 -160zM234 619v87h65v-87h-65z" />
    <glyph glyph-name="ccaron.sc" horiz-adv-x="548" 
d="M503 378l-67 -8c-23 105 -107 117 -144 117c-149 0 -179 -136 -179 -226c0 -148 84 -219 177 -219c100 0 139 66 152 121l67 -6c-15 -75 -79 -167 -216 -167c-175 0 -247 126 -247 272c0 142 73 276 240 276c102 0 196 -43 217 -160zM413 737l-98 -147h-87l-98 147h61
l79 -96l84 96h59z" />
    <glyph glyph-name="dcaron.sc" horiz-adv-x="550" 
d="M72 529h175c29 0 80 -3 122 -20c107 -44 135 -161 135 -240c0 -83 -28 -200 -130 -247c-44 -21 -97 -22 -142 -22h-160v529zM137 477v-424h74c40 0 94 1 134 20c64 31 93 99 93 197c0 106 -44 167 -106 192c-26 10 -55 15 -106 15h-89zM387 737l-98 -147h-87l-98 147h61
l79 -96l84 96h59z" />
    <glyph glyph-name="dcroat.sc" horiz-adv-x="550" 
d="M72 256h-53v41h53v232h175c29 0 80 -2 122 -20c107 -44 135 -161 135 -240s-24 -190 -119 -241c-46 -25 -102 -28 -153 -28h-160v256zM137 297h157v-41h-157v-203h74c41 0 96 0 137 20c61 31 90 103 90 197c0 108 -44 171 -111 195c-24 8 -53 12 -101 12h-89v-180z" />
    <glyph glyph-name="emacron.sc" horiz-adv-x="443" 
d="M72 529h332v-52h-268v-180h250v-51h-250v-194h280v-52h-344v529zM95 618v63h262v-63h-262z" />
    <glyph glyph-name="ebreve.sc" horiz-adv-x="443" 
d="M72 529h332v-52h-268v-180h250v-51h-250v-194h280v-52h-344v529zM307 725h50c0 -72 -55 -123 -126 -123c-74 0 -120 52 -120 123h52c4 -40 26 -64 66 -64c42 0 75 20 78 64z" />
    <glyph glyph-name="edotaccent.sc" horiz-adv-x="443" 
d="M72 529h332v-52h-268v-180h250v-51h-250v-194h280v-52h-344v529zM203 619v87h65v-87h-65z" />
    <glyph glyph-name="eogonek.sc" horiz-adv-x="443" 
d="M72 529h332v-52h-268v-180h250v-51h-250v-194h280v-52h-27c-37 -45 -52 -78 -52 -97c0 -35 30 -36 60 -36h24v-59h-49c-36 0 -101 4 -101 66c0 38 26 74 54 108l15 18h-268v529z" />
    <glyph glyph-name="ecaron.sc" horiz-adv-x="443" 
d="M72 529h332v-52h-268v-180h250v-51h-250v-194h280v-52h-344v529zM376 737l-98 -147h-87l-98 147h61l79 -96l84 96h59z" />
    <glyph glyph-name="gcircumflex.sc" horiz-adv-x="552" 
d="M144 590l97 148h88l98 -148h-60l-82 95l-81 -95h-60zM502 0h-49s-2 57 -2 84c-26 -51 -79 -93 -168 -93c-165 0 -237 130 -237 268c0 145 78 279 249 279c127 0 191 -78 208 -155l-67 -7c-12 66 -66 108 -142 108c-125 0 -183 -102 -183 -216c0 -153 78 -224 180 -224
c108 0 151 79 151 157v22h-165v51h225v-274z" />
    <glyph glyph-name="gbreve.sc" horiz-adv-x="552" 
d="M348 725h50c0 -72 -55 -123 -126 -123c-74 0 -120 52 -120 123h52c4 -40 26 -64 66 -64c42 0 75 20 78 64zM502 0h-49s-2 57 -2 84c-26 -51 -79 -93 -168 -93c-165 0 -237 130 -237 268c0 145 78 279 249 279c127 0 191 -78 208 -155l-67 -7c-12 66 -66 108 -142 108
c-125 0 -183 -102 -183 -216c0 -153 78 -224 180 -224c108 0 151 79 151 157v22h-165v51h225v-274z" />
    <glyph glyph-name="gdotaccent.sc" horiz-adv-x="552" 
d="M250 619v87h65v-87h-65zM502 0h-49s-2 57 -2 84c-26 -51 -79 -93 -168 -93c-165 0 -237 130 -237 268c0 145 78 279 249 279c127 0 191 -78 208 -155l-67 -7c-12 66 -66 108 -142 108c-125 0 -183 -102 -183 -216c0 -153 78 -224 180 -224c108 0 151 79 151 157v22h-165
v51h225v-274z" />
    <glyph glyph-name="hbar.sc" horiz-adv-x="545" 
d="M511 390h-41v-390h-65v245h-270v-245h-65v390h-40v42h40v97h65v-97h270v97h65v-97h41v-42zM135 297h270v93h-270v-93z" />
    <glyph glyph-name="hcircumflex.sc" horiz-adv-x="545" 
d="M72 529h65v-232h271v232h65v-529h-65v245h-271v-245h-65v529zM131 590l97 148h88l98 -148h-60l-82 95l-81 -95h-60z" />
    <glyph glyph-name="itilde.sc" horiz-adv-x="209" 
d="M137 529v-529h-65v529h65zM200 721h42c0 -66 -13 -118 -63 -118c-52 0 -107 58 -137 58c-20 0 -28 -22 -29 -52h-42c2 59 11 116 62 116c47 0 104 -58 139 -58c19 0 26 22 28 54z" />
    <glyph glyph-name="imacron.sc" horiz-adv-x="209" 
d="M137 529v-529h-65v529h65zM-27 618v63h262v-63h-262z" />
    <glyph glyph-name="ibreve.sc" horiz-adv-x="209" 
d="M137 529v-529h-65v529h65zM178 725h50c0 -72 -55 -123 -126 -123c-74 0 -120 52 -120 123h52c4 -40 26 -64 66 -64c42 0 75 20 78 64z" />
    <glyph glyph-name="iogonek.sc" horiz-adv-x="209" 
d="M137 529v-529h-6c-37 -45 -52 -78 -52 -97c0 -35 30 -36 60 -36h24v-59h-49c-36 0 -101 4 -101 66c0 38 26 74 54 108l15 18h-10v529h65z" />
    <glyph glyph-name="idotaccent.sc" horiz-adv-x="209" 
d="M137 529v-529h-65v529h65zM72 619v87h65v-87h-65z" />
    <glyph glyph-name="ij.sc" horiz-adv-x="589" 
d="M137 529v-529h-65v529h65zM517 529v-395c0 -88 -46 -142 -147 -142c-88 0 -144 47 -144 150v13h64v-15c0 -59 23 -96 83 -96c46 0 81 23 81 88v397h63z" />
    <glyph glyph-name="jcircumflex.sc" horiz-adv-x="380" 
d="M308 529v-395c0 -88 -46 -142 -147 -142c-88 0 -144 47 -144 150v13h64v-15c0 -59 23 -96 83 -96c46 0 81 23 81 88v397h63zM133 590l97 148h88l98 -148h-60l-82 95l-81 -95h-60z" />
    <glyph glyph-name="lacute.sc" horiz-adv-x="414" 
d="M137 529v-477h257v-52h-322v529h65zM83 591l56 146h94l-102 -146h-48z" />
    <glyph glyph-name="lcaron.sc" horiz-adv-x="414" 
d="M204 546h71v-70c0 -43 0 -114 -67 -130v41c21 16 26 42 26 71h-30v88zM137 529v-477h257v-52h-322v529h65z" />
    <glyph glyph-name="ldot.sc" horiz-adv-x="414" 
d="M137 529v-477h257v-52h-322v529h65zM271 247v87h65v-87h-65z" />
    <glyph glyph-name="nacute.sc" horiz-adv-x="546" 
d="M412 529h62v-529h-64l-277 431c0 -133 2 -295 2 -431h-63v530h67l274 -425c-1 138 -1 284 -1 424zM231 591l56 146h94l-102 -146h-48z" />
    <glyph glyph-name="ncaron.sc" horiz-adv-x="546" 
d="M412 529h62v-529h-64l-277 431c0 -133 2 -295 2 -431h-63v530h67l274 -425c-1 138 -1 284 -1 424zM415 737l-98 -147h-87l-98 147h61l79 -96l84 96h59z" />
    <glyph glyph-name="eng.sc" horiz-adv-x="546" 
d="M413 -4l-280 434c0 -133 2 -288 2 -430h-63v527h64l277 -428c-1 144 -1 287 -1 430h62v-574c0 -84 -36 -109 -108 -109h-27v53h20c36 0 54 11 54 63v34z" />
    <glyph glyph-name="omacron.sc" horiz-adv-x="585" 
d="M46 263c0 173 107 276 248 276c179 0 245 -147 245 -274c0 -141 -77 -274 -245 -274c-169 0 -248 133 -248 272zM473 268c0 104 -48 217 -180 217c-149 0 -181 -142 -181 -221c0 -101 41 -220 181 -220c136 0 180 119 180 224zM155 618v63h262v-63h-262z" />
    <glyph glyph-name="obreve.sc" horiz-adv-x="585" 
d="M46 263c0 173 107 276 248 276c179 0 245 -147 245 -274c0 -141 -77 -274 -245 -274c-169 0 -248 133 -248 272zM473 268c0 104 -48 217 -180 217c-149 0 -181 -142 -181 -221c0 -101 41 -220 181 -220c136 0 180 119 180 224zM363 725h50c0 -72 -55 -123 -126 -123
c-74 0 -120 52 -120 123h52c4 -40 26 -64 66 -64c42 0 75 20 78 64z" />
    <glyph glyph-name="ohungarumlaut.sc" horiz-adv-x="585" 
d="M46 263c0 173 107 276 248 276c179 0 245 -147 245 -274c0 -141 -77 -274 -245 -274c-169 0 -248 133 -248 272zM473 268c0 104 -48 217 -180 217c-149 0 -181 -142 -181 -221c0 -101 41 -220 181 -220c136 0 180 119 180 224zM177 591l57 146h94l-103 -146h-48zM309 591
l58 146h92l-102 -146h-48z" />
    <glyph glyph-name="racute.sc" horiz-adv-x="486" 
d="M72 529h170c68 0 197 -3 197 -135c0 -92 -53 -126 -111 -136c74 -8 90 -45 99 -115c9 -72 9 -98 33 -143h-72c-13 32 -18 75 -24 114c-10 72 -13 114 -128 114h-99v-228h-65v529zM137 477v-197h88c67 0 149 8 149 106c0 73 -58 91 -128 91h-109zM190 591l56 146h94
l-102 -146h-48z" />
    <glyph glyph-name="rcaron.sc" horiz-adv-x="486" 
d="M72 529h170c68 0 197 -3 197 -135c0 -92 -53 -126 -111 -136c74 -8 90 -45 99 -115c9 -72 9 -98 33 -143h-72c-13 32 -18 75 -24 114c-10 72 -13 114 -128 114h-99v-228h-65v529zM137 477v-197h88c67 0 149 8 149 106c0 73 -58 91 -128 91h-109zM357 737l-98 -147h-87
l-98 147h61l79 -96l84 96h59z" />
    <glyph glyph-name="sacute.sc" horiz-adv-x="448" 
d="M401 400l-60 -6c-11 67 -58 95 -119 95c-82 0 -107 -48 -107 -90c0 -49 41 -71 87 -84l65 -19c72 -22 144 -54 144 -150c0 -79 -61 -155 -188 -155c-100 0 -181 42 -195 153l63 7c10 -72 56 -108 130 -108c95 0 126 50 126 97c0 60 -37 81 -98 100l-73 22
c-65 19 -125 54 -125 134c0 102 91 143 171 143c113 0 172 -65 179 -139zM171 591l56 146h94l-102 -146h-48z" />
    <glyph glyph-name="scircumflex.sc" horiz-adv-x="448" 
d="M401 400l-60 -6c-11 67 -58 95 -119 95c-82 0 -107 -48 -107 -90c0 -49 41 -71 87 -84l65 -19c72 -22 144 -54 144 -150c0 -79 -61 -155 -188 -155c-100 0 -181 42 -195 153l63 7c10 -72 56 -108 130 -108c95 0 126 50 126 97c0 60 -37 81 -98 100l-73 22
c-65 19 -125 54 -125 134c0 102 91 143 171 143c113 0 172 -65 179 -139zM84 590l97 148h88l98 -148h-60l-82 95l-81 -95h-60z" />
    <glyph glyph-name="scedilla.sc" horiz-adv-x="448" 
d="M401 400l-60 -6c-11 67 -58 95 -119 95c-82 0 -107 -48 -107 -90c0 -49 41 -71 87 -84l65 -19c72 -22 144 -54 144 -150c0 -76 -56 -148 -172 -154l-24 -50c9 2 18 3 26 3c47 0 78 -30 78 -75c0 -52 -42 -88 -99 -88c-30 0 -55 8 -75 24l24 38c17 -15 32 -21 50 -21
c30 0 50 17 50 43s-18 43 -47 43c-14 0 -27 -3 -42 -13l-17 18l38 78c-90 6 -160 49 -173 152l63 7c10 -72 56 -108 130 -108c95 0 126 50 126 97c0 60 -37 81 -98 100l-73 22c-65 19 -125 54 -125 134c0 102 91 143 171 143c113 0 172 -65 179 -139z" />
    <glyph glyph-name="tcaron.sc" horiz-adv-x="423" 
d="M21 529h382v-52h-159v-477h-65v477h-158v52zM355 737l-98 -147h-87l-98 147h61l79 -96l84 96h59z" />
    <glyph glyph-name="tbar.sc" horiz-adv-x="423" 
d="M346 316h-102v-316h-65v316h-105v44h105v117h-158v52h382v-52h-159v-117h102v-44z" />
    <glyph glyph-name="utilde.sc" horiz-adv-x="523" 
d="M132 529v-350c0 -103 58 -135 128 -135c84 0 132 36 132 138v347h64v-352c0 -110 -60 -186 -190 -186c-140 0 -199 74 -199 196v342h65zM358 721h42c0 -66 -13 -118 -63 -118c-52 0 -107 58 -137 58c-20 0 -28 -22 -29 -52h-42c2 59 11 116 62 116c47 0 104 -58 139 -58
c19 0 26 22 28 54z" />
    <glyph glyph-name="umacron.sc" horiz-adv-x="523" 
d="M132 529v-350c0 -103 58 -135 128 -135c84 0 132 36 132 138v347h64v-352c0 -110 -60 -186 -190 -186c-140 0 -199 74 -199 196v342h65zM131 618v63h262v-63h-262z" />
    <glyph glyph-name="ubreve.sc" horiz-adv-x="523" 
d="M132 529v-350c0 -103 58 -135 128 -135c84 0 132 36 132 138v347h64v-352c0 -110 -60 -186 -190 -186c-140 0 -199 74 -199 196v342h65zM328 725h50c0 -72 -55 -123 -126 -123c-74 0 -120 52 -120 123h52c4 -40 26 -64 66 -64c42 0 75 20 78 64z" />
    <glyph glyph-name="uring.sc" horiz-adv-x="523" 
d="M132 529v-350c0 -103 58 -135 128 -135c84 0 132 36 132 138v347h64v-352c0 -110 -60 -186 -190 -186c-140 0 -199 74 -199 196v342h65zM354 663c0 -51 -41 -92 -92 -92c-50 0 -92 42 -92 92c0 51 41 93 92 93s92 -42 92 -93zM313 663c0 28 -22 51 -50 51
c-29 0 -51 -22 -51 -51c0 -28 23 -50 51 -50c27 0 50 23 50 50z" />
    <glyph glyph-name="uhungarumlaut.sc" horiz-adv-x="523" 
d="M132 529v-350c0 -103 58 -135 128 -135c84 0 132 36 132 138v347h64v-352c0 -110 -60 -186 -190 -186c-140 0 -199 74 -199 196v342h65zM153 591l57 146h94l-103 -146h-48zM285 591l58 146h92l-102 -146h-48z" />
    <glyph glyph-name="uogonek.sc" horiz-adv-x="523" 
d="M132 529v-350c0 -103 58 -135 128 -135c84 0 132 36 132 138v347h64v-352c0 -99 -49 -171 -153 -184c-32 -42 -46 -72 -46 -90c0 -35 30 -36 60 -36h24v-59h-49c-36 0 -101 4 -101 66c0 38 26 74 54 108l7 9c-130 5 -185 78 -185 196v342h65z" />
    <glyph glyph-name="wacute.sc" horiz-adv-x="701" 
d="M318 529h68l114 -434l122 434h67l-152 -529h-69l-116 433l-120 -433h-69l-151 529h66l123 -434zM301 591l56 146h94l-102 -146h-48z" />
    <glyph glyph-name="wcircumflex.sc" horiz-adv-x="701" 
d="M318 529h68l114 -434l122 434h67l-152 -529h-69l-116 433l-120 -433h-69l-151 529h66l123 -434zM208 590l97 148h88l98 -148h-60l-82 95l-81 -95h-60z" />
    <glyph glyph-name="wdieresis.sc" horiz-adv-x="701" 
d="M318 529h68l114 -434l122 434h67l-152 -529h-69l-116 433l-120 -433h-69l-151 529h66l123 -434zM215 618v88h65v-88h-65zM428 618v88h64v-88h-64z" />
    <glyph glyph-name="wgrave.sc" horiz-adv-x="701" 
d="M318 529h68l114 -434l122 434h67l-152 -529h-69l-116 433l-120 -433h-69l-151 529h66l123 -434zM251 736h94l56 -145h-48z" />
    <glyph glyph-name="ycircumflex.sc" horiz-adv-x="453" 
d="M87 529l138 -261l141 261h73l-184 -323v-206h-64v206l-177 323h73zM83 590l97 148h88l98 -148h-60l-82 95l-81 -95h-60z" />
    <glyph glyph-name="ygrave.sc" horiz-adv-x="453" 
d="M87 529l138 -261l141 261h73l-184 -323v-206h-64v206l-177 323h73zM112 736h94l56 -145h-48z" />
    <glyph glyph-name="zacute.sc" horiz-adv-x="465" 
d="M66 529h372v-50l-329 -428h327v-51h-405v51l327 425h-292v53zM192 591l56 146h94l-102 -146h-48z" />
    <glyph glyph-name="zdotaccent.sc" horiz-adv-x="465" 
d="M66 529h372v-50l-329 -428h327v-51h-405v51l327 425h-292v53zM211 619v87h65v-87h-65z" />
    <glyph glyph-name="aringacute.sc" horiz-adv-x="482" 
d="M204 529h75l193 -529h-68l-52 148h-222l-52 -148h-68zM241 470l-95 -271h189zM182 780l56 146h94l-102 -146h-48zM324 663c0 -51 -41 -92 -92 -92c-50 0 -92 42 -92 92c0 51 41 93 92 93s92 -42 92 -93zM283 664c0 27 -22 50 -50 50c-29 0 -51 -22 -51 -51
c0 -28 23 -50 51 -50c27 0 50 23 50 51z" />
    <glyph glyph-name="aeacute.sc" horiz-adv-x="699" 
d="M296 529h366v-52h-261v-180h243v-50h-243v-195h272v-52h-335v145h-178l-80 -145h-69zM337 482l-153 -286h153v286zM421 591l56 146h94l-102 -146h-48z" />
    <glyph glyph-name="oslashacute.sc" horiz-adv-x="585" 
d="M540 507l-55 -60c37 -53 54 -120 54 -182c0 -141 -77 -274 -245 -274c-72 0 -128 24 -168 62l-50 -54l-30 29l52 57c-35 50 -52 113 -52 178c0 173 107 276 248 276c71 0 125 -24 163 -60l53 57zM473 268c0 45 -10 93 -31 132l-277 -304c28 -31 69 -52 128 -52
c136 0 180 119 180 224zM112 264c0 -45 7 -93 28 -133l277 303c-29 31 -69 51 -124 51c-149 0 -181 -142 -181 -221zM238 591l56 146h94l-102 -146h-48z" />
    <glyph glyph-name="uni021B.sc" horiz-adv-x="423" 
d="M21 529h382v-52h-159v-477h-65v477h-158v52zM182 -39h66v-61c0 -37 -1 -98 -62 -113v38c17 13 22 34 22 57h-26v79z" />
    <glyph glyph-name="Amacron.sc" horiz-adv-x="482" 
d="M204 529h75l193 -529h-68l-52 148h-222l-52 -148h-68zM241 470l-95 -271h189zM103 618v63h262v-63h-262z" />
    <glyph glyph-name="Abreve.sc" horiz-adv-x="482" 
d="M204 529h75l193 -529h-68l-52 148h-222l-52 -148h-68zM241 470l-95 -271h189zM313 725h50c0 -72 -55 -123 -126 -123c-74 0 -120 52 -120 123h52c4 -40 26 -64 66 -64c42 0 75 20 78 64z" />
    <glyph glyph-name="Aogonek.sc" horiz-adv-x="482" 
d="M204 529h75l193 -529h-12c-37 -45 -52 -78 -52 -97c0 -35 30 -36 60 -36h24v-59h-49c-36 0 -101 4 -101 66c0 38 26 74 54 108l15 18h-7l-52 148h-222l-52 -148h-68zM241 470l-95 -271h189z" />
    <glyph glyph-name="Cacute.sc" horiz-adv-x="548" 
d="M503 378l-67 -8c-23 105 -107 117 -144 117c-149 0 -179 -136 -179 -226c0 -148 84 -219 177 -219c100 0 139 66 152 121l67 -6c-15 -75 -79 -167 -216 -167c-175 0 -247 126 -247 272c0 142 73 276 240 276c102 0 196 -43 217 -160zM222 591l56 146h94l-102 -146h-48z
" />
    <glyph glyph-name="Ccircumflex.sc" horiz-adv-x="548" 
d="M503 378l-67 -8c-23 105 -107 117 -144 117c-149 0 -179 -136 -179 -226c0 -148 84 -219 177 -219c100 0 139 66 152 121l67 -6c-15 -75 -79 -167 -216 -167c-175 0 -247 126 -247 272c0 142 73 276 240 276c102 0 196 -43 217 -160zM144 590l97 148h88l98 -148h-60
l-82 95l-81 -95h-60z" />
    <glyph glyph-name="Cdotaccent.sc" horiz-adv-x="548" 
d="M503 378l-67 -8c-23 105 -107 117 -144 117c-149 0 -179 -136 -179 -226c0 -148 84 -219 177 -219c100 0 139 66 152 121l67 -6c-15 -75 -79 -167 -216 -167c-175 0 -247 126 -247 272c0 142 73 276 240 276c102 0 196 -43 217 -160zM234 619v87h65v-87h-65z" />
    <glyph glyph-name="Ccaron.sc" horiz-adv-x="548" 
d="M503 378l-67 -8c-23 105 -107 117 -144 117c-149 0 -179 -136 -179 -226c0 -148 84 -219 177 -219c100 0 139 66 152 121l67 -6c-15 -75 -79 -167 -216 -167c-175 0 -247 126 -247 272c0 142 73 276 240 276c102 0 196 -43 217 -160zM413 737l-98 -147h-87l-98 147h61
l79 -96l84 96h59z" />
    <glyph glyph-name="Dcaron.sc" horiz-adv-x="550" 
d="M72 529h175c29 0 80 -3 122 -20c107 -44 135 -161 135 -240c0 -83 -28 -200 -130 -247c-44 -21 -97 -22 -142 -22h-160v529zM137 477v-424h74c40 0 94 1 134 20c64 31 93 99 93 197c0 106 -44 167 -106 192c-26 10 -55 15 -106 15h-89zM387 737l-98 -147h-87l-98 147h61
l79 -96l84 96h59z" />
    <glyph glyph-name="Dcroat.sc" horiz-adv-x="550" 
d="M72 256h-53v41h53v232h175c29 0 80 -2 122 -20c107 -44 135 -161 135 -240s-24 -190 -119 -241c-46 -25 -102 -28 -153 -28h-160v256zM137 297h157v-41h-157v-203h74c41 0 96 0 137 20c61 31 90 103 90 197c0 108 -44 171 -111 195c-24 8 -53 12 -101 12h-89v-180z" />
    <glyph glyph-name="Emacron.sc" horiz-adv-x="443" 
d="M72 529h332v-52h-268v-180h250v-51h-250v-194h280v-52h-344v529zM95 618v63h262v-63h-262z" />
    <glyph glyph-name="Ebreve.sc" horiz-adv-x="443" 
d="M72 529h332v-52h-268v-180h250v-51h-250v-194h280v-52h-344v529zM307 725h50c0 -72 -55 -123 -126 -123c-74 0 -120 52 -120 123h52c4 -40 26 -64 66 -64c42 0 75 20 78 64z" />
    <glyph glyph-name="Edotaccent.sc" horiz-adv-x="443" 
d="M72 529h332v-52h-268v-180h250v-51h-250v-194h280v-52h-344v529zM203 619v87h65v-87h-65z" />
    <glyph glyph-name="Eogonek.sc" horiz-adv-x="443" 
d="M72 529h332v-52h-268v-180h250v-51h-250v-194h280v-52h-27c-37 -45 -52 -78 -52 -97c0 -35 30 -36 60 -36h24v-59h-49c-36 0 -101 4 -101 66c0 38 26 74 54 108l15 18h-268v529z" />
    <glyph glyph-name="Ecaron.sc" horiz-adv-x="443" 
d="M72 529h332v-52h-268v-180h250v-51h-250v-194h280v-52h-344v529zM376 737l-98 -147h-87l-98 147h61l79 -96l84 96h59z" />
    <glyph glyph-name="Gcircumflex.sc" horiz-adv-x="552" 
d="M144 590l97 148h88l98 -148h-60l-82 95l-81 -95h-60zM502 0h-49s-2 57 -2 84c-26 -51 -79 -93 -168 -93c-165 0 -237 130 -237 268c0 145 78 279 249 279c127 0 191 -78 208 -155l-67 -7c-12 66 -66 108 -142 108c-125 0 -183 -102 -183 -216c0 -153 78 -224 180 -224
c108 0 151 79 151 157v22h-165v51h225v-274z" />
    <glyph glyph-name="Gbreve.sc" horiz-adv-x="552" 
d="M348 725h50c0 -72 -55 -123 -126 -123c-74 0 -120 52 -120 123h52c4 -40 26 -64 66 -64c42 0 75 20 78 64zM502 0h-49s-2 57 -2 84c-26 -51 -79 -93 -168 -93c-165 0 -237 130 -237 268c0 145 78 279 249 279c127 0 191 -78 208 -155l-67 -7c-12 66 -66 108 -142 108
c-125 0 -183 -102 -183 -216c0 -153 78 -224 180 -224c108 0 151 79 151 157v22h-165v51h225v-274z" />
    </font>
</defs>
</svg>
