<?xml version="1.0" standalone="no"?>
<!DOCTYPE svg PUBLIC "-//W3C//DTD SVG 1.1//EN" "http://www.w3.org/Graphics/SVG/1.1/DTD/svg11.dtd" >
<svg xmlns="http://www.w3.org/2000/svg" xmlns:xlink="http://www.w3.org/1999/xlink" version="1.1">
<metadata>
Created by FontForge 20170812 at Fri Dec 10 14:17:12 2010
 By www-data
(c) Copyright 2006, 2008 Berthold LLC. All Rights Reserved. This font software computer program is the property of Berthold. You may not reproduce, modify, adapt, translate, alter nor create derivative works of the font software. You may not reverse engineer, decompile, decrypt, disassemble, nor seek to discover the source code of the font software.
</metadata>
<defs>
<font id="AGBookPro-Medium" horiz-adv-x="562" >
  <font-face 
    font-family="AG Book Pro Medium"
    font-weight="500"
    font-stretch="normal"
    units-per-em="1000"
    panose-1="2 0 6 3 4 0 0 2 0 4"
    ascent="750"
    descent="-250"
    x-height="518"
    cap-height="706"
    bbox="-224 -268 1227 998"
    underline-thickness="50"
    underline-position="-100"
    stemh="87"
    stemv="147"
    unicode-range="U+0020-FB04"
  />
<missing-glyph horiz-adv-x="500" 
d="M0 0v706h500v-706h-500zM250 401l170 255h-340zM280 353l170 -258v516zM80 50h340l-170 258zM50 611v-516l170 258z" />
    <glyph glyph-name="fi" unicode="fi" horiz-adv-x="604" 
d="M552 518v-518h-146v518h146zM552 706v-133h-146v133h146zM334 406h-98v-406h-147v406h-72v112h72c0 168 61 188 188 188h57v-114h-12c-58 0 -86 -2 -86 -57v-17h98v-112z" />
    <glyph glyph-name="fl" unicode="fl" horiz-adv-x="604" 
d="M553 706v-706h-147v706h147zM334 406h-98v-406h-147v406h-72v112h72c0 168 61 188 188 188h57v-114h-12c-58 0 -86 -2 -86 -57v-17h98v-112z" />
    <glyph glyph-name="longs_i" unicode="&#x17f;i" horiz-adv-x="507" 
d="M275 592h-16c-46 0 -60 -15 -60 -60v-532h-147v518c0 168 61 188 188 188h35v-114zM455 518v-518h-146v518h146zM455 706v-133h-146v133h146z" />
    <glyph glyph-name="longs_longs_i" unicode="&#x17f;&#x17f;i" horiz-adv-x="764" 
d="M282 592h-12c-37 0 -71 -2 -71 -57v-535h-147v518c0 168 61 188 188 188h42v-114zM712 518v-518h-146v518h146zM712 706v-133h-146v133h146zM532 592h-16c-46 0 -60 -15 -60 -60v-532h-147v518c0 168 61 188 188 188h35v-114z" />
    <glyph glyph-name="longs_l" unicode="&#x17f;l" horiz-adv-x="507" 
d="M456 706v-706h-147v706h147zM275 592h-16c-46 0 -60 -15 -60 -60v-532h-147v518c0 168 61 188 188 188h35v-114z" />
    <glyph glyph-name="longs_longs_l" unicode="&#x17f;&#x17f;l" horiz-adv-x="764" 
d="M282 592h-12c-37 0 -71 -2 -71 -57v-535h-147v518c0 168 61 188 188 188h42v-114zM713 706v-706h-147v706h147zM532 592h-16c-46 0 -60 -15 -60 -60v-532h-147v518c0 168 61 188 188 188h35v-114z" />
    <glyph glyph-name="longs_b" unicode="&#x17f;b" horiz-adv-x="840" 
d="M307 706h146v-226c36 37 86 52 137 52c153 0 219 -128 219 -264c0 -139 -59 -283 -218 -283c-60 0 -101 25 -141 68c0 -18 3 -53 3 -53h-146v706zM661 268c0 65 -21 143 -100 143c-86 0 -109 -77 -109 -149s18 -154 106 -154c85 0 103 93 103 160zM275 592h-16
c-46 0 -60 -15 -60 -60v-532h-147v518c0 168 61 188 188 188h35v-114z" />
    <glyph glyph-name="longs_longs_b" unicode="&#x17f;&#x17f;b" horiz-adv-x="1097" 
d="M282 592h-12c-37 0 -71 -2 -71 -57v-535h-147v518c0 168 61 188 188 188h42v-114zM564 706h146v-226c36 37 86 52 137 52c153 0 219 -128 219 -264c0 -139 -59 -283 -218 -283c-60 0 -101 25 -141 68c0 -18 3 -53 3 -53h-146v706zM918 268c0 65 -21 143 -100 143
c-86 0 -109 -77 -109 -149s18 -154 106 -154c85 0 103 93 103 160zM532 592h-16c-46 0 -60 -15 -60 -60v-532h-147v518c0 168 61 188 188 188h35v-114z" />
    <glyph glyph-name="longs_h" unicode="&#x17f;h" horiz-adv-x="819" 
d="M769 0h-147v290c0 48 -2 115 -77 115c-87 0 -90 -84 -90 -136v-269h-146v706h146v-241c23 41 97 65 141 65c141 0 173 -107 173 -197v-333zM275 592h-16c-46 0 -60 -15 -60 -60v-532h-147v518c0 168 61 188 188 188h35v-114z" />
    <glyph glyph-name="longs_longs_h" unicode="&#x17f;&#x17f;h" horiz-adv-x="1076" 
d="M282 592h-12c-37 0 -71 -2 -71 -57v-535h-147v518c0 168 61 188 188 188h42v-114zM1026 0h-147v290c0 48 -2 115 -77 115c-87 0 -90 -84 -90 -136v-269h-146v706h146v-241c23 41 97 65 141 65c141 0 173 -107 173 -197v-333zM532 592h-16c-46 0 -60 -15 -60 -60v-532
h-147v518c0 168 61 188 188 188h35v-114z" />
    <glyph glyph-name="longs_k" unicode="&#x17f;k" horiz-adv-x="799" 
d="M615 518h191l-200 -196l214 -322h-187l-130 220l-48 -48v-172h-147v706h147v-365zM275 592h-16c-46 0 -60 -15 -60 -60v-532h-147v518c0 168 61 188 188 188h35v-114z" />
    <glyph glyph-name="longs_longs_k" unicode="&#x17f;&#x17f;k" horiz-adv-x="1056" 
d="M282 592h-12c-37 0 -71 -2 -71 -57v-535h-147v518c0 168 61 188 188 188h42v-114zM872 518h191l-200 -196l214 -322h-187l-130 220l-48 -48v-172h-147v706h147v-365zM532 592h-16c-46 0 -60 -15 -60 -60v-532h-147v518c0 168 61 188 188 188h35v-114z" />
    <glyph glyph-name="longs_longs" unicode="&#x17f;&#x17f;" horiz-adv-x="514" 
d="M282 592h-12c-37 0 -71 -2 -71 -57v-535h-147v518c0 168 61 188 188 188h42v-114zM539 592h-12c-37 0 -71 -2 -71 -57v-535h-147v518c0 168 61 188 188 188h42v-114z" />
    <glyph glyph-name="f_f" unicode="ff" horiz-adv-x="708" 
d="M334 406h-98v-406h-147v406h-72v112h72c0 168 61 188 188 188h57v-114h-12c-58 0 -86 -2 -86 -57v-17h98v-112zM688 406h-98v-406h-147v406h-72v112h72c0 168 61 188 188 188h57v-114h-12c-58 0 -86 -2 -86 -57v-17h98v-112z" />
    <glyph glyph-name="f_f_i" unicode="ffi" horiz-adv-x="958" 
d="M334 406h-98v-406h-147v406h-72v112h72c0 168 61 188 188 188h57v-114h-12c-58 0 -86 -2 -86 -57v-17h98v-112zM688 406h-98v-406h-147v406h-72v112h72c0 168 61 188 188 188h57v-114h-12c-58 0 -86 -2 -86 -57v-17h98v-112zM906 518v-518h-146v518h146zM906 706v-133
h-146v133h146z" />
    <glyph glyph-name="f_f_l" unicode="ffl" horiz-adv-x="958" 
d="M334 406h-98v-406h-147v406h-72v112h72c0 168 61 188 188 188h57v-114h-12c-58 0 -86 -2 -86 -57v-17h98v-112zM688 406h-98v-406h-147v406h-72v112h72c0 168 61 188 188 188h57v-114h-12c-58 0 -86 -2 -86 -57v-17h98v-112zM907 706v-706h-147v706h147z" />
    <glyph glyph-name=".notdef" horiz-adv-x="500" 
d="M0 0v706h500v-706h-500zM250 401l170 255h-340zM280 353l170 -258v516zM80 50h340l-170 258zM50 611v-516l170 258z" />
    <glyph glyph-name="space" unicode=" " horiz-adv-x="292" 
 />
    <glyph glyph-name="exclam" unicode="!" horiz-adv-x="292" 
d="M239 147v-147h-147v147h147zM216 203h-100l-24 266v237h153v-237z" />
    <glyph glyph-name="quotedbl" unicode="&#x22;" horiz-adv-x="412" 
d="M129 387h-45l-47 319h141zM325 387h-45l-46 319h140z" />
    <glyph glyph-name="numbersign" unicode="#" horiz-adv-x="670" 
d="M443 0h-105l30 205h-103l-30 -205h-102l28 205h-120v104h134l14 99h-123v104h136l28 194h104l-27 -194h103l27 194h105l-28 -194h116v-104h-130l-13 -99h118v-104h-133zM382 309l14 99h-103l-14 -99h103z" />
    <glyph glyph-name="dollar" unicode="$" 
d="M247 783h78v-95c101 -18 180 -55 190 -202l-127 -6c0 47 -25 80 -63 88v-156c111 -32 209 -70 209 -205c0 -130 -86 -197 -209 -209v-93h-78v93c-127 13 -220 86 -220 221h136v-10c0 -52 38 -81 84 -88v170c-89 26 -205 64 -205 201c0 124 85 185 205 196v95zM247 435
v137c-41 -4 -71 -26 -71 -69c0 -38 35 -56 71 -68zM325 264v-143c37 9 70 30 70 71c0 46 -33 60 -70 72z" />
    <glyph glyph-name="percent" unicode="%" horiz-adv-x="875" 
d="M852 240c0 -115 -29 -247 -169 -247c-131 0 -161 126 -161 233c0 112 45 223 173 223c118 0 157 -109 157 -209zM621 688l-281 -688h-86l282 688h85zM754 226c0 45 -2 135 -66 135s-69 -93 -69 -140c0 -44 4 -141 66 -141c63 0 69 103 69 146zM353 485
c0 -115 -30 -242 -170 -242c-131 0 -161 126 -161 233c0 112 45 223 173 223c118 0 158 -107 158 -214zM256 476c0 45 -2 135 -66 135s-69 -93 -69 -140c0 -44 1 -141 66 -141c63 0 69 103 69 146z" />
    <glyph glyph-name="ampersand" unicode="&#x26;" horiz-adv-x="625" 
d="M457 343h131c-9 -61 -36 -148 -75 -196c34 -25 52 -31 94 -31v-120c-13 -3 -25 -5 -39 -5c-54 0 -102 21 -140 60c-50 -43 -117 -66 -183 -66c-123 0 -225 88 -225 214c0 98 62 158 144 200c-22 38 -38 80 -38 124c0 99 79 169 176 169c95 0 170 -71 170 -166
c0 -87 -55 -139 -128 -173c27 -40 55 -78 84 -117c18 35 27 68 29 107zM280 450c33 11 71 40 71 78c0 29 -26 47 -53 47c-29 0 -47 -22 -47 -50c0 -24 18 -54 29 -75zM347 138c-41 47 -86 110 -120 163c-37 -19 -72 -57 -72 -101c0 -55 48 -92 100 -92c35 0 63 12 92 30z
" />
    <glyph glyph-name="quotesingle" unicode="'" horiz-adv-x="216" 
d="M129 387h-45l-47 319h141z" />
    <glyph glyph-name="parenleft" unicode="(" horiz-adv-x="382" 
d="M250 766h109l-13 -23c-20 -36 -36 -67 -49 -94c-57 -122 -83 -237 -83 -368c0 -171 45 -317 143 -468h-112c-41 56 -54 78 -80 125c-63 115 -96 235 -96 350c0 108 29 222 84 327c27 51 45 79 97 151z" />
    <glyph glyph-name="parenright" unicode=")" horiz-adv-x="382" 
d="M132 -187h-109l13 23c20 36 36 67 49 94c57 121 83 237 83 368c0 171 -45 317 -143 467h112c41 -56 55 -77 80 -124c63 -115 96 -235 96 -350c0 -108 -29 -222 -84 -327c-27 -51 -45 -79 -97 -151z" />
    <glyph glyph-name="asterisk" unicode="*" horiz-adv-x="396" 
d="M347 629l26 -79l-108 -36l68 -91l-68 -50l-68 94l-68 -94l-67 50l67 91l-106 36l27 79l106 -37v114h84v-114z" />
    <glyph glyph-name="plus" unicode="+" horiz-adv-x="747" 
d="M440 32h-133v218h-217v128h217v217h133v-217h217v-128h-217v-218z" />
    <glyph glyph-name="comma" unicode="," horiz-adv-x="250" 
d="M52 150h147v-146c0 -73 -54 -136 -120 -162c-12 -5 -24 -8 -37 -11v55c52 17 79 62 84 114h-74v150z" />
    <glyph glyph-name="hyphen" unicode="-" horiz-adv-x="344" 
d="M27 348h290v-113h-290v113z" />
    <glyph glyph-name="period" unicode="." horiz-adv-x="250" 
d="M200 149v-149h-149v149h149z" />
    <glyph glyph-name="slash" unicode="/" horiz-adv-x="458" 
d="M314 706h123l-291 -706h-125z" />
    <glyph glyph-name="zero" unicode="0" 
d="M536 353c0 -204 -72 -365 -260 -365c-208 0 -250 206 -250 365c0 157 49 346 267 346c200 0 243 -201 243 -346zM399 352c0 76 -10 228 -115 228c-108 0 -121 -141 -121 -231c0 -77 9 -240 116 -240c115 0 120 162 120 243z" />
    <glyph glyph-name="one" unicode="1" 
d="M380 688v-688h-142v467h-162v105h16c70 0 153 14 164 116h124z" />
    <glyph glyph-name="two" unicode="2" 
d="M517 0h-473v115l65 56c86 74 256 184 256 308c0 52 -35 90 -88 90c-67 0 -93 -56 -93 -116c0 -6 0 -13 1 -19l-141 5v9c0 146 91 251 241 251c129 0 220 -78 220 -210c0 -166 -150 -266 -262 -364h274v-125z" />
    <glyph glyph-name="three" unicode="3" 
d="M36 238l135 6v-20c0 -66 38 -118 107 -118c59 0 103 45 103 104c0 65 -45 98 -108 98c-15 0 -31 -1 -46 -4v118c13 -2 25 -3 38 -3c50 0 98 27 98 82c0 50 -40 82 -88 82c-60 0 -90 -50 -90 -105v-14l-133 7c0 148 85 228 229 228c115 0 217 -60 217 -185
c0 -65 -29 -116 -89 -143c80 -23 118 -84 118 -158c0 -141 -114 -225 -248 -225c-144 0 -243 83 -243 231v19z" />
    <glyph glyph-name="four" unicode="4" 
d="M534 147h-94v-147h-134v147h-285v144l279 397h140v-424h94v-117zM142 264h164c2 121 3 247 3 247z" />
    <glyph glyph-name="five" unicode="5" 
d="M115 688h389l-12 -127h-277l-27 -125c36 25 78 37 122 37c134 0 216 -106 216 -234c0 -138 -93 -251 -257 -251h-4c-137 0 -228 78 -244 216l141 7c4 -65 41 -103 106 -103c74 0 117 62 117 131c0 67 -47 115 -114 115c-37 0 -71 -17 -93 -47h-129z" />
    <glyph glyph-name="six" unicode="6" 
d="M519 518l-133 -8c-7 50 -32 74 -85 74c-104 0 -123 -103 -136 -184c42 52 88 75 156 75c134 0 211 -108 211 -234c0 -146 -91 -253 -241 -253c-204 0 -257 172 -257 347c0 179 62 364 273 364c114 0 198 -66 212 -181zM400 234c0 69 -38 120 -110 120
c-69 0 -112 -50 -112 -118c0 -66 38 -129 111 -129c71 0 111 60 111 127z" />
    <glyph glyph-name="seven" unicode="7" 
d="M49 688h457v-128c-48 -36 -79 -90 -107 -141c-66 -121 -110 -257 -110 -397v-22h-153c7 214 92 395 218 560h-305v128z" />
    <glyph glyph-name="eight" unicode="8" 
d="M435 368c67 -26 96 -95 96 -163c0 -29 -7 -59 -18 -85c-41 -97 -134 -132 -233 -132c-118 0 -250 55 -250 214c0 68 31 138 97 166c-52 28 -76 81 -76 137c0 129 118 194 234 194c117 0 227 -61 227 -191c0 -60 -22 -111 -77 -140zM381 501c0 54 -45 84 -95 84
c-54 0 -104 -28 -104 -88c0 -56 43 -86 96 -86c58 0 103 25 103 90zM396 209c0 68 -50 103 -113 103c-68 0 -120 -35 -120 -106c0 -67 54 -102 116 -102c65 0 117 36 117 105z" />
    <glyph glyph-name="nine" unicode="9" 
d="M43 170l133 8c4 -50 33 -75 82 -75c104 0 132 98 138 184c-32 -52 -93 -74 -152 -74c-136 0 -214 103 -214 233c0 144 95 253 243 253c216 0 256 -198 256 -343c0 -184 -59 -368 -274 -368c-117 0 -196 63 -212 182zM385 450c0 69 -41 129 -114 129
c-76 0 -108 -65 -108 -132s41 -116 110 -116s112 53 112 119z" />
    <glyph glyph-name="colon" unicode=":" horiz-adv-x="292" 
d="M241 494v-148h-147v148h147zM241 148v-148h-147v148h147z" />
    <glyph glyph-name="semicolon" unicode=";" horiz-adv-x="292" 
d="M240 346h-149v148h149v-148zM92 150h148v-139c0 -77 -49 -141 -120 -169c-13 -5 -25 -8 -38 -11v55c52 17 80 61 85 114h-75v150z" />
    <glyph glyph-name="less" unicode="&#x3c;" horiz-adv-x="747" 
d="M606 16l-495 231v127l495 223v-144l-330 -142l330 -147v-148z" />
    <glyph glyph-name="equal" unicode="=" horiz-adv-x="747" 
d="M657 355h-567v130h567v-130zM657 142h-567v130h567v-130z" />
    <glyph glyph-name="greater" unicode="&#x3e;" horiz-adv-x="747" 
d="M138 597l495 -231v-127l-495 -223v144l330 142l-330 147v148z" />
    <glyph glyph-name="question" unicode="?" horiz-adv-x="604" 
d="M254 206v17c0 90 15 120 87 178c37 30 72 51 72 106c0 61 -47 91 -104 91c-75 0 -108 -47 -112 -119h-144v8c2 120 69 236 264 236c116 0 243 -59 243 -215c0 -75 -34 -123 -91 -172c-39 -34 -78 -52 -78 -113v-17h-137zM398 0h-148v147h148v-147z" />
    <glyph glyph-name="at" unicode="@" horiz-adv-x="888" 
d="M558 529h98l-29 -172c-5 -31 -13 -70 -13 -103s9 -59 41 -59c51 0 98 97 98 201c0 167 -95 262 -263 262c-193 0 -344 -160 -344 -365c0 -194 125 -317 325 -317c98 0 178 20 280 94l46 -72c-96 -72 -207 -108 -333 -108c-249 0 -418 163 -418 403c0 255 192 446 449 446
c215 0 351 -142 351 -331c0 -170 -99 -306 -223 -306c-60 0 -91 25 -101 81c-37 -56 -77 -79 -137 -79c-92 0 -148 67 -148 178c0 141 94 255 210 255c48 0 78 -17 103 -60zM528 365c0 53 -26 86 -68 86c-65 0 -120 -75 -120 -164c0 -58 27 -93 73 -93c63 0 115 77 115 171z
" />
    <glyph glyph-name="A" unicode="A" horiz-adv-x="667" 
d="M419 706l251 -706h-178l-46 150h-226l-45 -150h-177l240 706h181zM257 279h150l-77 272z" />
    <glyph glyph-name="B" unicode="B" horiz-adv-x="667" 
d="M58 0v706h320c134 0 238 -48 238 -182c0 -96 -74 -137 -100 -145c38 -15 118 -61 118 -171c0 -168 -141 -208 -245 -208h-331zM216 574v-140h131c54 0 112 4 112 67c0 66 -60 73 -105 73h-138zM216 307v-177h127c83 0 130 26 130 90c0 78 -66 87 -112 87h-145z" />
    <glyph glyph-name="C" unicode="C" horiz-adv-x="708" 
d="M535 247l165 -11c-21 -177 -172 -252 -318 -252c-237 0 -350 180 -350 372c0 216 133 367 354 367c136 0 280 -71 304 -230l-159 -11c-21 76 -82 108 -147 108c-134 0 -181 -116 -181 -233c0 -103 36 -240 181 -240c75 0 150 50 151 130z" />
    <glyph glyph-name="D" unicode="D" horiz-adv-x="688" 
d="M56 706h233c84 0 167 -7 237 -59c93 -69 128 -184 128 -295c0 -134 -58 -272 -188 -326c-58 -24 -121 -26 -183 -26h-227v706zM214 574v-443h47c110 0 224 5 224 228c0 67 -16 158 -82 193c-41 22 -100 22 -146 22h-43z" />
    <glyph glyph-name="E" unicode="E" horiz-adv-x="604" 
d="M546 435v-127h-331v-179h363v-129h-521v706h514v-130h-356v-141h331z" />
    <glyph glyph-name="F" unicode="F" horiz-adv-x="583" 
d="M529 296h-316v-296h-159v706h519v-131h-360v-152h316v-127z" />
    <glyph glyph-name="G" unicode="G" horiz-adv-x="750" 
d="M698 0h-115l-8 87c-52 -70 -131 -103 -216 -103c-224 0 -324 162 -324 369c0 215 134 370 354 370c137 0 287 -70 306 -239l-153 -10c-20 76 -74 114 -150 114c-134 0 -191 -105 -191 -228c0 -122 42 -241 184 -241c92 0 153 56 173 146h-175v129h315v-394z" />
    <glyph glyph-name="H" unicode="H" horiz-adv-x="688" 
d="M472 438v268h159v-706h-159v305h-255v-305h-161v706h161v-268h255z" />
    <glyph glyph-name="I" unicode="I" horiz-adv-x="271" 
d="M215 706v-706h-159v706h159z" />
    <glyph glyph-name="J" unicode="J" horiz-adv-x="521" 
d="M317 706h158v-442c0 -109 -1 -180 -82 -237c-51 -36 -105 -42 -165 -42c-94 0 -179 38 -211 133c-9 26 -10 64 -10 100v54h155v-72c0 -40 18 -80 75 -80c62 0 80 39 80 93v493z" />
    <glyph glyph-name="K" unicode="K" horiz-adv-x="667" 
d="M386 424l297 -424h-196l-209 317l-65 -64v-253h-158v706h158v-270l249 270h205z" />
    <glyph glyph-name="L" unicode="L" 
d="M215 132h334v-132h-493v706h159v-574z" />
    <glyph glyph-name="M" unicode="M" horiz-adv-x="833" 
d="M774 706v-706h-146s3 337 5 512l-137 -512h-159l-139 512c2 -194 6 -512 6 -512h-147v706h221l139 -525l133 525h224z" />
    <glyph glyph-name="N" unicode="N" horiz-adv-x="688" 
d="M629 706v-706h-149l-277 458s8 -294 12 -458h-158v706h153l274 -464c-3 118 -10 464 -10 464h155z" />
    <glyph glyph-name="O" unicode="O" horiz-adv-x="771" 
d="M735 355c0 -213 -137 -371 -355 -371c-214 0 -345 162 -345 368c0 213 129 371 349 371c219 0 351 -155 351 -368zM568 347c0 119 -44 241 -184 241c-130 0 -183 -120 -183 -234c0 -115 52 -235 184 -235c124 0 183 107 183 228z" />
    <glyph glyph-name="P" unicode="P" horiz-adv-x="625" 
d="M57 706h272c107 0 202 -15 253 -121c15 -32 22 -73 22 -108c0 -51 -12 -105 -44 -146c-64 -84 -146 -87 -242 -87h-101v-244h-160v706zM217 577v-203h100c62 0 128 17 128 102c0 98 -88 101 -146 101h-82z" />
    <glyph glyph-name="Q" unicode="Q" horiz-adv-x="771" 
d="M739 69l-84 -102l-83 68c-59 -36 -119 -51 -188 -51c-216 0 -349 158 -349 368c0 212 127 371 347 371c217 0 353 -153 353 -366c0 -81 -19 -163 -66 -230zM391 185l84 102l72 -58c17 42 21 82 21 127c0 116 -53 232 -184 232c-129 0 -183 -122 -183 -235
c0 -115 51 -233 183 -233c25 0 47 5 70 13z" />
    <glyph glyph-name="R" unicode="R" horiz-adv-x="646" 
d="M54 706h292c80 0 170 -5 222 -68c30 -36 42 -79 42 -126c0 -82 -39 -154 -124 -173c75 -17 91 -86 101 -151c10 -64 17 -137 57 -188h-167c-27 41 -35 85 -42 133l-2 15c-5 41 -12 85 -54 104c-18 8 -58 8 -81 8h-85v-260h-159v706zM213 572v-184h83c74 0 158 1 158 98
c0 74 -55 86 -116 86h-125z" />
    <glyph glyph-name="S" unicode="S" horiz-adv-x="667" 
d="M615 499l-157 -12c-5 75 -50 108 -137 108c-71 0 -111 -25 -111 -72c0 -48 47 -61 118 -77l92 -21c59 -13 206 -47 206 -215c0 -87 -44 -226 -296 -226c-160 0 -295 55 -303 240l159 9c1 -79 57 -116 151 -116c42 0 126 9 126 82c0 58 -65 73 -137 89l-50 11
c-137 30 -226 82 -226 211c0 193 194 213 284 213c167 0 274 -80 281 -224z" />
    <glyph glyph-name="T" unicode="T" horiz-adv-x="583" 
d="M370 575v-575h-158v575h-211v131h580v-131h-211z" />
    <glyph glyph-name="U" unicode="U" horiz-adv-x="667" 
d="M49 706h160v-402c0 -100 0 -185 126 -185c122 0 122 82 122 189v398h160v-433c0 -84 -2 -163 -69 -225c-55 -50 -148 -64 -220 -64c-109 0 -222 31 -263 143c-13 37 -16 81 -16 120v459z" />
    <glyph glyph-name="V" unicode="V" horiz-adv-x="646" 
d="M472 706h171l-247 -706h-147l-248 706h173l150 -513z" />
    <glyph glyph-name="W" unicode="W" horiz-adv-x="896" 
d="M738 706h156l-199 -706h-148l-100 478l-102 -478h-146l-198 706h160l112 -473l98 473h152l100 -473z" />
    <glyph glyph-name="X" unicode="X" horiz-adv-x="646" 
d="M444 706h185l-215 -332l234 -374h-186l-139 249l-140 -249h-185l238 374l-215 332h175l127 -210z" />
    <glyph glyph-name="Y" unicode="Y" horiz-adv-x="625" 
d="M454 706h175l-238 -443v-263h-158v263l-238 443h176l139 -288z" />
    <glyph glyph-name="Z" unicode="Z" horiz-adv-x="646" 
d="M43 706h568v-124l-382 -452h390v-130h-597v119l387 455h-366v132z" />
    <glyph glyph-name="bracketleft" unicode="[" horiz-adv-x="377" 
d="M339 -174h-252v929h252v-91h-122v-749h122v-89z" />
    <glyph glyph-name="backslash" unicode="\" horiz-adv-x="458" 
d="M314 0l-293 706h125l291 -706h-123z" />
    <glyph glyph-name="bracketright" unicode="]" horiz-adv-x="376" 
d="M37 755h252v-929h-252v90h122v750h-122v89z" />
    <glyph glyph-name="asciicircum" unicode="^" horiz-adv-x="747" 
d="M625 296h-141l-108 254l-111 -256h-144l194 412h126z" />
    <glyph glyph-name="underscore" unicode="_" horiz-adv-x="500" 
d="M510 -228h-520v103h520v-103z" />
    <glyph glyph-name="grave" unicode="`" horiz-adv-x="292" 
d="M256 589h-98l-122 147h171z" />
    <glyph glyph-name="a" unicode="a" 
d="M375 0l-7 47c-49 -32 -79 -62 -162 -62c-95 0 -181 57 -181 167c0 113 88 152 185 166l70 10c44 6 80 10 80 43c0 43 -55 48 -79 48c-54 0 -91 -20 -91 -65h-136c9 172 173 179 221 179c141 0 235 -41 235 -195v-224c0 -53 4 -87 17 -110l3 -4h-155zM364 168v80
c-14 -5 -23 -9 -36 -12c-41 -11 -154 -12 -154 -79c0 -43 39 -56 69 -56c11 0 83 1 121 67z" />
    <glyph glyph-name="b" unicode="b" horiz-adv-x="583" 
d="M50 706h146v-226c36 37 86 52 137 52c153 0 219 -128 219 -264c0 -139 -59 -283 -218 -283c-60 0 -101 25 -141 68c0 -18 3 -53 3 -53h-146v706zM404 268c0 65 -21 143 -100 143c-86 0 -109 -77 -109 -149s18 -154 106 -154c85 0 103 93 103 160z" />
    <glyph glyph-name="c" unicode="c" horiz-adv-x="542" 
d="M381 199l143 -7c-27 -143 -118 -207 -245 -207c-165 0 -256 113 -256 272c0 162 98 276 265 276c109 0 224 -66 231 -195l-142 -6c-9 51 -40 80 -92 80c-84 0 -109 -76 -109 -148c0 -71 20 -154 106 -154c54 0 93 35 99 89z" />
    <glyph glyph-name="d" unicode="d" horiz-adv-x="583" 
d="M532 0h-143v50c-30 -47 -84 -63 -137 -63c-147 0 -221 135 -221 267c0 141 71 277 228 277c47 0 88 -17 124 -47v222h149v-706zM388 256c0 70 -17 154 -103 154c-79 0 -104 -84 -104 -149c0 -71 21 -152 106 -152c83 0 101 79 101 147z" />
    <glyph glyph-name="e" unicode="e" 
d="M541 216h-363c9 -64 44 -111 112 -111c46 0 75 16 97 55l148 -10c-37 -111 -135 -165 -249 -165c-164 0 -262 115 -262 274c0 155 103 274 262 274c173 0 255 -132 255 -292v-25zM179 328h207c-5 52 -43 89 -96 89c-63 0 -95 -30 -111 -89z" />
    <glyph glyph-name="f" unicode="f" horiz-adv-x="354" 
d="M334 406h-98v-406h-147v406h-72v112h72c0 168 61 188 188 188h57v-114h-12c-58 0 -86 -2 -86 -57v-17h98v-112z" />
    <glyph glyph-name="g" unicode="g" horiz-adv-x="583" 
d="M394 518h142v-454c0 -39 -2 -80 -17 -116c-40 -95 -145 -118 -238 -118c-111 0 -218 37 -229 164h156c14 -36 48 -48 84 -48c90 0 99 54 99 130c0 7 0 14 1 21c-32 -44 -93 -64 -145 -64c-140 0 -219 115 -219 246c0 129 76 253 217 253c69 0 110 -28 149 -82v68z
M390 289c0 65 -36 122 -106 122c-73 0 -112 -59 -112 -127c0 -66 36 -126 108 -126c75 0 110 62 110 131z" />
    <glyph glyph-name="h" unicode="h" 
d="M512 0h-147v290c0 48 -2 115 -77 115c-87 0 -90 -84 -90 -136v-269h-146v706h146v-241c23 41 97 65 141 65c141 0 173 -107 173 -197v-333z" />
    <glyph glyph-name="i" unicode="i" horiz-adv-x="250" 
d="M198 518v-518h-146v518h146zM198 706v-133h-146v133h146z" />
    <glyph glyph-name="j" unicode="j" horiz-adv-x="250" 
d="M200 575h-146v131h146v-131zM54 518h146v-534c0 -120 -67 -149 -174 -149h-60v124h5c42 0 83 1 83 55v504z" />
    <glyph glyph-name="k" unicode="k" horiz-adv-x="542" 
d="M358 518h191l-200 -196l214 -322h-187l-130 220l-48 -48v-172h-147v706h147v-365z" />
    <glyph glyph-name="l" unicode="l" horiz-adv-x="250" 
d="M199 706v-706h-147v706h147z" />
    <glyph glyph-name="m" unicode="m" horiz-adv-x="854" 
d="M803 0h-147v272c0 56 -5 124 -75 124c-77 0 -80 -66 -80 -124v-272h-148v293c0 44 -11 103 -76 103c-75 0 -82 -71 -82 -120v-276h-146v518h146v-69c31 58 78 81 143 81c62 0 114 -29 138 -89c32 56 91 88 155 88c39 0 85 -12 116 -37c55 -45 56 -100 56 -165v-327z" />
    <glyph glyph-name="n" unicode="n" 
d="M517 0h-151v305c0 50 -19 99 -77 99c-70 0 -89 -62 -89 -117v-287h-148v518h144v-60c36 46 83 72 143 72c39 0 78 -10 109 -34c59 -45 69 -108 69 -178v-318z" />
    <glyph glyph-name="o" unicode="o" horiz-adv-x="583" 
d="M559 261c0 -160 -112 -276 -273 -276c-162 0 -263 112 -263 271c0 168 109 277 277 277c159 0 259 -117 259 -272zM408 267c0 74 -28 148 -115 148c-89 0 -119 -76 -119 -153c0 -75 28 -157 117 -157c91 0 117 85 117 162z" />
    <glyph glyph-name="p" unicode="p" horiz-adv-x="583" 
d="M49 518h143v-62c38 51 82 75 146 75c138 0 215 -113 215 -272c0 -137 -74 -272 -224 -272c-58 0 -93 18 -133 58v-207h-147v680zM404 268c0 66 -24 143 -103 143c-90 0 -106 -85 -106 -156c0 -70 19 -145 105 -145c83 0 104 91 104 158z" />
    <glyph glyph-name="q" unicode="q" horiz-adv-x="583" 
d="M530 -162h-147v203c-33 -40 -84 -54 -134 -54c-152 0 -219 141 -219 275c0 135 79 268 228 268c53 0 102 -22 131 -68v56h141v-680zM388 266c0 64 -21 145 -99 145c-86 0 -110 -86 -110 -156c0 -67 26 -146 106 -146c86 0 103 95 103 157z" />
    <glyph glyph-name="r" unicode="r" horiz-adv-x="354" 
d="M193 518v-85c28 72 71 95 134 95c7 0 13 0 26 -2v-134c-14 2 -22 3 -35 3c-106 0 -118 -78 -118 -140v-255h-151v518h144z" />
    <glyph glyph-name="s" unicode="s" horiz-adv-x="521" 
d="M22 177l140 5c9 -67 44 -86 110 -86c32 0 74 7 74 48c0 93 -308 18 -308 225c0 122 111 164 216 164c114 0 221 -49 227 -176l-138 -7c-3 55 -48 75 -91 75c-28 0 -72 -5 -72 -44c0 -79 316 -17 316 -222c0 -134 -121 -174 -234 -174c-110 0 -240 49 -240 186v6z" />
    <glyph glyph-name="t" unicode="t" horiz-adv-x="354" 
d="M323 406h-91v-233c0 -43 8 -60 56 -60c15 0 25 1 40 2v-114c-51 -6 -78 -7 -101 -7c-121 0 -142 58 -142 162v250h-74v112h74v153h147v-153h91v-112z" />
    <glyph glyph-name="u" unicode="u" 
d="M509 0h-140v57c-29 -47 -94 -70 -147 -70c-162 0 -173 131 -173 229v302h147v-297c0 -57 11 -112 81 -112c74 0 89 61 89 139v270h143v-518z" />
    <glyph glyph-name="v" unicode="v" horiz-adv-x="500" 
d="M494 518l-174 -518h-141l-179 518h157l95 -321l86 321h156z" />
    <glyph glyph-name="w" unicode="w" horiz-adv-x="750" 
d="M599 518h150l-150 -518h-137l-87 350l-86 -350h-139l-151 518h151l79 -324l81 324h130l80 -324z" />
    <glyph glyph-name="x" unicode="x" horiz-adv-x="542" 
d="M525 518l-175 -251l190 -267h-174l-97 152l-97 -152h-171l184 267l-174 251h167l91 -145l91 145h165z" />
    <glyph glyph-name="y" unicode="y" horiz-adv-x="500" 
d="M342 518h156l-171 -514c-9 -28 -27 -85 -49 -112c-38 -48 -97 -51 -189 -51c-16 0 -35 2 -39 2v116h49c59 0 74 31 74 65c0 21 -7 36 -21 74l-150 420h160l94 -349z" />
    <glyph glyph-name="z" unicode="z" horiz-adv-x="500" 
d="M457 518v-119l-248 -277h265v-122h-456v110l256 286h-227v122h410z" />
    <glyph glyph-name="braceleft" unicode="{" horiz-adv-x="383" 
d="M31 257v73c65 23 80 52 80 157v85c0 153 89 195 230 200v-74c-77 -16 -103 -54 -103 -153v-63c0 -123 -23 -164 -95 -189c79 -28 96 -75 96 -190v-66c0 -100 26 -140 102 -153v-73c-157 8 -230 59 -230 200v90c0 104 -17 137 -80 156z" />
    <glyph glyph-name="bar" unicode="|" horiz-adv-x="317" 
d="M230 -180h-143v941h143v-941z" />
    <glyph glyph-name="braceright" unicode="}" horiz-adv-x="383" 
d="M355 325v-73c-65 -23 -80 -52 -80 -157v-85c0 -154 -88 -195 -230 -200v73c77 17 103 55 103 154v63c0 121 19 163 95 189c-79 27 -95 72 -95 189v67c0 100 -27 140 -103 153v73c159 -10 230 -59 230 -200v-90c0 -105 17 -137 80 -156z" />
    <glyph glyph-name="asciitilde" unicode="~" horiz-adv-x="739" 
d="M138 203l-73 111c62 73 114 106 185 106c60 0 70 -9 148 -49c41 -21 62 -28 86 -28c37 0 64 18 117 78l72 -111c-65 -75 -120 -107 -184 -107c-35 0 -60 6 -116 34c-75 38 -91 43 -117 43c-41 0 -79 -25 -118 -77z" />
    <glyph glyph-name="Adieresis" unicode="&#xc4;" horiz-adv-x="667" 
d="M419 706l251 -706h-178l-46 150h-226l-45 -150h-177l240 706h181zM257 279h150l-77 272zM514 771h-130v124h130v-124zM150 771v124h130v-124h-130z" />
    <glyph glyph-name="Aring" unicode="&#xc5;" horiz-adv-x="667" 
d="M419 706l251 -706h-178l-46 150h-226l-45 -150h-177l240 706h181zM257 279h150l-77 272zM436 853c0 -57 -45 -101 -102 -101s-101 44 -101 101s43 102 101 102s102 -44 102 -102zM378 854c0 27 -20 43 -44 43s-44 -19 -44 -43s20 -44 44 -44s44 20 44 44z" />
    <glyph glyph-name="Ccedilla" unicode="&#xc7;" horiz-adv-x="708" 
d="M535 247l165 -11c-20 -169 -158 -245 -298 -251l-18 -35c3 0 17 0 24 -1c47 -4 83 -36 83 -86c0 -60 -49 -100 -116 -100c-39 0 -75 8 -100 31l36 51c18 -19 39 -24 60 -24c27 0 44 17 44 40c0 25 -17 40 -47 40c-15 0 -27 -3 -43 -12l-21 27l41 70
c-212 17 -313 188 -313 370c0 216 133 367 354 367c136 0 280 -71 304 -230l-159 -11c-21 76 -82 108 -147 108c-134 0 -181 -116 -181 -233c0 -103 36 -240 181 -240c75 0 150 50 151 130z" />
    <glyph glyph-name="Eacute" unicode="&#xc9;" horiz-adv-x="604" 
d="M546 435v-127h-331v-179h363v-129h-521v706h514v-130h-356v-141h331zM245 771l22 124h166l-94 -124h-94z" />
    <glyph glyph-name="Ntilde" unicode="&#xd1;" horiz-adv-x="688" 
d="M629 706v-706h-149l-277 458s8 -294 12 -458h-158v706h153l274 -464c-3 118 -10 464 -10 464h155zM270 771h-76c4 80 30 121 89 121c22 0 40 -5 61 -11l26 -7c7 -2 24 -6 32 -6c23 0 26 20 27 27h76v-7c0 -8 0 -118 -95 -118c-17 0 -30 3 -50 8l-37 9c-12 3 -24 6 -30 6
c-19 0 -23 -15 -23 -22z" />
    <glyph glyph-name="Odieresis" unicode="&#xd6;" horiz-adv-x="771" 
d="M735 355c0 -213 -137 -371 -355 -371c-214 0 -345 162 -345 368c0 213 129 371 349 371c219 0 351 -155 351 -368zM568 347c0 119 -44 241 -184 241c-130 0 -183 -120 -183 -234c0 -115 52 -235 184 -235c124 0 183 107 183 228zM566 771h-130v124h130v-124zM202 771v124
h130v-124h-130z" />
    <glyph glyph-name="Udieresis" unicode="&#xdc;" horiz-adv-x="667" 
d="M49 706h160v-402c0 -100 0 -185 126 -185c122 0 122 82 122 189v398h160v-433c0 -84 -2 -163 -69 -225c-55 -50 -148 -64 -220 -64c-109 0 -222 31 -263 143c-13 37 -16 81 -16 120v459zM514 771h-130v124h130v-124zM150 771v124h130v-124h-130z" />
    <glyph glyph-name="aacute" unicode="&#xe1;" 
d="M375 0l-7 47c-49 -32 -79 -62 -162 -62c-95 0 -181 57 -181 167c0 113 88 152 185 166l70 10c44 6 80 10 80 43c0 43 -55 48 -79 48c-54 0 -91 -20 -91 -65h-136c9 172 173 179 221 179c141 0 235 -41 235 -195v-224c0 -53 4 -87 17 -110l3 -4h-155zM364 168v80
c-14 -5 -23 -9 -36 -12c-41 -11 -154 -12 -154 -79c0 -43 39 -56 69 -56c11 0 83 1 121 67zM317 589h-99l45 147h165z" />
    <glyph glyph-name="agrave" unicode="&#xe0;" 
d="M375 0l-7 47c-49 -32 -79 -62 -162 -62c-95 0 -181 57 -181 167c0 113 88 152 185 166l70 10c44 6 80 10 80 43c0 43 -55 48 -79 48c-54 0 -91 -20 -91 -65h-136c9 172 173 179 221 179c141 0 235 -41 235 -195v-224c0 -53 4 -87 17 -110l3 -4h-155zM364 168v80
c-14 -5 -23 -9 -36 -12c-41 -11 -154 -12 -154 -79c0 -43 39 -56 69 -56c11 0 83 1 121 67zM346 589h-98l-122 147h171z" />
    <glyph glyph-name="acircumflex" unicode="&#xe2;" 
d="M375 0l-7 47c-49 -32 -79 -62 -162 -62c-95 0 -181 57 -181 167c0 113 88 152 185 166l70 10c44 6 80 10 80 43c0 43 -55 48 -79 48c-54 0 -91 -20 -91 -65h-136c9 172 173 179 221 179c141 0 235 -41 235 -195v-224c0 -53 4 -87 17 -110l3 -4h-155zM364 168v80
c-14 -5 -23 -9 -36 -12c-41 -11 -154 -12 -154 -79c0 -43 39 -56 69 -56c11 0 83 1 121 67zM442 589h-112l-49 81l-51 -81h-112l95 147h141z" />
    <glyph glyph-name="adieresis" unicode="&#xe4;" 
d="M375 0l-7 47c-49 -32 -79 -62 -162 -62c-95 0 -181 57 -181 167c0 113 88 152 185 166l70 10c44 6 80 10 80 43c0 43 -55 48 -79 48c-54 0 -91 -20 -91 -65h-136c9 172 173 179 221 179c141 0 235 -41 235 -195v-224c0 -53 4 -87 17 -110l3 -4h-155zM364 168v80
c-14 -5 -23 -9 -36 -12c-41 -11 -154 -12 -154 -79c0 -43 39 -56 69 -56c11 0 83 1 121 67zM470 718v-129h-137v129h137zM251 718v-129h-138v129h138z" />
    <glyph glyph-name="atilde" unicode="&#xe3;" 
d="M375 0l-7 47c-49 -32 -79 -62 -162 -62c-95 0 -181 57 -181 167c0 113 88 152 185 166l70 10c44 6 80 10 80 43c0 43 -55 48 -79 48c-54 0 -91 -20 -91 -65h-136c9 172 173 179 221 179c141 0 235 -41 235 -195v-224c0 -53 4 -87 17 -110l3 -4h-155zM364 168v80
c-14 -5 -23 -9 -36 -12c-41 -11 -154 -12 -154 -79c0 -43 39 -56 69 -56c11 0 83 1 121 67zM437 736v-35c0 -49 -3 -114 -67 -114c-49 0 -109 45 -140 45c-23 0 -25 -26 -25 -43h-71v48c0 47 22 101 77 101c47 0 100 -42 131 -42c21 0 26 23 27 40h68z" />
    <glyph glyph-name="aring" unicode="&#xe5;" 
d="M375 0l-7 47c-49 -32 -79 -62 -162 -62c-95 0 -181 57 -181 167c0 113 88 152 185 166l70 10c44 6 80 10 80 43c0 43 -55 48 -79 48c-54 0 -91 -20 -91 -65h-136c9 172 173 179 221 179c141 0 235 -41 235 -195v-224c0 -53 4 -87 17 -110l3 -4h-155zM364 168v80
c-14 -5 -23 -9 -36 -12c-41 -11 -154 -12 -154 -79c0 -43 39 -56 69 -56c11 0 83 1 121 67zM379 662c0 -56 -42 -96 -98 -96c-55 0 -97 42 -97 97c0 56 44 95 99 95c54 0 96 -42 96 -96zM319 663c0 22 -16 38 -38 38s-37 -18 -37 -39s15 -38 37 -38c23 0 38 17 38 39z" />
    <glyph glyph-name="ccedilla" unicode="&#xe7;" horiz-adv-x="542" 
d="M381 199l143 -7c-26 -134 -107 -198 -222 -206l-18 -35c3 0 17 0 24 -1c46 -4 81 -35 81 -85c0 -59 -48 -98 -114 -98c-38 0 -73 8 -98 30l35 51c18 -19 39 -24 59 -24c27 0 43 17 43 39c0 25 -16 40 -46 40c-14 0 -26 -3 -42 -12l-20 26l41 70
c-145 13 -224 121 -224 270c0 162 98 276 265 276c109 0 224 -66 231 -195l-142 -6c-9 51 -40 80 -92 80c-84 0 -109 -76 -109 -148c0 -71 20 -154 106 -154c54 0 93 35 99 89z" />
    <glyph glyph-name="eacute" unicode="&#xe9;" 
d="M541 216h-363c9 -64 44 -111 112 -111c46 0 75 16 97 55l148 -10c-37 -111 -135 -165 -249 -165c-164 0 -262 115 -262 274c0 155 103 274 262 274c173 0 255 -132 255 -292v-25zM179 328h207c-5 52 -43 89 -96 89c-63 0 -95 -30 -111 -89zM317 589h-99l45 147h165z" />
    <glyph glyph-name="egrave" unicode="&#xe8;" 
d="M541 216h-363c9 -64 44 -111 112 -111c46 0 75 16 97 55l148 -10c-37 -111 -135 -165 -249 -165c-164 0 -262 115 -262 274c0 155 103 274 262 274c173 0 255 -132 255 -292v-25zM179 328h207c-5 52 -43 89 -96 89c-63 0 -95 -30 -111 -89zM346 589h-98l-122 147h171z
" />
    <glyph glyph-name="ecircumflex" unicode="&#xea;" 
d="M541 216h-363c9 -64 44 -111 112 -111c46 0 75 16 97 55l148 -10c-37 -111 -135 -165 -249 -165c-164 0 -262 115 -262 274c0 155 103 274 262 274c173 0 255 -132 255 -292v-25zM179 328h207c-5 52 -43 89 -96 89c-63 0 -95 -30 -111 -89zM442 589h-112l-49 81l-51 -81
h-112l95 147h141z" />
    <glyph glyph-name="edieresis" unicode="&#xeb;" 
d="M541 216h-363c9 -64 44 -111 112 -111c46 0 75 16 97 55l148 -10c-37 -111 -135 -165 -249 -165c-164 0 -262 115 -262 274c0 155 103 274 262 274c173 0 255 -132 255 -292v-25zM179 328h207c-5 52 -43 89 -96 89c-63 0 -95 -30 -111 -89zM461 718v-129h-137v129h137z
M242 718v-129h-138v129h138z" />
    <glyph glyph-name="iacute" unicode="&#xed;" horiz-adv-x="250" 
d="M198 518v-518h-146v518h146zM161 589h-99l45 147h165z" />
    <glyph glyph-name="igrave" unicode="&#xec;" horiz-adv-x="250" 
d="M198 518v-518h-146v518h146zM190 589h-98l-122 147h171z" />
    <glyph glyph-name="icircumflex" unicode="&#xee;" horiz-adv-x="250" 
d="M198 518v-518h-146v518h146zM286 589h-112l-49 81l-51 -81h-112l95 147h141z" />
    <glyph glyph-name="idieresis" unicode="&#xef;" horiz-adv-x="250" 
d="M198 518v-518h-146v518h146zM305 718v-129h-137v129h137zM86 718v-129h-138v129h138z" />
    <glyph glyph-name="ntilde" unicode="&#xf1;" 
d="M517 0h-151v305c0 50 -19 99 -77 99c-70 0 -89 -62 -89 -117v-287h-148v518h144v-60c36 46 83 72 143 72c39 0 78 -10 109 -34c59 -45 69 -108 69 -178v-318zM437 736v-35c0 -49 -3 -114 -67 -114c-49 0 -109 45 -140 45c-23 0 -25 -26 -25 -43h-71v48
c0 47 22 101 77 101c47 0 100 -42 131 -42c21 0 26 23 27 40h68z" />
    <glyph glyph-name="oacute" unicode="&#xf3;" horiz-adv-x="583" 
d="M559 261c0 -160 -112 -276 -273 -276c-162 0 -263 112 -263 271c0 168 109 277 277 277c159 0 259 -117 259 -272zM408 267c0 74 -28 148 -115 148c-89 0 -119 -76 -119 -153c0 -75 28 -157 117 -157c91 0 117 85 117 162zM327 589h-99l45 147h165z" />
    <glyph glyph-name="ograve" unicode="&#xf2;" horiz-adv-x="583" 
d="M559 261c0 -160 -112 -276 -273 -276c-162 0 -263 112 -263 271c0 168 109 277 277 277c159 0 259 -117 259 -272zM408 267c0 74 -28 148 -115 148c-89 0 -119 -76 -119 -153c0 -75 28 -157 117 -157c91 0 117 85 117 162zM356 589h-98l-122 147h171z" />
    <glyph glyph-name="ocircumflex" unicode="&#xf4;" horiz-adv-x="583" 
d="M559 261c0 -160 -112 -276 -273 -276c-162 0 -263 112 -263 271c0 168 109 277 277 277c159 0 259 -117 259 -272zM408 267c0 74 -28 148 -115 148c-89 0 -119 -76 -119 -153c0 -75 28 -157 117 -157c91 0 117 85 117 162zM452 589h-112l-49 81l-51 -81h-112l95 147h141z
" />
    <glyph glyph-name="odieresis" unicode="&#xf6;" horiz-adv-x="583" 
d="M559 261c0 -160 -112 -276 -273 -276c-162 0 -263 112 -263 271c0 168 109 277 277 277c159 0 259 -117 259 -272zM408 267c0 74 -28 148 -115 148c-89 0 -119 -76 -119 -153c0 -75 28 -157 117 -157c91 0 117 85 117 162zM472 718v-129h-137v129h137zM253 718v-129h-138
v129h138z" />
    <glyph glyph-name="otilde" unicode="&#xf5;" horiz-adv-x="583" 
d="M559 261c0 -160 -112 -276 -273 -276c-162 0 -263 112 -263 271c0 168 109 277 277 277c159 0 259 -117 259 -272zM408 267c0 74 -28 148 -115 148c-89 0 -119 -76 -119 -153c0 -75 28 -157 117 -157c91 0 117 85 117 162zM448 736v-35c0 -49 -3 -114 -67 -114
c-49 0 -109 45 -140 45c-23 0 -25 -26 -25 -43h-71v48c0 47 22 101 77 101c47 0 100 -42 131 -42c21 0 26 23 27 40h68z" />
    <glyph glyph-name="uacute" unicode="&#xfa;" 
d="M509 0h-140v57c-29 -47 -94 -70 -147 -70c-162 0 -173 131 -173 229v302h147v-297c0 -57 11 -112 81 -112c74 0 89 61 89 139v270h143v-518zM317 589h-99l45 147h165z" />
    <glyph glyph-name="ugrave" unicode="&#xf9;" 
d="M509 0h-140v57c-29 -47 -94 -70 -147 -70c-162 0 -173 131 -173 229v302h147v-297c0 -57 11 -112 81 -112c74 0 89 61 89 139v270h143v-518zM346 589h-98l-122 147h171z" />
    <glyph glyph-name="ucircumflex" unicode="&#xfb;" 
d="M509 0h-140v57c-29 -47 -94 -70 -147 -70c-162 0 -173 131 -173 229v302h147v-297c0 -57 11 -112 81 -112c74 0 89 61 89 139v270h143v-518zM442 589h-112l-49 81l-51 -81h-112l95 147h141z" />
    <glyph glyph-name="udieresis" unicode="&#xfc;" 
d="M509 0h-140v57c-29 -47 -94 -70 -147 -70c-162 0 -173 131 -173 229v302h147v-297c0 -57 11 -112 81 -112c74 0 89 61 89 139v270h143v-518zM461 718v-129h-137v129h137zM242 718v-129h-138v129h138z" />
    <glyph glyph-name="dagger" unicode="&#x2020;" horiz-adv-x="583" 
d="M545 379h-180v-482h-146v482h-181v125h181v202h146v-202h180v-125z" />
    <glyph glyph-name="degree" unicode="&#xb0;" horiz-adv-x="354" 
d="M349 582c0 -94 -78 -172 -172 -172s-172 78 -172 172c0 95 76 173 172 173s172 -77 172 -173zM249 582c0 40 -33 71 -72 71c-40 0 -72 -31 -72 -71c0 -39 33 -72 72 -72s72 33 72 72z" />
    <glyph glyph-name="cent" unicode="&#xa2;" horiz-adv-x="542" 
d="M381 212l135 -6c-21 -115 -88 -182 -193 -198v-100h-76v99c-143 15 -214 125 -214 261c0 135 74 251 214 265v103h76v-103c100 -11 178 -84 188 -186l-134 -6c-6 33 -23 59 -54 71v-278c32 13 54 42 58 78zM247 134v278c-55 -18 -70 -87 -70 -137c0 -57 10 -118 70 -141z
" />
    <glyph glyph-name="sterling" unicode="&#xa3;" horiz-adv-x="603" 
d="M580 228v-14c0 -96 -14 -224 -162 -224c-60 0 -99 21 -136 48c-30 -30 -75 -48 -118 -48c-79 0 -133 39 -133 112c0 68 48 112 123 112c25 0 52 -8 67 -19c-4 36 -11 51 -24 73h-131v113h75c-28 45 -40 79 -40 133c0 126 117 191 231 191c148 0 233 -91 233 -238
l-128 -28v7c0 68 -25 142 -106 142c-50 0 -91 -32 -91 -84c0 -45 18 -84 45 -123h149v-113h-107c6 -20 8 -38 8 -63c0 -22 -4 -41 -10 -61c18 -15 41 -30 66 -30c63 0 63 62 63 106v8h126zM125 98c0 -20 16 -31 36 -31c23 0 40 16 49 32c-11 13 -24 29 -48 29
c-23 0 -37 -12 -37 -30z" />
    <glyph glyph-name="section" unicode="&#xa7;" horiz-adv-x="625" 
d="M75 66h135c0 -62 25 -104 93 -104c36 0 78 16 78 58c0 47 -78 76 -113 92l-51 23c-82 37 -178 77 -178 185c0 77 55 127 128 140c-38 27 -59 66 -59 113c0 119 112 150 211 150c116 0 216 -50 216 -181h-132c-1 49 -34 72 -81 72c-23 0 -67 -8 -67 -39
c0 -38 68 -62 126 -87l40 -17c79 -34 165 -75 165 -175c0 -72 -42 -124 -113 -141c39 -34 61 -74 61 -127c0 -131 -119 -178 -233 -178c-123 0 -226 60 -226 193v23zM383 213c29 10 61 24 61 60c0 45 -57 65 -91 81l-97 45c-32 -3 -73 -18 -73 -56c0 -43 59 -63 91 -78
c36 -17 73 -34 109 -52z" />
    <glyph glyph-name="bullet" unicode="&#x2022;" horiz-adv-x="259" 
d="M229 390v-201h-199v201h199z" />
    <glyph glyph-name="paragraph" unicode="&#xb6;" horiz-adv-x="582" 
d="M553 706v-67h-58v-783h-72v783h-144v-783h-72v449c-118 21 -176 86 -176 198c0 131 86 203 245 203h277z" />
    <glyph glyph-name="germandbls" unicode="&#xdf;" horiz-adv-x="583" 
d="M197 0h-146v489c0 34 1 68 10 101c30 106 128 131 227 131c113 0 219 -49 219 -176c0 -57 -27 -106 -78 -134c84 -43 114 -113 114 -195c0 -127 -65 -228 -203 -228c-35 0 -70 3 -104 8v107c17 -3 33 -4 50 -4c21 0 51 3 69 16c34 25 44 70 44 110c0 82 -35 130 -119 130
c-15 0 -29 -1 -44 -3v99c12 -1 24 -1 36 -1c51 0 94 18 94 77c0 49 -36 81 -84 81c-80 0 -85 -56 -85 -114v-494z" />
    <glyph glyph-name="registered" unicode="&#xae;" horiz-adv-x="826" 
d="M786 360c0 -213 -157 -377 -363 -377c-213 0 -380 164 -380 373c0 206 165 369 374 369c205 0 369 -162 369 -365zM736 351c0 186 -137 326 -318 326c-182 0 -325 -141 -325 -323c0 -178 147 -323 327 -323c175 0 316 142 316 320zM259 571h147c58 0 86 -2 115 -10
c50 -14 80 -53 80 -104c0 -56 -30 -90 -98 -109c52 -11 67 -28 79 -92c12 -65 15 -81 30 -110h-105c-9 20 -11 25 -18 67c-12 76 -20 92 -83 92h-45v-159h-102v425zM361 487v-97h56c58 0 80 14 80 50c0 34 -20 47 -72 47h-64z" />
    <glyph glyph-name="copyright" unicode="&#xa9;" horiz-adv-x="826" 
d="M516 298c0 0 64 -4 107 -5c-21 -107 -89 -163 -204 -163c-133 0 -216 84 -216 219c0 140 86 229 222 229c59 0 105 -16 142 -50c33 -29 46 -54 56 -115c0 0 -57 -2 -109 -3c-12 58 -40 82 -93 82c-67 0 -107 -51 -107 -137c0 -88 39 -139 105 -139c54 0 87 28 97 82z
M786 360c0 -213 -157 -377 -363 -377c-213 0 -380 164 -380 373c0 206 165 369 374 369c205 0 369 -162 369 -365zM736 351c0 186 -137 326 -318 326c-182 0 -325 -141 -325 -323c0 -178 147 -323 327 -323c175 0 316 142 316 320z" />
    <glyph glyph-name="trademark" unicode="&#x2122;" horiz-adv-x="846" 
d="M226 309h-107v313h-100v84h306v-84h-99v-313zM794 309h-99v268l-78 -268h-82l-76 256v-256h-99v397h145l72 -254l71 254h146v-397z" />
    <glyph glyph-name="acute" unicode="&#xb4;" horiz-adv-x="292" 
d="M140 589h-99l45 147h165z" />
    <glyph glyph-name="dieresis" unicode="&#xa8;" horiz-adv-x="292" 
d="M325 718v-129h-137v129h137zM106 718v-129h-138v129h138z" />
    <glyph glyph-name="notequal" unicode="&#x2260;" horiz-adv-x="747" 
d="M513 485h144v-129h-210l-39 -85h249v-129h-312l-63 -127h-101l63 127h-154v129h217l39 85h-256v129h322l64 130h101z" />
    <glyph glyph-name="AE" unicode="&#xc6;" horiz-adv-x="958" 
d="M565 129h358v-129h-514v152h-183l-63 -152h-167l313 706h614v-135h-358v-138h330v-127h-330v-177zM277 274h132v318z" />
    <glyph glyph-name="Oslash" unicode="&#xd8;" horiz-adv-x="771" 
d="M663 745l49 -41l-70 -86c66 -82 94 -162 94 -268c0 -209 -140 -366 -352 -366c-74 0 -150 17 -209 64l-65 -76l-51 41l67 81c-63 68 -90 170 -90 261c0 213 131 367 350 367c74 0 145 -18 206 -61zM229 219l270 327c-32 28 -70 43 -113 43c-127 0 -184 -118 -184 -230
c0 -52 7 -92 27 -140zM539 492l-271 -329c33 -29 72 -44 115 -44c134 0 185 112 185 231c0 51 -5 96 -29 142z" />
    <glyph glyph-name="infinity" unicode="&#x221e;" horiz-adv-x="757" 
d="M381 417c53 72 99 99 163 99c96 0 161 -78 161 -193c0 -118 -69 -197 -171 -197c-65 0 -109 27 -157 97c-49 -71 -95 -97 -161 -97c-96 0 -161 77 -161 189c0 119 71 201 173 201c67 0 100 -25 153 -99zM313 318c-34 59 -52 75 -84 75c-35 0 -60 -31 -60 -74
c0 -42 24 -70 58 -70c32 0 55 18 86 69zM447 323c32 -56 53 -75 85 -75c36 0 61 30 61 73c0 42 -24 72 -59 72c-32 0 -55 -19 -87 -70z" />
    <glyph glyph-name="plusminus" unicode="&#xb1;" horiz-adv-x="747" 
d="M439 185h-133v201h-217v129h217v199h133v-199h217v-129h-217v-201zM656 0h-567v129h567v-129z" />
    <glyph glyph-name="lessequal" unicode="&#x2264;" horiz-adv-x="747" 
d="M615 170l-496 214v130l496 204v-138l-323 -131l323 -135v-144zM615 0h-497v129h497v-129z" />
    <glyph glyph-name="greaterequal" unicode="&#x2265;" horiz-adv-x="747" 
d="M631 0h-497v129h497v-129zM134 718l496 -213v-130l-496 -205v139l323 131l-323 134v144z" />
    <glyph glyph-name="yen" unicode="&#xa5;" horiz-adv-x="645" 
d="M483 416h93v-92h-146l-28 -50v-14h174v-92h-174v-168h-158v168h-176v92h176v15l-27 49h-149v92h95l-154 272h177l136 -269l140 269h174z" />
    <glyph glyph-name="mu" unicode="&#xb5;" horiz-adv-x="575" 
d="M512 518v-361c0 -29 12 -35 26 -35c9 0 17 1 21 2v-124c-19 -5 -50 -10 -86 -10c-37 0 -79 9 -102 66c-26 -43 -54 -64 -108 -64c-24 0 -49 8 -64 21v-175h-147v680h147v-297c0 -57 11 -112 81 -112c74 0 89 59 89 119v290h143z" />
    <glyph glyph-name="partialdiff" unicode="&#x2202;" horiz-adv-x="563" 
d="M155 581l-32 101c54 26 94 34 147 34c174 0 239 -151 239 -400c0 -92 -11 -154 -37 -208c-37 -76 -115 -122 -209 -122c-131 0 -213 87 -213 227c0 136 85 229 211 229c42 0 74 -8 113 -42c-12 147 -50 211 -129 211c-28 0 -57 -10 -90 -30zM372 291
c-22 33 -56 52 -92 52c-62 0 -101 -51 -101 -132c0 -77 37 -126 95 -126c66 0 99 56 99 165c0 12 0 21 -1 41z" />
    <glyph glyph-name="summation" unicode="&#x2211;" horiz-adv-x="588" 
d="M561 -122h-523v127l212 301l-209 282v118h518v-123h-352l203 -269l-219 -307h370v-129z" />
    <glyph glyph-name="product" unicode="&#x220f;" horiz-adv-x="714" 
d="M638 -122h-152v701h-259v-701h-151v828h562v-828z" />
    <glyph glyph-name="pi" unicode="&#x3c0;" horiz-adv-x="597" 
d="M572 396h-56v-235c0 -40 10 -52 38 -52c10 0 21 3 30 5v-110c-19 -6 -57 -9 -79 -9c-100 0 -137 47 -137 171v230h-140v-396h-148v396h-55v122h547v-122z" />
    <glyph glyph-name="integral" unicode="&#x222b;" horiz-adv-x="364" 
d="M345 702v-111c-23 18 -37 23 -54 23c-45 0 -45 -31 -45 -105v-485c0 -105 -6 -200 -147 -200c-31 0 -51 4 -83 16v111c26 -18 38 -23 54 -23c39 0 45 25 45 99v493c0 103 6 198 148 198c32 0 51 -4 82 -16z" />
    <glyph glyph-name="ordfeminine" unicode="&#xaa;" horiz-adv-x="354" 
d="M326 562v-108c0 -43 3 -55 17 -78h-112l-4 25c-22 -17 -50 -34 -97 -34c-63 0 -119 38 -119 110c0 90 85 103 114 108l50 8c39 6 45 12 45 22c0 21 -32 23 -43 23c-21 0 -51 -4 -51 -35v-5h-97c0 62 33 123 150 123c44 0 112 -7 138 -71c9 -21 9 -43 9 -88zM223 489v40
c-50 -15 -107 -13 -107 -50c0 -23 22 -28 37 -28c9 0 45 1 70 38z" />
    <glyph glyph-name="ordmasculine" unicode="&#xba;" horiz-adv-x="375" 
d="M361 548c0 -104 -72 -181 -177 -181c-104 0 -170 73 -170 175c0 108 70 179 178 179c101 0 169 -74 169 -173zM255 549c0 42 -16 86 -66 86c-55 0 -69 -47 -69 -93c0 -43 17 -88 67 -88c54 0 68 50 68 95z" />
    <glyph glyph-name="Omega" unicode="&#x2126;" horiz-adv-x="744" 
d="M512 142v-35h173v-107h-280v198c83 36 117 112 117 211c0 124 -57 203 -147 203c-94 0 -155 -82 -155 -209c0 -102 33 -173 119 -205v-198h-280v107h174v35c-120 53 -170 139 -170 268c0 193 122 314 316 314c182 0 299 -116 299 -297c0 -132 -54 -230 -166 -285z" />
    <glyph glyph-name="ae" unicode="&#xe6;" horiz-adv-x="917" 
d="M888 218h-364c7 -65 48 -110 115 -110c40 0 75 18 94 54l149 -10c-51 -120 -140 -165 -249 -165c-78 0 -142 27 -197 82c-50 -60 -127 -84 -203 -84c-112 0 -200 55 -200 175c0 164 170 165 270 165h70c0 63 -22 92 -87 92c-51 0 -77 -12 -93 -62h-135
c16 140 113 176 239 176c59 0 122 -15 168 -54c49 39 106 56 168 56c184 0 255 -150 255 -315zM524 329h209c-1 53 -51 90 -101 90c-55 0 -96 -33 -108 -90zM374 218h-60c-64 0 -133 -3 -133 -58c0 -45 37 -61 76 -61c73 0 117 46 117 119z" />
    <glyph glyph-name="oslash" unicode="&#xf8;" horiz-adv-x="583" 
d="M511 556l43 -38l-59 -67c44 -55 65 -121 65 -191c0 -161 -112 -275 -274 -275c-65 0 -106 16 -159 50l-59 -67l-43 38l60 69c-44 44 -63 117 -63 178c0 167 101 281 271 281c58 0 110 -13 158 -45zM177 180l189 214c-23 16 -48 24 -76 24c-91 0 -125 -77 -125 -158
c0 -25 3 -56 12 -80zM402 346l-190 -215c24 -20 47 -27 78 -27c89 0 126 77 126 155c0 31 -5 60 -14 87z" />
    <glyph glyph-name="questiondown" unicode="&#xbf;" horiz-adv-x="604" 
d="M350 500v-17c0 -90 -15 -120 -87 -178c-37 -30 -72 -51 -72 -106c0 -61 47 -91 104 -91c75 0 108 47 112 119h144v-8c-2 -120 -69 -236 -264 -236c-116 0 -243 59 -243 215c0 75 34 123 91 172c39 34 78 52 78 113v17h137zM206 706h148v-147h-148v147z" />
    <glyph glyph-name="exclamdown" unicode="&#xa1;" horiz-adv-x="292" 
d="M52 558v148h146v-148h-146zM74 504h101l23 -267v-237h-152v237z" />
    <glyph glyph-name="logicalnot" unicode="&#xac;" horiz-adv-x="747" 
d="M515 249h-433v130h567v-345h-134v215z" />
    <glyph glyph-name="radical" unicode="&#x221a;" horiz-adv-x="774" 
d="M253 254l113 -280l208 732h137l-287 -893h-128l-112 276l-90 -42l-52 112z" />
    <glyph glyph-name="florin" unicode="&#x192;" horiz-adv-x="445" 
d="M426 693l-13 -119c-16 3 -32 5 -42 5c-53 0 -65 -22 -72 -83h98v-113h-110l-45 -375c-16 -136 -62 -178 -195 -178c-21 0 -47 3 -72 6l13 114c16 -3 33 -5 45 -5c38 0 58 15 65 73l43 365h-80v113h93c13 134 49 203 187 203c26 0 56 -3 85 -6z" />
    <glyph glyph-name="approxequal" unicode="&#x2248;" horiz-adv-x="739" 
d="M138 87l-73 111c64 73 115 106 184 106c43 0 60 -4 148 -49c42 -22 63 -28 87 -28c35 0 64 15 117 78l72 -111c-65 -75 -120 -107 -184 -107c-37 0 -60 6 -117 34c-66 32 -86 42 -117 42c-40 0 -78 -24 -117 -76zM138 316l-73 111c64 73 115 106 184 106
c43 0 60 -4 148 -49c42 -22 63 -28 87 -28c35 0 64 15 117 78l72 -111c-65 -75 -120 -107 -184 -107c-37 0 -60 6 -117 34c-66 32 -86 42 -117 42c-40 0 -78 -24 -117 -76z" />
    <glyph glyph-name="Delta" unicode="&#x2206;" horiz-adv-x="690" 
d="M688 0h-687l259 706h177zM492 125l-147 447l-148 -447h295z" />
    <glyph glyph-name="guillemotleft" unicode="&#xab;" horiz-adv-x="437" 
d="M230 221v123l154 136v-126l-81 -71l81 -70v-121zM41 220v125l153 134v-128l-82 -70l82 -67v-123z" />
    <glyph glyph-name="guillemotright" unicode="&#xbb;" horiz-adv-x="437" 
d="M396 345v-126l-153 -134v128l81 71l-81 66v125zM207 342v-121l-154 -135v124l82 71l-82 71v121z" />
    <glyph glyph-name="ellipsis" unicode="&#x2026;" horiz-adv-x="1059" 
d="M239 131v-131h-125v131h125zM592 131v-131h-125v131h125zM945 131v-131h-125v131h125z" />
    <glyph glyph-name="uni00A0" unicode="&#xa0;" horiz-adv-x="292" 
 />
    <glyph glyph-name="Agrave" unicode="&#xc0;" horiz-adv-x="667" 
d="M419 706l251 -706h-178l-46 150h-226l-45 -150h-177l240 706h181zM257 279h150l-77 272zM294 771l-88 124h162l22 -124h-96z" />
    <glyph glyph-name="Atilde" unicode="&#xc3;" horiz-adv-x="667" 
d="M419 706l251 -706h-178l-46 150h-226l-45 -150h-177l240 706h181zM257 279h150l-77 272zM260 771h-76c4 80 30 121 89 121c22 0 40 -5 61 -11l26 -7c7 -2 24 -6 32 -6c23 0 26 20 27 27h76v-7c0 -8 0 -118 -95 -118c-17 0 -30 3 -50 8l-37 9c-12 3 -24 6 -30 6
c-19 0 -23 -15 -23 -22z" />
    <glyph glyph-name="Otilde" unicode="&#xd5;" horiz-adv-x="771" 
d="M735 355c0 -213 -137 -371 -355 -371c-214 0 -345 162 -345 368c0 213 129 371 349 371c219 0 351 -155 351 -368zM568 347c0 119 -44 241 -184 241c-130 0 -183 -120 -183 -234c0 -115 52 -235 184 -235c124 0 183 107 183 228zM312 771h-76c4 80 30 121 89 121
c22 0 40 -5 61 -11l26 -7c7 -2 24 -6 32 -6c23 0 26 20 27 27h76v-7c0 -8 0 -118 -95 -118c-17 0 -30 3 -50 8l-37 9c-12 3 -24 6 -30 6c-19 0 -23 -15 -23 -22z" />
    <glyph glyph-name="OE" unicode="&#x152;" horiz-adv-x="1062" 
d="M1035 0h-520v35c-57 -35 -106 -50 -174 -50c-217 0 -305 173 -305 370c0 203 102 368 322 368c57 0 110 -11 157 -45v28h511v-129h-352v-143h327v-126h-327v-175h361v-133zM515 243v232c0 74 -72 110 -134 110c-36 0 -71 -11 -100 -33c-67 -51 -77 -126 -77 -204
c0 -107 49 -220 171 -220c67 0 140 41 140 115z" />
    <glyph glyph-name="oe" unicode="&#x153;" horiz-adv-x="938" 
d="M912 216h-359c8 -63 45 -110 112 -110c40 0 71 20 91 53l149 -8c-39 -109 -132 -166 -246 -166c-68 0 -137 22 -183 74c-52 -47 -120 -72 -190 -72c-158 0 -262 117 -262 272c0 160 106 272 268 272c67 0 134 -22 184 -68c52 46 108 70 177 70c58 0 115 -17 160 -53
c80 -64 99 -167 99 -264zM554 328h204c-15 53 -42 89 -102 89c-50 0 -97 -38 -102 -89zM406 264c0 76 -28 149 -115 149c-84 0 -118 -74 -118 -149s29 -156 117 -156c89 0 116 80 116 156z" />
    <glyph glyph-name="endash" unicode="&#x2013;" horiz-adv-x="583" 
d="M26 348h531v-114h-531v114z" />
    <glyph glyph-name="emdash" unicode="&#x2014;" horiz-adv-x="739" 
d="M26 348h687v-114h-687v114z" />
    <glyph glyph-name="quotedblleft" unicode="&#x201c;" horiz-adv-x="458" 
d="M404 396h-147v145c0 90 72 157 157 174v-55c-47 -17 -83 -63 -84 -114h74v-150zM203 396h-147v139c0 92 65 159 157 180v-55c-52 -18 -79 -61 -84 -114h74v-150z" />
    <glyph glyph-name="quotedblright" unicode="&#x201d;" horiz-adv-x="458" 
d="M255 706h147v-143c0 -75 -52 -137 -119 -164c-13 -5 -25 -7 -38 -11v55c50 17 80 63 84 114h-74v149zM54 706h148v-138c0 -93 -70 -163 -158 -180v55c48 16 83 64 85 114h-75v149z" />
    <glyph glyph-name="quoteleft" unicode="&#x2018;" horiz-adv-x="250" 
d="M197 396h-147v139c0 97 69 159 158 180v-55c-52 -18 -80 -61 -85 -114h74v-150z" />
    <glyph glyph-name="quoteright" unicode="&#x2019;" horiz-adv-x="250" 
d="M51 706h147v-138c0 -93 -64 -157 -157 -180v55c48 15 83 64 84 114h-74v149z" />
    <glyph glyph-name="divide" unicode="&#xf7;" horiz-adv-x="747" 
d="M657 249h-567v128h567v-128zM437 577v-143h-128v143h128zM437 192v-143h-128v143h128z" />
    <glyph glyph-name="lozenge" unicode="&#x25ca;" horiz-adv-x="747" 
d="M306 706h130l177 -354l-179 -352h-131l-174 352zM272 352l97 -216l100 216l-98 217z" />
    <glyph glyph-name="ydieresis" unicode="&#xff;" horiz-adv-x="500" 
d="M342 518h156l-171 -514c-9 -28 -27 -85 -49 -112c-38 -48 -97 -51 -189 -51c-16 0 -35 2 -39 2v116h49c59 0 74 31 74 65c0 21 -7 36 -21 74l-150 420h160l94 -349zM430 718v-129h-137v129h137zM211 718v-129h-138v129h138z" />
    <glyph glyph-name="Ydieresis" unicode="&#x178;" horiz-adv-x="625" 
d="M454 706h175l-238 -443v-263h-158v263l-238 443h176l139 -288zM493 771h-130v124h130v-124zM129 771v124h130v-124h-130z" />
    <glyph glyph-name="fraction" unicode="&#x2044;" horiz-adv-x="125" 
d="M-124 0l281 688h85l-281 -688h-85z" />
    <glyph glyph-name="Euro" unicode="&#x20ac;" horiz-adv-x="660" 
d="M636 630l-58 -108c-40 46 -87 67 -149 67c-84 0 -141 -29 -165 -119h248v-92h-256c-1 -14 -1 -25 -1 -32s0 -18 1 -32h256v-92h-241c21 -82 78 -116 151 -116c56 0 93 16 144 79l74 -93c-63 -72 -131 -104 -228 -104c-168 0 -260 98 -291 234h-77v92h69
c-1 13 -1 22 -1 30c0 5 0 19 1 34h-69v92h79c37 147 137 235 297 235c94 0 158 -23 216 -75z" />
    <glyph glyph-name="guilsinglleft" unicode="&#x2039;" horiz-adv-x="250" 
d="M42 220v125l153 134v-128l-82 -70l82 -67v-123z" />
    <glyph glyph-name="guilsinglright" unicode="&#x203a;" horiz-adv-x="250" 
d="M208 342v-121l-154 -135v124l81 71l-81 71v121z" />
    <glyph glyph-name="daggerdbl" unicode="&#x2021;" horiz-adv-x="521" 
d="M482 78h-148v-181h-147v181h-148v130h148v203h-148v129h148v166h147v-166h148v-129h-148v-203h148v-130z" />
    <glyph glyph-name="periodcentered" unicode="&#xb7;" horiz-adv-x="250" 
d="M199 365v-149h-149v149h149z" />
    <glyph glyph-name="quotesinglbase" unicode="&#x201a;" horiz-adv-x="250" 
d="M51 149h148v-138c0 -92 -69 -164 -158 -180v55c52 23 81 57 85 114h-75v149z" />
    <glyph glyph-name="quotedblbase" unicode="&#x201e;" horiz-adv-x="458" 
d="M256 149h147v-148c0 -85 -77 -156 -157 -170v55c58 29 80 60 84 114h-74v149zM55 149h148v-138c0 -92 -69 -164 -158 -180v55c57 25 76 55 85 114h-75v149z" />
    <glyph glyph-name="perthousand" unicode="&#x2030;" horiz-adv-x="1250" 
d="M852 240c0 -115 -29 -247 -169 -247c-131 0 -161 126 -161 233c0 112 45 223 173 223c118 0 157 -109 157 -209zM621 688l-281 -688h-86l282 688h85zM754 226c0 45 -2 135 -66 135s-69 -93 -69 -140c0 -44 4 -141 66 -141c63 0 69 103 69 146zM353 485
c0 -115 -30 -242 -170 -242c-131 0 -161 126 -161 233c0 112 45 223 173 223c118 0 158 -107 158 -214zM256 476c0 45 -2 135 -66 135s-69 -93 -69 -140c0 -44 1 -141 66 -141c63 0 69 103 69 146zM1227 240c0 -115 -29 -247 -169 -247c-131 0 -161 126 -161 233
c0 112 45 223 173 223c118 0 157 -109 157 -209zM1129 226c0 45 -2 135 -66 135s-69 -93 -69 -140c0 -44 4 -141 66 -141c63 0 69 103 69 146z" />
    <glyph glyph-name="Acircumflex" unicode="&#xc2;" horiz-adv-x="667" 
d="M419 706l251 -706h-178l-46 150h-226l-45 -150h-177l240 706h181zM257 279h150l-77 272zM333 838l-51 -67h-115l89 124h155l86 -124h-113z" />
    <glyph glyph-name="Ecircumflex" unicode="&#xca;" horiz-adv-x="604" 
d="M546 435v-127h-331v-179h363v-129h-521v706h514v-130h-356v-141h331zM302 838l-51 -67h-115l89 124h155l86 -124h-113z" />
    <glyph glyph-name="Aacute" unicode="&#xc1;" horiz-adv-x="667" 
d="M419 706l251 -706h-178l-46 150h-226l-45 -150h-177l240 706h181zM257 279h150l-77 272zM276 771l22 124h166l-94 -124h-94z" />
    <glyph glyph-name="Edieresis" unicode="&#xcb;" horiz-adv-x="604" 
d="M546 435v-127h-331v-179h363v-129h-521v706h514v-130h-356v-141h331zM483 771h-130v124h130v-124zM119 771v124h130v-124h-130z" />
    <glyph glyph-name="Egrave" unicode="&#xc8;" horiz-adv-x="604" 
d="M546 435v-127h-331v-179h363v-129h-521v706h514v-130h-356v-141h331zM263 771l-88 124h162l22 -124h-96z" />
    <glyph glyph-name="Iacute" unicode="&#xcd;" horiz-adv-x="271" 
d="M215 706v-706h-159v706h159zM78 771l22 124h166l-94 -124h-94z" />
    <glyph glyph-name="Icircumflex" unicode="&#xce;" horiz-adv-x="271" 
d="M215 706v-706h-159v706h159zM136 838l-51 -67h-115l89 124h155l86 -124h-113z" />
    <glyph glyph-name="Idieresis" unicode="&#xcf;" horiz-adv-x="271" 
d="M215 706v-706h-159v706h159zM316 771h-130v124h130v-124zM-48 771v124h130v-124h-130z" />
    <glyph glyph-name="Igrave" unicode="&#xcc;" horiz-adv-x="271" 
d="M215 706v-706h-159v706h159zM97 771l-88 124h162l22 -124h-96z" />
    <glyph glyph-name="Oacute" unicode="&#xd3;" horiz-adv-x="771" 
d="M735 355c0 -213 -137 -371 -355 -371c-214 0 -345 162 -345 368c0 213 129 371 349 371c219 0 351 -155 351 -368zM568 347c0 119 -44 241 -184 241c-130 0 -183 -120 -183 -234c0 -115 52 -235 184 -235c124 0 183 107 183 228zM328 771l22 124h166l-94 -124h-94z" />
    <glyph glyph-name="Ocircumflex" unicode="&#xd4;" horiz-adv-x="771" 
d="M735 355c0 -213 -137 -371 -355 -371c-214 0 -345 162 -345 368c0 213 129 371 349 371c219 0 351 -155 351 -368zM568 347c0 119 -44 241 -184 241c-130 0 -183 -120 -183 -234c0 -115 52 -235 184 -235c124 0 183 107 183 228zM385 838l-51 -67h-115l89 124h155
l86 -124h-113z" />
    <glyph glyph-name="Ograve" unicode="&#xd2;" horiz-adv-x="771" 
d="M735 355c0 -213 -137 -371 -355 -371c-214 0 -345 162 -345 368c0 213 129 371 349 371c219 0 351 -155 351 -368zM568 347c0 119 -44 241 -184 241c-130 0 -183 -120 -183 -234c0 -115 52 -235 184 -235c124 0 183 107 183 228zM346 771l-88 124h162l22 -124h-96z" />
    <glyph glyph-name="Uacute" unicode="&#xda;" horiz-adv-x="667" 
d="M49 706h160v-402c0 -100 0 -185 126 -185c122 0 122 82 122 189v398h160v-433c0 -84 -2 -163 -69 -225c-55 -50 -148 -64 -220 -64c-109 0 -222 31 -263 143c-13 37 -16 81 -16 120v459zM276 771l22 124h166l-94 -124h-94z" />
    <glyph glyph-name="Ucircumflex" unicode="&#xdb;" horiz-adv-x="667" 
d="M49 706h160v-402c0 -100 0 -185 126 -185c122 0 122 82 122 189v398h160v-433c0 -84 -2 -163 -69 -225c-55 -50 -148 -64 -220 -64c-109 0 -222 31 -263 143c-13 37 -16 81 -16 120v459zM333 838l-51 -67h-115l89 124h155l86 -124h-113z" />
    <glyph glyph-name="Ugrave" unicode="&#xd9;" horiz-adv-x="667" 
d="M49 706h160v-402c0 -100 0 -185 126 -185c122 0 122 82 122 189v398h160v-433c0 -84 -2 -163 -69 -225c-55 -50 -148 -64 -220 -64c-109 0 -222 31 -263 143c-13 37 -16 81 -16 120v459zM295 771l-88 124h162l22 -124h-96z" />
    <glyph glyph-name="dotlessi" unicode="&#x131;" horiz-adv-x="250" 
d="M198 518v-518h-146v518h146z" />
    <glyph glyph-name="circumflex" unicode="&#x2c6;" horiz-adv-x="292" 
d="M308 589h-112l-49 81l-51 -81h-112l95 147h141z" />
    <glyph glyph-name="tilde" unicode="&#x2dc;" horiz-adv-x="292" 
d="M298 736v-35c0 -49 -3 -114 -67 -114c-49 0 -109 45 -140 45c-23 0 -25 -26 -25 -43h-71v48c0 47 22 101 77 101c47 0 100 -42 131 -42c21 0 26 23 27 40h68z" />
    <glyph glyph-name="macron" unicode="&#xaf;" horiz-adv-x="292" 
d="M309 677v-88h-326v88h326z" />
    <glyph glyph-name="breve" unicode="&#x2d8;" horiz-adv-x="292" 
d="M215 736h74c-7 -84 -53 -152 -145 -152c-95 0 -134 67 -142 152h75c3 -35 32 -64 67 -64c37 0 66 29 71 64z" />
    <glyph glyph-name="dotaccent" unicode="&#x2d9;" horiz-adv-x="292" 
d="M215 718v-129h-139v129h139z" />
    <glyph glyph-name="ring" unicode="&#x2da;" horiz-adv-x="292" 
d="M243 662c0 -56 -42 -96 -98 -96c-55 0 -97 42 -97 97c0 56 44 95 99 95c54 0 96 -42 96 -96zM183 663c0 22 -16 38 -38 38s-37 -18 -37 -39s15 -38 37 -38c23 0 38 17 38 39z" />
    <glyph glyph-name="cedilla" unicode="&#xb8;" horiz-adv-x="292" 
d="M123 9h55l-31 -58c3 0 17 0 24 -1c46 -4 81 -35 81 -85c0 -59 -48 -98 -114 -98c-38 0 -73 8 -98 30l35 51c18 -19 39 -24 59 -24c27 0 43 17 43 39c0 25 -16 40 -46 40c-14 0 -26 -3 -42 -12l-20 26z" />
    <glyph glyph-name="hungarumlaut" unicode="&#x2dd;" horiz-adv-x="292" 
d="M135 589l47 147h157l-111 -147h-93zM-47 589l46 147h157l-110 -147h-93z" />
    <glyph glyph-name="ogonek" unicode="&#x2db;" horiz-adv-x="292" 
d="M111 0h103c-15 -21 -45 -64 -45 -86c0 -23 22 -28 37 -28c11 0 23 1 31 2v-104c-17 -1 -29 -2 -46 -2c-80 0 -136 22 -136 92c0 43 25 84 56 126z" />
    <glyph glyph-name="caron" unicode="&#x2c7;" horiz-adv-x="292" 
d="M-16 736h111l49 -83l51 83h113l-95 -147h-141z" />
    <glyph glyph-name="currency" unicode="&#xa4;" horiz-adv-x="680" 
d="M558 640l83 -84l-77 -77c31 -43 43 -84 43 -140c0 -55 -12 -97 -43 -139l78 -77l-84 -84l-77 77c-42 -29 -87 -43 -140 -43s-99 14 -141 43l-77 -77l-83 83l77 78c-30 42 -43 84 -43 139c0 56 13 98 43 139l-77 78l83 84l77 -78c42 30 88 44 140 44c53 0 99 -14 141 -43z
M191 341c0 -89 64 -156 150 -156c85 0 149 67 149 154c0 88 -64 154 -149 154s-150 -66 -150 -152z" />
    <glyph glyph-name="afii61289" unicode="&#x2113;" horiz-adv-x="509" 
d="M433 172l66 -74c-56 -74 -124 -111 -204 -111c-107 0 -175 59 -195 168c-21 -15 -32 -22 -51 -34l-38 97c29 17 39 23 75 48c0 43 -2 79 -2 98c0 227 70 340 216 340c98 0 160 -61 160 -159c0 -63 -26 -124 -76 -180c-40 -45 -67 -69 -156 -141c0 -91 35 -130 91 -130
c40 0 74 23 114 78zM224 344c86 83 118 134 118 193c0 38 -17 62 -44 62c-38 0 -60 -44 -67 -94c-5 -37 -6 -58 -7 -161z" />
    <glyph glyph-name="estimated" unicode="&#x212e;" horiz-adv-x="849" 
d="M814 296h-623c15 -120 101 -190 237 -190c102 0 184 45 231 127l139 -60c-85 -123 -210 -186 -372 -186c-233 0 -389 146 -389 363c0 210 157 355 385 355c147 0 266 -58 331 -161c41 -66 59 -136 61 -248zM193 409h464c-28 120 -108 180 -232 180
c-119 0 -207 -54 -232 -180z" />
    <glyph glyph-name="acute.cap" horiz-adv-x="292" 
d="M52 771l22 124h166l-94 -124h-94z" />
    <glyph glyph-name="breve.cap" horiz-adv-x="292" 
d="M215 892h74c-7 -84 -63 -135 -145 -135c-85 0 -134 50 -142 135h75c7 -35 32 -52 67 -52c37 0 62 17 71 52z" />
    <glyph glyph-name="caron.cap" horiz-adv-x="292" 
d="M146 826l50 69h115l-88 -124h-157l-85 124h113z" />
    <glyph glyph-name="cedilla.cap" horiz-adv-x="292" 
d="M122 9h57l-32 -59c3 0 17 0 24 -1c47 -4 83 -36 83 -86c0 -60 -49 -100 -116 -100c-39 0 -75 8 -100 31l36 51c18 -19 39 -24 60 -24c27 0 44 17 44 40c0 25 -17 40 -47 40c-15 0 -27 -3 -43 -12l-21 27z" />
    <glyph glyph-name="circumflex.cap" horiz-adv-x="292" 
d="M147 838l-51 -67h-115l89 124h155l86 -124h-113z" />
    <glyph glyph-name="commaaccent" unicode="&#xf6c3;" horiz-adv-x="292" 
d="M98 -37h103v-100c0 -59 -53 -106 -110 -118v44c34 11 51 37 55 67h-48v107z" />
    <glyph glyph-name="dieresis.cap" horiz-adv-x="292" 
d="M328 771h-130v124h130v-124zM-36 771v124h130v-124h-130z" />
    <glyph glyph-name="dotaccent.cap" horiz-adv-x="292" 
d="M81 771v124h130v-124h-130z" />
    <glyph glyph-name="grave.cap" horiz-adv-x="292" 
d="M142 771l-88 124h162l22 -124h-96z" />
    <glyph glyph-name="hungarumlaut.cap" horiz-adv-x="292" 
d="M-44 771l22 124h166l-94 -124h-94zM148 771l22 124h166l-94 -124h-94z" />
    <glyph glyph-name="macron.cap" horiz-adv-x="292" 
d="M309 859v-88h-326v88h326z" />
    <glyph glyph-name="ring.cap" horiz-adv-x="292" 
d="M247 853c0 -57 -45 -101 -102 -101s-101 44 -101 101s43 102 101 102s102 -44 102 -102zM189 854c0 27 -20 43 -44 43s-44 -19 -44 -43s20 -44 44 -44s44 20 44 44z" />
    <glyph glyph-name="tilde.cap" horiz-adv-x="292" 
d="M67 771h-76c4 80 30 121 89 121c22 0 40 -5 61 -11l26 -7c7 -2 24 -6 32 -6c23 0 26 20 27 27h76v-7c0 -8 0 -118 -95 -118c-17 0 -30 3 -50 8l-37 9c-12 3 -24 6 -30 6c-19 0 -23 -15 -23 -22z" />
    <glyph glyph-name="caron.alt" horiz-adv-x="292" 
d="M98 706h103v-100c0 -59 -53 -106 -110 -118v44c34 11 51 37 55 67h-48v107z" />
    <glyph glyph-name="Eth" unicode="&#xd0;" horiz-adv-x="688" 
d="M54 706h236c86 0 169 -8 239 -62c87 -68 123 -182 123 -289c0 -72 -17 -151 -55 -212c-75 -120 -174 -143 -308 -143h-235v326h-55v88h55v292zM212 574v-160h133v-88h-133v-195h69c107 0 202 23 202 231c0 149 -51 212 -200 212h-71z" />
    <glyph glyph-name="eth" unicode="&#xf0;" horiz-adv-x="583" 
d="M475 688l32 -66l-62 -14c76 -82 114 -212 114 -325c0 -185 -116 -298 -273 -298c-163 0 -263 110 -263 273c0 149 103 273 247 273c31 0 57 -7 84 -21c-14 27 -26 47 -47 68l-165 -36l-29 66l127 28c-19 14 -38 29 -58 42l152 34c19 -14 37 -28 54 -44zM408 267
c0 74 -28 148 -115 148c-89 0 -119 -76 -119 -153c0 -75 28 -157 117 -157c91 0 117 85 117 162z" />
    <glyph glyph-name="Lslash" unicode="&#x141;" 
d="M370 507l-156 -155v-221h335v-131h-494v194l-53 -51v126l53 52v385h159v-227l156 154v-126z" />
    <glyph glyph-name="lslash" unicode="&#x142;" horiz-adv-x="250" 
d="M197 706v-180l50 54v-124l-50 -54v-402h-147v246l-49 -53v123l49 52v338h147z" />
    <glyph glyph-name="Scaron" unicode="&#x160;" horiz-adv-x="667" 
d="M615 499l-157 -12c-5 75 -50 108 -137 108c-71 0 -111 -25 -111 -72c0 -48 47 -61 118 -77l92 -21c59 -13 206 -47 206 -215c0 -87 -44 -226 -296 -226c-160 0 -295 55 -303 240l159 9c1 -79 57 -116 151 -116c42 0 126 9 126 82c0 58 -65 73 -137 89l-50 11
c-137 30 -226 82 -226 211c0 193 194 213 284 213c167 0 274 -80 281 -224zM334 826l50 69h115l-88 -124h-157l-85 124h113z" />
    <glyph glyph-name="scaron" unicode="&#x161;" horiz-adv-x="521" 
d="M22 177l140 5c9 -67 44 -86 110 -86c32 0 74 7 74 48c0 93 -308 18 -308 225c0 122 111 164 216 164c114 0 221 -49 227 -176l-138 -7c-3 55 -48 75 -91 75c-28 0 -72 -5 -72 -44c0 -79 316 -17 316 -222c0 -134 -121 -174 -234 -174c-110 0 -240 49 -240 186v6zM99 736
h111l49 -83l51 83h113l-95 -147h-141z" />
    <glyph glyph-name="Yacute" unicode="&#xdd;" horiz-adv-x="625" 
d="M454 706h175l-238 -443v-263h-158v263l-238 443h176l139 -288zM255 771l22 124h166l-94 -124h-94z" />
    <glyph glyph-name="yacute" unicode="&#xfd;" horiz-adv-x="500" 
d="M342 518h156l-171 -514c-9 -28 -27 -85 -49 -112c-38 -48 -97 -51 -189 -51c-16 0 -35 2 -39 2v116h49c59 0 74 31 74 65c0 21 -7 36 -21 74l-150 420h160l94 -349zM286 589h-99l45 147h165z" />
    <glyph glyph-name="Thorn" unicode="&#xde;" horiz-adv-x="625" 
d="M57 706h160v-109h112c107 0 202 -15 253 -121c15 -32 22 -73 22 -108c0 -51 -12 -105 -44 -146c-64 -84 -146 -87 -242 -87h-101v-135h-160v706zM217 468v-203h85c26 0 63 0 87 11c37 17 56 51 56 91c0 90 -75 101 -132 101h-96z" />
    <glyph glyph-name="thorn" unicode="&#xfe;" horiz-adv-x="583" 
d="M49 706h147v-246c30 48 87 71 142 71c138 0 215 -113 215 -272c0 -136 -74 -272 -224 -272c-58 0 -93 18 -133 58v-207h-147v868zM404 268c0 66 -24 143 -103 143c-90 0 -106 -85 -106 -156c0 -70 19 -145 105 -145c83 0 104 91 104 158z" />
    <glyph glyph-name="Zcaron" unicode="&#x17d;" horiz-adv-x="646" 
d="M43 706h568v-124l-382 -452h390v-130h-597v119l387 455h-366v132zM324 826l50 69h115l-88 -124h-157l-85 124h113z" />
    <glyph glyph-name="zcaron" unicode="&#x17e;" horiz-adv-x="500" 
d="M457 518v-119l-248 -277h265v-122h-456v110l256 286h-227v122h410zM89 736h111l49 -83l51 83h113l-95 -147h-141z" />
    <glyph glyph-name="onehalf" unicode="&#xbd;" horiz-adv-x="875" 
d="M820 0h-307v80l43 37c52 45 157 114 157 189c0 29 -18 50 -49 50c-37 0 -53 -34 -53 -66c0 -7 1 -13 2 -19l-99 4v14c0 94 60 160 153 160c85 0 146 -50 146 -138c0 -99 -84 -165 -154 -221h161v-90zM218 0l281 688h85l-281 -688h-85zM54 543v77h16c50 0 92 10 97 72h89
v-442h-101v293h-101z" />
    <glyph glyph-name="onequarter" unicode="&#xbc;" horiz-adv-x="875" 
d="M826 92h-59v-92h-96v92h-177v98l177 252h96v-265h59v-85zM586 177h85c1 48 2 129 2 129zM237 0l281 688h85l-281 -688h-85zM150 250v293h-101v77h16c50 0 92 10 97 72h89v-442h-101z" />
    <glyph glyph-name="onesuperior" unicode="&#xb9;" horiz-adv-x="375" 
d="M159 415v293h-101v77h16c50 0 92 10 97 72h89v-442h-101z" />
    <glyph glyph-name="threequarters" unicode="&#xbe;" horiz-adv-x="875" 
d="M357 0h-85l281 688h85zM155 441v83c9 -1 18 -1 27 -1c27 0 58 14 58 45c0 25 -20 45 -45 45c-41 0 -52 -29 -52 -65l-97 4c0 100 65 146 144 146c76 0 146 -36 146 -120c0 -38 -16 -76 -63 -87c52 -14 80 -49 80 -104c0 -97 -83 -143 -159 -143c-67 0 -125 31 -148 96
c-7 20 -8 45 -9 66l97 4c0 -41 11 -79 59 -79c33 0 58 24 58 57c0 40 -29 56 -66 56c-10 0 -20 -2 -30 -3zM838 92h-59v-92h-96v92h-177v98l177 252h96v-265h59v-85zM598 177h85c1 48 2 129 2 129z" />
    <glyph glyph-name="threesuperior" unicode="&#xb3;" horiz-adv-x="375" 
d="M143 605v83c9 -1 18 -1 27 -1c27 0 58 14 58 45c0 25 -20 45 -45 45c-41 0 -52 -29 -52 -65l-97 4c0 100 65 146 144 146c76 0 146 -36 146 -120c0 -38 -16 -76 -63 -87c52 -14 80 -49 80 -104c0 -97 -83 -143 -159 -143c-67 0 -125 31 -148 96c-7 20 -8 45 -9 66l97 4
c0 -41 11 -79 59 -79c33 0 58 24 58 57c0 40 -29 56 -66 56c-10 0 -20 -2 -30 -3z" />
    <glyph glyph-name="twosuperior" unicode="&#xb2;" horiz-adv-x="375" 
d="M336 415h-307v80l43 37c52 45 157 114 157 189c0 29 -18 50 -49 50c-37 0 -53 -34 -53 -66c0 -7 1 -13 2 -19l-99 4v14c0 94 60 160 153 160c85 0 146 -50 146 -138c0 -99 -84 -165 -154 -221h161v-90z" />
    <glyph glyph-name="brokenbar" unicode="&#xa6;" horiz-adv-x="305" 
d="M217 361h-130v400h130v-400zM217 -180h-130v400h130v-400z" />
    <glyph glyph-name="minus" unicode="&#x2212;" horiz-adv-x="742" 
d="M654 249h-567v131h567v-131z" />
    <glyph glyph-name="multiply" unicode="&#xd7;" horiz-adv-x="747" 
d="M622 162l-95 -97l-156 155l-153 -155l-92 91l153 155l-155 154l96 96l155 -154l154 155l92 -91l-155 -155z" />
    <glyph glyph-name="uni00AD" unicode="&#xad;" horiz-adv-x="344" 
d="M27 348h290v-113h-290v113z" />
    <glyph glyph-name="uni03BC" unicode="&#x3bc;" horiz-adv-x="575" 
d="M512 518v-361c0 -29 12 -35 26 -35c9 0 17 1 21 2v-124c-19 -5 -50 -10 -86 -10c-37 0 -79 9 -102 66c-26 -43 -54 -64 -108 -64c-24 0 -49 8 -64 21v-175h-147v680h147v-297c0 -57 11 -112 81 -112c74 0 89 59 89 119v290h143z" />
    <glyph glyph-name="uni03A9" unicode="&#x3a9;" horiz-adv-x="744" 
d="M512 142v-35h173v-107h-280v198c83 36 117 112 117 211c0 124 -57 203 -147 203c-94 0 -155 -82 -155 -209c0 -102 33 -173 119 -205v-198h-280v107h174v35c-120 53 -170 139 -170 268c0 193 122 314 316 314c182 0 299 -116 299 -297c0 -132 -54 -230 -166 -285z" />
    <glyph glyph-name="uni0394" unicode="&#x394;" horiz-adv-x="697" 
d="M-2 0l259 706h183l259 -706h-701zM347 503l-132 -370h265z" />
    <glyph glyph-name="uni2215" unicode="&#x2215;" horiz-adv-x="125" 
d="M-124 0l281 688h85l-281 -688h-85z" />
    <glyph glyph-name="uni2219" unicode="&#x2219;" horiz-adv-x="250" 
d="M199 365v-149h-149v149h149z" />
    <glyph glyph-name="uni02C9" unicode="&#x2c9;" horiz-adv-x="292" 
d="M309 677v-88h-326v88h326z" />
    <glyph glyph-name="uni037E" unicode="&#x37e;" horiz-adv-x="292" 
d="M240 346h-149v148h149v-148zM92 150h148v-139c0 -77 -49 -141 -120 -169c-13 -5 -25 -8 -38 -11v55c52 17 80 61 85 114h-75v150z" />
    <glyph glyph-name="eth.sc" horiz-adv-x="570" 
d="M52 229h-52v90h52v210h216c47 0 88 -4 132 -21c104 -41 145 -135 145 -241c0 -90 -34 -181 -113 -230c-55 -34 -125 -37 -188 -37h-192v229zM206 319h104v-90h-104v-111h40c28 0 61 2 86 14c46 23 57 83 57 129c0 67 -15 118 -66 139c-18 7 -39 11 -66 11h-51v-92z" />
    <glyph glyph-name="lslash.sc" horiz-adv-x="453" 
d="M206 393l105 93v-115l-105 -93v-161h234v-117h-388v143l-44 -40v116l44 39v271h154v-136z" />
    <glyph glyph-name="scaron.sc" horiz-adv-x="523" 
d="M495 380l-141 -11c-8 47 -47 64 -100 64c-49 0 -71 -18 -71 -46c0 -27 29 -38 66 -45l89 -17c81 -15 168 -56 168 -162c0 -136 -128 -176 -239 -176c-128 0 -245 40 -254 186l143 9c9 -58 45 -82 108 -82c66 0 92 19 92 47c0 30 -21 43 -58 51l-98 22
c-85 19 -166 51 -166 153c0 128 127 169 226 169c110 0 221 -33 235 -162zM109 736h111l49 -83l51 83h113l-95 -147h-141z" />
    <glyph glyph-name="yacute.sc" horiz-adv-x="523" 
d="M168 529l91 -193l94 193h168l-189 -332v-197h-153v200l-177 329h166zM304 589h-99l45 147h165z" />
    <glyph glyph-name="thorn.sc" horiz-adv-x="520" 
d="M53 529h152v-80h69c137 0 226 -52 226 -175c0 -149 -115 -176 -211 -176h-84v-98h-152v529zM205 333v-120h69c48 0 80 12 80 60c0 45 -28 60 -74 60h-75z" />
    <glyph glyph-name="zcaron.sc" horiz-adv-x="514" 
d="M44 529h447v-110l-274 -304h273v-115h-471v102l278 309h-253v118zM113 736h111l49 -83l51 83h113l-95 -147h-141z" />
    <glyph glyph-name="numbersign.oldstyle" horiz-adv-x="594" 
d="M414 -23h-105l22 154h-93l-22 -154h-105l22 154h-96v92h108l9 69h-96v92h109l20 150h105l-20 -150h93l20 150h105l-20 -150h86v-92h-98l-10 -69h88v-92h-100zM343 223l10 69h-94l-9 -69h93z" />
    <glyph glyph-name="dollar.oldstyle" horiz-adv-x="508" 
d="M288 604v-78c105 -10 168 -64 177 -161l-122 -5c-3 45 -27 64 -55 69v-109c123 -34 185 -74 185 -169c0 -80 -59 -146 -185 -153v-74h-62v74c-113 8 -187 65 -194 165l129 5c5 -41 25 -69 65 -77v112c-132 37 -179 81 -179 174c0 90 79 142 179 149v78h62zM226 338v92
c-36 -4 -48 -26 -48 -44c0 -24 13 -38 48 -48zM288 185v-97c39 5 52 25 52 48c0 24 -14 37 -52 49z" />
    <glyph glyph-name="percent.oldstyle" horiz-adv-x="849" 
d="M24 360c0 112 75 171 165 171c93 0 164 -53 164 -166c0 -85 -52 -168 -164 -168c-111 0 -165 82 -165 163zM123 361c0 -47 28 -75 66 -75c34 0 65 24 65 78c0 44 -24 76 -66 76c-40 0 -65 -31 -65 -79zM513 518h86l-268 -518h-86zM496 155c0 113 75 171 165 171
c93 0 164 -53 164 -166c0 -85 -52 -167 -164 -167c-111 0 -165 81 -165 162zM595 156c0 -47 28 -74 66 -74c34 0 65 24 65 78c0 43 -24 75 -66 75c-40 0 -65 -31 -65 -79z" />
    <glyph glyph-name="ampersand.sc" horiz-adv-x="520" 
d="M371 245h132c-10 -50 -38 -97 -67 -127c17 -9 37 -15 68 -15v-106c-12 -2 -32 -5 -50 -5c-40 0 -73 11 -108 32c-44 -23 -89 -37 -143 -37c-106 0 -187 71 -187 166c0 80 52 122 116 148c-17 24 -27 53 -27 80c0 69 54 127 142 127c82 0 149 -40 149 -127
c0 -55 -36 -98 -89 -124c16 -22 32 -43 45 -58c9 14 16 33 19 46zM261 111c-27 31 -47 58 -72 95c-26 -13 -40 -33 -40 -56c0 -29 25 -52 62 -52c14 0 40 7 50 13zM230 384c0 -10 6 -23 17 -42c22 16 35 29 35 43c0 15 -10 25 -26 25s-26 -10 -26 -26z" />
    <glyph glyph-name="zero.oldstyle" horiz-adv-x="545" 
d="M517 274c0 -173 -77 -280 -244 -280c-158 0 -244 106 -244 273c0 157 97 264 247 264s241 -105 241 -257zM381 265c0 90 -34 149 -104 149c-66 0 -112 -49 -112 -148c0 -100 39 -155 109 -155s107 54 107 154z" />
    <glyph glyph-name="one.oldstyle" horiz-adv-x="437" 
d="M338 535v-535h-142v314h-141v105c86 2 147 20 159 116h124z" />
    <glyph glyph-name="two.oldstyle" horiz-adv-x="531" 
d="M494 0h-445v99l83 49c182 107 210 157 210 204c0 38 -30 61 -72 61c-63 0 -84 -42 -84 -88c0 -4 0 -12 1 -16l-137 6v11c0 111 85 205 227 205c125 0 206 -59 206 -159c0 -114 -87 -174 -213 -249h224v-123z" />
    <glyph glyph-name="three.oldstyle" horiz-adv-x="536" 
d="M33 82l135 6v-20c0 -66 42 -118 105 -118c57 0 93 43 93 104s-36 93 -98 93c-15 0 -35 -1 -50 -4v118c13 -2 25 -3 38 -3c50 0 92 25 92 78c0 54 -30 79 -78 79c-54 0 -88 -46 -88 -105v-14l-133 7c0 148 91 228 227 228c111 0 207 -60 207 -185c0 -62 -31 -109 -90 -136
c78 -22 119 -81 119 -153c0 -141 -107 -225 -237 -225c-144 0 -242 83 -242 231v19z" />
    <glyph glyph-name="four.oldstyle" horiz-adv-x="550" 
d="M538 0h-94v-167h-134v167h-294v132l288 403h140v-418h94v-117zM145 117h165c2 121 3 241 3 241z" />
    <glyph glyph-name="five.oldstyle" horiz-adv-x="540" 
d="M115 518h378l-12 -127h-268l-25 -123c30 25 68 37 112 37c134 0 215 -96 215 -224c0 -134 -82 -249 -256 -249c-137 0 -221 77 -236 216l141 7c4 -65 40 -103 101 -103c74 0 109 59 109 128c0 67 -36 111 -105 111c-41 0 -71 -17 -91 -48h-129z" />
    <glyph glyph-name="six.oldstyle" horiz-adv-x="545" 
d="M504 504l-133 -9c-7 50 -32 74 -81 74c-94 0 -117 -94 -126 -180c35 51 88 75 148 75c134 0 205 -103 205 -229c0 -146 -85 -247 -235 -247c-204 0 -249 159 -249 334c0 179 54 367 265 367c114 0 192 -70 206 -185zM385 228c0 69 -33 115 -104 115
c-61 0 -104 -45 -104 -113c0 -70 32 -123 103 -123s105 54 105 121z" />
    <glyph glyph-name="seven.oldstyle" horiz-adv-x="471" 
d="M16 518h435v-125c-114 -107 -204 -328 -205 -560h-153c16 214 78 405 206 557h-283v128z" />
    <glyph glyph-name="eight.oldstyle" 
d="M425 363c67 -26 101 -95 101 -163c0 -134 -111 -212 -245 -212c-118 0 -245 51 -245 210c0 68 35 137 101 165c-52 28 -80 76 -80 132c0 131 109 194 228 194c117 0 222 -61 222 -191c0 -60 -27 -106 -82 -135zM281 404c60 0 95 28 95 84c0 52 -28 87 -89 87
c-57 0 -99 -28 -99 -87c0 -53 37 -84 93 -84zM391 204c0 68 -45 104 -107 104c-67 0 -115 -36 -115 -107c0 -63 49 -97 111 -97c65 0 111 34 111 100z" />
    <glyph glyph-name="nine.oldstyle" horiz-adv-x="545" 
d="M41 16l133 9c7 -50 32 -74 81 -74c94 0 117 94 126 180c-35 -51 -88 -75 -148 -75c-134 0 -205 103 -205 229c0 146 85 247 235 247c204 0 249 -159 249 -334c0 -179 -54 -366 -265 -366c-114 0 -192 69 -206 184zM160 292c0 -69 33 -115 104 -115c61 0 104 45 104 113
c0 70 -32 123 -103 123s-105 -54 -105 -121z" />
    <glyph glyph-name="a.sc" horiz-adv-x="565" 
d="M198 529h172l195 -529h-159l-32 98h-184l-31 -98h-158zM282 395l-58 -183h116z" />
    <glyph glyph-name="b.sc" horiz-adv-x="558" 
d="M52 529h223c66 0 127 -3 179 -26c38 -17 70 -52 70 -109c0 -63 -38 -100 -105 -114c83 -18 119 -65 119 -132c0 -100 -75 -148 -208 -148h-278v529zM206 411v-89h94c37 0 72 3 72 45s-33 44 -67 44h-99zM206 214v-98h120c30 0 60 9 60 49c0 41 -34 49 -69 49h-111z" />
    <glyph glyph-name="c.sc" horiz-adv-x="581" 
d="M560 361l-160 -9c-10 48 -41 75 -94 75c-100 0 -123 -82 -123 -165c0 -72 28 -159 122 -159c62 0 93 36 102 91l157 -10c-15 -145 -124 -197 -261 -197c-182 0 -278 102 -278 277c0 174 94 279 275 279c125 0 243 -50 260 -182z" />
    <glyph glyph-name="d.sc" horiz-adv-x="570" 
d="M52 529h216c47 0 94 -5 138 -23c100 -41 139 -129 139 -239c0 -115 -52 -218 -158 -251c-45 -14 -96 -16 -143 -16h-192v529zM206 411v-293h40c25 0 56 3 79 12c53 21 64 75 64 131c0 60 -13 107 -51 131c-18 13 -46 19 -81 19h-51z" />
    <glyph glyph-name="e.sc" horiz-adv-x="513" 
d="M52 529h425v-116h-273v-82h242v-112h-242v-102h278v-117h-430v529z" />
    <glyph glyph-name="f.sc" horiz-adv-x="499" 
d="M478 529v-116h-274v-88h245v-114h-245v-211h-152v529h426z" />
    <glyph glyph-name="g.sc" horiz-adv-x="599" 
d="M555 0h-106l-5 46c-44 -42 -95 -59 -159 -59c-167 0 -260 121 -260 273c0 173 109 282 289 282c106 0 212 -44 241 -156l-157 -10c-14 32 -52 46 -88 46c-95 0 -133 -75 -133 -156c0 -77 38 -158 129 -158c75 0 109 34 109 83h-126v115h266v-306z" />
    <glyph glyph-name="h.sc" horiz-adv-x="582" 
d="M52 529h152v-194h173v194h153v-529h-153v218h-173v-218h-152v529z" />
    <glyph glyph-name="i.sc" horiz-adv-x="256" 
d="M204 529v-529h-152v529h152z" />
    <glyph glyph-name="j.sc" horiz-adv-x="450" 
d="M399 529v-366c0 -126 -75 -176 -206 -176c-127 0 -185 67 -185 191v24h146v-38c0 -33 9 -63 46 -63c36 0 47 23 47 60v368h152z" />
    <glyph glyph-name="k.sc" horiz-adv-x="567" 
d="M206 529v-175l160 175h186l-207 -218l231 -311h-184l-154 218l-32 -31v-187h-154v529h154z" />
    <glyph glyph-name="l.sc" horiz-adv-x="453" 
d="M206 529v-412h234v-117h-388v529h154z" />
    <glyph glyph-name="m.sc" horiz-adv-x="743" 
d="M472 529h219v-529h-145c0 244 1 287 4 385l-109 -385h-137l-110 385c2 -99 3 -145 4 -385h-146v529h223l100 -368z" />
    <glyph glyph-name="n.sc" horiz-adv-x="582" 
d="M385 529h145v-529h-140l-198 300c3 -59 5 -210 5 -300h-145v530h138l200 -301c-3 100 -5 213 -5 300z" />
    <glyph glyph-name="o.sc" horiz-adv-x="621" 
d="M25 263c0 189 130 279 288 279c185 0 283 -113 283 -286c0 -168 -111 -269 -285 -269c-173 0 -286 109 -286 276zM443 262c0 86 -40 159 -130 159c-99 0 -133 -76 -133 -157c0 -79 34 -155 130 -155c93 0 133 69 133 153z" />
    <glyph glyph-name="p.sc" horiz-adv-x="520" 
d="M52 529h223c51 0 110 -3 156 -31c40 -25 68 -74 68 -143c0 -142 -109 -176 -204 -176h-91v-179h-152v529zM204 414v-120h76c42 0 73 17 73 60c0 45 -30 60 -72 60h-77z" />
    <glyph glyph-name="q.sc" horiz-adv-x="621" 
d="M592 33l-70 -71l-65 59c-36 -19 -82 -34 -141 -34c-181 0 -291 102 -291 279c0 174 116 276 293 276c159 0 278 -98 278 -287c0 -69 -28 -136 -63 -174zM311 154l68 73l47 -43c8 15 17 44 17 81c0 78 -38 155 -132 155c-98 0 -132 -79 -132 -158c0 -71 36 -156 131 -156
c17 0 35 6 42 12z" />
    <glyph glyph-name="r.sc" horiz-adv-x="560" 
d="M52 529h216c60 0 116 -1 161 -16c52 -17 86 -56 86 -126c0 -69 -35 -109 -100 -129c67 -17 85 -44 96 -112c8 -48 11 -103 37 -146h-162c-9 19 -16 44 -21 72c-16 87 -21 117 -105 117h-54v-189h-154v529zM206 414v-110h73c44 0 87 6 87 57c0 44 -35 53 -78 53h-82z" />
    <glyph glyph-name="s.sc" horiz-adv-x="523" 
d="M495 380l-141 -11c-8 47 -47 64 -100 64c-49 0 -71 -18 -71 -46c0 -27 29 -38 66 -45l89 -17c81 -15 168 -56 168 -162c0 -136 -128 -176 -239 -176c-128 0 -245 40 -254 186l143 9c9 -58 45 -82 108 -82c66 0 92 19 92 47c0 30 -21 43 -58 51l-98 22
c-85 19 -166 51 -166 153c0 128 127 169 226 169c110 0 221 -33 235 -162z" />
    <glyph glyph-name="t.sc" horiz-adv-x="493" 
d="M18 529h457v-117h-154v-412h-153v412h-150v117z" />
    <glyph glyph-name="u.sc" horiz-adv-x="582" 
d="M206 529v-341c0 -52 24 -83 86 -83c68 0 85 35 85 81v343h154v-328c0 -157 -98 -214 -233 -214c-127 0 -247 39 -247 212v330h155z" />
    <glyph glyph-name="v.sc" horiz-adv-x="533" 
d="M0 529h162l104 -338l105 338h162l-198 -529h-141z" />
    <glyph glyph-name="w.sc" horiz-adv-x="745" 
d="M306 529h135l76 -310l73 310h155l-147 -529h-140l-84 328l-82 -328h-143l-149 529h154l76 -320z" />
    <glyph glyph-name="x.sc" horiz-adv-x="537" 
d="M188 529l81 -131l81 131h171l-168 -244l181 -285h-172l-94 160l-98 -160h-169l183 285l-169 244h173z" />
    <glyph glyph-name="y.sc" horiz-adv-x="523" 
d="M168 529l91 -193l94 193h168l-189 -332v-197h-153v200l-177 329h166z" />
    <glyph glyph-name="z.sc" horiz-adv-x="514" 
d="M44 529h447v-110l-274 -304h273v-115h-471v102l278 309h-253v118z" />
    <glyph glyph-name="aacute.sc" horiz-adv-x="565" 
d="M198 529h172l195 -529h-159l-32 98h-184l-31 -98h-158zM282 395l-58 -183h116zM322 589h-99l45 147h165z" />
    <glyph glyph-name="agrave.sc" horiz-adv-x="565" 
d="M198 529h172l195 -529h-159l-32 98h-184l-31 -98h-158zM282 395l-58 -183h116zM345 589h-98l-122 147h171z" />
    <glyph glyph-name="acircumflex.sc" horiz-adv-x="565" 
d="M198 529h172l195 -529h-159l-32 98h-184l-31 -98h-158zM282 395l-58 -183h116zM442 589h-112l-49 81l-51 -81h-112l95 147h141z" />
    <glyph glyph-name="adieresis.sc" horiz-adv-x="565" 
d="M198 529h172l195 -529h-159l-32 98h-184l-31 -98h-158zM282 395l-58 -183h116zM460 718v-129h-137v129h137zM241 718v-129h-138v129h138z" />
    <glyph glyph-name="atilde.sc" horiz-adv-x="565" 
d="M198 529h172l195 -529h-159l-32 98h-184l-31 -98h-158zM282 395l-58 -183h116zM434 736v-35c0 -49 -3 -114 -67 -114c-49 0 -109 45 -140 45c-23 0 -25 -26 -25 -43h-71v48c0 47 22 101 77 101c47 0 100 -42 131 -42c21 0 26 23 27 40h68z" />
    <glyph glyph-name="aring.sc" horiz-adv-x="565" 
d="M198 529h172l195 -529h-159l-32 98h-184l-31 -98h-158zM282 395l-58 -183h116zM385 662c0 -57 -43 -96 -98 -96s-97 42 -97 97c0 56 44 95 99 95c54 0 96 -42 96 -96zM325 663c0 24 -18 38 -38 38c-22 0 -37 -18 -37 -39s15 -38 37 -38c23 0 38 17 38 39z" />
    <glyph glyph-name="ccedilla.sc" horiz-adv-x="581" 
d="M560 361l-160 -9c-10 48 -41 75 -94 75c-100 0 -123 -82 -123 -165c0 -72 28 -159 122 -159c62 0 93 36 102 91l157 -10c-14 -137 -111 -190 -237 -196l-20 -38c3 0 17 0 24 -1c47 -4 83 -36 83 -86c0 -60 -49 -100 -116 -100c-39 0 -75 8 -100 31l36 51
c18 -19 39 -24 60 -24c27 0 44 17 44 40c0 25 -17 40 -47 40c-15 0 -27 -3 -43 -12l-21 27l42 72c-160 12 -244 112 -244 276c0 174 94 279 275 279c125 0 243 -50 260 -182z" />
    <glyph glyph-name="eacute.sc" horiz-adv-x="513" 
d="M52 529h425v-116h-273v-82h242v-112h-242v-102h278v-117h-430v529zM292 589h-99l45 147h165z" />
    <glyph glyph-name="egrave.sc" horiz-adv-x="513" 
d="M52 529h425v-116h-273v-82h242v-112h-242v-102h278v-117h-430v529zM330 589h-98l-122 147h171z" />
    <glyph glyph-name="ecircumflex.sc" horiz-adv-x="513" 
d="M52 529h425v-116h-273v-82h242v-112h-242v-102h278v-117h-430v529zM425 589h-112l-49 81l-51 -81h-112l95 147h141z" />
    <glyph glyph-name="edieresis.sc" horiz-adv-x="513" 
d="M52 529h425v-116h-273v-82h242v-112h-242v-102h278v-117h-430v529zM445 718v-129h-137v129h137zM226 718v-129h-138v129h138z" />
    <glyph glyph-name="iacute.sc" horiz-adv-x="256" 
d="M204 529v-529h-152v529h152zM166 589h-99l45 147h165z" />
    <glyph glyph-name="igrave.sc" horiz-adv-x="256" 
d="M204 529v-529h-152v529h152zM197 589h-98l-122 147h171z" />
    <glyph glyph-name="icircumflex.sc" horiz-adv-x="256" 
d="M204 529v-529h-152v529h152zM296 589h-112l-49 81l-51 -81h-112l95 147h141z" />
    <glyph glyph-name="idieresis.sc" horiz-adv-x="256" 
d="M204 529v-529h-152v529h152zM314 718v-129h-137v129h137zM95 718v-129h-138v129h138z" />
    <glyph glyph-name="ntilde.sc" horiz-adv-x="582" 
d="M385 529h145v-529h-140l-198 300c3 -59 5 -210 5 -300h-145v530h138l200 -301c-3 100 -5 213 -5 300zM442 736v-35c0 -49 -3 -114 -67 -114c-49 0 -109 45 -140 45c-23 0 -25 -26 -25 -43h-71v48c0 47 22 101 77 101c47 0 100 -42 131 -42c21 0 26 23 27 40h68z" />
    <glyph glyph-name="oacute.sc" horiz-adv-x="621" 
d="M25 263c0 189 130 279 288 279c185 0 283 -113 283 -286c0 -168 -111 -269 -285 -269c-173 0 -286 109 -286 276zM443 262c0 86 -40 159 -130 159c-99 0 -133 -76 -133 -157c0 -79 34 -155 130 -155c93 0 133 69 133 153zM348 589h-99l45 147h165z" />
    <glyph glyph-name="ograve.sc" horiz-adv-x="621" 
d="M25 263c0 189 130 279 288 279c185 0 283 -113 283 -286c0 -168 -111 -269 -285 -269c-173 0 -286 109 -286 276zM443 262c0 86 -40 159 -130 159c-99 0 -133 -76 -133 -157c0 -79 34 -155 130 -155c93 0 133 69 133 153zM368 589h-98l-122 147h171z" />
    <glyph glyph-name="ocircumflex.sc" horiz-adv-x="621" 
d="M25 263c0 189 130 279 288 279c185 0 283 -113 283 -286c0 -168 -111 -269 -285 -269c-173 0 -286 109 -286 276zM443 262c0 86 -40 159 -130 159c-99 0 -133 -76 -133 -157c0 -79 34 -155 130 -155c93 0 133 69 133 153zM485 589h-112l-49 81l-51 -81h-112l95 147h141z
" />
    <glyph glyph-name="odieresis.sc" horiz-adv-x="621" 
d="M25 263c0 189 130 279 288 279c185 0 283 -113 283 -286c0 -168 -111 -269 -285 -269c-173 0 -286 109 -286 276zM443 262c0 86 -40 159 -130 159c-99 0 -133 -76 -133 -157c0 -79 34 -155 130 -155c93 0 133 69 133 153zM496 718v-129h-137v129h137zM277 718v-129h-138
v129h138z" />
    <glyph glyph-name="otilde.sc" horiz-adv-x="621" 
d="M25 263c0 189 130 279 288 279c185 0 283 -113 283 -286c0 -168 -111 -269 -285 -269c-173 0 -286 109 -286 276zM443 262c0 86 -40 159 -130 159c-99 0 -133 -76 -133 -157c0 -79 34 -155 130 -155c93 0 133 69 133 153zM477 736v-35c0 -49 -3 -114 -67 -114
c-49 0 -109 45 -140 45c-23 0 -25 -26 -25 -43h-71v48c0 47 22 101 77 101c47 0 100 -42 131 -42c21 0 26 23 27 40h68z" />
    <glyph glyph-name="uacute.sc" horiz-adv-x="582" 
d="M206 529v-341c0 -52 24 -83 86 -83c68 0 85 35 85 81v343h154v-328c0 -157 -98 -214 -233 -214c-127 0 -247 39 -247 212v330h155zM321 589h-99l45 147h165z" />
    <glyph glyph-name="ugrave.sc" horiz-adv-x="582" 
d="M206 529v-341c0 -52 24 -83 86 -83c68 0 85 35 85 81v343h154v-328c0 -157 -98 -214 -233 -214c-127 0 -247 39 -247 212v330h155zM358 589h-98l-122 147h171z" />
    <glyph glyph-name="ucircumflex.sc" horiz-adv-x="582" 
d="M206 529v-341c0 -52 24 -83 86 -83c68 0 85 35 85 81v343h154v-328c0 -157 -98 -214 -233 -214c-127 0 -247 39 -247 212v330h155zM454 589h-112l-49 81l-51 -81h-112l95 147h141z" />
    <glyph glyph-name="udieresis.sc" horiz-adv-x="582" 
d="M206 529v-341c0 -52 24 -83 86 -83c68 0 85 35 85 81v343h154v-328c0 -157 -98 -214 -233 -214c-127 0 -247 39 -247 212v330h155zM473 718v-129h-137v129h137zM254 718v-129h-138v129h138z" />
    <glyph glyph-name="cent.oldstyle" horiz-adv-x="454" 
d="M275 464v-78c84 -6 152 -61 161 -145l-113 -5c-5 22 -21 49 -48 54v-197c30 6 47 38 50 60l112 -5c-8 -71 -51 -136 -162 -151v-78h-63v78c-116 9 -179 88 -179 191c0 99 60 188 179 198v78h63zM212 95v195c-35 -6 -57 -50 -57 -97c0 -50 18 -88 57 -98z" />
    <glyph glyph-name="sterling.oldstyle" horiz-adv-x="573" 
d="M405 302v-75h-102c9 -18 17 -44 17 -67c0 -13 -2 -24 -5 -37c22 -12 41 -21 56 -21c37 0 44 36 44 70h131c-5 -88 -30 -179 -144 -179c-48 0 -90 15 -134 44c-33 -33 -69 -46 -114 -46c-71 0 -123 35 -123 97s48 97 120 97c14 0 29 -4 41 -9c-11 27 -17 36 -24 51h-99v75
h61c-12 25 -19 51 -19 79c0 102 90 149 203 149c119 0 196 -67 201 -165l-133 -7c-5 46 -33 68 -72 68c-41 0 -65 -26 -65 -54c0 -26 13 -53 23 -70h137zM205 94c-17 14 -31 21 -50 21c-18 0 -34 -9 -34 -28c0 -21 17 -28 35 -28c21 0 39 15 49 35z" />
    <glyph glyph-name="germandbls.sc" horiz-adv-x="1046" 
d="M495 380l-141 -11c-8 47 -47 64 -100 64c-49 0 -71 -18 -71 -46c0 -27 29 -38 66 -45l89 -17c81 -15 168 -56 168 -162c0 -136 -128 -176 -239 -176c-128 0 -245 40 -254 186l143 9c9 -58 45 -82 108 -82c66 0 92 19 92 47c0 30 -21 43 -58 51l-98 22
c-85 19 -166 51 -166 153c0 128 127 169 226 169c110 0 221 -33 235 -162zM1018 380l-141 -11c-8 47 -47 64 -100 64c-49 0 -71 -18 -71 -46c0 -27 29 -38 66 -45l89 -17c81 -15 168 -56 168 -162c0 -136 -128 -176 -239 -176c-128 0 -245 40 -254 186l143 9
c9 -58 45 -82 108 -82c66 0 92 19 92 47c0 30 -21 43 -58 51l-98 22c-85 19 -166 51 -166 153c0 128 127 169 226 169c110 0 221 -33 235 -162z" />
    <glyph glyph-name="yen.oldstyle" horiz-adv-x="561" 
d="M417 306h73v-67h-118l-20 -33v-12h137v-67h-137v-127h-151v127h-139v68h139v12l-21 32h-118v67h79l-124 212h159l102 -201l105 201h162z" />
    <glyph glyph-name="ae.sc" horiz-adv-x="768" 
d="M229 529h503v-117h-250v-80h220v-112h-220v-103h255v-117h-402v96h-133l-43 -96h-172zM334 418l-88 -208h88v208z" />
    <glyph glyph-name="oslash.sc" horiz-adv-x="621" 
d="M579 513l-51 -54c45 -50 68 -119 68 -203c0 -168 -111 -269 -285 -269c-71 0 -131 18 -178 50l-51 -54l-43 38l51 55c-42 47 -65 111 -65 187c0 189 130 279 288 279c70 0 127 -16 172 -46l51 55zM447 262c0 33 -6 65 -19 91l-204 -219c20 -18 49 -28 86 -28
c96 0 137 70 137 156zM176 264c0 -29 4 -57 14 -82l203 217c-20 16 -47 26 -80 26c-102 0 -137 -78 -137 -161z" />
    <glyph glyph-name="florin.oldstyle" horiz-adv-x="398" 
d="M377 524l-10 -90c-15 3 -32 4 -43 4c-30 0 -45 -19 -49 -47l-5 -33h76v-78h-87l-32 -260c-9 -76 -26 -152 -161 -152c-29 0 -55 2 -80 5l10 88c12 -2 28 -4 34 -4c51 0 53 23 58 62l33 261h-66v78h74l5 36c11 81 54 135 159 135c28 0 56 -2 84 -5z" />
    <glyph glyph-name="oe.sc" horiz-adv-x="871" 
d="M565 417v-88h241v-112h-241v-101h275v-116h-419v48c-33 -40 -88 -60 -140 -60c-169 0 -256 113 -256 268c0 136 75 285 257 285c50 0 108 -16 139 -60v48h418v-112h-274zM178 263c0 -91 36 -161 126 -161c92 0 117 70 117 165c0 93 -36 156 -113 156
c-95 0 -130 -72 -130 -160z" />
    <glyph glyph-name="ydieresis.sc" horiz-adv-x="523" 
d="M168 529l91 -193l94 193h168l-189 -332v-197h-153v200l-177 329h166zM442 718v-129h-137v129h137zM223 718v-129h-138v129h138z" />
    <glyph glyph-name="Euro.oldstyle" horiz-adv-x="568" 
d="M542 468l-63 -97c-32 38 -71 52 -114 52c-57 0 -95 -25 -111 -69h182v-68h-191v-45h190v-66h-181c14 -49 56 -74 108 -74c42 0 80 15 111 58l76 -85c-55 -57 -112 -82 -193 -82c-135 0 -222 66 -244 183h-62v69h54v42h-54v68h63c31 116 118 176 251 176
c71 0 126 -18 178 -62z" />
    <glyph glyph-name="f_i.sc" horiz-adv-x="755" 
d="M478 529v-116h-274v-88h245v-114h-245v-211h-152v529h426zM703 529v-529h-152v529h152z" />
    <glyph glyph-name="f_l.sc" horiz-adv-x="952" 
d="M478 529v-116h-274v-88h245v-114h-245v-211h-152v529h426zM705 529v-412h234v-117h-388v529h154z" />
    <glyph glyph-name="periodcentered.sc" horiz-adv-x="250" 
d="M199 355v-149h-149v149h149z" />
    <glyph glyph-name="perthousand.oldstyle" horiz-adv-x="1217" 
d="M24 360c0 112 75 171 165 171c93 0 164 -53 164 -166c0 -85 -52 -168 -164 -168c-111 0 -165 82 -165 163zM123 361c0 -47 28 -75 66 -75c34 0 65 24 65 78c0 44 -24 76 -66 76c-40 0 -65 -31 -65 -79zM513 518h86c-89 -172 -178 -346 -268 -518h-86zM496 155
c0 113 75 171 165 171c93 0 164 -53 164 -166c0 -85 -52 -167 -164 -167c-111 0 -165 81 -165 162zM595 156c0 -47 28 -74 66 -74c34 0 65 24 65 78c0 43 -24 75 -66 75c-40 0 -65 -31 -65 -79zM863 155c0 113 76 171 165 171c93 0 164 -53 164 -166
c0 -85 -52 -167 -164 -167c-111 0 -165 81 -165 162zM962 156c0 -47 28 -74 66 -74c34 0 65 24 65 78c0 43 -24 75 -66 75c-40 0 -65 -31 -65 -79z" />
    <glyph glyph-name="acute.sc" horiz-adv-x="292" 
d="M140 589h-99l45 147h165z" />
    <glyph glyph-name="breve.sc" horiz-adv-x="292" 
d="M215 736h74c-7 -84 -53 -152 -145 -152c-95 0 -134 67 -142 152h75c3 -35 32 -64 67 -64c37 0 66 29 71 64z" />
    <glyph glyph-name="caron.sc" horiz-adv-x="292" 
d="M-16 736h111l49 -83l51 83h113l-95 -147h-141z" />
    <glyph glyph-name="cedilla.sc" horiz-adv-x="292" 
d="M122 9h57l-32 -59c3 0 17 0 24 -1c47 -4 83 -36 83 -86c0 -60 -49 -100 -116 -100c-39 0 -75 8 -100 31l36 51c18 -19 39 -24 60 -24c27 0 44 17 44 40c0 25 -17 40 -47 40c-15 0 -27 -3 -43 -12l-21 27z" />
    <glyph glyph-name="circumflex.sc" horiz-adv-x="292" 
d="M308 589h-112l-49 81l-51 -81h-112l95 147h141z" />
    <glyph glyph-name="commaaccent.sc" horiz-adv-x="292" 
d="M98 -37h103v-100c0 -59 -53 -106 -110 -118v44c34 11 51 37 55 67h-48v107z" />
    <glyph glyph-name="dieresis.sc" horiz-adv-x="292" 
d="M325 718v-129h-137v129h137zM106 718v-129h-138v129h138z" />
    <glyph glyph-name="dotaccent.sc" horiz-adv-x="292" 
d="M215 718v-129h-139v129h139z" />
    <glyph glyph-name="grave.sc" horiz-adv-x="292" 
d="M256 589h-98l-122 147h171z" />
    <glyph glyph-name="hungarumlaut.sc" horiz-adv-x="292" 
d="M135 589l47 147h157l-111 -147h-93zM-47 589l46 147h157l-110 -147h-93z" />
    <glyph glyph-name="macron.sc" horiz-adv-x="292" 
d="M309 677v-88h-326v88h326z" />
    <glyph glyph-name="ogonek.sc" horiz-adv-x="292" 
d="M111 0h103c-15 -21 -45 -64 -45 -86c0 -23 22 -28 37 -28c11 0 23 1 31 2v-104c-17 -1 -29 -2 -46 -2c-80 0 -136 22 -136 92c0 43 25 84 56 126z" />
    <glyph glyph-name="ring.sc" horiz-adv-x="292" 
d="M243 662c0 -57 -43 -96 -98 -96s-97 42 -97 97c0 56 44 95 99 95c54 0 96 -42 96 -96zM183 663c0 24 -18 38 -38 38c-22 0 -37 -18 -37 -39s15 -38 37 -38c23 0 38 17 38 39z" />
    <glyph glyph-name="tilde.sc" horiz-adv-x="292" 
d="M298 736v-35c0 -49 -3 -114 -67 -114c-49 0 -109 45 -140 45c-23 0 -25 -26 -25 -43h-71v48c0 47 22 101 77 101c47 0 100 -42 131 -42c21 0 26 23 27 40h68z" />
    <glyph glyph-name="exclam.sc" horiz-adv-x="255" 
d="M213 147v-147h-147v147h147zM190 196h-100l-21 163v187h147v-187z" />
    <glyph glyph-name="question.sc" horiz-adv-x="461" 
d="M178 195c0 65 18 86 79 126c34 22 45 44 45 67c0 29 -20 51 -69 51c-63 0 -82 -48 -82 -108h-134c0 118 48 226 222 226c114 0 210 -46 210 -150c0 -57 -15 -95 -73 -134c-36 -24 -65 -49 -65 -78h-133zM320 0h-148v147h148v-147z" />
    <glyph glyph-name="exclamdown.sc" horiz-adv-x="255" 
d="M42 381v147h147v-147h-147zM65 332h100l21 -163v-187h-147v187z" />
    <glyph glyph-name="questiondown.sc" horiz-adv-x="461" 
d="M283 333c0 -65 -18 -86 -79 -126c-34 -22 -45 -44 -45 -67c0 -29 20 -51 69 -51c63 0 82 48 82 108h134c0 -118 -48 -226 -222 -226c-114 0 -210 46 -210 150c0 57 15 95 73 134c36 24 65 49 65 78h133zM141 528h148v-147h-148v147z" />
    <glyph glyph-name="onethird" unicode="&#x2153;" horiz-adv-x="875" 
d="M225 0l281 688h85l-281 -688h-85zM152 250v293h-101v77h16c50 0 92 10 97 72h89v-442h-101zM635 190v83c9 -1 18 -1 27 -1c27 0 58 14 58 45c0 25 -20 45 -45 45c-41 0 -52 -29 -52 -65l-97 4c0 100 65 146 144 146c76 0 146 -36 146 -120c0 -38 -16 -76 -63 -87
c52 -14 80 -49 80 -104c0 -97 -83 -143 -159 -143c-67 0 -125 31 -148 96c-7 20 -8 45 -9 66l97 4c0 -41 11 -79 59 -79c33 0 58 24 58 57c0 40 -29 56 -66 56c-10 0 -20 -2 -30 -3z" />
    <glyph glyph-name="twothirds" unicode="&#x2154;" horiz-adv-x="875" 
d="M274 0l281 688h85l-281 -688h-85zM635 190v83c9 -1 18 -1 27 -1c27 0 58 14 58 45c0 25 -20 45 -45 45c-41 0 -52 -29 -52 -65l-97 4c0 100 65 146 144 146c76 0 146 -36 146 -120c0 -38 -16 -76 -63 -87c52 -14 80 -49 80 -104c0 -97 -83 -143 -159 -143
c-67 0 -125 31 -148 96c-7 20 -8 45 -9 66l97 4c0 -41 11 -79 59 -79c33 0 58 24 58 57c0 40 -29 56 -66 56c-10 0 -20 -2 -30 -3zM351 250h-307v80l43 37c52 45 157 114 157 189c0 29 -18 50 -49 50c-37 0 -53 -34 -53 -66c0 -7 1 -13 2 -19l-99 4v14c0 94 60 160 153 160
c85 0 146 -50 146 -138c0 -99 -84 -165 -154 -221h161v-90z" />
    <glyph glyph-name="oneeighth" unicode="&#x215b;" horiz-adv-x="875" 
d="M225 0l281 688h85l-281 -688h-85zM152 250v293h-101v77h16c50 0 92 10 97 72h89v-442h-101zM757 238c42 -16 66 -55 66 -104c0 -66 -49 -141 -162 -141c-123 0 -162 81 -162 142c0 51 26 88 63 100c-38 17 -51 48 -51 85c0 74 61 129 151 129c107 0 148 -64 148 -125
c0 -35 -13 -70 -53 -86zM717 318c0 18 -10 46 -53 46c-45 0 -58 -27 -58 -47c0 -19 8 -48 54 -48s57 31 57 49zM728 137c0 20 -13 58 -69 58c-53 0 -66 -39 -66 -59s13 -59 68 -59c54 0 67 41 67 60z" />
    <glyph glyph-name="threeeighths" unicode="&#x215c;" horiz-adv-x="875" 
d="M252 0l281 688h85l-281 -688h-85zM766 238c42 -16 66 -55 66 -104c0 -66 -49 -141 -162 -141c-123 0 -162 81 -162 142c0 51 26 88 63 100c-38 17 -51 48 -51 85c0 74 61 129 151 129c107 0 148 -64 148 -125c0 -35 -13 -70 -53 -86zM726 318c0 18 -10 46 -53 46
c-45 0 -58 -27 -58 -47c0 -19 8 -48 54 -48s57 31 57 49zM737 137c0 20 -13 58 -69 58c-53 0 -66 -39 -66 -59s13 -59 68 -59c54 0 67 41 67 60zM160 440v83c9 -1 18 -1 27 -1c27 0 58 14 58 45c0 25 -20 45 -45 45c-41 0 -52 -29 -52 -65l-97 4c0 100 65 146 144 146
c76 0 146 -36 146 -120c0 -38 -16 -76 -63 -87c52 -14 80 -49 80 -104c0 -97 -83 -143 -159 -143c-67 0 -125 31 -148 96c-7 20 -8 45 -9 66l97 4c0 -41 11 -79 59 -79c33 0 58 24 58 57c0 40 -29 56 -66 56c-10 0 -20 -2 -30 -3z" />
    <glyph glyph-name="fiveeighths" unicode="&#x215d;" horiz-adv-x="875" 
d="M253 0l281 688h85l-281 -688h-85zM767 238c42 -16 66 -55 66 -104c0 -66 -49 -141 -162 -141c-123 0 -162 81 -162 142c0 51 26 88 63 100c-38 17 -51 48 -51 85c0 74 61 129 151 129c107 0 148 -64 148 -125c0 -35 -13 -70 -53 -86zM727 318c0 18 -10 46 -53 46
c-45 0 -58 -27 -58 -47c0 -19 8 -48 54 -48s57 31 57 49zM738 137c0 20 -13 58 -69 58c-53 0 -66 -39 -66 -59s13 -59 68 -59c54 0 67 41 67 60zM101 687h254l-11 -89h-172l-15 -67c12 6 37 18 74 18c78 0 134 -52 134 -142c0 -111 -79 -164 -166 -164
c-88 0 -129 51 -144 82c-8 18 -11 38 -14 57l97 4c5 -52 45 -57 59 -57c42 0 68 33 68 74c0 40 -24 67 -63 67c-19 0 -42 -6 -53 -25h-90z" />
    <glyph glyph-name="seveneighths" unicode="&#x215e;" horiz-adv-x="875" 
d="M216 0l281 688h85l-281 -688h-85zM758 238c42 -16 66 -55 66 -104c0 -66 -49 -141 -162 -141c-123 0 -162 81 -162 142c0 51 26 88 63 100c-38 17 -51 48 -51 85c0 74 61 129 151 129c107 0 148 -64 148 -125c0 -35 -13 -70 -53 -86zM718 318c0 18 -10 46 -53 46
c-45 0 -58 -27 -58 -47c0 -19 8 -48 54 -48s57 31 57 49zM729 137c0 20 -13 58 -69 58c-53 0 -66 -39 -66 -59s13 -59 68 -59c54 0 67 41 67 60zM347 691v-85c-60 -69 -138 -164 -138 -356h-107c2 31 4 63 10 94c25 131 94 221 125 257h-186v90h296z" />
    <glyph glyph-name="onefifth" horiz-adv-x="875" 
d="M225 0l281 688h85l-281 -688h-85zM152 250v293h-101v77h16c50 0 92 10 97 72h89v-442h-101zM560 437h254l-11 -89h-172l-15 -67c12 6 37 18 74 18c78 0 134 -52 134 -142c0 -111 -79 -164 -166 -164c-88 0 -129 51 -144 82c-8 18 -11 38 -14 57l97 4c5 -52 45 -57 59 -57
c42 0 68 33 68 74c0 40 -24 67 -63 67c-19 0 -42 -6 -53 -25h-90z" />
    <glyph glyph-name="twofifths" horiz-adv-x="875" 
d="M276 0l281 688h85l-281 -688h-85zM567 437h254l-11 -89h-172l-15 -67c12 6 37 18 74 18c78 0 134 -52 134 -142c0 -111 -79 -164 -166 -164c-88 0 -129 51 -144 82c-8 18 -11 38 -14 57l97 4c5 -52 45 -57 59 -57c42 0 68 33 68 74c0 40 -24 67 -63 67
c-19 0 -42 -6 -53 -25h-90zM351 250h-307v80l43 37c52 45 157 114 157 189c0 29 -18 50 -49 50c-37 0 -53 -34 -53 -66c0 -7 1 -13 2 -19l-99 4v14c0 94 60 160 153 160c85 0 146 -50 146 -138c0 -99 -84 -165 -154 -221h161v-90z" />
    <glyph glyph-name="threefifths" horiz-adv-x="875" 
d="M254 0l281 688h85l-281 -688h-85zM569 437h254l-11 -89h-172l-15 -67c12 6 37 18 74 18c78 0 134 -52 134 -142c0 -111 -79 -164 -166 -164c-88 0 -129 51 -144 82c-8 18 -11 38 -14 57l97 4c5 -52 45 -57 59 -57c42 0 68 33 68 74c0 40 -24 67 -63 67
c-19 0 -42 -6 -53 -25h-90zM160 440v83c9 -1 18 -1 27 -1c27 0 58 14 58 45c0 25 -20 45 -45 45c-41 0 -52 -29 -52 -65l-97 4c0 100 65 146 144 146c76 0 146 -36 146 -120c0 -38 -16 -76 -63 -87c52 -14 80 -49 80 -104c0 -97 -83 -143 -159 -143c-67 0 -125 31 -148 96
c-7 20 -8 45 -9 66l97 4c0 -41 11 -79 59 -79c33 0 58 24 58 57c0 40 -29 56 -66 56c-10 0 -20 -2 -30 -3z" />
    <glyph glyph-name="fourfifths" horiz-adv-x="875" 
d="M268 0l281 688h85l-281 -688h-85zM570 437h254l-11 -89h-172l-15 -67c12 6 37 18 74 18c78 0 134 -52 134 -142c0 -111 -79 -164 -166 -164c-88 0 -129 51 -144 82c-8 18 -11 38 -14 57l97 4c5 -52 45 -57 59 -57c42 0 68 33 68 74c0 40 -24 67 -63 67
c-19 0 -42 -6 -53 -25h-90zM373 342h-59v-92h-96v92h-177v98l177 252h96v-265h59v-85zM133 427h85c1 48 2 129 2 129z" />
    <glyph glyph-name="zero.numerator" horiz-adv-x="375" 
d="M353 485c0 -115 -30 -242 -170 -242c-131 0 -161 126 -161 233c0 112 45 223 173 223c118 0 158 -107 158 -214zM256 476c0 45 -2 135 -66 135s-69 -93 -69 -140c0 -44 1 -141 66 -141c63 0 69 103 69 146z" />
    <glyph glyph-name="one.numerator" horiz-adv-x="375" 
d="M159 250v293h-101v77h16c50 0 92 10 97 72h89v-442h-101z" />
    <glyph glyph-name="two.numerator" horiz-adv-x="375" 
d="M336 250h-307v80l43 37c52 45 157 114 157 189c0 29 -18 50 -49 50c-37 0 -53 -34 -53 -66c0 -7 1 -13 2 -19l-99 4v14c0 94 60 160 153 160c85 0 146 -50 146 -138c0 -99 -84 -165 -154 -221h161v-90z" />
    <glyph glyph-name="three.numerator" horiz-adv-x="375" 
d="M143 440v83c9 -1 18 -1 27 -1c27 0 58 14 58 45c0 25 -20 45 -45 45c-41 0 -52 -29 -52 -65l-97 4c0 100 65 146 144 146c76 0 146 -36 146 -120c0 -38 -16 -76 -63 -87c52 -14 80 -49 80 -104c0 -97 -83 -143 -159 -143c-67 0 -125 31 -148 96c-7 20 -8 45 -9 66l97 4
c0 -41 11 -79 59 -79c33 0 58 24 58 57c0 40 -29 56 -66 56c-10 0 -20 -2 -30 -3z" />
    <glyph glyph-name="four.numerator" horiz-adv-x="375" 
d="M355 342h-59v-92h-96v92h-177v98l177 252h96v-265h59v-85zM115 427h85c1 48 2 129 2 129z" />
    <glyph glyph-name="five.numerator" horiz-adv-x="375" 
d="M83 687h254l-11 -89h-172l-15 -67c12 6 37 18 74 18c78 0 134 -52 134 -142c0 -111 -79 -164 -166 -164c-88 0 -129 51 -144 82c-8 18 -11 38 -14 57l97 4c5 -52 45 -57 59 -57c42 0 68 33 68 74c0 40 -24 67 -63 67c-19 0 -42 -6 -53 -25h-90z" />
    <glyph glyph-name="six.numerator" horiz-adv-x="375" 
d="M344 580l-95 -6c-6 28 -22 39 -48 39c-50 0 -71 -55 -79 -97c31 25 53 39 95 39c84 0 135 -68 135 -147c0 -106 -67 -165 -156 -165c-127 0 -166 117 -166 221c0 135 56 232 175 232c104 0 132 -73 139 -116zM258 403c0 32 -18 68 -63 68c-19 0 -63 -12 -63 -68
c0 -58 40 -73 64 -73s62 23 62 73z" />
    <glyph glyph-name="seven.numerator" horiz-adv-x="375" 
d="M338 691v-85c-60 -69 -138 -164 -138 -356h-107c2 31 4 63 10 94c25 131 94 221 125 257h-186v90h296z" />
    <glyph glyph-name="eight.numerator" horiz-adv-x="375" 
d="M283 488c42 -16 66 -55 66 -104c0 -66 -49 -141 -162 -141c-123 0 -162 81 -162 142c0 51 26 88 63 100c-38 17 -51 48 -51 85c0 74 61 129 151 129c107 0 148 -64 148 -125c0 -35 -13 -70 -53 -86zM243 568c0 18 -10 46 -53 46c-45 0 -58 -27 -58 -47
c0 -19 8 -48 54 -48s57 31 57 49zM254 387c0 20 -13 58 -69 58c-53 0 -66 -39 -66 -59s13 -59 68 -59c54 0 67 41 67 60z" />
    <glyph glyph-name="nine.numerator" horiz-adv-x="375" 
d="M29 365l94 5c2 -28 17 -43 49 -43c52 0 74 55 81 98c-22 -23 -50 -41 -92 -41c-59 0 -137 38 -137 151c0 82 51 162 153 162c113 0 168 -81 168 -209c0 -123 -39 -245 -175 -245c-109 0 -136 80 -141 122zM243 539c0 34 -18 71 -64 71c-20 0 -62 -12 -62 -73
c0 -57 40 -69 62 -69s64 13 64 71z" />
    <glyph glyph-name="period.numerator" horiz-adv-x="160" 
d="M133 354v-104h-105v104h105z" />
    <glyph glyph-name="comma.numerator" horiz-adv-x="160" 
d="M28 354h105v-99c0 -60 -50 -105 -111 -112v39c33 11 51 36 54 68h-48v104z" />
    <glyph glyph-name="hyphen.numerator" horiz-adv-x="220" 
d="M16 476h188v-80h-188v80z" />
    <glyph glyph-name="parenleft.numerator" horiz-adv-x="244" 
d="M159 736h75c-61 -93 -95 -199 -95 -307c0 -107 30 -199 92 -297h-75c-68 86 -113 199 -113 301c0 111 43 211 116 303z" />
    <glyph glyph-name="parenright.numerator" horiz-adv-x="244" 
d="M85 132h-75c63 101 96 195 96 308c0 106 -30 200 -93 296h76c69 -87 112 -197 112 -301c0 -111 -42 -211 -116 -303z" />
    <glyph glyph-name="dollar.numerator" horiz-adv-x="371" 
d="M160 757h56v-65c67 -10 119 -36 126 -133l-87 -4c0 30 -12 48 -39 56v-98c74 -19 140 -43 140 -129c0 -82 -58 -127 -140 -135v-66h-56v66c-85 8 -147 56 -147 145h92v-9c0 -32 23 -47 55 -53v105c-60 17 -136 40 -136 128c0 81 56 120 136 127v65zM216 419v-86
c26 4 46 18 46 41c0 27 -21 38 -46 45zM160 530v84c-26 -4 -47 -17 -47 -42s20 -35 47 -42z" />
    <glyph glyph-name="cent.numerator" horiz-adv-x="358" 
d="M256 385l92 -4c-15 -76 -59 -122 -129 -133v-65h-54v65c-98 7 -143 80 -143 169c0 91 47 163 143 173v68h54v-68c68 -7 120 -57 126 -125l-93 -4c-4 21 -12 40 -33 46v-170c20 7 34 27 37 48zM165 336v170c-29 -8 -43 -45 -43 -84c0 -44 11 -78 43 -86z" />
    <glyph glyph-name="sterling.numerator" horiz-adv-x="394" 
d="M378 399v-10c0 -61 -7 -146 -108 -146c-38 0 -68 11 -95 30c-20 -18 -46 -30 -73 -30c-44 0 -85 25 -85 72c0 43 35 72 80 72c15 0 27 -1 40 -6c-2 16 -6 25 -14 38h-83v71h46c-17 26 -26 53 -26 88c0 81 73 121 153 121c98 0 155 -58 155 -153l-86 -18v6
c0 47 -18 88 -70 88c-37 0 -60 -20 -60 -52c0 -29 14 -57 32 -80h95v-71h-69c4 -14 6 -24 6 -39s-3 -24 -8 -36c11 -8 27 -19 43 -19c37 0 42 25 42 68v6h85zM132 315c-7 12 -20 19 -30 19c-13 0 -23 -6 -23 -18c0 -13 10 -20 22 -20c13 0 26 9 31 19z" />
    <glyph glyph-name="yen.numerator" horiz-adv-x="438" 
d="M329 516h58v-63h-96l-19 -38v-6h115v-66h-115v-93h-106v93h-116v66h116v7l-21 37h-95v63h61l-101 172h120l89 -172l91 172h118z" />
    <glyph glyph-name="Euro.numerator" horiz-adv-x="442" 
d="M434 651l-54 -72c-27 31 -57 44 -102 44c-32 0 -73 -9 -93 -63h155v-63h-162c-1 -11 -1 -18 -1 -23c0 -4 0 -12 1 -21h162v-66h-151c9 -42 44 -64 92 -64c35 0 72 17 95 51l60 -63c-42 -46 -88 -68 -152 -68c-124 0 -180 61 -198 144h-50v66h44v9c0 12 0 19 1 35h-45v63
h54c28 106 105 139 199 139c54 0 100 -14 145 -48z" />
    <glyph glyph-name="florin.numerator" horiz-adv-x="294" 
d="M281 696l-8 -75c-11 2 -22 3 -28 3c-35 0 -43 -14 -48 -53h65v-71h-73l-29 -245c-10 -86 -41 -113 -129 -113c-14 0 -31 2 -48 4l9 72c11 -2 22 -3 30 -3c25 0 39 10 43 46l28 239h-53v71h62c8 85 32 129 123 129c17 0 37 -2 56 -4z" />
    <glyph glyph-name="zero.denominator" horiz-adv-x="375" 
d="M353 235c0 -115 -30 -242 -170 -242c-131 0 -161 126 -161 233c0 112 45 223 173 223c118 0 158 -107 158 -214zM256 226c0 45 -2 135 -66 135s-69 -93 -69 -140c0 -44 1 -141 66 -141c63 0 69 103 69 146z" />
    <glyph glyph-name="one.denominator" horiz-adv-x="375" 
d="M159 0v293h-101v77h16c50 0 92 10 97 72h89v-442h-101z" />
    <glyph glyph-name="two.denominator" horiz-adv-x="375" 
d="M336 0h-307v80l43 37c52 45 157 114 157 189c0 29 -18 50 -49 50c-37 0 -53 -34 -53 -66c0 -7 1 -13 2 -19l-99 4v14c0 94 60 160 153 160c85 0 146 -50 146 -138c0 -99 -84 -165 -154 -221h161v-90z" />
    <glyph glyph-name="three.denominator" horiz-adv-x="375" 
d="M143 190v83c9 -1 18 -1 27 -1c27 0 58 14 58 45c0 25 -20 45 -45 45c-41 0 -52 -29 -52 -65l-97 4c0 100 65 146 144 146c76 0 146 -36 146 -120c0 -38 -16 -76 -63 -87c52 -14 80 -49 80 -104c0 -97 -83 -143 -159 -143c-67 0 -125 31 -148 96c-7 20 -8 45 -9 66l97 4
c0 -41 11 -79 59 -79c33 0 58 24 58 57c0 40 -29 56 -66 56c-10 0 -20 -2 -30 -3z" />
    <glyph glyph-name="four.denominator" horiz-adv-x="375" 
d="M355 92h-59v-92h-96v92h-177v98l177 252h96v-265h59v-85zM115 177h85c1 48 2 129 2 129z" />
    <glyph glyph-name="five.denominator" horiz-adv-x="375" 
d="M83 437h254l-11 -89h-172l-15 -67c12 6 37 18 74 18c78 0 134 -52 134 -142c0 -111 -79 -164 -166 -164c-88 0 -129 51 -144 82c-8 18 -11 38 -14 57l97 4c5 -52 45 -57 59 -57c42 0 68 33 68 74c0 40 -24 67 -63 67c-19 0 -42 -6 -53 -25h-90z" />
    <glyph glyph-name="six.denominator" horiz-adv-x="375" 
d="M344 330l-95 -6c-6 28 -22 39 -48 39c-50 0 -71 -55 -79 -97c31 25 53 39 95 39c84 0 135 -68 135 -147c0 -106 -67 -165 -156 -165c-127 0 -166 117 -166 221c0 135 56 232 175 232c104 0 132 -73 139 -116zM258 153c0 32 -18 68 -63 68c-19 0 -63 -12 -63 -68
c0 -58 40 -73 64 -73s62 23 62 73z" />
    <glyph glyph-name="seven.denominator" horiz-adv-x="375" 
d="M338 441v-85c-60 -69 -138 -164 -138 -356h-107c2 31 4 63 10 94c25 131 94 221 125 257h-186v90h296z" />
    <glyph glyph-name="eight.denominator" horiz-adv-x="375" 
d="M283 238c42 -16 66 -55 66 -104c0 -66 -49 -141 -162 -141c-123 0 -162 81 -162 142c0 51 26 88 63 100c-38 17 -51 48 -51 85c0 74 61 129 151 129c107 0 148 -64 148 -125c0 -35 -13 -70 -53 -86zM243 318c0 18 -10 46 -53 46c-45 0 -58 -27 -58 -47
c0 -19 8 -48 54 -48s57 31 57 49zM254 137c0 20 -13 58 -69 58c-53 0 -66 -39 -66 -59s13 -59 68 -59c54 0 67 41 67 60z" />
    <glyph glyph-name="nine.denominator" horiz-adv-x="375" 
d="M29 115l94 5c2 -28 17 -43 49 -43c52 0 74 55 81 98c-22 -23 -50 -41 -92 -41c-59 0 -137 38 -137 151c0 82 51 162 153 162c113 0 168 -81 168 -209c0 -123 -39 -245 -175 -245c-109 0 -136 80 -141 122zM243 289c0 34 -18 71 -64 71c-20 0 -62 -12 -62 -73
c0 -57 40 -69 62 -69s64 13 64 71z" />
    <glyph glyph-name="period.denominator" horiz-adv-x="160" 
d="M133 104v-104h-105v104h105z" />
    <glyph glyph-name="comma.denominator" horiz-adv-x="160" 
d="M28 104h105v-99c0 -60 -50 -105 -111 -112v39c33 11 51 36 54 68h-48v104z" />
    <glyph glyph-name="hyphen.denominator" horiz-adv-x="220" 
d="M16 226h188v-80h-188v80z" />
    <glyph glyph-name="parenleft.denominator" horiz-adv-x="244" 
d="M159 486h75c-61 -93 -95 -199 -95 -307c0 -107 30 -199 92 -297h-75c-68 86 -113 199 -113 301c0 111 43 211 116 303z" />
    <glyph glyph-name="parenright.denominator" horiz-adv-x="244" 
d="M85 -118h-75c63 101 96 195 96 308c0 106 -30 200 -93 296h76c69 -87 112 -197 112 -301c0 -111 -42 -211 -116 -303z" />
    <glyph glyph-name="dollar.denominator" horiz-adv-x="371" 
d="M160 507h56v-65c67 -10 119 -36 126 -133l-87 -4c0 30 -12 48 -39 56v-98c74 -19 140 -43 140 -129c0 -82 -58 -127 -140 -135v-66h-56v66c-85 8 -147 56 -147 145h92v-9c0 -32 23 -47 55 -53v105c-60 17 -136 40 -136 128c0 81 56 120 136 127v65zM216 169v-86
c26 4 46 18 46 41c0 27 -21 38 -46 45zM160 280v84c-26 -4 -47 -17 -47 -42s20 -35 47 -42z" />
    <glyph glyph-name="cent.denominator" horiz-adv-x="358" 
d="M256 135l92 -4c-15 -76 -59 -122 -129 -133v-65h-54v65c-98 7 -143 80 -143 169c0 91 47 163 143 173v68h54v-68c68 -7 120 -57 126 -125l-93 -4c-4 21 -12 40 -33 46v-170c20 7 34 27 37 48zM165 86v170c-29 -8 -43 -45 -43 -84c0 -44 11 -78 43 -86z" />
    <glyph glyph-name="sterling.denominator" horiz-adv-x="394" 
d="M378 149v-10c0 -61 -7 -146 -108 -146c-38 0 -68 11 -95 30c-20 -18 -46 -30 -73 -30c-44 0 -85 25 -85 72c0 43 35 72 80 72c15 0 27 -1 40 -6c-2 16 -6 25 -14 38h-83v71h46c-17 26 -26 53 -26 88c0 81 73 121 153 121c98 0 155 -58 155 -153l-86 -18v6
c0 47 -18 88 -70 88c-37 0 -60 -20 -60 -52c0 -29 14 -57 32 -80h95v-71h-69c4 -14 6 -24 6 -39s-3 -24 -8 -36c11 -8 27 -19 43 -19c37 0 42 25 42 68v6h85zM132 65c-7 12 -20 19 -30 19c-13 0 -23 -6 -23 -18c0 -13 10 -20 22 -20c13 0 26 9 31 19z" />
    <glyph glyph-name="yen.denominator" horiz-adv-x="438" 
d="M329 266h58v-63h-96l-19 -38v-6h115v-66h-115v-93h-106v93h-116v66h116v7l-21 37h-95v63h61l-101 172h120l89 -172l91 172h118z" />
    <glyph glyph-name="Euro.denominator" horiz-adv-x="442" 
d="M434 401l-54 -72c-27 31 -57 44 -102 44c-32 0 -73 -9 -93 -63h155v-63h-162c-1 -11 -1 -18 -1 -23c0 -4 0 -12 1 -21h162v-66h-151c9 -42 44 -64 92 -64c35 0 72 17 95 51l60 -63c-42 -46 -88 -68 -152 -68c-124 0 -180 61 -198 144h-50v66h44v9c0 12 0 19 1 35h-45v63
h54c28 106 105 139 199 139c54 0 100 -14 145 -48z" />
    <glyph glyph-name="florin.denominator" horiz-adv-x="294" 
d="M281 446l-8 -75c-11 2 -22 3 -28 3c-35 0 -43 -14 -48 -53h65v-71h-73l-29 -245c-10 -86 -41 -113 -129 -113c-14 0 -31 2 -48 4l9 72c11 -2 22 -3 30 -3c25 0 39 10 43 46l28 239h-53v71h62c8 85 32 129 123 129c17 0 37 -2 56 -4z" />
    <glyph glyph-name="zero.superior" unicode="&#x2070;" horiz-adv-x="375" 
d="M353 650c0 -115 -30 -242 -170 -242c-131 0 -161 126 -161 233c0 112 45 223 173 223c118 0 158 -107 158 -214zM256 641c0 45 -2 135 -66 135s-69 -93 -69 -140c0 -44 1 -141 66 -141c63 0 69 103 69 146z" />
    <glyph glyph-name="one.superior" horiz-adv-x="375" 
d="M159 415v293h-101v77h16c50 0 92 10 97 72h89v-442h-101z" />
    <glyph glyph-name="two.superior" horiz-adv-x="375" 
d="M336 415h-307v80l43 37c52 45 157 114 157 189c0 29 -18 50 -49 50c-37 0 -53 -34 -53 -66c0 -7 1 -13 2 -19l-99 4v14c0 94 60 160 153 160c85 0 146 -50 146 -138c0 -99 -84 -165 -154 -221h161v-90z" />
    <glyph glyph-name="three.superior" horiz-adv-x="375" 
d="M143 605v83c9 -1 18 -1 27 -1c27 0 58 14 58 45c0 25 -20 45 -45 45c-41 0 -52 -29 -52 -65l-97 4c0 100 65 146 144 146c76 0 146 -36 146 -120c0 -38 -16 -76 -63 -87c52 -14 80 -49 80 -104c0 -97 -83 -143 -159 -143c-67 0 -125 31 -148 96c-7 20 -8 45 -9 66l97 4
c0 -41 11 -79 59 -79c33 0 58 24 58 57c0 40 -29 56 -66 56c-10 0 -20 -2 -30 -3z" />
    <glyph glyph-name="four.superior" unicode="&#x2074;" horiz-adv-x="375" 
d="M355 507h-59v-92h-96v92h-177v98l177 252h96v-265h59v-85zM115 592h85c1 48 2 129 2 129z" />
    <glyph glyph-name="five.superior" unicode="&#x2075;" horiz-adv-x="375" 
d="M83 852h254l-11 -89h-172l-15 -67c12 6 37 18 74 18c78 0 134 -52 134 -142c0 -111 -79 -164 -166 -164c-88 0 -129 51 -144 82c-8 18 -11 38 -14 57l97 4c5 -52 45 -57 59 -57c42 0 68 33 68 74c0 40 -24 67 -63 67c-19 0 -42 -6 -53 -25h-90z" />
    <glyph glyph-name="six.superior" unicode="&#x2076;" horiz-adv-x="375" 
d="M344 745l-95 -6c-6 28 -22 39 -48 39c-50 0 -71 -55 -79 -97c31 25 53 39 95 39c84 0 135 -68 135 -147c0 -106 -67 -165 -156 -165c-127 0 -166 117 -166 221c0 135 56 232 175 232c104 0 132 -73 139 -116zM258 568c0 32 -18 68 -63 68c-19 0 -63 -12 -63 -68
c0 -58 40 -73 64 -73s62 23 62 73z" />
    <glyph glyph-name="seven.superior" unicode="&#x2077;" horiz-adv-x="375" 
d="M338 856v-85c-60 -69 -138 -164 -138 -356h-107c2 31 4 63 10 94c25 131 94 221 125 257h-186v90h296z" />
    <glyph glyph-name="eight.superior" unicode="&#x2078;" horiz-adv-x="375" 
d="M283 653c42 -16 66 -55 66 -104c0 -66 -49 -141 -162 -141c-123 0 -162 81 -162 142c0 51 26 88 63 100c-38 17 -51 48 -51 85c0 74 61 129 151 129c107 0 148 -64 148 -125c0 -35 -13 -70 -53 -86zM243 733c0 18 -10 46 -53 46c-45 0 -58 -27 -58 -47
c0 -19 8 -48 54 -48s57 31 57 49zM254 552c0 20 -13 58 -69 58c-53 0 -66 -39 -66 -59s13 -59 68 -59c54 0 67 41 67 60z" />
    <glyph glyph-name="nine.superior" unicode="&#x2079;" horiz-adv-x="375" 
d="M29 530l94 5c2 -28 17 -43 49 -43c52 0 74 55 81 98c-22 -23 -50 -41 -92 -41c-59 0 -137 38 -137 151c0 82 51 162 153 162c113 0 168 -81 168 -209c0 -123 -39 -245 -175 -245c-109 0 -136 80 -141 122zM243 704c0 34 -18 71 -64 71c-20 0 -62 -12 -62 -73
c0 -57 40 -69 62 -69s64 13 64 71z" />
    <glyph glyph-name="period.superior" horiz-adv-x="160" 
d="M133 519v-104h-105v104h105z" />
    <glyph glyph-name="comma.superior" horiz-adv-x="160" 
d="M28 519h105v-99c0 -60 -50 -105 -111 -112v39c33 11 51 36 54 68h-48v104z" />
    <glyph glyph-name="hyphen.superior" horiz-adv-x="220" 
d="M16 641h188v-80h-188v80z" />
    <glyph glyph-name="parenleft.superior" unicode="&#x207d;" horiz-adv-x="244" 
d="M159 901h75c-61 -93 -95 -199 -95 -307c0 -107 30 -199 92 -297h-75c-68 86 -113 199 -113 301c0 111 43 211 116 303z" />
    <glyph glyph-name="parenright.superior" unicode="&#x207e;" horiz-adv-x="244" 
d="M85 297h-75c63 101 96 195 96 308c0 106 -30 200 -93 296h76c69 -87 112 -197 112 -301c0 -111 -42 -211 -116 -303z" />
    <glyph glyph-name="dollar.superior" horiz-adv-x="371" 
d="M160 922h56v-65c67 -10 119 -36 126 -133l-87 -4c0 30 -12 48 -39 56v-98c74 -19 140 -43 140 -129c0 -82 -58 -127 -140 -135v-66h-56v66c-85 8 -147 56 -147 145h92v-9c0 -32 23 -47 55 -53v105c-60 17 -136 40 -136 128c0 81 56 120 136 127v65zM216 584v-86
c26 4 46 18 46 41c0 27 -21 38 -46 45zM160 695v84c-26 -4 -47 -17 -47 -42s20 -35 47 -42z" />
    <glyph glyph-name="cent.superior" horiz-adv-x="358" 
d="M256 550l92 -4c-15 -76 -59 -122 -129 -133v-65h-54v65c-98 7 -143 80 -143 169c0 91 47 163 143 173v68h54v-68c68 -7 120 -57 126 -125l-93 -4c-4 21 -12 40 -33 46v-170c20 7 34 27 37 48zM165 501v170c-29 -8 -43 -45 -43 -84c0 -44 11 -78 43 -86z" />
    <glyph glyph-name="sterling.superior" horiz-adv-x="394" 
d="M378 564v-10c0 -61 -7 -146 -108 -146c-38 0 -68 11 -95 30c-20 -18 -46 -30 -73 -30c-44 0 -85 25 -85 72c0 43 35 72 80 72c15 0 27 -1 40 -6c-2 16 -6 25 -14 38h-83v71h46c-17 26 -26 53 -26 88c0 81 73 121 153 121c98 0 155 -58 155 -153l-86 -18v6
c0 47 -18 88 -70 88c-37 0 -60 -20 -60 -52c0 -29 14 -57 32 -80h95v-71h-69c4 -14 6 -24 6 -39s-3 -24 -8 -36c11 -8 27 -19 43 -19c37 0 42 25 42 68v6h85zM132 480c-7 12 -20 19 -30 19c-13 0 -23 -6 -23 -18c0 -13 10 -20 22 -20c13 0 26 9 31 19z" />
    <glyph glyph-name="yen.superior" horiz-adv-x="438" 
d="M329 681h58v-63h-96l-19 -38v-6h115v-66h-115v-93h-106v93h-116v66h116v7l-21 37h-95v63h61l-101 172h120l89 -172l91 172h118z" />
    <glyph glyph-name="Euro.superior" horiz-adv-x="442" 
d="M434 816l-54 -72c-27 31 -57 44 -102 44c-32 0 -73 -9 -93 -63h155v-63h-162c-1 -11 -1 -18 -1 -23c0 -4 0 -12 1 -21h162v-66h-151c9 -42 44 -64 92 -64c35 0 72 17 95 51l60 -63c-42 -46 -88 -68 -152 -68c-124 0 -180 61 -198 144h-50v66h44v9c0 12 0 19 1 35h-45v63
h54c28 106 105 139 199 139c54 0 100 -14 145 -48z" />
    <glyph glyph-name="florin.superior" horiz-adv-x="294" 
d="M281 861l-8 -75c-11 2 -22 3 -28 3c-35 0 -43 -14 -48 -53h65v-71h-73l-29 -245c-10 -86 -41 -113 -129 -113c-14 0 -31 2 -48 4l9 72c11 -2 22 -3 30 -3c25 0 39 10 43 46l28 239h-53v71h62c8 85 32 129 123 129c17 0 37 -2 56 -4z" />
    <glyph glyph-name="zero.inferior" unicode="&#x2080;" horiz-adv-x="375" 
d="M353 85c0 -115 -30 -242 -170 -242c-131 0 -161 126 -161 233c0 112 45 223 173 223c118 0 158 -107 158 -214zM256 76c0 45 -2 135 -66 135s-69 -93 -69 -140c0 -44 1 -141 66 -141c63 0 69 103 69 146z" />
    <glyph glyph-name="one.inferior" unicode="&#x2081;" horiz-adv-x="375" 
d="M159 -150v293h-101v77h16c50 0 92 10 97 72h89v-442h-101z" />
    <glyph glyph-name="two.inferior" unicode="&#x2082;" horiz-adv-x="375" 
d="M336 -150h-307v80l43 37c52 45 157 114 157 189c0 29 -18 50 -49 50c-37 0 -53 -34 -53 -66c0 -7 1 -13 2 -19l-99 4v14c0 94 60 160 153 160c85 0 146 -50 146 -138c0 -99 -84 -165 -154 -221h161v-90z" />
    <glyph glyph-name="three.inferior" unicode="&#x2083;" horiz-adv-x="375" 
d="M143 40v83c9 -1 18 -1 27 -1c27 0 58 14 58 45c0 25 -20 45 -45 45c-41 0 -52 -29 -52 -65l-97 4c0 100 65 146 144 146c76 0 146 -36 146 -120c0 -38 -16 -76 -63 -87c52 -14 80 -49 80 -104c0 -97 -83 -143 -159 -143c-67 0 -125 31 -148 96c-7 20 -8 45 -9 66l97 4
c0 -41 11 -79 59 -79c33 0 58 24 58 57c0 40 -29 56 -66 56c-10 0 -20 -2 -30 -3z" />
    <glyph glyph-name="four.inferior" unicode="&#x2084;" horiz-adv-x="375" 
d="M355 -58h-59v-92h-96v92h-177v98l177 252h96v-265h59v-85zM115 27h85c1 48 2 129 2 129z" />
    <glyph glyph-name="five.inferior" unicode="&#x2085;" horiz-adv-x="375" 
d="M83 287h254l-11 -89h-172l-15 -67c12 6 37 18 74 18c78 0 134 -52 134 -142c0 -111 -79 -164 -166 -164c-88 0 -129 51 -144 82c-8 18 -11 38 -14 57l97 4c5 -52 45 -57 59 -57c42 0 68 33 68 74c0 40 -24 67 -63 67c-19 0 -42 -6 -53 -25h-90z" />
    <glyph glyph-name="six.inferior" unicode="&#x2086;" horiz-adv-x="375" 
d="M344 180l-95 -6c-6 28 -22 39 -48 39c-50 0 -71 -55 -79 -97c31 25 53 39 95 39c84 0 135 -68 135 -147c0 -106 -67 -165 -156 -165c-127 0 -166 117 -166 221c0 135 56 232 175 232c104 0 132 -73 139 -116zM258 3c0 32 -18 68 -63 68c-19 0 -63 -12 -63 -68
c0 -58 40 -73 64 -73s62 23 62 73z" />
    <glyph glyph-name="seven.inferior" unicode="&#x2087;" horiz-adv-x="375" 
d="M338 291v-85c-60 -69 -138 -164 -138 -356h-107c2 31 4 63 10 94c25 131 94 221 125 257h-186v90h296z" />
    <glyph glyph-name="eight.inferior" unicode="&#x2088;" horiz-adv-x="375" 
d="M283 88c42 -16 66 -55 66 -104c0 -66 -49 -141 -162 -141c-123 0 -162 81 -162 142c0 51 26 88 63 100c-38 17 -51 48 -51 85c0 74 61 129 151 129c107 0 148 -64 148 -125c0 -35 -13 -70 -53 -86zM243 168c0 18 -10 46 -53 46c-45 0 -58 -27 -58 -47c0 -19 8 -48 54 -48
s57 31 57 49zM254 -13c0 20 -13 58 -69 58c-53 0 -66 -39 -66 -59s13 -59 68 -59c54 0 67 41 67 60z" />
    <glyph glyph-name="nine.inferior" unicode="&#x2089;" horiz-adv-x="375" 
d="M29 -35l94 5c2 -28 17 -43 49 -43c52 0 74 55 81 98c-22 -23 -50 -41 -92 -41c-59 0 -137 38 -137 151c0 82 51 162 153 162c113 0 168 -81 168 -209c0 -123 -39 -245 -175 -245c-109 0 -136 80 -141 122zM243 139c0 34 -18 71 -64 71c-20 0 -62 -12 -62 -73
c0 -57 40 -69 62 -69s64 13 64 71z" />
    <glyph glyph-name="period.inferior" horiz-adv-x="160" 
d="M133 -46v-104h-105v104h105z" />
    <glyph glyph-name="comma.inferior" horiz-adv-x="160" 
d="M28 -46h105v-99c0 -60 -50 -105 -111 -112v39c33 11 51 36 54 68h-48v104z" />
    <glyph glyph-name="hyphen.inferior" horiz-adv-x="220" 
d="M16 76h188v-80h-188v80z" />
    <glyph glyph-name="parenleft.inferior" unicode="&#x208d;" horiz-adv-x="244" 
d="M159 336h75c-61 -93 -95 -199 -95 -307c0 -107 30 -199 92 -297h-75c-68 86 -113 199 -113 301c0 111 43 211 116 303z" />
    <glyph glyph-name="parenright.inferior" unicode="&#x208e;" horiz-adv-x="244" 
d="M85 -268h-75c63 101 96 195 96 308c0 106 -30 200 -93 296h76c69 -87 112 -197 112 -301c0 -111 -42 -211 -116 -303z" />
    <glyph glyph-name="dollar.inferior" horiz-adv-x="371" 
d="M160 357h56v-65c67 -10 119 -36 126 -133l-87 -4c0 30 -12 48 -39 56v-98c74 -19 140 -43 140 -129c0 -82 -58 -127 -140 -135v-66h-56v66c-85 8 -147 56 -147 145h92v-9c0 -32 23 -47 55 -53v105c-60 17 -136 40 -136 128c0 81 56 120 136 127v65zM216 19v-86
c26 4 46 18 46 41c0 27 -21 38 -46 45zM160 130v84c-26 -4 -47 -17 -47 -42s20 -35 47 -42z" />
    <glyph glyph-name="cent.inferior" horiz-adv-x="358" 
d="M256 -15l92 -4c-15 -76 -59 -122 -129 -133v-65h-54v65c-98 7 -143 80 -143 169c0 91 47 163 143 173v68h54v-68c68 -7 120 -57 126 -125l-93 -4c-4 21 -12 40 -33 46v-170c20 7 34 27 37 48zM165 -64v170c-29 -8 -43 -45 -43 -84c0 -44 11 -78 43 -86z" />
    <glyph glyph-name="sterling.inferior" horiz-adv-x="394" 
d="M378 -1v-10c0 -61 -7 -146 -108 -146c-38 0 -68 11 -95 30c-20 -18 -46 -30 -73 -30c-44 0 -85 25 -85 72c0 43 35 72 80 72c15 0 27 -1 40 -6c-2 16 -6 25 -14 38h-83v71h46c-17 26 -26 53 -26 88c0 81 73 121 153 121c98 0 155 -58 155 -153l-86 -18v6
c0 47 -18 88 -70 88c-37 0 -60 -20 -60 -52c0 -29 14 -57 32 -80h95v-71h-69c4 -14 6 -24 6 -39s-3 -24 -8 -36c11 -8 27 -19 43 -19c37 0 42 25 42 68v6h85zM132 -85c-7 12 -20 19 -30 19c-13 0 -23 -6 -23 -18c0 -13 10 -20 22 -20c13 0 26 9 31 19z" />
    <glyph glyph-name="yen.inferior" horiz-adv-x="438" 
d="M329 116h58v-63h-96l-19 -38v-6h115v-66h-115v-93h-106v93h-116v66h116v7l-21 37h-95v63h61l-101 172h120l89 -172l91 172h118z" />
    <glyph glyph-name="Euro.inferior" horiz-adv-x="442" 
d="M434 251l-54 -72c-27 31 -57 44 -102 44c-32 0 -73 -9 -93 -63h155v-63h-162c-1 -11 -1 -18 -1 -23c0 -4 0 -12 1 -21h162v-66h-151c9 -42 44 -64 92 -64c35 0 72 17 95 51l60 -63c-42 -46 -88 -68 -152 -68c-124 0 -180 61 -198 144h-50v66h44v9c0 12 0 19 1 35h-45v63
h54c28 106 105 139 199 139c54 0 100 -14 145 -48z" />
    <glyph glyph-name="florin.inferior" horiz-adv-x="294" 
d="M281 296l-8 -75c-11 2 -22 3 -28 3c-35 0 -43 -14 -48 -53h65v-71h-73l-29 -245c-10 -86 -41 -113 -129 -113c-14 0 -31 2 -48 4l9 72c11 -2 22 -3 30 -3c25 0 39 10 43 46l28 239h-53v71h62c8 85 32 129 123 129c17 0 37 -2 56 -4z" />
    <glyph glyph-name="Eth.sc" horiz-adv-x="570" 
d="M52 229h-52v90h52v210h216c47 0 88 -4 132 -21c104 -41 145 -135 145 -241c0 -90 -34 -181 -113 -230c-55 -34 -125 -37 -188 -37h-192v229zM206 319h104v-90h-104v-111h40c28 0 61 2 86 14c46 23 57 83 57 129c0 67 -15 118 -66 139c-18 7 -39 11 -66 11h-51v-92z" />
    <glyph glyph-name="Lslash.sc" horiz-adv-x="453" 
d="M206 393l105 93v-115l-105 -93v-161h234v-117h-388v143l-44 -40v116l44 39v271h154v-136z" />
    <glyph glyph-name="Scaron.sc" horiz-adv-x="523" 
d="M495 380l-141 -11c-8 47 -47 64 -100 64c-49 0 -71 -18 -71 -46c0 -27 29 -38 66 -45l89 -17c81 -15 168 -56 168 -162c0 -136 -128 -176 -239 -176c-128 0 -245 40 -254 186l143 9c9 -58 45 -82 108 -82c66 0 92 19 92 47c0 30 -21 43 -58 51l-98 22
c-85 19 -166 51 -166 153c0 128 127 169 226 169c110 0 221 -33 235 -162zM109 736h111l49 -83l51 83h113l-95 -147h-141z" />
    <glyph glyph-name="Yacute.sc" horiz-adv-x="523" 
d="M168 529l91 -193l94 193h168l-189 -332v-197h-153v200l-177 329h166zM304 589h-99l45 147h165z" />
    <glyph glyph-name="Thorn.sc" horiz-adv-x="520" 
d="M53 529h152v-80h69c137 0 226 -52 226 -175c0 -149 -115 -176 -211 -176h-84v-98h-152v529zM205 333v-120h69c48 0 80 12 80 60c0 45 -28 60 -74 60h-75z" />
    <glyph glyph-name="Zcaron.sc" horiz-adv-x="514" 
d="M44 529h447v-110l-274 -304h273v-115h-471v102l278 309h-253v118zM113 736h111l49 -83l51 83h113l-95 -147h-141z" />
    <glyph glyph-name="A.sc" horiz-adv-x="565" 
d="M198 529h172l195 -529h-159l-32 98h-184l-31 -98h-158zM282 395l-58 -183h116z" />
    <glyph glyph-name="B.sc" horiz-adv-x="558" 
d="M52 529h223c66 0 127 -3 179 -26c38 -17 70 -52 70 -109c0 -63 -38 -100 -105 -114c83 -18 119 -65 119 -132c0 -100 -75 -148 -208 -148h-278v529zM206 411v-89h94c37 0 72 3 72 45s-33 44 -67 44h-99zM206 214v-98h120c30 0 60 9 60 49c0 41 -34 49 -69 49h-111z" />
    <glyph glyph-name="C.sc" horiz-adv-x="581" 
d="M560 361l-160 -9c-10 48 -41 75 -94 75c-100 0 -123 -82 -123 -165c0 -72 28 -159 122 -159c62 0 93 36 102 91l157 -10c-15 -145 -124 -197 -261 -197c-182 0 -278 102 -278 277c0 174 94 279 275 279c125 0 243 -50 260 -182z" />
    <glyph glyph-name="D.sc" horiz-adv-x="570" 
d="M52 529h216c47 0 94 -5 138 -23c100 -41 139 -129 139 -239c0 -115 -52 -218 -158 -251c-45 -14 -96 -16 -143 -16h-192v529zM206 411v-293h40c25 0 56 3 79 12c53 21 64 75 64 131c0 60 -13 107 -51 131c-18 13 -46 19 -81 19h-51z" />
    <glyph glyph-name="E.sc" horiz-adv-x="513" 
d="M52 529h425v-116h-273v-82h242v-112h-242v-102h278v-117h-430v529z" />
    <glyph glyph-name="F.sc" horiz-adv-x="499" 
d="M478 529v-116h-274v-88h245v-114h-245v-211h-152v529h426z" />
    <glyph glyph-name="G.sc" horiz-adv-x="599" 
d="M555 0h-106l-5 46c-44 -42 -95 -59 -159 -59c-167 0 -260 121 -260 273c0 173 109 282 289 282c106 0 212 -44 241 -156l-157 -10c-14 32 -52 46 -88 46c-95 0 -133 -75 -133 -156c0 -77 38 -158 129 -158c75 0 109 34 109 83h-126v115h266v-306z" />
    <glyph glyph-name="H.sc" horiz-adv-x="582" 
d="M52 529h152v-194h173v194h153v-529h-153v218h-173v-218h-152v529z" />
    <glyph glyph-name="I.sc" horiz-adv-x="256" 
d="M204 529v-529h-152v529h152z" />
    <glyph glyph-name="J.sc" horiz-adv-x="450" 
d="M399 529v-366c0 -126 -75 -176 -206 -176c-127 0 -185 67 -185 191v24h146v-38c0 -33 9 -63 46 -63c36 0 47 23 47 60v368h152z" />
    <glyph glyph-name="K.sc" horiz-adv-x="567" 
d="M206 529v-175l160 175h186l-207 -218l231 -311h-184l-154 218l-32 -31v-187h-154v529h154z" />
    <glyph glyph-name="L.sc" horiz-adv-x="453" 
d="M206 529v-412h234v-117h-388v529h154z" />
    <glyph glyph-name="M.sc" horiz-adv-x="743" 
d="M472 529h219v-529h-145c0 244 1 287 4 385l-109 -385h-137l-110 385c2 -99 3 -145 4 -385h-146v529h223l100 -368z" />
    <glyph glyph-name="N.sc" horiz-adv-x="582" 
d="M385 529h145v-529h-140l-198 300c3 -59 5 -210 5 -300h-145v530h138l200 -301c-3 100 -5 213 -5 300z" />
    <glyph glyph-name="O.sc" horiz-adv-x="621" 
d="M25 263c0 189 130 279 288 279c185 0 283 -113 283 -286c0 -168 -111 -269 -285 -269c-173 0 -286 109 -286 276zM443 262c0 86 -40 159 -130 159c-99 0 -133 -76 -133 -157c0 -79 34 -155 130 -155c93 0 133 69 133 153z" />
    <glyph glyph-name="P.sc" horiz-adv-x="520" 
d="M52 529h223c51 0 110 -3 156 -31c40 -25 68 -74 68 -143c0 -142 -109 -176 -204 -176h-91v-179h-152v529zM204 414v-120h76c42 0 73 17 73 60c0 45 -30 60 -72 60h-77z" />
    <glyph glyph-name="Q.sc" horiz-adv-x="621" 
d="M592 33l-70 -71l-65 59c-36 -19 -82 -34 -141 -34c-181 0 -291 102 -291 279c0 174 116 276 293 276c159 0 278 -98 278 -287c0 -69 -28 -136 -63 -174zM311 154l68 73l47 -43c8 15 17 44 17 81c0 78 -38 155 -132 155c-98 0 -132 -79 -132 -158c0 -71 36 -156 131 -156
c17 0 35 6 42 12z" />
    <glyph glyph-name="R.sc" horiz-adv-x="560" 
d="M52 529h216c60 0 116 -1 161 -16c52 -17 86 -56 86 -126c0 -69 -35 -109 -100 -129c67 -17 85 -44 96 -112c8 -48 11 -103 37 -146h-162c-9 19 -16 44 -21 72c-16 87 -21 117 -105 117h-54v-189h-154v529zM206 414v-110h73c44 0 87 6 87 57c0 44 -35 53 -78 53h-82z" />
    <glyph glyph-name="S.sc" horiz-adv-x="523" 
d="M495 380l-141 -11c-8 47 -47 64 -100 64c-49 0 -71 -18 -71 -46c0 -27 29 -38 66 -45l89 -17c81 -15 168 -56 168 -162c0 -136 -128 -176 -239 -176c-128 0 -245 40 -254 186l143 9c9 -58 45 -82 108 -82c66 0 92 19 92 47c0 30 -21 43 -58 51l-98 22
c-85 19 -166 51 -166 153c0 128 127 169 226 169c110 0 221 -33 235 -162z" />
    <glyph glyph-name="T.sc" horiz-adv-x="493" 
d="M18 529h457v-117h-154v-412h-153v412h-150v117z" />
    <glyph glyph-name="U.sc" horiz-adv-x="582" 
d="M206 529v-341c0 -52 24 -83 86 -83c68 0 85 35 85 81v343h154v-328c0 -157 -98 -214 -233 -214c-127 0 -247 39 -247 212v330h155z" />
    <glyph glyph-name="V.sc" horiz-adv-x="533" 
d="M0 529h162l104 -338l105 338h162l-198 -529h-141z" />
    <glyph glyph-name="W.sc" horiz-adv-x="745" 
d="M306 529h135l76 -310l73 310h155l-147 -529h-140l-84 328l-82 -328h-143l-149 529h154l76 -320z" />
    <glyph glyph-name="X.sc" horiz-adv-x="537" 
d="M188 529l81 -131l81 131h171l-168 -244l181 -285h-172l-94 160l-98 -160h-169l183 285l-169 244h173z" />
    <glyph glyph-name="Y.sc" horiz-adv-x="523" 
d="M168 529l91 -193l94 193h168l-189 -332v-197h-153v200l-177 329h166z" />
    <glyph glyph-name="Z.sc" horiz-adv-x="514" 
d="M44 529h447v-110l-274 -304h273v-115h-471v102l278 309h-253v118z" />
    <glyph glyph-name="Aacute.sc" horiz-adv-x="565" 
d="M198 529h172l195 -529h-159l-32 98h-184l-31 -98h-158zM282 395l-58 -183h116zM322 589h-99l45 147h165z" />
    <glyph glyph-name="Agrave.sc" horiz-adv-x="565" 
d="M198 529h172l195 -529h-159l-32 98h-184l-31 -98h-158zM282 395l-58 -183h116zM345 589h-98l-122 147h171z" />
    <glyph glyph-name="Acircumflex.sc" horiz-adv-x="565" 
d="M198 529h172l195 -529h-159l-32 98h-184l-31 -98h-158zM282 395l-58 -183h116zM442 589h-112l-49 81l-51 -81h-112l95 147h141z" />
    <glyph glyph-name="Adieresis.sc" horiz-adv-x="565" 
d="M198 529h172l195 -529h-159l-32 98h-184l-31 -98h-158zM282 395l-58 -183h116zM460 718v-129h-137v129h137zM241 718v-129h-138v129h138z" />
    <glyph glyph-name="Atilde.sc" horiz-adv-x="565" 
d="M198 529h172l195 -529h-159l-32 98h-184l-31 -98h-158zM282 395l-58 -183h116zM434 736v-35c0 -49 -3 -114 -67 -114c-49 0 -109 45 -140 45c-23 0 -25 -26 -25 -43h-71v48c0 47 22 101 77 101c47 0 100 -42 131 -42c21 0 26 23 27 40h68z" />
    <glyph glyph-name="Aring.sc" horiz-adv-x="565" 
d="M198 529h172l195 -529h-159l-32 98h-184l-31 -98h-158zM282 395l-58 -183h116zM385 662c0 -57 -43 -96 -98 -96s-97 42 -97 97c0 56 44 95 99 95c54 0 96 -42 96 -96zM325 663c0 24 -18 38 -38 38c-22 0 -37 -18 -37 -39s15 -38 37 -38c23 0 38 17 38 39z" />
    <glyph glyph-name="Ccedilla.sc" horiz-adv-x="581" 
d="M560 361l-160 -9c-10 48 -41 75 -94 75c-100 0 -123 -82 -123 -165c0 -72 28 -159 122 -159c62 0 93 36 102 91l157 -10c-14 -137 -111 -190 -237 -196l-20 -38c3 0 17 0 24 -1c47 -4 83 -36 83 -86c0 -60 -49 -100 -116 -100c-39 0 -75 8 -100 31l36 51
c18 -19 39 -24 60 -24c27 0 44 17 44 40c0 25 -17 40 -47 40c-15 0 -27 -3 -43 -12l-21 27l42 72c-160 12 -244 112 -244 276c0 174 94 279 275 279c125 0 243 -50 260 -182z" />
    <glyph glyph-name="Eacute.sc" horiz-adv-x="513" 
d="M52 529h425v-116h-273v-82h242v-112h-242v-102h278v-117h-430v529zM292 589h-99l45 147h165z" />
    <glyph glyph-name="Egrave.sc" horiz-adv-x="513" 
d="M52 529h425v-116h-273v-82h242v-112h-242v-102h278v-117h-430v529zM330 589h-98l-122 147h171z" />
    <glyph glyph-name="Ecircumflex.sc" horiz-adv-x="513" 
d="M52 529h425v-116h-273v-82h242v-112h-242v-102h278v-117h-430v529zM425 589h-112l-49 81l-51 -81h-112l95 147h141z" />
    <glyph glyph-name="Edieresis.sc" horiz-adv-x="513" 
d="M52 529h425v-116h-273v-82h242v-112h-242v-102h278v-117h-430v529zM445 718v-129h-137v129h137zM226 718v-129h-138v129h138z" />
    <glyph glyph-name="Iacute.sc" horiz-adv-x="256" 
d="M204 529v-529h-152v529h152zM166 589h-99l45 147h165z" />
    <glyph glyph-name="Igrave.sc" horiz-adv-x="256" 
d="M204 529v-529h-152v529h152zM197 589h-98l-122 147h171z" />
    <glyph glyph-name="Icircumflex.sc" horiz-adv-x="256" 
d="M204 529v-529h-152v529h152zM296 589h-112l-49 81l-51 -81h-112l95 147h141z" />
    <glyph glyph-name="Idieresis.sc" horiz-adv-x="256" 
d="M204 529v-529h-152v529h152zM314 718v-129h-137v129h137zM95 718v-129h-138v129h138z" />
    <glyph glyph-name="Ntilde.sc" horiz-adv-x="582" 
d="M385 529h145v-529h-140l-198 300c3 -59 5 -210 5 -300h-145v530h138l200 -301c-3 100 -5 213 -5 300zM442 736v-35c0 -49 -3 -114 -67 -114c-49 0 -109 45 -140 45c-23 0 -25 -26 -25 -43h-71v48c0 47 22 101 77 101c47 0 100 -42 131 -42c21 0 26 23 27 40h68z" />
    <glyph glyph-name="Oacute.sc" horiz-adv-x="621" 
d="M25 263c0 189 130 279 288 279c185 0 283 -113 283 -286c0 -168 -111 -269 -285 -269c-173 0 -286 109 -286 276zM443 262c0 86 -40 159 -130 159c-99 0 -133 -76 -133 -157c0 -79 34 -155 130 -155c93 0 133 69 133 153zM348 589h-99l45 147h165z" />
    <glyph glyph-name="Ograve.sc" horiz-adv-x="621" 
d="M25 263c0 189 130 279 288 279c185 0 283 -113 283 -286c0 -168 -111 -269 -285 -269c-173 0 -286 109 -286 276zM443 262c0 86 -40 159 -130 159c-99 0 -133 -76 -133 -157c0 -79 34 -155 130 -155c93 0 133 69 133 153zM368 589h-98l-122 147h171z" />
    <glyph glyph-name="Ocircumflex.sc" horiz-adv-x="621" 
d="M25 263c0 189 130 279 288 279c185 0 283 -113 283 -286c0 -168 -111 -269 -285 -269c-173 0 -286 109 -286 276zM443 262c0 86 -40 159 -130 159c-99 0 -133 -76 -133 -157c0 -79 34 -155 130 -155c93 0 133 69 133 153zM485 589h-112l-49 81l-51 -81h-112l95 147h141z
" />
    <glyph glyph-name="Odieresis.sc" horiz-adv-x="621" 
d="M25 263c0 189 130 279 288 279c185 0 283 -113 283 -286c0 -168 -111 -269 -285 -269c-173 0 -286 109 -286 276zM443 262c0 86 -40 159 -130 159c-99 0 -133 -76 -133 -157c0 -79 34 -155 130 -155c93 0 133 69 133 153zM496 718v-129h-137v129h137zM277 718v-129h-138
v129h138z" />
    <glyph glyph-name="Otilde.sc" horiz-adv-x="621" 
d="M25 263c0 189 130 279 288 279c185 0 283 -113 283 -286c0 -168 -111 -269 -285 -269c-173 0 -286 109 -286 276zM443 262c0 86 -40 159 -130 159c-99 0 -133 -76 -133 -157c0 -79 34 -155 130 -155c93 0 133 69 133 153zM477 736v-35c0 -49 -3 -114 -67 -114
c-49 0 -109 45 -140 45c-23 0 -25 -26 -25 -43h-71v48c0 47 22 101 77 101c47 0 100 -42 131 -42c21 0 26 23 27 40h68z" />
    <glyph glyph-name="Uacute.sc" horiz-adv-x="582" 
d="M206 529v-341c0 -52 24 -83 86 -83c68 0 85 35 85 81v343h154v-328c0 -157 -98 -214 -233 -214c-127 0 -247 39 -247 212v330h155zM321 589h-99l45 147h165z" />
    <glyph glyph-name="Ugrave.sc" horiz-adv-x="582" 
d="M206 529v-341c0 -52 24 -83 86 -83c68 0 85 35 85 81v343h154v-328c0 -157 -98 -214 -233 -214c-127 0 -247 39 -247 212v330h155zM358 589h-98l-122 147h171z" />
    <glyph glyph-name="Ucircumflex.sc" horiz-adv-x="582" 
d="M206 529v-341c0 -52 24 -83 86 -83c68 0 85 35 85 81v343h154v-328c0 -157 -98 -214 -233 -214c-127 0 -247 39 -247 212v330h155zM454 589h-112l-49 81l-51 -81h-112l95 147h141z" />
    <glyph glyph-name="Udieresis.sc" horiz-adv-x="582" 
d="M206 529v-341c0 -52 24 -83 86 -83c68 0 85 35 85 81v343h154v-328c0 -157 -98 -214 -233 -214c-127 0 -247 39 -247 212v330h155zM473 718v-129h-137v129h137zM254 718v-129h-138v129h138z" />
    <glyph glyph-name="AE.sc" horiz-adv-x="768" 
d="M229 529h503v-117h-250v-80h220v-112h-220v-103h255v-117h-402v96h-133l-43 -96h-172zM334 418l-88 -208h88v208z" />
    <glyph glyph-name="Oslash.sc" horiz-adv-x="621" 
d="M579 513l-51 -54c45 -50 68 -119 68 -203c0 -168 -111 -269 -285 -269c-71 0 -131 18 -178 50l-51 -54l-43 38l51 55c-42 47 -65 111 -65 187c0 189 130 279 288 279c70 0 127 -16 172 -46l51 55zM447 262c0 33 -6 65 -19 91l-204 -219c20 -18 49 -28 86 -28
c96 0 137 70 137 156zM176 264c0 -29 4 -57 14 -82l203 217c-20 16 -47 26 -80 26c-102 0 -137 -78 -137 -161z" />
    <glyph glyph-name="OE.sc" horiz-adv-x="871" 
d="M565 417v-88h241v-112h-241v-101h275v-116h-419v48c-33 -40 -88 -60 -140 -60c-169 0 -256 113 -256 268c0 136 75 285 257 285c50 0 108 -16 139 -60v48h418v-112h-274zM178 263c0 -91 36 -161 126 -161c92 0 117 70 117 165c0 93 -36 156 -113 156
c-95 0 -130 -72 -130 -160z" />
    <glyph glyph-name="Ydieresis.sc" horiz-adv-x="523" 
d="M168 529l91 -193l94 193h168l-189 -332v-197h-153v200l-177 329h166zM442 718v-129h-137v129h137zM223 718v-129h-138v129h138z" />
    <glyph glyph-name="zero.fitted" 
d="M536 353c0 -204 -72 -365 -260 -365c-208 0 -250 206 -250 365c0 157 49 346 267 346c200 0 243 -201 243 -346zM399 352c0 76 -10 228 -115 228c-108 0 -121 -141 -121 -231c0 -77 9 -240 116 -240c115 0 120 162 120 243z" />
    <glyph glyph-name="one.fitted" horiz-adv-x="417" 
d="M311 688v-688h-142v467h-162v105h16c70 0 153 14 164 116h124z" />
    <glyph glyph-name="two.fitted" 
d="M517 0h-473v115l65 56c86 74 256 184 256 308c0 52 -35 90 -88 90c-67 0 -93 -56 -93 -116c0 -6 0 -13 1 -19l-141 5v9c0 146 91 251 241 251c129 0 220 -78 220 -210c0 -166 -150 -266 -262 -364h274v-125z" />
    <glyph glyph-name="three.fitted" 
d="M36 238l135 6v-20c0 -66 38 -118 107 -118c59 0 103 45 103 104c0 65 -45 98 -108 98c-15 0 -31 -1 -46 -4v118c13 -2 25 -3 38 -3c50 0 98 27 98 82c0 50 -40 82 -88 82c-60 0 -90 -50 -90 -105v-14l-133 7c0 148 85 228 229 228c115 0 217 -60 217 -185
c0 -65 -29 -116 -89 -143c80 -23 118 -84 118 -158c0 -141 -114 -225 -248 -225c-144 0 -243 83 -243 231v19z" />
    <glyph glyph-name="four.fitted" horiz-adv-x="522" 
d="M514 147h-94v-147h-134v147h-285v144l279 397h140v-424h94v-117zM122 264h164c2 121 3 247 3 247z" />
    <glyph glyph-name="five.fitted" 
d="M115 688h389l-12 -127h-277l-27 -125c36 25 78 37 122 37c134 0 216 -106 216 -234c0 -138 -93 -251 -257 -251h-4c-137 0 -228 78 -244 216l141 7c4 -65 41 -103 106 -103c74 0 117 62 117 131c0 67 -47 115 -114 115c-37 0 -71 -17 -93 -47h-129z" />
    <glyph glyph-name="six.fitted" 
d="M519 518l-133 -8c-7 50 -32 74 -85 74c-104 0 -123 -103 -136 -184c42 52 88 75 156 75c134 0 211 -108 211 -234c0 -146 -91 -253 -241 -253c-204 0 -257 172 -257 347c0 179 62 364 273 364c114 0 198 -66 212 -181zM400 234c0 69 -38 120 -110 120
c-69 0 -112 -50 -112 -118c0 -66 38 -129 111 -129c71 0 111 60 111 127z" />
    <glyph glyph-name="seven.fitted" horiz-adv-x="492" 
d="M9 688h457v-128c-48 -36 -79 -90 -107 -141c-66 -121 -110 -257 -110 -397v-22h-153c7 214 92 395 218 560h-305v128z" />
    <glyph glyph-name="eight.fitted" 
d="M435 368c67 -26 96 -95 96 -163c0 -29 -7 -59 -18 -85c-41 -97 -134 -132 -233 -132c-118 0 -250 55 -250 214c0 68 31 138 97 166c-52 28 -76 81 -76 137c0 129 118 194 234 194c117 0 227 -61 227 -191c0 -60 -22 -111 -77 -140zM381 501c0 54 -45 84 -95 84
c-54 0 -104 -28 -104 -88c0 -56 43 -86 96 -86c58 0 103 25 103 90zM396 209c0 68 -50 103 -113 103c-68 0 -120 -35 -120 -106c0 -67 54 -102 116 -102c65 0 117 36 117 105z" />
    <glyph glyph-name="nine.fitted" 
d="M43 170l133 8c4 -50 33 -75 82 -75c104 0 132 98 138 184c-32 -52 -93 -74 -152 -74c-136 0 -214 103 -214 233c0 144 95 253 243 253c216 0 256 -198 256 -343c0 -184 -59 -368 -274 -368c-117 0 -196 63 -212 182zM385 450c0 69 -41 129 -114 129
c-76 0 -108 -65 -108 -132s41 -116 110 -116s112 53 112 119z" />
    <glyph glyph-name="zero.tab" 
d="M536 353c0 -204 -72 -365 -260 -365c-208 0 -250 206 -250 365c0 157 49 346 267 346c200 0 243 -201 243 -346zM399 352c0 76 -10 228 -115 228c-108 0 -121 -141 -121 -231c0 -77 9 -240 116 -240c115 0 120 162 120 243z" />
    <glyph glyph-name="one.tab" 
d="M380 688v-688h-142v467h-162v105h16c70 0 153 14 164 116h124z" />
    <glyph glyph-name="two.tab" 
d="M517 0h-473v115l65 56c86 74 256 184 256 308c0 52 -35 90 -88 90c-67 0 -93 -56 -93 -116c0 -6 0 -13 1 -19l-141 5v9c0 146 91 251 241 251c129 0 220 -78 220 -210c0 -166 -150 -266 -262 -364h274v-125z" />
    <glyph glyph-name="three.tab" 
d="M36 238l135 6v-20c0 -66 38 -118 107 -118c59 0 103 45 103 104c0 65 -45 98 -108 98c-15 0 -31 -1 -46 -4v118c13 -2 25 -3 38 -3c50 0 98 27 98 82c0 50 -40 82 -88 82c-60 0 -90 -50 -90 -105v-14l-133 7c0 148 85 228 229 228c115 0 217 -60 217 -185
c0 -65 -29 -116 -89 -143c80 -23 118 -84 118 -158c0 -141 -114 -225 -248 -225c-144 0 -243 83 -243 231v19z" />
    <glyph glyph-name="four.tab" 
d="M534 147h-94v-147h-134v147h-285v144l279 397h140v-424h94v-117zM142 264h164c2 121 3 247 3 247z" />
    <glyph glyph-name="five.tab" 
d="M115 688h389l-12 -127h-277l-27 -125c36 25 78 37 122 37c134 0 216 -106 216 -234c0 -138 -93 -251 -257 -251h-4c-137 0 -228 78 -244 216l141 7c4 -65 41 -103 106 -103c74 0 117 62 117 131c0 67 -47 115 -114 115c-37 0 -71 -17 -93 -47h-129z" />
    <glyph glyph-name="six.tab" 
d="M519 518l-133 -8c-7 50 -32 74 -85 74c-104 0 -123 -103 -136 -184c42 52 88 75 156 75c134 0 211 -108 211 -234c0 -146 -91 -253 -241 -253c-204 0 -257 172 -257 347c0 179 62 364 273 364c114 0 198 -66 212 -181zM400 234c0 69 -38 120 -110 120
c-69 0 -112 -50 -112 -118c0 -66 38 -129 111 -129c71 0 111 60 111 127z" />
    <glyph glyph-name="seven.tab" 
d="M49 688h457v-128c-48 -36 -79 -90 -107 -141c-66 -121 -110 -257 -110 -397v-22h-153c7 214 92 395 218 560h-305v128z" />
    <glyph glyph-name="eight.tab" 
d="M435 368c67 -26 96 -95 96 -163c0 -29 -7 -59 -18 -85c-41 -97 -134 -132 -233 -132c-118 0 -250 55 -250 214c0 68 31 138 97 166c-52 28 -76 81 -76 137c0 129 118 194 234 194c117 0 227 -61 227 -191c0 -60 -22 -111 -77 -140zM381 501c0 54 -45 84 -95 84
c-54 0 -104 -28 -104 -88c0 -56 43 -86 96 -86c58 0 103 25 103 90zM396 209c0 68 -50 103 -113 103c-68 0 -120 -35 -120 -106c0 -67 54 -102 116 -102c65 0 117 36 117 105z" />
    <glyph glyph-name="nine.tab" 
d="M43 170l133 8c4 -50 33 -75 82 -75c104 0 132 98 138 184c-32 -52 -93 -74 -152 -74c-136 0 -214 103 -214 233c0 144 95 253 243 253c216 0 256 -198 256 -343c0 -184 -59 -368 -274 -368c-117 0 -196 63 -212 182zM385 450c0 69 -41 129 -114 129
c-76 0 -108 -65 -108 -132s41 -116 110 -116s112 53 112 119z" />
    <glyph glyph-name="zero.taboldstyle" horiz-adv-x="545" 
d="M517 274c0 -173 -77 -280 -244 -280c-158 0 -244 106 -244 273c0 157 97 264 247 264s241 -105 241 -257zM381 265c0 90 -34 149 -104 149c-66 0 -112 -49 -112 -148c0 -100 39 -155 109 -155s107 54 107 154z" />
    <glyph glyph-name="one.taboldstyle" horiz-adv-x="545" 
d="M378 535v-535h-142v314h-162v105h16c70 0 153 14 164 116h124z" />
    <glyph glyph-name="two.taboldstyle" horiz-adv-x="545" 
d="M497 0h-445v99l83 49c182 107 210 157 210 204c0 38 -30 61 -72 61c-63 0 -84 -42 -84 -88c0 -4 0 -12 1 -16l-137 6v11c0 111 85 205 227 205c125 0 206 -59 206 -159c0 -114 -87 -174 -213 -249h224v-123z" />
    <glyph glyph-name="three.taboldstyle" horiz-adv-x="545" 
d="M40 82l135 6v-20c0 -66 42 -118 105 -118c57 0 93 43 93 104s-36 93 -98 93c-15 0 -35 -1 -50 -4v118c13 -2 25 -3 38 -3c50 0 92 25 92 78c0 54 -30 79 -78 79c-54 0 -88 -46 -88 -105v-14l-133 7c0 148 91 228 227 228c111 0 207 -60 207 -185c0 -62 -31 -109 -90 -136
c78 -22 119 -81 119 -153c0 -141 -107 -225 -237 -225c-144 0 -242 83 -242 231v19z" />
    <glyph glyph-name="four.taboldstyle" horiz-adv-x="545" 
d="M526 0h-94v-167h-134v167h-285v132l279 403h140v-418h94v-117zM142 117h156c2 121 3 241 3 241z" />
    <glyph glyph-name="five.taboldstyle" horiz-adv-x="545" 
d="M116 518h378l-12 -127h-268l-25 -123c30 25 68 37 112 37c134 0 215 -96 215 -224c0 -134 -82 -249 -256 -249c-137 0 -221 77 -236 216l141 7c4 -65 40 -103 101 -103c74 0 109 59 109 128c0 67 -36 111 -105 111c-41 0 -71 -17 -91 -48h-129z" />
    <glyph glyph-name="six.taboldstyle" horiz-adv-x="545" 
d="M504 504l-133 -9c-7 50 -32 74 -81 74c-94 0 -117 -94 -126 -180c35 51 88 75 148 75c134 0 205 -103 205 -229c0 -146 -85 -247 -235 -247c-204 0 -249 159 -249 334c0 179 54 367 265 367c114 0 192 -70 206 -185zM385 228c0 69 -33 115 -104 115
c-61 0 -104 -45 -104 -113c0 -70 32 -123 103 -123s105 54 105 121z" />
    <glyph glyph-name="seven.taboldstyle" horiz-adv-x="545" 
d="M42 518h457v-125c-114 -107 -216 -328 -217 -560h-153c16 214 90 405 218 557h-305v128z" />
    <glyph glyph-name="eight.taboldstyle" 
d="M425 363c67 -26 101 -95 101 -163c0 -134 -111 -212 -245 -212c-118 0 -245 51 -245 210c0 68 35 137 101 165c-52 28 -80 76 -80 132c0 131 109 194 228 194c117 0 222 -61 222 -191c0 -60 -27 -106 -82 -135zM281 404c60 0 95 28 95 84c0 52 -28 87 -89 87
c-57 0 -99 -28 -99 -87c0 -53 37 -84 93 -84zM391 204c0 68 -45 104 -107 104c-67 0 -115 -36 -115 -107c0 -63 49 -97 111 -97c65 0 111 34 111 100z" />
    <glyph glyph-name="nine.taboldstyle" horiz-adv-x="545" 
d="M41 16l133 9c7 -50 32 -74 81 -74c94 0 117 94 126 180c-35 -51 -88 -75 -148 -75c-134 0 -205 103 -205 229c0 146 85 247 235 247c204 0 249 -159 249 -334c0 -179 -54 -366 -265 -366c-114 0 -192 69 -206 184zM160 292c0 -69 33 -115 104 -115c61 0 104 45 104 113
c0 70 -32 123 -103 123s-105 -54 -105 -121z" />
    <glyph glyph-name="braceleft.cap" horiz-adv-x="383" 
d="M31 311v73c65 23 80 52 80 157v85c0 153 89 195 230 200v-74c-77 -16 -103 -54 -103 -153v-63c0 -123 -23 -164 -95 -189c79 -28 96 -75 96 -190v-66c0 -100 26 -140 102 -153v-73c-157 8 -230 59 -230 200v90c0 104 -17 137 -80 156z" />
    <glyph glyph-name="braceright.cap" horiz-adv-x="383" 
d="M355 379v-73c-65 -23 -80 -52 -80 -157v-85c0 -154 -88 -195 -230 -200v73c77 17 103 55 103 154v63c0 121 19 163 95 189c-79 27 -95 72 -95 189v67c0 100 -27 140 -103 153v73c159 -10 230 -59 230 -200v-90c0 -105 17 -137 80 -156z" />
    <glyph glyph-name="bracketleft.cap" horiz-adv-x="377" 
d="M339 -120h-252v929h252v-91h-122v-749h122v-89z" />
    <glyph glyph-name="bracketright.cap" horiz-adv-x="376" 
d="M37 809h252v-929h-252v90h122v750h-122v89z" />
    <glyph glyph-name="emdash.cap" horiz-adv-x="739" 
d="M26 413h687v-114h-687v114z" />
    <glyph glyph-name="endash.cap" horiz-adv-x="583" 
d="M26 413h531v-114h-531v114z" />
    <glyph glyph-name="guillemotleft.cap" horiz-adv-x="437" 
d="M230 286v123l154 136v-126l-81 -71l81 -70v-121zM41 285v125l153 134v-128l-82 -70l82 -67v-123z" />
    <glyph glyph-name="guillemotright.cap" horiz-adv-x="437" 
d="M396 410v-126l-153 -134v128l81 71l-81 66v125zM207 407v-121l-154 -135v124l82 71l-82 71v121z" />
    <glyph glyph-name="guilsinglleft.cap" horiz-adv-x="250" 
d="M42 285v125l153 134v-128l-82 -70l82 -67v-123z" />
    <glyph glyph-name="guilsinglright.cap" horiz-adv-x="250" 
d="M208 407v-121l-154 -135v124l81 71l-81 71v121z" />
    <glyph glyph-name="hyphen.cap" horiz-adv-x="344" 
d="M27 413h290v-113h-290v113z" />
    <glyph glyph-name="parenleft.cap" horiz-adv-x="382" 
d="M250 820h109l-13 -23c-20 -36 -36 -67 -49 -94c-57 -122 -83 -237 -83 -368c0 -171 45 -317 143 -468h-112c-41 56 -54 78 -80 125c-63 115 -96 235 -96 350c0 108 29 222 84 327c27 51 45 79 97 151z" />
    <glyph glyph-name="parenright.cap" horiz-adv-x="382" 
d="M132 -133h-109l13 23c20 36 36 67 49 94c57 121 83 237 83 368c0 171 -45 317 -143 467h112c41 -56 55 -77 80 -124c63 -115 96 -235 96 -350c0 -108 -29 -222 -84 -327c-27 -51 -45 -79 -97 -151z" />
    <glyph glyph-name="periodcentered.cap" horiz-adv-x="250" 
d="M199 420v-149h-149v149h149z" />
    <glyph glyph-name="Amacron" unicode="&#x100;" horiz-adv-x="667" 
d="M419 706l251 -706h-178l-46 150h-226l-45 -150h-177l240 706h181zM257 279h150l-77 272zM496 859v-88h-326v88h326z" />
    <glyph glyph-name="amacron" unicode="&#x101;" 
d="M375 0l-7 47c-49 -32 -79 -62 -162 -62c-95 0 -181 57 -181 167c0 113 88 152 185 166l70 10c44 6 80 10 80 43c0 43 -55 48 -79 48c-54 0 -91 -20 -91 -65h-136c9 172 173 179 221 179c141 0 235 -41 235 -195v-224c0 -53 4 -87 17 -110l3 -4h-155zM364 168v80
c-14 -5 -23 -9 -36 -12c-41 -11 -154 -12 -154 -79c0 -43 39 -56 69 -56c11 0 83 1 121 67zM443 677v-88h-326v88h326z" />
    <glyph glyph-name="Abreve" unicode="&#x102;" horiz-adv-x="667" 
d="M419 706l251 -706h-178l-46 150h-226l-45 -150h-177l240 706h181zM257 279h150l-77 272zM403 892h74c-7 -84 -63 -135 -145 -135c-85 0 -134 50 -142 135h75c7 -35 32 -52 67 -52c37 0 62 17 71 52z" />
    <glyph glyph-name="abreve" unicode="&#x103;" 
d="M375 0l-7 47c-49 -32 -79 -62 -162 -62c-95 0 -181 57 -181 167c0 113 88 152 185 166l70 10c44 6 80 10 80 43c0 43 -55 48 -79 48c-54 0 -91 -20 -91 -65h-136c9 172 173 179 221 179c141 0 235 -41 235 -195v-224c0 -53 4 -87 17 -110l3 -4h-155zM364 168v80
c-14 -5 -23 -9 -36 -12c-41 -11 -154 -12 -154 -79c0 -43 39 -56 69 -56c11 0 83 1 121 67zM350 736h74c-7 -84 -53 -152 -145 -152c-95 0 -134 67 -142 152h75c3 -35 32 -64 67 -64c37 0 66 29 71 64z" />
    <glyph glyph-name="Aogonek" unicode="&#x104;" horiz-adv-x="667" 
d="M544 0h-52l-46 150h-226l-45 -150h-177l240 706h181l251 -706h-23c-15 -21 -45 -64 -45 -86c0 -23 22 -28 37 -28c11 0 23 1 31 2v-104c-17 -1 -29 -2 -46 -2c-80 0 -136 22 -136 92c0 43 25 84 56 126zM257 279h150l-77 272z" />
    <glyph glyph-name="aogonek" unicode="&#x105;" 
d="M375 0l-7 47c-49 -32 -79 -62 -162 -62c-95 0 -181 57 -181 167c0 113 88 152 185 166l70 10c44 6 80 10 80 43c0 43 -55 48 -79 48c-54 0 -91 -20 -91 -65h-136c9 172 173 179 221 179c141 0 235 -41 235 -195v-224c0 -53 4 -87 17 -110l3 -4h-23
c-15 -21 -45 -64 -45 -86c0 -23 22 -28 37 -28c11 0 23 1 31 2v-104c-17 -1 -29 -2 -46 -2c-80 0 -136 22 -136 92c0 43 25 84 56 126h-29zM364 168v80c-14 -5 -23 -9 -36 -12c-41 -11 -154 -12 -154 -79c0 -43 39 -56 69 -56c11 0 83 1 121 67z" />
    <glyph glyph-name="Cacute" unicode="&#x106;" horiz-adv-x="708" 
d="M535 247l165 -11c-21 -177 -172 -252 -318 -252c-237 0 -350 180 -350 372c0 216 133 367 354 367c136 0 280 -71 304 -230l-159 -11c-21 76 -82 108 -147 108c-134 0 -181 -116 -181 -233c0 -103 36 -240 181 -240c75 0 150 50 151 130zM314 771l22 124h166l-94 -124
h-94z" />
    <glyph glyph-name="cacute" unicode="&#x107;" horiz-adv-x="542" 
d="M381 199l143 -7c-27 -143 -118 -207 -245 -207c-165 0 -256 113 -256 272c0 162 98 276 265 276c109 0 224 -66 231 -195l-142 -6c-9 51 -40 80 -92 80c-84 0 -109 -76 -109 -148c0 -71 20 -154 106 -154c54 0 93 35 99 89zM310 589h-99l45 147h165z" />
    <glyph glyph-name="Ccircumflex" unicode="&#x108;" horiz-adv-x="708" 
d="M535 247l165 -11c-21 -177 -172 -252 -318 -252c-237 0 -350 180 -350 372c0 216 133 367 354 367c136 0 280 -71 304 -230l-159 -11c-21 76 -82 108 -147 108c-134 0 -181 -116 -181 -233c0 -103 36 -240 181 -240c75 0 150 50 151 130zM379 838l-51 -67h-115l89 124
h155l86 -124h-113z" />
    <glyph glyph-name="ccircumflex" unicode="&#x109;" horiz-adv-x="542" 
d="M381 199l143 -7c-27 -143 -118 -207 -245 -207c-165 0 -256 113 -256 272c0 162 98 276 265 276c109 0 224 -66 231 -195l-142 -6c-9 51 -40 80 -92 80c-84 0 -109 -76 -109 -148c0 -71 20 -154 106 -154c54 0 93 35 99 89zM449 589h-112l-49 81l-51 -81h-112l95 147h141
z" />
    <glyph glyph-name="Cdotaccent" unicode="&#x10a;" horiz-adv-x="708" 
d="M535 247l165 -11c-21 -177 -172 -252 -318 -252c-237 0 -350 180 -350 372c0 216 133 367 354 367c136 0 280 -71 304 -230l-159 -11c-21 76 -82 108 -147 108c-134 0 -181 -116 -181 -233c0 -103 36 -240 181 -240c75 0 150 50 151 130zM314 771v124h130v-124h-130z" />
    <glyph glyph-name="cdotaccent" unicode="&#x10b;" horiz-adv-x="542" 
d="M381 199l143 -7c-27 -143 -118 -207 -245 -207c-165 0 -256 113 -256 272c0 162 98 276 265 276c109 0 224 -66 231 -195l-142 -6c-9 51 -40 80 -92 80c-84 0 -109 -76 -109 -148c0 -71 20 -154 106 -154c54 0 93 35 99 89zM352 718v-129h-139v129h139z" />
    <glyph glyph-name="Ccaron" unicode="&#x10c;" horiz-adv-x="708" 
d="M535 247l165 -11c-21 -177 -172 -252 -318 -252c-237 0 -350 180 -350 372c0 216 133 367 354 367c136 0 280 -71 304 -230l-159 -11c-21 76 -82 108 -147 108c-134 0 -181 -116 -181 -233c0 -103 36 -240 181 -240c75 0 150 50 151 130zM378 826l50 69h115l-88 -124
h-157l-85 124h113z" />
    <glyph glyph-name="ccaron" unicode="&#x10d;" horiz-adv-x="542" 
d="M381 199l143 -7c-27 -143 -118 -207 -245 -207c-165 0 -256 113 -256 272c0 162 98 276 265 276c109 0 224 -66 231 -195l-142 -6c-9 51 -40 80 -92 80c-84 0 -109 -76 -109 -148c0 -71 20 -154 106 -154c54 0 93 35 99 89zM120 736h111l49 -83l51 83h113l-95 -147h-141z
" />
    <glyph glyph-name="Dcaron" unicode="&#x10e;" horiz-adv-x="688" 
d="M56 706h233c84 0 167 -7 237 -59c93 -69 128 -184 128 -295c0 -134 -58 -272 -188 -326c-58 -24 -121 -26 -183 -26h-227v706zM214 574v-443h47c110 0 224 5 224 228c0 67 -16 158 -82 193c-41 22 -100 22 -146 22h-43zM310 826l50 69h115l-88 -124h-157l-85 124h113z
" />
    <glyph glyph-name="dcaron" unicode="&#x10f;" horiz-adv-x="657" 
d="M532 0h-143v50c-30 -47 -84 -63 -137 -63c-147 0 -221 135 -221 267c0 141 71 277 228 277c47 0 88 -17 124 -47v222h149v-706zM388 256c0 70 -17 154 -103 154c-79 0 -104 -84 -104 -149c0 -71 21 -152 106 -152c83 0 101 79 101 147zM564 706h103v-100
c0 -59 -53 -106 -110 -118v44c34 11 51 37 55 67h-48v107z" />
    <glyph glyph-name="Dcroat" unicode="&#x110;" horiz-adv-x="688" 
d="M54 706h236c86 0 169 -8 239 -62c87 -68 123 -182 123 -289c0 -72 -17 -151 -55 -212c-75 -120 -174 -143 -308 -143h-235v326h-55v88h55v292zM212 574v-160h133v-88h-133v-195h69c107 0 202 23 202 231c0 149 -51 212 -200 212h-71z" />
    <glyph glyph-name="dcroat" unicode="&#x111;" horiz-adv-x="583" 
d="M532 0h-143v50c-30 -47 -84 -63 -137 -63c-147 0 -221 135 -221 267c0 141 71 277 228 277c47 0 88 -17 124 -47v78h-120v92h120v52h149v-52h43v-92h-43v-562zM388 256c0 70 -17 154 -103 154c-79 0 -104 -84 -104 -149c0 -71 21 -152 106 -152c83 0 101 79 101 147z" />
    <glyph glyph-name="Emacron" unicode="&#x112;" horiz-adv-x="604" 
d="M546 435v-127h-331v-179h363v-129h-521v706h514v-130h-356v-141h331zM481 859v-88h-326v88h326z" />
    <glyph glyph-name="emacron" unicode="&#x113;" 
d="M541 216h-363c9 -64 44 -111 112 -111c46 0 75 16 97 55l148 -10c-37 -111 -135 -165 -249 -165c-164 0 -262 115 -262 274c0 155 103 274 262 274c173 0 255 -132 255 -292v-25zM179 328h207c-5 52 -43 89 -96 89c-63 0 -95 -30 -111 -89zM450 677v-88h-326v88h326z" />
    <glyph glyph-name="Ebreve" unicode="&#x114;" horiz-adv-x="604" 
d="M546 435v-127h-331v-179h363v-129h-521v706h514v-130h-356v-141h331zM383 892h74c-7 -84 -63 -135 -145 -135c-85 0 -134 50 -142 135h75c7 -35 32 -52 67 -52c37 0 62 17 71 52z" />
    <glyph glyph-name="ebreve" unicode="&#x115;" 
d="M541 216h-363c9 -64 44 -111 112 -111c46 0 75 16 97 55l148 -10c-37 -111 -135 -165 -249 -165c-164 0 -262 115 -262 274c0 155 103 274 262 274c173 0 255 -132 255 -292v-25zM179 328h207c-5 52 -43 89 -96 89c-63 0 -95 -30 -111 -89zM357 736h74
c-7 -84 -53 -152 -145 -152c-95 0 -134 67 -142 152h75c3 -35 32 -64 67 -64c37 0 66 29 71 64z" />
    <glyph glyph-name="Edotaccent" unicode="&#x116;" horiz-adv-x="604" 
d="M546 435v-127h-331v-179h363v-129h-521v706h514v-130h-356v-141h331zM244 771v124h130v-124h-130z" />
    <glyph glyph-name="edotaccent" unicode="&#x117;" 
d="M541 216h-363c9 -64 44 -111 112 -111c46 0 75 16 97 55l148 -10c-37 -111 -135 -165 -249 -165c-164 0 -262 115 -262 274c0 155 103 274 262 274c173 0 255 -132 255 -292v-25zM179 328h207c-5 52 -43 89 -96 89c-63 0 -95 -30 -111 -89zM357 718v-129h-139v129h139z
" />
    <glyph glyph-name="Eogonek" unicode="&#x118;" horiz-adv-x="604" 
d="M452 0h-395v706h514v-130h-356v-141h331v-127h-331v-179h363v-129h-23c-15 -21 -45 -64 -45 -86c0 -23 22 -28 37 -28c11 0 23 1 31 2v-104c-17 -1 -29 -2 -46 -2c-80 0 -136 22 -136 92c0 43 25 84 56 126z" />
    <glyph glyph-name="eogonek" unicode="&#x119;" 
d="M541 216h-363c9 -64 44 -111 112 -111c46 0 75 16 97 55l148 -10c-29 -85 -92 -137 -172 -156c-16 -22 -40 -60 -40 -80c0 -23 22 -28 37 -28c11 0 23 1 31 2v-104c-17 -1 -29 -2 -46 -2c-80 0 -136 22 -136 92c0 39 19 75 46 113c-146 13 -231 123 -231 272
c0 155 103 274 262 274c173 0 255 -132 255 -292v-25zM179 328h207c-5 52 -43 89 -96 89c-63 0 -95 -30 -111 -89z" />
    <glyph glyph-name="Ecaron" unicode="&#x11a;" horiz-adv-x="604" 
d="M546 435v-127h-331v-179h363v-129h-521v706h514v-130h-356v-141h331zM327 826l50 69h115l-88 -124h-157l-85 124h113z" />
    <glyph glyph-name="ecaron" unicode="&#x11b;" 
d="M541 216h-363c9 -64 44 -111 112 -111c46 0 75 16 97 55l148 -10c-37 -111 -135 -165 -249 -165c-164 0 -262 115 -262 274c0 155 103 274 262 274c173 0 255 -132 255 -292v-25zM179 328h207c-5 52 -43 89 -96 89c-63 0 -95 -30 -111 -89zM126 736h111l49 -83l51 83h113
l-95 -147h-141z" />
    <glyph glyph-name="Gcircumflex" unicode="&#x11c;" horiz-adv-x="750" 
d="M698 0h-115l-8 87c-52 -70 -131 -103 -216 -103c-224 0 -324 162 -324 369c0 215 134 370 354 370c137 0 287 -70 306 -239l-153 -10c-20 76 -74 114 -150 114c-134 0 -191 -105 -191 -228c0 -122 42 -241 184 -241c92 0 153 56 173 146h-175v129h315v-394zM384 838
l-51 -67h-115l89 124h155l86 -124h-113z" />
    <glyph glyph-name="gcircumflex" unicode="&#x11d;" horiz-adv-x="583" 
d="M394 518h142v-454c0 -39 -2 -80 -17 -116c-40 -95 -145 -118 -238 -118c-111 0 -218 37 -229 164h156c14 -36 48 -48 84 -48c90 0 99 54 99 130c0 7 0 14 1 21c-32 -44 -93 -64 -145 -64c-140 0 -219 115 -219 246c0 129 76 253 217 253c69 0 110 -28 149 -82v68z
M390 289c0 65 -36 122 -106 122c-73 0 -112 -59 -112 -127c0 -66 36 -126 108 -126c75 0 110 62 110 131zM451 589h-112l-49 81l-51 -81h-112l95 147h141z" />
    <glyph glyph-name="Gbreve" unicode="&#x11e;" horiz-adv-x="750" 
d="M698 0h-115l-8 87c-52 -70 -131 -103 -216 -103c-224 0 -324 162 -324 369c0 215 134 370 354 370c137 0 287 -70 306 -239l-153 -10c-20 76 -74 114 -150 114c-134 0 -191 -105 -191 -228c0 -122 42 -241 184 -241c92 0 153 56 173 146h-175v129h315v-394zM450 892h74
c-7 -84 -63 -135 -145 -135c-85 0 -134 50 -142 135h75c7 -35 32 -52 67 -52c37 0 62 17 71 52z" />
    <glyph glyph-name="gbreve" unicode="&#x11f;" horiz-adv-x="583" 
d="M394 518h142v-454c0 -39 -2 -80 -17 -116c-40 -95 -145 -118 -238 -118c-111 0 -218 37 -229 164h156c14 -36 48 -48 84 -48c90 0 99 54 99 130c0 7 0 14 1 21c-32 -44 -93 -64 -145 -64c-140 0 -219 115 -219 246c0 129 76 253 217 253c69 0 110 -28 149 -82v68z
M390 289c0 65 -36 122 -106 122c-73 0 -112 -59 -112 -127c0 -66 36 -126 108 -126c75 0 110 62 110 131zM355 736h74c-7 -84 -53 -152 -145 -152c-95 0 -134 67 -142 152h75c3 -35 32 -64 67 -64c37 0 66 29 71 64z" />
    <glyph glyph-name="Gdotaccent" unicode="&#x120;" horiz-adv-x="750" 
d="M698 0h-115l-8 87c-52 -70 -131 -103 -216 -103c-224 0 -324 162 -324 369c0 215 134 370 354 370c137 0 287 -70 306 -239l-153 -10c-20 76 -74 114 -150 114c-134 0 -191 -105 -191 -228c0 -122 42 -241 184 -241c92 0 153 56 173 146h-175v129h315v-394zM310 771v124
h130v-124h-130z" />
    <glyph glyph-name="gdotaccent" unicode="&#x121;" horiz-adv-x="583" 
d="M394 518h142v-454c0 -39 -2 -80 -17 -116c-40 -95 -145 -118 -238 -118c-111 0 -218 37 -229 164h156c14 -36 48 -48 84 -48c90 0 99 54 99 130c0 7 0 14 1 21c-32 -44 -93 -64 -145 -64c-140 0 -219 115 -219 246c0 129 76 253 217 253c69 0 110 -28 149 -82v68z
M390 289c0 65 -36 122 -106 122c-73 0 -112 -59 -112 -127c0 -66 36 -126 108 -126c75 0 110 62 110 131zM368 718v-129h-139v129h139z" />
    <glyph glyph-name="Hcircumflex" unicode="&#x124;" horiz-adv-x="688" 
d="M472 438v268h159v-706h-159v305h-255v-305h-161v706h161v-268h255zM345 838l-51 -67h-115l89 124h155l86 -124h-113z" />
    <glyph glyph-name="hcircumflex" unicode="&#x125;" 
d="M512 0h-147v290c0 48 -2 115 -77 115c-87 0 -90 -84 -90 -136v-269h-146v706h146v-241c23 41 97 65 141 65c141 0 173 -107 173 -197v-333zM125 838l-51 -67h-115l89 124h155l86 -124h-113z" />
    <glyph glyph-name="Hbar" unicode="&#x126;" horiz-adv-x="688" 
d="M16 508v107h40v91h161v-91h255v91h159v-91h41v-107h-41v-508h-159v305h-255v-305h-161v508h-40zM472 438v70h-255v-70h255z" />
    <glyph glyph-name="hbar" unicode="&#x127;" 
d="M329 562h-131v-97c23 41 97 65 141 65c141 0 173 -107 173 -197v-333h-147v290c0 48 -2 115 -77 115c-87 0 -90 -84 -90 -136v-269h-146v562h-45v92h45v52h146v-52h131v-92z" />
    <glyph glyph-name="Itilde" unicode="&#x128;" horiz-adv-x="271" 
d="M215 706v-706h-159v706h159zM56 771h-76c4 80 30 121 89 121c22 0 40 -5 61 -11l26 -7c7 -2 24 -6 32 -6c23 0 26 20 27 27h76v-7c0 -8 0 -118 -95 -118c-17 0 -30 3 -50 8l-37 9c-12 3 -24 6 -30 6c-19 0 -23 -15 -23 -22z" />
    <glyph glyph-name="itilde" unicode="&#x129;" horiz-adv-x="250" 
d="M198 518v-518h-146v518h146zM277 736v-35c0 -49 -3 -114 -67 -114c-49 0 -109 45 -140 45c-23 0 -25 -26 -25 -43h-71v48c0 47 22 101 77 101c47 0 100 -42 131 -42c21 0 26 23 27 40h68z" />
    <glyph glyph-name="uni012A" unicode="&#x12a;" horiz-adv-x="271" 
d="M215 706v-706h-159v706h159zM282 859v-88h-293v88h293z" />
    <glyph glyph-name="imacron" unicode="&#x12b;" horiz-adv-x="250" 
d="M198 518v-518h-146v518h146zM272 677v-88h-294v88h294z" />
    <glyph glyph-name="Ibreve" unicode="&#x12c;" horiz-adv-x="271" 
d="M215 706v-706h-159v706h159zM205 892h74c-7 -84 -63 -135 -145 -135c-85 0 -134 50 -142 135h75c7 -35 32 -52 67 -52c37 0 62 17 71 52z" />
    <glyph glyph-name="uni012D" unicode="&#x12d;" horiz-adv-x="250" 
d="M198 518v-518h-146v518h146zM195 736h74c-7 -84 -53 -152 -145 -152c-95 0 -134 67 -142 152h75c3 -35 32 -64 67 -64c37 0 66 29 71 64z" />
    <glyph glyph-name="Iogonek" unicode="&#x12e;" horiz-adv-x="271" 
d="M90 0h-34v706h159v-706h-22c-15 -21 -45 -64 -45 -86c0 -23 22 -28 37 -28c11 0 23 1 31 2v-104c-17 -1 -29 -2 -46 -2c-80 0 -136 22 -136 92c0 43 25 84 56 126z" />
    <glyph glyph-name="iogonek" unicode="&#x12f;" horiz-adv-x="250" 
d="M76 0h-24v518h146v-518h-19c-15 -21 -45 -64 -45 -86c0 -23 22 -28 37 -28c11 0 23 1 31 2v-104c-17 -1 -29 -2 -46 -2c-80 0 -136 22 -136 92c0 43 25 84 56 126zM198 706v-133h-146v133h146z" />
    <glyph glyph-name="Idotaccent" unicode="&#x130;" horiz-adv-x="271" 
d="M215 706v-706h-159v706h159zM71 771v124h130v-124h-130z" />
    <glyph glyph-name="IJ" unicode="&#x132;" horiz-adv-x="792" 
d="M215 706v-706h-159v706h159zM588 706h158v-442c0 -109 -1 -180 -82 -237c-51 -36 -105 -42 -165 -42c-94 0 -179 38 -211 133c-9 26 -10 64 -10 100v54h155v-72c0 -40 18 -80 75 -80c62 0 80 39 80 93v493z" />
    <glyph glyph-name="ij" unicode="&#x133;" horiz-adv-x="500" 
d="M198 518v-518h-146v518h146zM198 706v-133h-146v133h146zM450 575h-146v131h146v-131zM304 518h146v-534c0 -120 -67 -149 -174 -149h-60v124h5c42 0 83 1 83 55v504z" />
    <glyph glyph-name="Jcircumflex" unicode="&#x134;" horiz-adv-x="521" 
d="M317 706h158v-442c0 -109 -1 -180 -82 -237c-51 -36 -105 -42 -165 -42c-94 0 -179 38 -211 133c-9 26 -10 64 -10 100v54h155v-72c0 -40 18 -80 75 -80c62 0 80 39 80 93v493zM399 838l-51 -67h-115l89 124h155l86 -124h-113z" />
    <glyph glyph-name="jcircumflex" unicode="&#x135;" horiz-adv-x="250" 
d="M54 518h146v-534c0 -120 -67 -149 -174 -149h-60v124h5c42 0 83 1 83 55v504zM287 589h-112l-49 81l-51 -81h-112l95 147h141z" />
    <glyph glyph-name="kgreenlandic" unicode="&#x138;" horiz-adv-x="542" 
d="M358 518h191l-200 -196l214 -322h-187l-130 220l-48 -48v-172h-147v518h147v-177z" />
    <glyph glyph-name="Lacute" unicode="&#x139;" 
d="M215 132h334v-132h-493v706h159v-574zM75 771l22 124h166l-94 -124h-94z" />
    <glyph glyph-name="lacute" unicode="&#x13a;" horiz-adv-x="250" 
d="M199 706v-706h-147v706h147zM58 771l22 124h166l-94 -124h-94z" />
    <glyph glyph-name="Lcaron" unicode="&#x13d;" 
d="M215 132h334v-132h-493v706h159v-574zM273 706h103v-100c0 -59 -53 -106 -110 -118v44c34 11 51 37 55 67h-48v107z" />
    <glyph glyph-name="lcaron" unicode="&#x13e;" horiz-adv-x="333" 
d="M199 706v-706h-147v706h147zM246 706h103v-100c0 -59 -53 -106 -110 -118v44c34 11 51 37 55 67h-48v107z" />
    <glyph glyph-name="Ldot" unicode="&#x13f;" 
d="M215 132h334v-132h-493v706h159v-574zM279 336v144h142v-144h-142z" />
    <glyph glyph-name="ldot" unicode="&#x140;" horiz-adv-x="362" 
d="M199 706v-706h-147v706h147zM374 453v-132h-136v132h136z" />
    <glyph glyph-name="Nacute" unicode="&#x143;" horiz-adv-x="688" 
d="M629 706v-706h-149l-277 458s8 -294 12 -458h-158v706h153l274 -464c-3 118 -10 464 -10 464h155zM261 771l22 124h166l-94 -124h-94z" />
    <glyph glyph-name="nacute" unicode="&#x144;" 
d="M517 0h-151v305c0 50 -19 99 -77 99c-70 0 -89 -62 -89 -117v-287h-148v518h144v-60c36 46 83 72 143 72c39 0 78 -10 109 -34c59 -45 69 -108 69 -178v-318zM275 589h-99l45 147h165z" />
    <glyph glyph-name="Ncaron" unicode="&#x147;" horiz-adv-x="688" 
d="M629 706v-706h-149l-277 458s8 -294 12 -458h-158v706h153l274 -464c-3 118 -10 464 -10 464h155zM344 826l50 69h115l-88 -124h-157l-85 124h113z" />
    <glyph glyph-name="ncaron" unicode="&#x148;" 
d="M517 0h-151v305c0 50 -19 99 -77 99c-70 0 -89 -62 -89 -117v-287h-148v518h144v-60c36 46 83 72 143 72c39 0 78 -10 109 -34c59 -45 69 -108 69 -178v-318zM119 736h111l49 -83l51 83h113l-95 -147h-141z" />
    <glyph glyph-name="napostrophe" unicode="&#x149;" 
d="M517 0h-151v305c0 50 -19 99 -77 99c-70 0 -89 -62 -89 -117v-287h-148v518h144v-60c36 46 83 72 143 72c39 0 78 -10 109 -34c59 -45 69 -108 69 -178v-318zM25 755h103v-100c0 -59 -53 -106 -110 -118v44c34 11 51 37 55 67h-48v107z" />
    <glyph glyph-name="Eng" unicode="&#x14a;" horiz-adv-x="688" 
d="M481 -2l-278 460s8 -294 12 -458h-158v706h153l274 -464c-3 118 -10 464 -10 464h155v-724c0 -99 -26 -151 -166 -151h-35v128h20c23 0 33 12 33 39z" />
    <glyph glyph-name="eng" unicode="&#x14b;" 
d="M312 -37h12c32 0 42 13 42 38v304c0 50 -19 99 -77 99c-70 0 -89 -62 -89 -117v-287h-148v518h144v-60c36 46 83 72 143 72c39 0 78 -10 109 -34c59 -45 69 -108 69 -178v-323c0 -109 -31 -150 -187 -150h-18v118z" />
    <glyph glyph-name="Omacron" unicode="&#x14c;" horiz-adv-x="771" 
d="M735 355c0 -213 -137 -371 -355 -371c-214 0 -345 162 -345 368c0 213 129 371 349 371c219 0 351 -155 351 -368zM568 347c0 119 -44 241 -184 241c-130 0 -183 -120 -183 -234c0 -115 52 -235 184 -235c124 0 183 107 183 228zM548 859v-88h-326v88h326z" />
    <glyph glyph-name="omacron" unicode="&#x14d;" horiz-adv-x="583" 
d="M559 261c0 -160 -112 -276 -273 -276c-162 0 -263 112 -263 271c0 168 109 277 277 277c159 0 259 -117 259 -272zM408 267c0 74 -28 148 -115 148c-89 0 -119 -76 -119 -153c0 -75 28 -157 117 -157c91 0 117 85 117 162zM454 677v-88h-326v88h326z" />
    <glyph glyph-name="Obreve" unicode="&#x14e;" horiz-adv-x="771" 
d="M735 355c0 -213 -137 -371 -355 -371c-214 0 -345 162 -345 368c0 213 129 371 349 371c219 0 351 -155 351 -368zM568 347c0 119 -44 241 -184 241c-130 0 -183 -120 -183 -234c0 -115 52 -235 184 -235c124 0 183 107 183 228zM455 892h74c-7 -84 -63 -135 -145 -135
c-85 0 -134 50 -142 135h75c7 -35 32 -52 67 -52c37 0 62 17 71 52z" />
    <glyph glyph-name="obreve" unicode="&#x14f;" horiz-adv-x="583" 
d="M559 261c0 -160 -112 -276 -273 -276c-162 0 -263 112 -263 271c0 168 109 277 277 277c159 0 259 -117 259 -272zM408 267c0 74 -28 148 -115 148c-89 0 -119 -76 -119 -153c0 -75 28 -157 117 -157c91 0 117 85 117 162zM361 736h74c-7 -84 -53 -152 -145 -152
c-95 0 -134 67 -142 152h75c3 -35 32 -64 67 -64c37 0 66 29 71 64z" />
    <glyph glyph-name="Ohungarumlaut" unicode="&#x150;" horiz-adv-x="771" 
d="M735 355c0 -213 -137 -371 -355 -371c-214 0 -345 162 -345 368c0 213 129 371 349 371c219 0 351 -155 351 -368zM568 347c0 119 -44 241 -184 241c-130 0 -183 -120 -183 -234c0 -115 52 -235 184 -235c124 0 183 107 183 228zM238 771l22 124h166l-94 -124h-94z
M430 771l22 124h166l-94 -124h-94z" />
    <glyph glyph-name="ohungarumlaut" unicode="&#x151;" horiz-adv-x="583" 
d="M559 261c0 -160 -112 -276 -273 -276c-162 0 -263 112 -263 271c0 168 109 277 277 277c159 0 259 -117 259 -272zM408 267c0 74 -28 148 -115 148c-89 0 -119 -76 -119 -153c0 -75 28 -157 117 -157c91 0 117 85 117 162zM320 589l47 147h157l-111 -147h-93zM138 589
l46 147h157l-110 -147h-93z" />
    <glyph glyph-name="Racute" unicode="&#x154;" horiz-adv-x="646" 
d="M54 706h292c80 0 170 -5 222 -68c30 -36 42 -79 42 -126c0 -82 -39 -154 -124 -173c75 -17 91 -86 101 -151c10 -64 17 -137 57 -188h-167c-27 41 -35 85 -42 133l-2 15c-5 41 -12 85 -54 104c-18 8 -58 8 -81 8h-85v-260h-159v706zM213 572v-184h83c74 0 158 1 158 98
c0 74 -55 86 -116 86h-125zM235 771l22 124h166l-94 -124h-94z" />
    <glyph glyph-name="racute" unicode="&#x155;" horiz-adv-x="354" 
d="M193 518v-85c28 72 71 95 134 95c7 0 13 0 26 -2v-134c-14 2 -22 3 -35 3c-106 0 -118 -78 -118 -140v-255h-151v518h144zM207 589h-99l45 147h165z" />
    <glyph glyph-name="Rcaron" unicode="&#x158;" horiz-adv-x="646" 
d="M54 706h292c80 0 170 -5 222 -68c30 -36 42 -79 42 -126c0 -82 -39 -154 -124 -173c75 -17 91 -86 101 -151c10 -64 17 -137 57 -188h-167c-27 41 -35 85 -42 133l-2 15c-5 41 -12 85 -54 104c-18 8 -58 8 -81 8h-85v-260h-159v706zM213 572v-184h83c74 0 158 1 158 98
c0 74 -55 86 -116 86h-125zM296 826l50 69h115l-88 -124h-157l-85 124h113z" />
    <glyph glyph-name="rcaron" unicode="&#x159;" horiz-adv-x="354" 
d="M193 518v-85c28 72 71 95 134 95c7 0 13 0 26 -2v-134c-14 2 -22 3 -35 3c-106 0 -118 -78 -118 -140v-255h-151v518h144zM38 736h111l49 -83l51 83h113l-95 -147h-141z" />
    <glyph glyph-name="Sacute" unicode="&#x15a;" horiz-adv-x="667" 
d="M615 499l-157 -12c-5 75 -50 108 -137 108c-71 0 -111 -25 -111 -72c0 -48 47 -61 118 -77l92 -21c59 -13 206 -47 206 -215c0 -87 -44 -226 -296 -226c-160 0 -295 55 -303 240l159 9c1 -79 57 -116 151 -116c42 0 126 9 126 82c0 58 -65 73 -137 89l-50 11
c-137 30 -226 82 -226 211c0 193 194 213 284 213c167 0 274 -80 281 -224zM279 771l22 124h166l-94 -124h-94z" />
    <glyph glyph-name="sacute" unicode="&#x15b;" horiz-adv-x="521" 
d="M22 177l140 5c9 -67 44 -86 110 -86c32 0 74 7 74 48c0 93 -308 18 -308 225c0 122 111 164 216 164c114 0 221 -49 227 -176l-138 -7c-3 55 -48 75 -91 75c-28 0 -72 -5 -72 -44c0 -79 316 -17 316 -222c0 -134 -121 -174 -234 -174c-110 0 -240 49 -240 186v6zM287 589
h-99l45 147h165z" />
    <glyph glyph-name="Scircumflex" unicode="&#x15c;" horiz-adv-x="667" 
d="M615 499l-157 -12c-5 75 -50 108 -137 108c-71 0 -111 -25 -111 -72c0 -48 47 -61 118 -77l92 -21c59 -13 206 -47 206 -215c0 -87 -44 -226 -296 -226c-160 0 -295 55 -303 240l159 9c1 -79 57 -116 151 -116c42 0 126 9 126 82c0 58 -65 73 -137 89l-50 11
c-137 30 -226 82 -226 211c0 193 194 213 284 213c167 0 274 -80 281 -224zM334 838l-51 -67h-115l89 124h155l86 -124h-113z" />
    <glyph glyph-name="scircumflex" unicode="&#x15d;" horiz-adv-x="521" 
d="M22 177l140 5c9 -67 44 -86 110 -86c32 0 74 7 74 48c0 93 -308 18 -308 225c0 122 111 164 216 164c114 0 221 -49 227 -176l-138 -7c-3 55 -48 75 -91 75c-28 0 -72 -5 -72 -44c0 -79 316 -17 316 -222c0 -134 -121 -174 -234 -174c-110 0 -240 49 -240 186v6zM422 589
h-112l-49 81l-51 -81h-112l95 147h141z" />
    <glyph glyph-name="Tcaron" unicode="&#x164;" horiz-adv-x="583" 
d="M370 575v-575h-158v575h-211v131h580v-131h-211zM291 826l50 69h115l-88 -124h-157l-85 124h113z" />
    <glyph glyph-name="tcaron" unicode="&#x165;" horiz-adv-x="354" 
d="M323 406h-91v-233c0 -43 8 -60 56 -60c15 0 25 1 40 2v-114c-51 -6 -78 -7 -101 -7c-121 0 -142 58 -142 162v250h-74v112h74v153h147v-153h91v-112zM270 771h103v-100c0 -59 -53 -106 -110 -118v44c34 11 51 37 55 67h-48v107z" />
    <glyph glyph-name="Tbar" unicode="&#x166;" horiz-adv-x="583" 
d="M80 365v107h132v103h-211v131h580v-131h-211v-103h132v-107h-132v-365h-158v365h-132z" />
    <glyph glyph-name="tbar" unicode="&#x167;" horiz-adv-x="354" 
d="M304 266h-72v-93c0 -43 8 -60 56 -60c15 0 25 1 40 2v-114c-51 -6 -78 -7 -101 -7c-121 0 -142 58 -142 162v110h-64v92h64v48h-74v112h74v153h147v-153h91v-112h-91v-48h72v-92z" />
    <glyph glyph-name="Utilde" unicode="&#x168;" horiz-adv-x="667" 
d="M49 706h160v-402c0 -100 0 -185 126 -185c122 0 122 82 122 189v398h160v-433c0 -84 -2 -163 -69 -225c-55 -50 -148 -64 -220 -64c-109 0 -222 31 -263 143c-13 37 -16 81 -16 120v459zM254 771h-76c4 80 30 121 89 121c22 0 40 -5 61 -11l26 -7c7 -2 24 -6 32 -6
c23 0 26 20 27 27h76v-7c0 -8 0 -118 -95 -118c-17 0 -30 3 -50 8l-37 9c-12 3 -24 6 -30 6c-19 0 -23 -15 -23 -22z" />
    <glyph glyph-name="utilde" unicode="&#x169;" 
d="M509 0h-140v57c-29 -47 -94 -70 -147 -70c-162 0 -173 131 -173 229v302h147v-297c0 -57 11 -112 81 -112c74 0 89 61 89 139v270h143v-518zM432 736v-35c0 -49 -3 -114 -67 -114c-49 0 -109 45 -140 45c-23 0 -25 -26 -25 -43h-71v48c0 47 22 101 77 101
c47 0 100 -42 131 -42c21 0 26 23 27 40h68z" />
    <glyph glyph-name="Umacron" unicode="&#x16a;" horiz-adv-x="667" 
d="M49 706h160v-402c0 -100 0 -185 126 -185c122 0 122 82 122 189v398h160v-433c0 -84 -2 -163 -69 -225c-55 -50 -148 -64 -220 -64c-109 0 -222 31 -263 143c-13 37 -16 81 -16 120v459zM496 859v-88h-326v88h326z" />
    <glyph glyph-name="umacron" unicode="&#x16b;" 
d="M509 0h-140v57c-29 -47 -94 -70 -147 -70c-162 0 -173 131 -173 229v302h147v-297c0 -57 11 -112 81 -112c74 0 89 61 89 139v270h143v-518zM443 677v-88h-326v88h326z" />
    <glyph glyph-name="Ubreve" unicode="&#x16c;" horiz-adv-x="667" 
d="M49 706h160v-402c0 -100 0 -185 126 -185c122 0 122 82 122 189v398h160v-433c0 -84 -2 -163 -69 -225c-55 -50 -148 -64 -220 -64c-109 0 -222 31 -263 143c-13 37 -16 81 -16 120v459zM403 892h74c-7 -84 -63 -135 -145 -135c-85 0 -134 50 -142 135h75
c7 -35 32 -52 67 -52c37 0 62 17 71 52z" />
    <glyph glyph-name="ubreve" unicode="&#x16d;" 
d="M509 0h-140v57c-29 -47 -94 -70 -147 -70c-162 0 -173 131 -173 229v302h147v-297c0 -57 11 -112 81 -112c74 0 89 61 89 139v270h143v-518zM350 736h74c-7 -84 -53 -152 -145 -152c-95 0 -134 67 -142 152h75c3 -35 32 -64 67 -64c37 0 66 29 71 64z" />
    <glyph glyph-name="Uring" unicode="&#x16e;" horiz-adv-x="667" 
d="M49 706h160v-402c0 -100 0 -185 126 -185c122 0 122 82 122 189v398h160v-433c0 -84 -2 -163 -69 -225c-55 -50 -148 -64 -220 -64c-109 0 -222 31 -263 143c-13 37 -16 81 -16 120v459zM435 853c0 -57 -45 -101 -102 -101s-101 44 -101 101s43 102 101 102
s102 -44 102 -102zM377 854c0 27 -20 43 -44 43s-44 -19 -44 -43s20 -44 44 -44s44 20 44 44z" />
    <glyph glyph-name="uring" unicode="&#x16f;" 
d="M509 0h-140v57c-29 -47 -94 -70 -147 -70c-162 0 -173 131 -173 229v302h147v-297c0 -57 11 -112 81 -112c74 0 89 61 89 139v270h143v-518zM378 662c0 -56 -42 -96 -98 -96c-55 0 -97 42 -97 97c0 56 44 95 99 95c54 0 96 -42 96 -96zM318 663c0 22 -16 38 -38 38
s-37 -18 -37 -39s15 -38 37 -38c23 0 38 17 38 39z" />
    <glyph glyph-name="Uhungarumlaut" unicode="&#x170;" horiz-adv-x="667" 
d="M49 706h160v-402c0 -100 0 -185 126 -185c122 0 122 82 122 189v398h160v-433c0 -84 -2 -163 -69 -225c-55 -50 -148 -64 -220 -64c-109 0 -222 31 -263 143c-13 37 -16 81 -16 120v459zM190 771l22 124h166l-94 -124h-94zM382 771l22 124h166l-94 -124h-94z" />
    <glyph glyph-name="uhungarumlaut" unicode="&#x171;" 
d="M509 0h-140v57c-29 -47 -94 -70 -147 -70c-162 0 -173 131 -173 229v302h147v-297c0 -57 11 -112 81 -112c74 0 89 61 89 139v270h143v-518zM318 589l47 147h157l-111 -147h-93zM136 589l46 147h157l-110 -147h-93z" />
    <glyph glyph-name="Uogonek" unicode="&#x172;" horiz-adv-x="667" 
d="M49 706h160v-402c0 -100 0 -185 126 -185c122 0 122 82 122 189v398h160v-433c0 -84 -2 -163 -69 -225c-40 -36 -99 -53 -156 -60c-16 -23 -36 -55 -36 -74c0 -23 22 -28 37 -28c11 0 23 1 31 2v-104c-17 -1 -29 -2 -46 -2c-80 0 -136 22 -136 92c0 38 19 75 45 112
c-95 7 -186 43 -222 141c-13 37 -16 81 -16 120v459z" />
    <glyph glyph-name="uogonek" unicode="&#x173;" 
d="M386 0h-17v57c-29 -47 -94 -70 -147 -70c-162 0 -173 131 -173 229v302h147v-297c0 -57 11 -112 81 -112c74 0 89 61 89 139v270h143v-518h-20c-15 -21 -45 -64 -45 -86c0 -23 22 -28 37 -28c11 0 23 1 31 2v-104c-17 -1 -29 -2 -46 -2c-80 0 -136 22 -136 92
c0 43 25 84 56 126z" />
    <glyph glyph-name="Wcircumflex" unicode="&#x174;" horiz-adv-x="896" 
d="M738 706h156l-199 -706h-148l-100 478l-102 -478h-146l-198 706h160l112 -473l98 473h152l100 -473zM449 838l-51 -67h-115l89 124h155l86 -124h-113z" />
    <glyph glyph-name="wcircumflex" unicode="&#x175;" horiz-adv-x="750" 
d="M599 518h150l-150 -518h-137l-87 350l-86 -350h-139l-151 518h151l79 -324l81 324h130l80 -324zM537 589h-112l-49 81l-51 -81h-112l95 147h141z" />
    <glyph glyph-name="Ycircumflex" unicode="&#x176;" horiz-adv-x="625" 
d="M454 706h175l-238 -443v-263h-158v263l-238 443h176l139 -288zM313 838l-51 -67h-115l89 124h155l86 -124h-113z" />
    <glyph glyph-name="ycircumflex" unicode="&#x177;" horiz-adv-x="500" 
d="M342 518h156l-171 -514c-9 -28 -27 -85 -49 -112c-38 -48 -97 -51 -189 -51c-16 0 -35 2 -39 2v116h49c59 0 74 31 74 65c0 21 -7 36 -21 74l-150 420h160l94 -349zM412 589h-112l-49 81l-51 -81h-112l95 147h141z" />
    <glyph glyph-name="Zacute" unicode="&#x179;" horiz-adv-x="646" 
d="M43 706h568v-124l-382 -452h390v-130h-597v119l387 455h-366v132zM261 771l22 124h166l-94 -124h-94z" />
    <glyph glyph-name="zacute" unicode="&#x17a;" horiz-adv-x="500" 
d="M457 518v-119l-248 -277h265v-122h-456v110l256 286h-227v122h410zM285 589h-99l45 147h165z" />
    <glyph glyph-name="Zdotaccent" unicode="&#x17b;" horiz-adv-x="646" 
d="M43 706h568v-124l-382 -452h390v-130h-597v119l387 455h-366v132zM265 771v124h130v-124h-130z" />
    <glyph glyph-name="zdotaccent" unicode="&#x17c;" horiz-adv-x="500" 
d="M457 518v-119l-248 -277h265v-122h-456v110l256 286h-227v122h410zM321 718v-129h-139v129h139z" />
    <glyph glyph-name="longs" unicode="&#x17f;" horiz-adv-x="257" 
d="M282 592h-12c-37 0 -71 -2 -71 -57v-535h-147v518c0 168 61 188 188 188h42v-114z" />
    <glyph glyph-name="Aringacute" unicode="&#x1fa;" horiz-adv-x="667" 
d="M260 923l72 75h146l-134 -75h-84zM419 706l251 -706h-178l-46 150h-226l-45 -150h-177l240 706h181zM257 279h150l-77 272zM416 817c0 -47 -37 -85 -86 -85s-85 38 -85 85c0 49 35 86 85 86s86 -36 86 -86zM366 818c0 23 -15 37 -36 37s-36 -17 -36 -37
c0 -19 15 -37 36 -37s36 18 36 37z" />
    <glyph glyph-name="aringacute" unicode="&#x1fb;" 
d="M304 777h-99l45 147h165zM375 0l-7 47c-49 -32 -79 -62 -162 -62c-95 0 -181 57 -181 167c0 113 88 152 185 166l70 10c44 6 80 10 80 43c0 43 -55 48 -79 48c-54 0 -91 -20 -91 -65h-136c9 172 173 179 221 179c141 0 235 -41 235 -195v-224c0 -53 4 -87 17 -110l3 -4
h-155zM364 168v80c-14 -5 -23 -9 -36 -12c-41 -11 -154 -12 -154 -79c0 -43 39 -56 69 -56c11 0 83 1 121 67zM379 662c0 -56 -42 -96 -98 -96c-55 0 -97 42 -97 97c0 56 44 95 99 95c54 0 96 -42 96 -96zM319 663c0 22 -16 38 -38 38s-37 -18 -37 -39s15 -38 37 -38
c23 0 38 17 38 39z" />
    <glyph glyph-name="AEacute" unicode="&#x1fc;" horiz-adv-x="958" 
d="M565 129h358v-129h-514v152h-183l-63 -152h-167l313 706h614v-135h-358v-138h330v-127h-330v-177zM277 274h132v318zM517 771l22 124h166l-94 -124h-94z" />
    <glyph glyph-name="aeacute" unicode="&#x1fd;" horiz-adv-x="917" 
d="M888 218h-364c7 -65 48 -110 115 -110c40 0 75 18 94 54l149 -10c-51 -120 -140 -165 -249 -165c-78 0 -142 27 -197 82c-50 -60 -127 -84 -203 -84c-112 0 -200 55 -200 175c0 164 170 165 270 165h70c0 63 -22 92 -87 92c-51 0 -77 -12 -93 -62h-135
c16 140 113 176 239 176c59 0 122 -15 168 -54c49 39 106 56 168 56c184 0 255 -150 255 -315zM524 329h209c-1 53 -51 90 -101 90c-55 0 -96 -33 -108 -90zM374 218h-60c-64 0 -133 -3 -133 -58c0 -45 37 -61 76 -61c73 0 117 46 117 119zM506 589h-99l45 147h165z" />
    <glyph glyph-name="Oslashacute" unicode="&#x1fe;" horiz-adv-x="771" 
d="M663 745l49 -41l-70 -86c66 -82 94 -162 94 -268c0 -209 -140 -366 -352 -366c-74 0 -150 17 -209 64l-65 -76l-51 41l67 81c-63 68 -90 170 -90 261c0 213 131 367 350 367c74 0 145 -18 206 -61zM229 219l270 327c-32 28 -70 43 -113 43c-127 0 -184 -118 -184 -230
c0 -52 7 -92 27 -140zM539 492l-271 -329c33 -29 72 -44 115 -44c134 0 185 112 185 231c0 51 -5 96 -29 142zM324 771l22 124h166l-94 -124h-94z" />
    <glyph glyph-name="oslashacute" unicode="&#x1ff;" horiz-adv-x="583" 
d="M511 556l43 -38l-59 -67c44 -55 65 -121 65 -191c0 -161 -112 -275 -274 -275c-65 0 -106 16 -159 50l-59 -67l-43 38l60 69c-44 44 -63 117 -63 178c0 167 101 281 271 281c58 0 110 -13 158 -45zM177 180l189 214c-23 16 -48 24 -76 24c-91 0 -125 -77 -125 -158
c0 -25 3 -56 12 -80zM402 346l-190 -215c24 -20 47 -27 78 -27c89 0 126 77 126 155c0 31 -5 60 -14 87zM325 589h-99l45 147h165z" />
    <glyph glyph-name="uni021A" unicode="&#x21a;" horiz-adv-x="583" 
d="M370 575v-575h-158v575h-211v131h580v-131h-211zM243 -37h103v-100c0 -59 -53 -106 -110 -118v44c34 11 51 37 55 67h-48v107z" />
    <glyph glyph-name="uni021B" unicode="&#x21b;" horiz-adv-x="354" 
d="M323 406h-91v-233c0 -43 8 -60 56 -60c15 0 25 1 40 2v-114c-51 -6 -78 -7 -101 -7c-121 0 -142 58 -142 162v250h-74v112h74v153h147v-153h91v-112zM149 -37h103v-100c0 -59 -53 -106 -110 -118v44c34 11 51 37 55 67h-48v107z" />
    <glyph glyph-name="Wgrave" unicode="&#x1e80;" horiz-adv-x="896" 
d="M738 706h156l-199 -706h-148l-100 478l-102 -478h-146l-198 706h160l112 -473l98 473h152l100 -473zM414 771l-88 124h162l22 -124h-96z" />
    <glyph glyph-name="wgrave" unicode="&#x1e81;" horiz-adv-x="750" 
d="M599 518h150l-150 -518h-137l-87 350l-86 -350h-139l-151 518h151l79 -324l81 324h130l80 -324zM443 589h-98l-122 147h171z" />
    <glyph glyph-name="Wacute" unicode="&#x1e82;" horiz-adv-x="896" 
d="M738 706h156l-199 -706h-148l-100 478l-102 -478h-146l-198 706h160l112 -473l98 473h152l100 -473zM380 771l22 124h166l-94 -124h-94z" />
    <glyph glyph-name="wacute" unicode="&#x1e83;" horiz-adv-x="750" 
d="M599 518h150l-150 -518h-137l-87 350l-86 -350h-139l-151 518h151l79 -324l81 324h130l80 -324zM404 589h-99l45 147h165z" />
    <glyph glyph-name="Wdieresis" unicode="&#x1e84;" horiz-adv-x="896" 
d="M738 706h156l-199 -706h-148l-100 478l-102 -478h-146l-198 706h160l112 -473l98 473h152l100 -473zM630 771h-130v124h130v-124zM266 771v124h130v-124h-130z" />
    <glyph glyph-name="wdieresis" unicode="&#x1e85;" horiz-adv-x="750" 
d="M599 518h150l-150 -518h-137l-87 350l-86 -350h-139l-151 518h151l79 -324l81 324h130l80 -324zM553 718v-129h-137v129h137zM334 718v-129h-138v129h138z" />
    <glyph glyph-name="Ygrave" unicode="&#x1ef2;" horiz-adv-x="625" 
d="M454 706h175l-238 -443v-263h-158v263l-238 443h176l139 -288zM273 771l-88 124h162l22 -124h-96z" />
    <glyph glyph-name="ygrave" unicode="&#x1ef3;" horiz-adv-x="500" 
d="M342 518h156l-171 -514c-9 -28 -27 -85 -49 -112c-38 -48 -97 -51 -189 -51c-16 0 -35 2 -39 2v116h49c59 0 74 31 74 65c0 21 -7 36 -21 74l-150 420h160l94 -349zM317 589h-98l-122 147h171z" />
    <glyph glyph-name="uniF6C1" unicode="&#xf6c1;" horiz-adv-x="667" 
d="M615 499l-157 -12c-5 75 -50 108 -137 108c-71 0 -111 -25 -111 -72c0 -48 47 -61 118 -77l92 -21c59 -13 206 -47 206 -215c0 -84 -41 -216 -269 -225l-19 -35c3 0 17 0 24 -1c47 -4 83 -36 83 -86c0 -60 -49 -100 -116 -100c-39 0 -75 8 -100 31l36 51
c18 -19 39 -24 60 -24c27 0 44 17 44 40c0 25 -17 40 -47 40c-15 0 -27 -3 -43 -12l-21 27l40 69c-146 7 -264 66 -271 239l159 9c1 -79 57 -116 151 -116c42 0 126 9 126 82c0 58 -65 73 -137 89l-50 11c-137 30 -226 82 -226 211c0 193 194 213 284 213
c167 0 274 -80 281 -224z" />
    <glyph glyph-name="uniF6C2" unicode="&#xf6c2;" horiz-adv-x="521" 
d="M22 177l140 5c9 -67 44 -86 110 -86c32 0 74 7 74 48c0 93 -308 18 -308 225c0 122 111 164 216 164c114 0 221 -49 227 -176l-138 -7c-3 55 -48 75 -91 75c-28 0 -72 -5 -72 -44c0 -79 316 -17 316 -222c0 -123 -101 -166 -205 -173l-18 -35c3 0 17 0 24 -1
c46 -4 81 -35 81 -85c0 -59 -48 -98 -114 -98c-38 0 -73 8 -98 30l35 51c18 -19 39 -24 59 -24c27 0 43 17 43 39c0 25 -16 40 -46 40c-14 0 -26 -3 -42 -12l-20 26l40 69c-103 8 -213 59 -213 185v6z" />
    <glyph glyph-name="amacron.sc" horiz-adv-x="565" 
d="M198 529h172l195 -529h-159l-32 98h-184l-31 -98h-158zM282 395l-58 -183h116zM446 677v-88h-326v88h326z" />
    <glyph glyph-name="abreve.sc" horiz-adv-x="565" 
d="M198 529h172l195 -529h-159l-32 98h-184l-31 -98h-158zM282 395l-58 -183h116zM353 736h74c-7 -84 -53 -152 -145 -152c-95 0 -134 67 -142 152h75c3 -35 32 -64 67 -64c37 0 66 29 71 64z" />
    <glyph glyph-name="aogonek.sc" horiz-adv-x="565" 
d="M441 0h-35l-32 98h-184l-31 -98h-158l197 529h172l195 -529h-21c-15 -21 -45 -64 -45 -86c0 -23 22 -28 37 -28c11 0 23 1 31 2v-104c-17 -1 -29 -2 -46 -2c-80 0 -136 22 -136 92c0 43 25 84 56 126zM282 395l-58 -183h116z" />
    <glyph glyph-name="cacute.sc" horiz-adv-x="581" 
d="M560 361l-160 -9c-10 48 -41 75 -94 75c-100 0 -123 -82 -123 -165c0 -72 28 -159 122 -159c62 0 93 36 102 91l157 -10c-15 -145 -124 -197 -261 -197c-182 0 -278 102 -278 277c0 174 94 279 275 279c125 0 243 -50 260 -182zM331 589h-99l45 147h165z" />
    <glyph glyph-name="ccircumflex.sc" horiz-adv-x="581" 
d="M472 589h-112l-49 81l-51 -81h-112l95 147h141zM560 361l-160 -9c-10 48 -41 75 -94 75c-100 0 -123 -82 -123 -165c0 -72 28 -159 122 -159c62 0 93 36 102 91l157 -10c-15 -145 -124 -197 -261 -197c-182 0 -278 102 -278 277c0 174 94 279 275 279
c125 0 243 -50 260 -182z" />
    <glyph glyph-name="cdotaccent.sc" horiz-adv-x="581" 
d="M560 361l-160 -9c-10 48 -41 75 -94 75c-100 0 -123 -82 -123 -165c0 -72 28 -159 122 -159c62 0 93 36 102 91l157 -10c-15 -145 -124 -197 -261 -197c-182 0 -278 102 -278 277c0 174 94 279 275 279c125 0 243 -50 260 -182zM375 718v-129h-139v129h139z" />
    <glyph glyph-name="ccaron.sc" horiz-adv-x="581" 
d="M560 361l-160 -9c-10 48 -41 75 -94 75c-100 0 -123 -82 -123 -165c0 -72 28 -159 122 -159c62 0 93 36 102 91l157 -10c-15 -145 -124 -197 -261 -197c-182 0 -278 102 -278 277c0 174 94 279 275 279c125 0 243 -50 260 -182zM148 736h111l49 -83l51 83h113l-95 -147
h-141z" />
    <glyph glyph-name="dcaron.sc" horiz-adv-x="570" 
d="M52 529h216c47 0 94 -5 138 -23c100 -41 139 -129 139 -239c0 -115 -52 -218 -158 -251c-45 -14 -96 -16 -143 -16h-192v529zM206 411v-293h40c25 0 56 3 79 12c53 21 64 75 64 131c0 60 -13 107 -51 131c-18 13 -46 19 -81 19h-51zM106 736h111l49 -83l51 83h113
l-95 -147h-141z" />
    <glyph glyph-name="dcroat.sc" horiz-adv-x="570" 
d="M52 229h-52v90h52v210h216c47 0 88 -4 132 -21c104 -41 145 -135 145 -241c0 -90 -34 -181 -113 -230c-55 -34 -125 -37 -188 -37h-192v229zM206 319h104v-90h-104v-111h40c28 0 61 2 86 14c46 23 57 83 57 129c0 67 -15 118 -66 139c-18 7 -39 11 -66 11h-51v-92z" />
    <glyph glyph-name="emacron.sc" horiz-adv-x="513" 
d="M52 529h425v-116h-273v-82h242v-112h-242v-102h278v-117h-430v529zM426 677v-88h-326v88h326z" />
    <glyph glyph-name="ebreve.sc" horiz-adv-x="513" 
d="M52 529h425v-116h-273v-82h242v-112h-242v-102h278v-117h-430v529zM337 736h74c-7 -84 -53 -152 -145 -152c-95 0 -134 67 -142 152h75c3 -35 32 -64 67 -64c37 0 66 29 71 64z" />
    <glyph glyph-name="edotaccent.sc" horiz-adv-x="513" 
d="M52 529h425v-116h-273v-82h242v-112h-242v-102h278v-117h-430v529zM342 718v-129h-139v129h139z" />
    <glyph glyph-name="eogonek.sc" horiz-adv-x="513" 
d="M354 0h-302v529h425v-116h-273v-82h242v-112h-242v-102h278v-117h-25c-15 -21 -45 -64 -45 -86c0 -23 22 -28 37 -28c11 0 23 1 31 2v-104c-17 -1 -29 -2 -46 -2c-80 0 -136 22 -136 92c0 43 25 84 56 126z" />
    <glyph glyph-name="ecaron.sc" horiz-adv-x="513" 
d="M52 529h425v-116h-273v-82h242v-112h-242v-102h278v-117h-430v529zM109 736h111l49 -83l51 83h113l-95 -147h-141z" />
    <glyph glyph-name="gcircumflex.sc" horiz-adv-x="599" 
d="M555 0h-106l-5 46c-44 -42 -95 -59 -159 -59c-167 0 -260 121 -260 273c0 173 109 282 289 282c106 0 212 -44 241 -156l-157 -10c-14 32 -52 46 -88 46c-95 0 -133 -75 -133 -156c0 -77 38 -158 129 -158c75 0 109 34 109 83h-126v115h266v-306zM477 589h-112l-49 81
l-51 -81h-112l95 147h141z" />
    <glyph glyph-name="gbreve.sc" horiz-adv-x="599" 
d="M555 0h-106l-5 46c-44 -42 -95 -59 -159 -59c-167 0 -260 121 -260 273c0 173 109 282 289 282c106 0 212 -44 241 -156l-157 -10c-14 32 -52 46 -88 46c-95 0 -133 -75 -133 -156c0 -77 38 -158 129 -158c75 0 109 34 109 83h-126v115h266v-306zM380 736h74
c-7 -84 -53 -152 -145 -152c-95 0 -134 67 -142 152h75c3 -35 32 -64 67 -64c37 0 66 29 71 64z" />
    <glyph glyph-name="gdotaccent.sc" horiz-adv-x="599" 
d="M555 0h-106l-5 46c-44 -42 -95 -59 -159 -59c-167 0 -260 121 -260 273c0 173 109 282 289 282c106 0 212 -44 241 -156l-157 -10c-14 32 -52 46 -88 46c-95 0 -133 -75 -133 -156c0 -77 38 -158 129 -158c75 0 109 34 109 83h-126v115h266v-306zM385 718v-129h-139v129
h139z" />
    <glyph glyph-name="hbar.sc" horiz-adv-x="582" 
d="M562 378h-32v-378h-153v218h-173v-218h-153v378h-31v88h31v63h153v-63h173v63h153v-63h32v-88zM204 335h173v43h-173v-43z" />
    <glyph glyph-name="hcircumflex.sc" horiz-adv-x="582" 
d="M52 529h152v-194h173v194h153v-529h-153v218h-173v-218h-152v529zM453 589h-112l-49 81l-51 -81h-112l95 147h141z" />
    <glyph glyph-name="itilde.sc" horiz-adv-x="256" 
d="M204 529v-529h-152v529h152zM281 736v-35c0 -49 -3 -114 -67 -114c-49 0 -109 45 -140 45c-23 0 -25 -26 -25 -43h-71v48c0 47 22 101 77 101c47 0 100 -42 131 -42c21 0 26 23 27 40h68z" />
    <glyph glyph-name="imacron.sc" horiz-adv-x="256" 
d="M204 529v-529h-152v529h152zM292 677v-88h-326v88h326z" />
    <glyph glyph-name="ibreve.sc" horiz-adv-x="256" 
d="M204 529v-529h-152v529h152zM199 736h74c-7 -84 -53 -152 -145 -152c-95 0 -134 67 -142 152h75c3 -35 32 -64 67 -64c37 0 66 29 71 64z" />
    <glyph glyph-name="iogonek.sc" horiz-adv-x="256" 
d="M95 0h-36v529h152v-529h-13c-15 -21 -45 -64 -45 -86c0 -23 22 -28 37 -28c11 0 23 1 31 2v-104c-17 -1 -29 -2 -46 -2c-80 0 -136 22 -136 92c0 43 25 84 56 126z" />
    <glyph glyph-name="idotaccent.sc" horiz-adv-x="256" 
d="M204 529v-529h-152v529h152zM197 718v-129h-139v129h139z" />
    <glyph glyph-name="ij.sc" horiz-adv-x="706" 
d="M204 529v-529h-152v529h152zM655 529v-366c0 -126 -75 -176 -206 -176c-127 0 -185 67 -185 191v24h146v-38c0 -33 9 -63 46 -63c36 0 47 23 47 60v368h152z" />
    <glyph glyph-name="jcircumflex.sc" horiz-adv-x="450" 
d="M399 529v-366c0 -126 -75 -176 -206 -176c-127 0 -185 67 -185 191v24h146v-38c0 -33 9 -63 46 -63c36 0 47 23 47 60v368h152zM486 589h-112l-49 81l-51 -81h-112l95 147h141z" />
    <glyph glyph-name="lacute.sc" horiz-adv-x="453" 
d="M206 529v-412h234v-117h-388v529h154zM178 589h-99l45 147h165z" />
    <glyph glyph-name="lcaron.sc" horiz-adv-x="453" 
d="M206 529v-412h234v-117h-388v529h154zM266 545h103v-100c0 -59 -53 -106 -110 -118v44c34 11 51 37 55 67h-48v107z" />
    <glyph glyph-name="ldot.sc" horiz-adv-x="453" 
d="M206 529v-412h234v-117h-388v529h154zM424 367v-132h-136v132h136z" />
    <glyph glyph-name="nacute.sc" horiz-adv-x="582" 
d="M385 529h145v-529h-140l-198 300c3 -59 5 -210 5 -300h-145v530h138l200 -301c-3 100 -5 213 -5 300zM330 589h-99l45 147h165z" />
    <glyph glyph-name="ncaron.sc" horiz-adv-x="582" 
d="M385 529h145v-529h-140l-198 300c3 -59 5 -210 5 -300h-145v530h138l200 -301c-3 100 -5 213 -5 300zM140 736h111l49 -83l51 83h113l-95 -147h-141z" />
    <glyph glyph-name="eng.sc" horiz-adv-x="582" 
d="M386 6l-194 297c1 -59 5 -182 5 -303h-145v529h138l200 -305c-3 102 -4 204 -5 305h145v-533c0 -104 -34 -169 -152 -169h-68v122h26c36 0 50 17 50 45v12z" />
    <glyph glyph-name="omacron.sc" horiz-adv-x="621" 
d="M25 263c0 189 130 279 288 279c185 0 283 -113 283 -286c0 -168 -111 -269 -285 -269c-173 0 -286 109 -286 276zM443 262c0 86 -40 159 -130 159c-99 0 -133 -76 -133 -157c0 -79 34 -155 130 -155c93 0 133 69 133 153zM487 677v-88h-326v88h326z" />
    <glyph glyph-name="obreve.sc" horiz-adv-x="621" 
d="M25 263c0 189 130 279 288 279c185 0 283 -113 283 -286c0 -168 -111 -269 -285 -269c-173 0 -286 109 -286 276zM443 262c0 86 -40 159 -130 159c-99 0 -133 -76 -133 -157c0 -79 34 -155 130 -155c93 0 133 69 133 153zM393 736h74c-7 -84 -53 -152 -145 -152
c-95 0 -134 67 -142 152h75c3 -35 32 -64 67 -64c37 0 66 29 71 64z" />
    <glyph glyph-name="ohungarumlaut.sc" horiz-adv-x="621" 
d="M25 263c0 189 130 279 288 279c185 0 283 -113 283 -286c0 -168 -111 -269 -285 -269c-173 0 -286 109 -286 276zM443 262c0 86 -40 159 -130 159c-99 0 -133 -76 -133 -157c0 -79 34 -155 130 -155c93 0 133 69 133 153zM347 589l47 147h157l-111 -147h-93zM165 589
l46 147h157l-110 -147h-93z" />
    <glyph glyph-name="racute.sc" horiz-adv-x="560" 
d="M52 529h216c60 0 116 -1 161 -16c52 -17 86 -56 86 -126c0 -69 -35 -109 -100 -129c67 -17 85 -44 96 -112c8 -48 11 -103 37 -146h-162c-9 19 -16 44 -21 72c-16 87 -21 117 -105 117h-54v-189h-154v529zM206 414v-110h73c44 0 87 6 87 57c0 44 -35 53 -78 53h-82z
M300 589h-99l45 147h165z" />
    <glyph glyph-name="rcaron.sc" horiz-adv-x="560" 
d="M52 529h216c60 0 116 -1 161 -16c52 -17 86 -56 86 -126c0 -69 -35 -109 -100 -129c67 -17 85 -44 96 -112c8 -48 11 -103 37 -146h-162c-9 19 -16 44 -21 72c-16 87 -21 117 -105 117h-54v-189h-154v529zM206 414v-110h73c44 0 87 6 87 57c0 44 -35 53 -78 53h-82z
M111 736h111l49 -83l51 83h113l-95 -147h-141z" />
    <glyph glyph-name="sacute.sc" horiz-adv-x="523" 
d="M495 380l-141 -11c-8 47 -47 64 -100 64c-49 0 -71 -18 -71 -46c0 -27 29 -38 66 -45l89 -17c81 -15 168 -56 168 -162c0 -136 -128 -176 -239 -176c-128 0 -245 40 -254 186l143 9c9 -58 45 -82 108 -82c66 0 92 19 92 47c0 30 -21 43 -58 51l-98 22
c-85 19 -166 51 -166 153c0 128 127 169 226 169c110 0 221 -33 235 -162zM304 589h-99l45 147h165z" />
    <glyph glyph-name="scircumflex.sc" horiz-adv-x="523" 
d="M495 380l-141 -11c-8 47 -47 64 -100 64c-49 0 -71 -18 -71 -46c0 -27 29 -38 66 -45l89 -17c81 -15 168 -56 168 -162c0 -136 -128 -176 -239 -176c-128 0 -245 40 -254 186l143 9c9 -58 45 -82 108 -82c66 0 92 19 92 47c0 30 -21 43 -58 51l-98 22
c-85 19 -166 51 -166 153c0 128 127 169 226 169c110 0 221 -33 235 -162zM436 589h-112l-49 81l-51 -81h-112l95 147h141z" />
    <glyph glyph-name="tcaron.sc" horiz-adv-x="493" 
d="M18 529h457v-117h-154v-412h-153v412h-150v117zM89 736h111l49 -83l51 83h113l-95 -147h-141z" />
    <glyph glyph-name="tbar.sc" horiz-adv-x="493" 
d="M423 244h-102v-244h-153v244h-100v92h100v76h-150v117h457v-117h-154v-76h102v-92z" />
    <glyph glyph-name="utilde.sc" horiz-adv-x="582" 
d="M206 529v-341c0 -52 24 -83 86 -83c68 0 85 35 85 81v343h154v-328c0 -157 -98 -214 -233 -214c-127 0 -247 39 -247 212v330h155zM447 736v-35c0 -49 -3 -114 -67 -114c-49 0 -109 45 -140 45c-23 0 -25 -26 -25 -43h-71v48c0 47 22 101 77 101c47 0 100 -42 131 -42
c21 0 26 23 27 40h68z" />
    <glyph glyph-name="umacron.sc" horiz-adv-x="582" 
d="M206 529v-341c0 -52 24 -83 86 -83c68 0 85 35 85 81v343h154v-328c0 -157 -98 -214 -233 -214c-127 0 -247 39 -247 212v330h155zM457 677v-88h-326v88h326z" />
    <glyph glyph-name="ubreve.sc" horiz-adv-x="582" 
d="M206 529v-341c0 -52 24 -83 86 -83c68 0 85 35 85 81v343h154v-328c0 -157 -98 -214 -233 -214c-127 0 -247 39 -247 212v330h155zM362 736h74c-7 -84 -53 -152 -145 -152c-95 0 -134 67 -142 152h75c3 -35 32 -64 67 -64c37 0 66 29 71 64z" />
    <glyph glyph-name="uring.sc" horiz-adv-x="582" 
d="M206 529v-341c0 -52 24 -83 86 -83c68 0 85 35 85 81v343h154v-328c0 -157 -98 -214 -233 -214c-127 0 -247 39 -247 212v330h155zM390 662c0 -57 -43 -96 -98 -96s-97 42 -97 97c0 56 44 95 99 95c54 0 96 -42 96 -96zM330 663c0 24 -18 38 -38 38
c-22 0 -37 -18 -37 -39s15 -38 37 -38c23 0 38 17 38 39z" />
    <glyph glyph-name="uhungarumlaut.sc" horiz-adv-x="582" 
d="M206 529v-341c0 -52 24 -83 86 -83c68 0 85 35 85 81v343h154v-328c0 -157 -98 -214 -233 -214c-127 0 -247 39 -247 212v330h155zM315 589l47 147h157l-111 -147h-93zM133 589l46 147h157l-110 -147h-93z" />
    <glyph glyph-name="uogonek.sc" horiz-adv-x="582" 
d="M206 529v-341c0 -52 24 -83 86 -83c68 0 85 35 85 81v343h154v-328c0 -138 -76 -198 -185 -211c-16 -22 -38 -57 -38 -76c0 -23 22 -28 37 -28c11 0 23 1 31 2v-104c-17 -1 -29 -2 -46 -2c-80 0 -136 22 -136 92c0 40 21 78 48 116c-104 11 -191 61 -191 209v330h155z
" />
    <glyph glyph-name="wacute.sc" horiz-adv-x="745" 
d="M306 529h135l76 -310l73 310h155l-147 -529h-140l-84 328l-82 -328h-143l-149 529h154l76 -320zM402 589h-99l45 147h165z" />
    <glyph glyph-name="wcircumflex.sc" horiz-adv-x="745" 
d="M306 529h135l76 -310l73 310h155l-147 -529h-140l-84 328l-82 -328h-143l-149 529h154l76 -320zM538 589h-112l-49 81l-51 -81h-112l95 147h141z" />
    <glyph glyph-name="wdieresis.sc" horiz-adv-x="745" 
d="M306 529h135l76 -310l73 310h155l-147 -529h-140l-84 328l-82 -328h-143l-149 529h154l76 -320zM555 718v-129h-137v129h137zM336 718v-129h-138v129h138z" />
    <glyph glyph-name="wgrave.sc" horiz-adv-x="745" 
d="M306 529h135l76 -310l73 310h155l-147 -529h-140l-84 328l-82 -328h-143l-149 529h154l76 -320zM444 589h-98l-122 147h171z" />
    <glyph glyph-name="ycircumflex.sc" horiz-adv-x="523" 
d="M416 589h-112l-49 81l-51 -81h-112l95 147h141zM168 529l91 -193l94 193h168l-189 -332v-197h-153v200l-177 329h166z" />
    <glyph glyph-name="ygrave.sc" horiz-adv-x="523" 
d="M168 529l91 -193l94 193h168l-189 -332v-197h-153v200l-177 329h166zM327 589h-98l-122 147h171z" />
    <glyph glyph-name="zacute.sc" horiz-adv-x="514" 
d="M44 529h447v-110l-274 -304h273v-115h-471v102l278 309h-253v118zM300 589h-99l45 147h165z" />
    <glyph glyph-name="zdotaccent.sc" horiz-adv-x="514" 
d="M44 529h447v-110l-274 -304h273v-115h-471v102l278 309h-253v118zM344 718v-129h-139v129h139z" />
    <glyph glyph-name="aringacute.sc" horiz-adv-x="565" 
d="M198 529h172l195 -529h-159l-32 98h-184l-31 -98h-158zM282 395l-58 -183h116zM304 777h-99l45 147h165zM379 662c0 -56 -42 -96 -98 -96c-55 0 -97 42 -97 97c0 56 44 95 99 95c54 0 96 -42 96 -96zM319 663c0 22 -16 38 -38 38s-37 -18 -37 -39s15 -38 37 -38
c23 0 38 17 38 39z" />
    <glyph glyph-name="aeacute.sc" horiz-adv-x="768" 
d="M229 529h503v-117h-250v-80h220v-112h-220v-103h255v-117h-402v96h-133l-43 -96h-172zM334 418l-88 -208h88v208zM499 589h-99l45 147h165z" />
    <glyph glyph-name="oslashacute.sc" horiz-adv-x="621" 
d="M579 513l-51 -54c45 -50 68 -119 68 -203c0 -168 -111 -269 -285 -269c-71 0 -131 18 -178 50l-51 -54l-43 38l51 55c-42 47 -65 111 -65 187c0 189 130 279 288 279c70 0 127 -16 172 -46l51 55zM447 262c0 33 -6 65 -19 91l-204 -219c20 -18 49 -28 86 -28
c96 0 137 70 137 156zM176 264c0 -29 4 -57 14 -82l203 217c-20 16 -47 26 -80 26c-102 0 -137 -78 -137 -161zM348 589h-99l45 147h165z" />
    <glyph glyph-name="Amacron.sc" horiz-adv-x="565" 
d="M198 529h172l195 -529h-159l-32 98h-184l-31 -98h-158zM282 395l-58 -183h116zM446 677v-88h-326v88h326z" />
    <glyph glyph-name="Abreve.sc" horiz-adv-x="565" 
d="M198 529h172l195 -529h-159l-32 98h-184l-31 -98h-158zM282 395l-58 -183h116zM353 736h74c-7 -84 -53 -152 -145 -152c-95 0 -134 67 -142 152h75c3 -35 32 -64 67 -64c37 0 66 29 71 64z" />
    <glyph glyph-name="Aogonek.sc" horiz-adv-x="565" 
d="M441 0h-35l-32 98h-184l-31 -98h-158l197 529h172l195 -529h-21c-15 -21 -45 -64 -45 -86c0 -23 22 -28 37 -28c11 0 23 1 31 2v-104c-17 -1 -29 -2 -46 -2c-80 0 -136 22 -136 92c0 43 25 84 56 126zM282 395l-58 -183h116z" />
    <glyph glyph-name="Cacute.sc" horiz-adv-x="581" 
d="M560 361l-160 -9c-10 48 -41 75 -94 75c-100 0 -123 -82 -123 -165c0 -72 28 -159 122 -159c62 0 93 36 102 91l157 -10c-15 -145 -124 -197 -261 -197c-182 0 -278 102 -278 277c0 174 94 279 275 279c125 0 243 -50 260 -182zM331 589h-99l45 147h165z" />
    <glyph glyph-name="Ccircumflex.sc" horiz-adv-x="581" 
d="M472 589h-112l-49 81l-51 -81h-112l95 147h141zM560 361l-160 -9c-10 48 -41 75 -94 75c-100 0 -123 -82 -123 -165c0 -72 28 -159 122 -159c62 0 93 36 102 91l157 -10c-15 -145 -124 -197 -261 -197c-182 0 -278 102 -278 277c0 174 94 279 275 279
c125 0 243 -50 260 -182z" />
    <glyph glyph-name="Cdotaccent.sc" horiz-adv-x="581" 
d="M560 361l-160 -9c-10 48 -41 75 -94 75c-100 0 -123 -82 -123 -165c0 -72 28 -159 122 -159c62 0 93 36 102 91l157 -10c-15 -145 -124 -197 -261 -197c-182 0 -278 102 -278 277c0 174 94 279 275 279c125 0 243 -50 260 -182zM375 718v-129h-139v129h139z" />
    <glyph glyph-name="Ccaron.sc" horiz-adv-x="581" 
d="M560 361l-160 -9c-10 48 -41 75 -94 75c-100 0 -123 -82 -123 -165c0 -72 28 -159 122 -159c62 0 93 36 102 91l157 -10c-15 -145 -124 -197 -261 -197c-182 0 -278 102 -278 277c0 174 94 279 275 279c125 0 243 -50 260 -182zM148 736h111l49 -83l51 83h113l-95 -147
h-141z" />
    <glyph glyph-name="Dcaron.sc" horiz-adv-x="570" 
d="M52 529h216c47 0 94 -5 138 -23c100 -41 139 -129 139 -239c0 -115 -52 -218 -158 -251c-45 -14 -96 -16 -143 -16h-192v529zM206 411v-293h40c25 0 56 3 79 12c53 21 64 75 64 131c0 60 -13 107 -51 131c-18 13 -46 19 -81 19h-51zM106 736h111l49 -83l51 83h113
l-95 -147h-141z" />
    <glyph glyph-name="Dcroat.sc" horiz-adv-x="570" 
d="M52 229h-52v90h52v210h216c47 0 88 -4 132 -21c104 -41 145 -135 145 -241c0 -90 -34 -181 -113 -230c-55 -34 -125 -37 -188 -37h-192v229zM206 319h104v-90h-104v-111h40c28 0 61 2 86 14c46 23 57 83 57 129c0 67 -15 118 -66 139c-18 7 -39 11 -66 11h-51v-92z" />
    <glyph glyph-name="Emacron.sc" horiz-adv-x="513" 
d="M52 529h425v-116h-273v-82h242v-112h-242v-102h278v-117h-430v529zM426 677v-88h-326v88h326z" />
    <glyph glyph-name="Ebreve.sc" horiz-adv-x="513" 
d="M52 529h425v-116h-273v-82h242v-112h-242v-102h278v-117h-430v529zM337 736h74c-7 -84 -53 -152 -145 -152c-95 0 -134 67 -142 152h75c3 -35 32 -64 67 -64c37 0 66 29 71 64z" />
    <glyph glyph-name="Edotaccent.sc" horiz-adv-x="513" 
d="M52 529h425v-116h-273v-82h242v-112h-242v-102h278v-117h-430v529zM342 718v-129h-139v129h139z" />
    <glyph glyph-name="Eogonek.sc" horiz-adv-x="513" 
d="M354 0h-302v529h425v-116h-273v-82h242v-112h-242v-102h278v-117h-25c-15 -21 -45 -64 -45 -86c0 -23 22 -28 37 -28c11 0 23 1 31 2v-104c-17 -1 -29 -2 -46 -2c-80 0 -136 22 -136 92c0 43 25 84 56 126z" />
    <glyph glyph-name="Ecaron.sc" horiz-adv-x="513" 
d="M52 529h425v-116h-273v-82h242v-112h-242v-102h278v-117h-430v529zM109 736h111l49 -83l51 83h113l-95 -147h-141z" />
    <glyph glyph-name="Gcircumflex.sc" horiz-adv-x="599" 
d="M555 0h-106l-5 46c-44 -42 -95 -59 -159 -59c-167 0 -260 121 -260 273c0 173 109 282 289 282c106 0 212 -44 241 -156l-157 -10c-14 32 -52 46 -88 46c-95 0 -133 -75 -133 -156c0 -77 38 -158 129 -158c75 0 109 34 109 83h-126v115h266v-306zM477 589h-112l-49 81
l-51 -81h-112l95 147h141z" />
    <glyph glyph-name="Gbreve.sc" horiz-adv-x="599" 
d="M555 0h-106l-5 46c-44 -42 -95 -59 -159 -59c-167 0 -260 121 -260 273c0 173 109 282 289 282c106 0 212 -44 241 -156l-157 -10c-14 32 -52 46 -88 46c-95 0 -133 -75 -133 -156c0 -77 38 -158 129 -158c75 0 109 34 109 83h-126v115h266v-306zM380 736h74
c-7 -84 -53 -152 -145 -152c-95 0 -134 67 -142 152h75c3 -35 32 -64 67 -64c37 0 66 29 71 64z" />
    <glyph glyph-name="Gdotaccent.sc" horiz-adv-x="599" 
d="M555 0h-106l-5 46c-44 -42 -95 -59 -159 -59c-167 0 -260 121 -260 273c0 173 109 282 289 282c106 0 212 -44 241 -156l-157 -10c-14 32 -52 46 -88 46c-95 0 -133 -75 -133 -156c0 -77 38 -158 129 -158c75 0 109 34 109 83h-126v115h266v-306zM385 718v-129h-139v129
h139z" />
    <glyph glyph-name="Hbar.sc" horiz-adv-x="582" 
d="M562 378h-32v-378h-153v218h-173v-218h-153v378h-31v88h31v63h153v-63h173v63h153v-63h32v-88zM204 335h173v43h-173v-43z" />
    <glyph glyph-name="Hcircumflex.sc" horiz-adv-x="582" 
d="M52 529h152v-194h173v194h153v-529h-153v218h-173v-218h-152v529zM453 589h-112l-49 81l-51 -81h-112l95 147h141z" />
    <glyph glyph-name="Itilde.sc" horiz-adv-x="256" 
d="M204 529v-529h-152v529h152zM281 736v-35c0 -49 -3 -114 -67 -114c-49 0 -109 45 -140 45c-23 0 -25 -26 -25 -43h-71v48c0 47 22 101 77 101c47 0 100 -42 131 -42c21 0 26 23 27 40h68z" />
    <glyph glyph-name="Imacron.sc" horiz-adv-x="256" 
d="M204 529v-529h-152v529h152zM292 677v-88h-326v88h326z" />
    <glyph glyph-name="Ibreve.sc" horiz-adv-x="256" 
d="M204 529v-529h-152v529h152zM199 736h74c-7 -84 -53 -152 -145 -152c-95 0 -134 67 -142 152h75c3 -35 32 -64 67 -64c37 0 66 29 71 64z" />
    <glyph glyph-name="Iogonek.sc" horiz-adv-x="256" 
d="M95 0h-36v529h152v-529h-13c-15 -21 -45 -64 -45 -86c0 -23 22 -28 37 -28c11 0 23 1 31 2v-104c-17 -1 -29 -2 -46 -2c-80 0 -136 22 -136 92c0 43 25 84 56 126z" />
    <glyph glyph-name="Idotaccent.sc" horiz-adv-x="256" 
d="M204 529v-529h-152v529h152zM197 718v-129h-139v129h139z" />
    <glyph glyph-name="IJ.sc" horiz-adv-x="706" 
d="M204 529v-529h-152v529h152zM655 529v-366c0 -126 -75 -176 -206 -176c-127 0 -185 67 -185 191v24h146v-38c0 -33 9 -63 46 -63c36 0 47 23 47 60v368h152z" />
    <glyph glyph-name="Jcircumflex.sc" horiz-adv-x="450" 
d="M399 529v-366c0 -126 -75 -176 -206 -176c-127 0 -185 67 -185 191v24h146v-38c0 -33 9 -63 46 -63c36 0 47 23 47 60v368h152zM486 589h-112l-49 81l-51 -81h-112l95 147h141z" />
    <glyph glyph-name="Lacute.sc" horiz-adv-x="453" 
d="M206 529v-412h234v-117h-388v529h154zM178 589h-99l45 147h165z" />
    <glyph glyph-name="Lcaron.sc" horiz-adv-x="453" 
d="M206 529v-412h234v-117h-388v529h154zM266 545h103v-100c0 -59 -53 -106 -110 -118v44c34 11 51 37 55 67h-48v107z" />
    <glyph glyph-name="Ldot.sc" horiz-adv-x="453" 
d="M206 529v-412h234v-117h-388v529h154zM424 367v-132h-136v132h136z" />
    <glyph glyph-name="Nacute.sc" horiz-adv-x="582" 
d="M385 529h145v-529h-140l-198 300c3 -59 5 -210 5 -300h-145v530h138l200 -301c-3 100 -5 213 -5 300zM330 589h-99l45 147h165z" />
    </font>
</defs>
</svg>
